<?xml version="1.0" ?><!DOCTYPE svg  PUBLIC '-//W3C//DTD SVG 1.1//EN'  'http://www.w3.org/Graphics/SVG/1.1/DTD/svg11.dtd'><svg enable-background="new 0 0 128 128" height="128px" id="Layer_1" version="1.1" viewBox="0 0 128 128" width="128px" xml:space="preserve" xmlns="http://www.w3.org/2000/svg" xmlns:xlink="http://www.w3.org/1999/xlink"><path d="M73,14.5c-1.2-5.8-6.7-6.7-9.4-6.7c-3.3,0-8.5,0.7-9.4,7.6c-0.7,5.3,1.8,12.1,3.5,14.4  c2,2.5,3.8,3.8,6.3,3.8c2.3,0,3.9-1.1,6-4.2C71.9,26.5,74,19.3,73,14.5z M66.7,27.1c-1.7,2.4-2.3,2.4-2.7,2.4c-0.6,0-1.3,0-3.2-2.3  c-1.1-1.4-3.2-7.2-2.7-11.4c0.3-2.6,1.3-4.1,5.4-4.1c2.2,0,4.9,0.6,5.5,3.5C69.8,18.8,68.2,25,66.7,27.1z" fill="#3B97D3"/><path d="M104.6,40.2c-1.7,0-14.2-1.7-18.2-2.2c-3.3-0.5-15.8-2.2-15.8-2.2L64,43.7l-6.8-7.9c0,0-12.7,1.7-16,2.2  c-4.1,0.5-16.6,2.2-18.3,2.2c-4.2,0-5.3,7.8-0.1,7.8c2.3,0,24.4,1.3,27.8,1.9l1.4,63.4c0,3.1,2.6,5.9,5.7,5.9h12  c3.1,0,5.7-2.7,5.7-5.9l1.5-63.4c3.4-0.6,25.5-1.9,27.8-1.9C109.8,48,108.8,40.2,104.6,40.2z M76.2,46L73,46.6l-1.5,66.7  c0,1.1-0.8,2-1.7,2h-12c-0.9,0-1.7-0.9-1.7-1.9l-1.5-66.8L51.3,46c-3.4-0.6-21-1.6-26.8-1.9c2.5-0.2,7.6-0.9,16.7-2l0.7-0.1  c2.4-0.4,10-1.4,13.7-1.9l8.5,9.8l8.1-9.8c3.7,0.5,11.1,1.5,13.5,1.9l1.1,0.1c8.9,1.2,13.8,1.8,16.2,2C97.1,44.4,79.5,45.4,76.2,46z  " fill="#3B97D3"/><path d="M103.6,104.6c-1.3-0.1-2.6-0.5-3.7-1.2l1.1-2.7c1.2,0.8,2.3,1.2,3.5,1.2c1.8,0,2.6-0.6,2.6-1.8  c0-0.6-0.2-1.2-0.7-1.7c-0.4-0.5-1.3-1.1-2.6-1.7c-1.3-0.6-2.1-1.2-2.6-1.6c-0.5-0.4-0.8-0.9-1-1.5c-0.2-0.6-0.4-1.2-0.4-1.9  c0-1,0.3-2,1-2.8c0.7-0.8,1.5-1.3,2.6-1.6v-2.1h2.6l0,2c1.4,0.1,2.5,0.5,3.2,1l-0.9,2.6c-1.1-0.8-2.2-1.1-3.3-1.1  c-0.7,0-1.2,0.2-1.6,0.6c-0.4,0.4-0.6,0.8-0.6,1.4c0,1,1.1,2,3.2,3c1.1,0.6,1.9,1.1,2.4,1.5c0.5,0.5,0.9,1,1.1,1.6  c0.3,0.6,0.4,1.3,0.4,2.1c0,1.1-0.3,2-1,2.8c-0.7,0.8-1.7,1.4-2.9,1.7v2.6h-2.6V104.6z" fill="#2C3E50"/><path d="M104.9,75.8c-11.3,0-20.5,9.2-20.5,20.5c0,11.3,9.2,20.5,20.5,20.5c11.3,0,20.5-9.2,20.5-20.5  C125.4,84.9,116.2,75.8,104.9,75.8z M104.9,112.8c-9.1,0-16.5-7.4-16.5-16.5s7.4-16.5,16.5-16.5s16.5,7.4,16.5,16.5  S114,112.8,104.9,112.8z" fill="#2C3E50"/><path d="M23,75.8c-11.3,0-20.5,9.2-20.5,20.5c0,11.3,9.2,20.5,20.5,20.5s20.5-9.2,20.5-20.5  C43.5,84.9,34.3,75.8,23,75.8z M23,112.8c-9.1,0-16.5-7.4-16.5-16.5S13.9,79.8,23,79.8s16.5,7.4,16.5,16.5S32.1,112.8,23,112.8z" fill="#2C3E50"/><path d="M35.8,89.7c-0.3-0.5-1-0.7-1.5-0.4L21.3,97l-8-8.2c-0.2-0.2-0.6-0.2-0.8,0c-0.2,0.2-0.2,0.6,0,0.8l8,8.3  c-0.1,0.3-0.1,0.6,0.1,0.9c0.2,0.4,0.6,0.5,1,0.5c0.2,0,0.4-0.1,0.6-0.2l13.2-7.8C35.9,90.9,36.1,90.2,35.8,89.7z" fill="#2C3E50"/><circle cx="23.2" cy="83.2" fill="#2C3E50" r="1"/><circle cx="22.2" cy="107" fill="#2C3E50" r="1"/><circle cx="9.9" cy="94.6" fill="#2C3E50" r="1"/><circle cx="35.6" cy="95.6" fill="#2C3E50" r="1"/><path d="M94.6,76.3l11.5-23l10.4,23.6c1.1,0.7,2.2,1.5,3.2,2.3L107,50.5c0-0.1-0.1-0.1-0.1-0.1  c-0.1-0.1-0.2-0.3-0.4-0.4c-0.5-0.2-1.1,0-1.3,0.4L91.3,78.4C92.3,77.6,93.4,76.9,94.6,76.3z" fill="#2C3E50"/><path d="M12.6,76.3l11.5-23l10.4,23.6c1.1,0.7,2.2,1.5,3.2,2.3L25.1,50.5c0-0.1-0.1-0.1-0.1-0.1  c-0.1-0.1-0.2-0.3-0.4-0.4c-0.5-0.2-1.1,0-1.3,0.4L9.3,78.4C10.4,77.6,11.5,76.9,12.6,76.3z" fill="#2C3E50"/></svg>