<?xml version="1.0" encoding="UTF-8" standalone="no"?>
<!-- Created with Inkscape (http://www.inkscape.org/) -->

<svg
   xmlns:dc="http://purl.org/dc/elements/1.1/"
   xmlns:cc="http://creativecommons.org/ns#"
   xmlns:rdf="http://www.w3.org/1999/02/22-rdf-syntax-ns#"
   xmlns:svg="http://www.w3.org/2000/svg"
   xmlns="http://www.w3.org/2000/svg"
   xmlns:sodipodi="http://sodipodi.sourceforge.net/DTD/sodipodi-0.dtd"
   xmlns:inkscape="http://www.inkscape.org/namespaces/inkscape"
   width="570"
   height="670"
   id="svg2"
   version="1.1"
   inkscape:version="0.48.4 r9939"
   sodipodi:docname="brainguy.svg">
  <defs
     id="defs4" />
  <sodipodi:namedview
     id="base"
     pagecolor="#ffffff"
     bordercolor="#666666"
     borderopacity="1.0"
     inkscape:pageopacity="0.0"
     inkscape:pageshadow="2"
     inkscape:zoom="0.35"
     inkscape:cx="375"
     inkscape:cy="520"
     inkscape:document-units="px"
     inkscape:current-layer="layer1"
     showgrid="false"
     inkscape:window-width="1589"
     inkscape:window-height="872"
     inkscape:window-x="65"
     inkscape:window-y="24"
     inkscape:window-maximized="0" />
  <metadata
     id="metadata7">
    <rdf:RDF>
      <cc:Work
         rdf:about="">
        <dc:format>image/svg+xml</dc:format>
        <dc:type
           rdf:resource="http://purl.org/dc/dcmitype/StillImage" />
        <dc:title></dc:title>
      </cc:Work>
    </rdf:RDF>
  </metadata>
  <g
     inkscape:label="Layer 1"
     inkscape:groupmode="layer"
     id="layer1"
     transform="translate(0,-382.36218)">
    <g
       id="g3142"
       transform="translate(-108.57143,111.42857)">
      <path
         id="path2986"
         d="m 499.98068,751.91733 c 35.14537,8.6423 99.09841,25.35075 122.14455,31.68844 2.30462,0.57616 9.79461,8.06615 15.55615,33.99306 4.03308,16.70846 6.33769,39.17844 6.91384,63.95305 -9.21845,3.45692 -24.19845,8.6423 -46.09228,13.82768 -37.44998,8.64231 -102.55533,19.58922 -201.65374,19.58922 -99.09841,0 -164.77992,-10.37076 -202.2299,-19.58922 -21.89383,-5.18538 -36.87383,-10.37076 -46.09228,-13.82768 0.57615,-24.77461 2.88076,-47.24459 6.91384,-63.95305 5.76153,-25.92691 13.25153,-33.4169 15.55614,-33.99306 23.6223,-6.33769 89.87996,-23.04614 124.44917,-31.11229 1.15231,3.45692 1.72846,6.91384 2.88077,10.37077 21.31768,80.66149 39.17844,137.70069 77.20458,137.70069 h 43.21151 c 27.07922,0 47.24459,-27.65537 67.40997,-92.76072 5.18538,-21.31768 10.37076,-41.48305 13.82768,-55.88689 M 482.11992,723.6858 c 0,0 -29.38383,152.68069 -64.5292,152.68069 h -43.21151 c -31.68845,0 -56.46305,-136.54839 -64.5292,-152.10453 0,0 -112.9261,28.23152 -145.76685,36.87382 -32.2646,8.64231 -39.75459,82.38996 -39.75459,134.81994 0,0 70.86688,41.48305 271.36832,41.48305 200.50143,0 271.36832,-41.48305 271.36832,-41.48305 0,-52.42998 -6.91384,-126.17763 -39.75459,-134.81994 -31.68845,-8.6423 -145.1907,-37.44998 -145.1907,-37.44998 l 0,0 z"
         inkscape:connector-curvature="0"
         style="fill:#2c3e50" />
      <path
         id="path2988"
         d="M 456.19301,649.362 H 336.35307 c -6.91384,0 -9.21845,6.91384 -9.21845,14.40383 v 44.93998 c 0,8.06615 2.30461,15.55615 10.37076,15.55615 h 4.60923 c 0,5.76153 4.60923,11.52307 10.37076,11.52307 h 10.94692 c 2.30461,5.76153 3.45692,9.21846 9.21846,12.67538 v 9.79461 c 0,6.33769 3.45692,10.37076 8.6423,13.25153 l -6.33769,85.27072 h 43.21152 l -6.91384,-85.27072 c 5.18538,-2.30462 8.6423,-6.91384 8.6423,-13.25153 v -9.79461 c 5.76153,-3.45692 7.48999,-6.91385 9.21846,-12.67538 h 11.52307 c 5.76153,0 10.37076,-5.76154 10.37076,-11.52307 h 4.60923 c 8.06615,0 9.79461,-7.49 9.79461,-15.55615 v -44.93998 c 0,-7.48999 -2.30462,-14.40383 -9.21846,-14.40383 z m -2.30461,59.34381 c 0,1.72846 1.72846,4.03308 1.15231,4.03308 h -4.60923 -13.82769 v 10.94691 c 0,0.57616 2.88077,0.57616 2.88077,0.57616 h -10.37076 -7.49 l -2.88077,6.91384 c -4.03307,8.6423 -12.09922,14.40384 -21.89383,14.40384 -9.79461,0 -17.86076,-5.76154 -21.89384,-14.40384 l -3.45692,-6.91384 h -7.49 -10.37076 c 0,0 2.30461,-0.57616 2.30461,-0.57616 v -10.94691 h -13.82768 -4.60923 c 0,0 1.15231,-2.30462 1.15231,-4.03308 v -44.93998 c 0,-1.1523 -0.57616,-2.30461 -0.57616,-2.30461 0,0 -0.57615,-0.57615 -0.57615,-0.57615 h 118.11148 c 0,0 -1.72846,2.30461 -1.72846,2.88076 v 44.93998 z"
         inkscape:connector-curvature="0"
         style="fill:#2c3e50" />
      <g
         transform="translate(8.5714286,88.571429)"
         id="g3107">
        <path
           style="fill:#2c3e50"
           inkscape:connector-curvature="0"
           d="m 382.33543,222.80157 h 0.45344 c -0.45344,-18.13742 -15.41681,-31.74048 -33.55423,-31.74048 -14.96337,0 -27.20613,9.97558 -31.74048,23.12521 -4.53436,-2.72061 -9.97558,-3.62749 -15.87024,-3.62749 -18.59086,0 -33.55423,14.96338 -33.55423,34.00767 0,5.44122 1.36031,10.88245 3.62749,15.4168 -1.36031,0 -2.26718,0 -3.62749,0 -18.59085,0 -33.55423,14.96337 -33.55423,33.55423 0,9.52214 4.08092,18.13742 9.97559,24.03208 -15.87025,6.3481 -26.7527,21.7649 -26.7527,39.90232 0,19.04429 12.6962,35.36797 29.92674,40.8092 -3.62748,6.34809 -5.44122,13.14963 -5.44122,20.85803 0,23.57865 19.04429,43.07637 43.07637,43.07637 4.53435,0 9.06871,-0.90687 13.14963,-1.81374 3.62748,19.95116 21.31147,34.91453 42.1695,34.91453 23.57865,0 43.07637,-19.49772 43.07637,-43.07637 0,-0.45343 0,-1.36031 0,-1.36031 h -1.36031 V 222.80157 z m -9.06871,217.64904 h -1.81374 l 0.45344,10.88245 c 0,0.45344 0,0.45344 0,0.45344 0,17.23054 -14.0565,31.28704 -31.74049,31.28704 -15.4168,0 -28.56643,-10.88245 -31.28704,-25.84582 l -2.26718,-12.69619 -12.24276,3.62748 c -3.17405,0.90687 -6.3481,1.36031 -9.52215,1.36031 -17.68398,0 -31.74048,-14.0565 -31.74048,-31.74049 0,-5.44122 1.36031,-10.88245 4.08092,-15.4168 l 6.80153,-11.78933 -13.14963,-3.62748 c -13.14963,-4.08092 -21.7649,-16.32368 -21.7649,-30.38018 0,-13.14963 7.7084,-24.48551 19.95116,-29.4733 l 15.87024,-6.3481 -12.69619,-11.78932 c -4.53436,-4.08092 -6.80153,-9.97558 -6.80153,-15.87025 0,-12.24275 9.97558,-22.67177 22.67177,-22.67177 0.90687,0 1.36031,0 2.26718,0 l 20.4046,2.26718 -9.52215,-18.59086 c -1.81374,-3.17405 -2.26718,-6.80153 -2.26718,-9.97558 0,-12.24276 9.97558,-22.67177 22.67178,-22.67177 3.62748,0 7.25497,0.90687 10.42901,2.72061 l 11.78933,6.3481 4.08092,-12.24276 c 3.17404,-9.06871 11.78932,-14.96337 21.31146,-14.96337 12.24276,0 22.67178,9.52214 23.12521,21.7649 l 0.90687,1.81374 v 213.56812 z"
           id="path3025" />
        <path
           style="fill:#2c3e50"
           inkscape:connector-curvature="0"
           d="m 560.98902,356.56504 c 0,-18.13742 -10.88245,-33.55422 -26.7527,-39.90232 6.3481,-5.89466 9.97558,-14.50994 9.97558,-24.03208 0,-18.59086 -14.96337,-33.55423 -33.55422,-33.55423 -1.36031,0 -2.26718,0 -3.62749,0 2.26718,-4.53435 3.62749,-9.52214 3.62749,-14.96337 0,-18.59085 -14.96337,-33.55423 -33.55423,-33.55423 -5.89466,0 -11.33589,1.36031 -15.87024,4.08092 -4.53436,-13.14962 -17.23055,-23.57864 -31.74048,-23.57864 -18.13742,0 -33.1008,13.60306 -33.55423,31.74048 h 0 v 226.71775 h -0.45344 c 0,0 0,0.90687 0,1.3603 0,23.57865 19.04429,43.07638 43.07638,43.07638 20.85803,0 38.54201,-14.96338 42.1695,-34.91454 4.08092,1.36031 8.61527,1.81375 13.14963,1.81375 23.57864,0 43.07637,-19.0443 43.07637,-43.07638 0,-7.7084 -1.81375,-14.50993 -5.44123,-20.85803 16.77711,-4.98779 29.47331,-21.31147 29.47331,-40.35576 z m -33.55423,30.38018 -13.14963,4.08092 6.80153,11.78932 c 2.72062,4.53436 4.08092,9.97558 4.08092,15.41681 0,17.68398 -14.0565,31.74048 -31.74048,31.74048 -3.17405,0 -6.3481,-0.45343 -9.52215,-1.3603 l -12.24275,-3.62749 -2.26718,12.6962 c -2.72061,14.96337 -15.87024,25.84582 -31.28705,25.84582 -17.68398,0 -31.74048,-14.0565 -31.74048,-31.74048 0,-0.45344 0,0 0,0 l 0.45343,-10.88246 h -1.81374 V 225.97562 l 0.90687,-1.3603 c 0.45344,-12.24276 10.42902,-21.76491 22.67177,-21.76491 9.52215,0 18.13742,5.89466 21.31147,14.96337 l 4.53436,12.24276 11.78932,-6.3481 c 3.17405,-1.81374 6.80153,-2.72061 10.42902,-2.72061 12.24275,0 22.67177,9.97558 22.67177,22.67178 0,3.62748 -0.90687,6.80153 -2.26718,9.97558 l -9.52214,19.04429 20.4046,-2.26718 c 0.90687,0 1.81374,0 2.26717,0 12.24276,0 22.67178,9.97558 22.67178,22.67177 0,5.89467 -2.26718,11.78933 -6.80154,15.87025 l -12.24275,11.78932 15.87024,6.3481 c 11.78932,4.98779 19.95116,16.32367 19.95116,29.4733 0,14.0565 -9.06871,25.84583 -22.21834,30.38018 z"
           id="path3027" />
        <path
           style="fill:#3b97d3"
           inkscape:connector-curvature="0"
           d="m 386.86979,205.57102 c 1.36031,0 2.72061,0 4.08092,0 3.62748,-7.25496 9.52214,-13.14962 16.77711,-17.23054 -5.44122,-0.45344 -10.88245,-0.90688 -16.32368,-0.90688 -6.80153,0 -13.60306,0.45344 -20.40459,1.36031 6.80153,4.08092 12.24276,9.52215 15.87024,16.77711 z"
           id="path3031" />
        <path
           style="fill:#3b97d3"
           inkscape:connector-curvature="0"
           d="m 499.32179,469.92392 c -1.81374,0 -3.62748,0.45343 -5.89466,0.45343 -2.26718,0 -4.53436,0 -6.80153,-0.45343 -5.44123,14.50993 -17.23055,26.75269 -31.74049,31.74048 -4.98779,9.97558 -9.06871,20.4046 -12.24276,29.47331 H 339.7125 c -2.72061,-9.06871 -6.80153,-18.13742 -11.78932,-28.113 -16.77712,-4.08092 -30.38018,-16.32368 -36.72828,-32.64736 -2.26718,0.45344 -4.53435,0 -6.80153,0 -0.45344,0 -0.90687,0.90687 -1.36031,0.90687 25.39239,27.20613 37.63515,55.31913 43.07637,77.99091 h 130.13599 c 0,0 0,-1.36031 0,-1.36031 5.44123,-20.85803 17.68398,-50.33134 43.07637,-77.9909 z"
           id="path3033" />
        <path
           style="fill:#3b97d3"
           inkscape:connector-curvature="0"
           d="m 209.57651,345.22916 h -85.6993 c -2.72062,0 -4.53436,1.81374 -4.53436,4.53435 0,2.72061 1.81374,4.53436 4.53436,4.53436 h 84.79243 c 0,-3.17405 0.45344,-5.89467 0.90687,-9.06871 z"
           id="path3035" />
        <path
           style="fill:#3b97d3"
           inkscape:connector-curvature="0"
           d="m 238.59638,261.34359 -78.44434,-44.89011 c -2.26717,-1.36031 -4.98779,-0.45344 -6.34809,1.81374 -1.36031,2.26718 0,4.53435 1.81374,5.89466 l 77.08403,44.43668 c 1.81374,-2.72062 3.62749,-4.98779 5.89466,-7.25497 z"
           id="path3037" />
        <path
           style="fill:#3b97d3"
           inkscape:connector-curvature="0"
           d="m 608.14631,217.81378 c -1.36031,-2.26717 -4.08092,-2.72061 -6.3481,-1.81374 l -69.37563,39.90232 c 2.72061,1.81375 5.44123,3.62749 7.70841,5.89467 l 66.20158,-38.08859 c 2.26717,-0.90687 3.17405,-3.62748 1.81374,-5.89466 z"
           id="path3039" />
        <path
           style="fill:#3b97d3"
           inkscape:connector-curvature="0"
           d="m 638.52649,345.22916 h -69.82907 c 0.45344,3.17404 0.90687,5.89466 1.36031,9.06871 h 68.92219 c 2.72061,0 4.53436,-1.81375 4.53436,-4.53436 0,-2.72061 -2.26718,-4.53435 -4.98779,-4.53435 z"
           id="path3041" />
        <path
           style="fill:#3b97d3"
           inkscape:connector-curvature="0"
           d="m 606.786,471.28422 -63.9344,-36.72827 c -0.90687,2.72061 -2.26718,5.89466 -3.62749,8.61527 l 62.5741,36.27484 c 2.26718,1.36031 4.98779,0.45344 6.3481,-1.81374 1.36031,-2.26718 0.45343,-4.98779 -1.36031,-6.3481 z"
           id="path3043" />
        <path
           style="fill:#3b97d3"
           inkscape:connector-curvature="0"
           d="m 233.60859,426.39411 -77.9909,44.89011 c -2.26718,1.36031 -2.72061,4.08092 -1.81374,6.3481 0.90687,2.26718 4.08092,2.72061 6.34809,1.81374 l 75.2703,-43.52981 c -0.90688,-3.17405 -1.36031,-6.34809 -1.81375,-9.52214 z"
           id="path3045" />
        <path
           style="fill:#2c3e50"
           inkscape:connector-curvature="0"
           d="m 309.78576,374.24903 c -7.70841,19.95116 1.81374,34.46109 5.44122,38.99545 -14.50993,11.78932 -15.87024,34.4611 -15.87024,35.8214 0,2.72062 1.81374,4.53436 4.08092,4.98779 0,0 0,0 0.45343,0 2.26718,0 4.53436,-1.81374 4.53436,-4.08092 0,0 1.36031,-22.21834 14.50994,-30.83361 6.80153,-4.53435 16.32367,-4.53435 27.65956,0 2.26718,0.90687 4.98779,-0.45344 5.89466,-2.72061 0.90687,-2.26718 -0.45343,-4.98779 -2.72061,-5.89466 -11.78932,-4.53436 -22.21834,-4.98779 -30.83361,-1.36031 0,0 0,-0.45344 0,-0.45344 0,0 -15.41681,-16.32367 0.45343,-39.44888 1.36031,-1.81375 0.90687,-4.08092 -0.45343,-5.44123 -1.36031,-1.36031 -3.62749,-1.81374 -5.44123,-0.90687 -26.29926,14.0565 -56.67944,-11.33589 -56.67944,-11.33589 -1.81374,-1.81374 -4.53435,-1.3603 -6.34809,0.45344 -1.81375,1.81374 -1.36031,4.53435 0.45343,6.34809 0.90687,0 27.20613,22.21834 54.8657,15.87025 z"
           id="path3047" />
        <path
           style="fill:#2c3e50"
           inkscape:connector-curvature="0"
           d="m 372.81329,329.35891 c -1.36031,-1.81374 -4.53436,-2.26717 -6.3481,-0.90687 -11.33588,8.16184 -22.21834,11.33589 -32.64735,8.61528 -3.17405,-0.90687 -6.3481,-2.26718 -9.06871,-4.08092 13.14963,-9.97558 21.31147,-22.21834 23.57864,-36.27484 4.98779,-25.84582 -10.88245,-48.06416 -11.33588,-48.97103 -1.36031,-1.81375 -4.08092,-2.72062 -6.3481,-0.90688 -2.26718,1.36031 -2.72061,4.08092 -0.90687,6.3481 0,0 14.0565,19.95116 9.97558,42.1695 -2.26718,12.24276 -9.97558,23.12521 -22.67178,32.19392 -10.88245,-9.97558 -17.23054,-22.67177 -17.23054,-23.12521 -0.90688,-2.26718 -3.62749,-3.17405 -5.89467,-2.26718 -2.26717,0.90687 -3.17404,3.62749 -2.26717,5.89467 0.45343,0.90687 9.52214,19.95116 25.84582,30.83361 4.08092,2.72061 9.06871,4.98779 14.0565,6.3481 13.14963,3.62748 26.75269,0 40.35576,-9.97559 1.81374,-1.3603 2.26718,-4.08091 0.90687,-5.89466 z"
           id="path3049" />
        <path
           style="fill:#2c3e50"
           inkscape:connector-curvature="0"
           d="m 467.58131,374.24903 c 7.7084,19.95116 -1.81375,34.46109 -5.44123,38.99545 14.50994,11.78932 15.87024,34.4611 15.87024,35.8214 0,2.72062 -1.81374,4.53436 -4.08092,4.98779 0,0 0,0 -0.45343,0 -2.26718,0 -4.53436,-1.81374 -4.53436,-4.08092 0,0 -1.3603,-22.21834 -14.50993,-30.83361 -6.80153,-4.53435 -16.32368,-4.53435 -27.65957,0 -2.26717,0.90687 -4.98779,-0.45344 -5.89466,-2.72061 -0.90687,-2.26718 0.45344,-4.98779 2.72061,-5.89466 11.78933,-4.53436 22.21834,-4.98779 30.83362,-1.36031 0,0 0,-0.45344 0,-0.45344 0,0 15.4168,-16.32367 -0.45344,-39.44888 -1.3603,-1.81375 -0.90687,-4.08092 0.45344,-5.44123 1.3603,-1.36031 3.62748,-1.81374 5.44122,-0.90687 26.29926,14.0565 56.67944,-11.33589 56.67944,-11.33589 1.81374,-1.81374 4.53435,-1.3603 6.3481,0.45344 1.81374,1.81374 1.3603,4.53435 -0.45344,6.34809 -0.90687,0 -27.20613,22.21834 -54.86569,15.87025 z"
           id="path3051" />
        <path
           style="fill:#2c3e50"
           inkscape:connector-curvature="0"
           d="m 404.55377,329.35891 c 1.36031,-1.81374 4.53436,-2.26717 6.3481,-0.90687 11.33589,8.16184 22.21834,11.33589 32.64736,8.61528 3.17404,-0.90687 6.34809,-2.26718 9.06871,-4.08092 -13.14963,-9.97558 -21.31147,-22.21834 -23.57865,-36.27484 -4.98779,-25.84582 10.88245,-48.06416 11.33589,-48.97103 1.3603,-1.81375 4.08092,-2.72062 6.34809,-0.90688 2.26718,1.36031 2.72062,4.08092 0.90688,6.3481 0,0 -14.05651,19.95116 -9.97559,42.1695 2.26718,12.24276 9.97559,23.12521 22.67178,32.19392 10.88245,-9.97558 17.23055,-22.67177 17.23055,-23.12521 0.90687,-2.26718 3.62748,-3.17405 5.89466,-2.26718 2.26718,0.90687 3.17405,3.62749 2.26718,5.89467 -0.45344,0.90687 -9.52215,19.95116 -25.84583,30.83361 -4.08092,2.72061 -9.06871,4.98779 -14.0565,6.3481 -13.14963,3.62748 -26.75269,0 -40.35576,-9.97559 -1.81374,-1.3603 -2.26717,-4.08091 -0.90687,-5.89466 z"
           id="path3053" />
      </g>
    </g>
  </g>
</svg>
