<?xml version="1.0" ?><!DOCTYPE svg  PUBLIC '-//W3C//DTD SVG 1.1//EN'  'http://www.w3.org/Graphics/SVG/1.1/DTD/svg11.dtd'><svg enable-background="new 0 0 128 128" height="128px" id="Layer_1" version="1.1" viewBox="0 0 128 128" width="128px" xml:space="preserve" xmlns="http://www.w3.org/2000/svg" xmlns:xlink="http://www.w3.org/1999/xlink"><path d="M62,22h-0.4c-0.2-6-5.5-11.5-12-11.5c-5.3,0-9.7,3.5-11.3,8.2c-1.7-0.9-3.6-1.4-5.7-1.4c-6.6,0-12,5.4-12,12  c0,1.9,0.5,3.8,1.3,5.4c-0.4,0-0.9-0.1-1.3-0.1c-6.6,0-12,5.4-12,12c0,3.4,1.4,6.4,3.6,8.6C6.7,57.5,2.7,63,2.7,69.4  c0,6.8,4.4,12.6,10.6,14.6c-1.2,2.2-1.9,4.7-1.9,7.4c0,8.4,6.8,15.3,15.3,15.3c1.6,0,3.2-0.3,4.6-0.7c1.3,7.1,7.5,12.5,15,12.5  c8.4,0,15.3-6.7,15.3-15.1c0-0.2,0-0.3,0-0.3H62V22z M58,99h-0.5l0.1,4c0,0.1,0,0.1,0,0.3c0,6.2-5.1,11.2-11.3,11.2  c-5.4,0-10.1-3.9-11.1-9.2l-0.8-4.5l-4.3,1.4c-1.1,0.4-2.3,0.5-3.4,0.5c-6.2,0-11.3-5.1-11.3-11.3c0-1.9,0.5-3.8,1.4-5.5l2.4-4.3  l-4.6-1.5c-4.7-1.5-7.8-5.8-7.8-10.7c0-4.6,2.8-8.7,7-10.5l5.6-2.3L15,52.4c-1.6-1.5-2.4-3.5-2.4-5.7c0-4.4,3.6-8,8-8  c0.3,0,0.6,0,0.9,0l7.3,0.8l-3.3-6.6c-0.6-1.1-0.9-2.3-0.9-3.6c0-4.4,3.6-8,8-8c1.3,0,2.6,0.3,3.8,0.9l4.1,2.2l1.5-4.4  c1.1-3.2,4.1-5.4,7.6-5.4c4.4,0,8,3.4,8.2,7.8L58,23V99z" fill="#3B97D3"/><path d="M125,69.4c0-6.4-3.9-11.9-9.5-14.2c2.2-2.2,3.6-5.2,3.6-8.6c0-6.6-5.4-12-12-12c-0.4,0-0.9,0-1.3,0.1  c0.8-1.6,1.3-3.5,1.3-5.4c0-6.6-5.4-12-12-12c-2,0-4,0.5-5.7,1.4c-1.6-4.7-6.1-8.3-11.3-8.3c-6.5,0-11.8,5.5-12,11.5H66v81h0.1  c0,0,0,0.1,0,0.3c0,8.4,6.8,15.2,15.3,15.2c7.5,0,13.7-5.4,15-12.5c1.5,0.5,3,0.7,4.6,0.7c8.4,0,15.3-6.9,15.3-15.3  c0-2.7-0.7-5.2-1.9-7.4C120.6,82,125,76.2,125,69.4z M113.2,80.1l-4.6,1.5l2.4,4.3c0.9,1.7,1.4,3.6,1.4,5.5  c0,6.2-5.1,11.3-11.3,11.3c-1.2,0-2.3-0.2-3.4-0.5l-4.3-1.4l-0.8,4.4c-1,5.3-5.7,9.2-11.1,9.2c-6.2,0-11.3-5.1-11.3-11.3  c0-0.1,0-0.1,0-0.2l0.1-4H70V22.9l0.1-0.5c0.1-4.4,3.7-7.8,8-7.8c3.4,0,6.5,2.2,7.6,5.4l1.5,4.4l4.1-2.2c1.2-0.6,2.4-0.9,3.8-0.9  c4.4,0,8,3.6,8,8c0,1.3-0.3,2.5-0.9,3.6l-3.3,6.6l7.3-0.8c0.3,0,0.6,0,0.9,0c4.4,0,8,3.6,8,8c0,2.2-0.9,4.2-2.4,5.7l-4.4,4.3  l5.6,2.3c4.3,1.7,7,5.8,7,10.5C121,74.3,117.9,78.6,113.2,80.1z" fill="#3B97D3"/><path d="M45.5,90.3c0.8,0.2,1.2,0.6,1.2,0.8c0.2,0.5,0.8,0.8,1.3,0.5c0.5-0.2,0.8-0.8,0.5-1.3  c-0.3-0.9-1.2-1.5-2.5-1.9c-2-0.6-5.1-0.6-7.1,0.6c-0.2,0.1-0.4,0.3-0.5,0.4c-2.4-2.3-4.9-3.4-7.6-3.4c0,0,0,0,0,0  c-4.5,0-7.7,3.3-7.8,3.4c-0.4,0.4-0.3,1,0.1,1.4c0.4,0.4,1,0.4,1.4,0c0,0,2.7-2.8,6.4-2.8c0,0,0,0,0,0c2,0,4,0.8,5.9,2.5  c-5.7,4.9-4.1,13.8-4,14.2c0.1,0.5,0.5,0.8,1,0.8c0.1,0,0.1,0,0.2,0c0.5-0.1,0.9-0.6,0.8-1.2c0-0.1-1.8-10.1,5.2-13.6l0.1-0.1  C41.3,89.9,43.7,89.7,45.5,90.3z" fill="#3B97D3"/><path d="M27.4,60.5c-1.7,4.4,0.4,7.6,1.2,8.6c-3.2,2.6-3.5,7.6-3.5,7.9c0,0.6,0.4,1,0.9,1.1c0,0,0,0,0.1,0  c0.5,0,1-0.4,1-0.9c0,0,0.3-4.9,3.2-6.8c1.5-1,3.6-1,6.1,0c0.5,0.2,1.1-0.1,1.3-0.6c0.2-0.5-0.1-1.1-0.6-1.3c-2.6-1-4.9-1.1-6.8-0.3  c0,0,0-0.1,0-0.1c0,0-3.4-3.6,0.1-8.7c0.3-0.4,0.2-0.9-0.1-1.2c-0.3-0.3-0.8-0.4-1.2-0.2c-5.8,3.1-12.5-2.5-12.5-2.5  c-0.4-0.4-1-0.3-1.4,0.1c-0.4,0.4-0.3,1,0.1,1.4C15.5,57,21.2,61.9,27.4,60.5z" fill="#3B97D3"/><path d="M60.1,70.1c-0.5-0.2-1.1,0.1-1.3,0.6c-1,2.9-2.7,4.8-4.9,5.6c-0.7,0.2-1.4,0.4-2.1,0.4  c1.2-3.5,1.1-6.7-0.1-9.6c-2.3-5.3-7.9-7.4-8.1-7.5c-0.5-0.2-1.1,0.1-1.3,0.6c-0.2,0.5,0.1,1.1,0.6,1.3c0,0,5,1.9,7,6.5  c1.1,2.5,1,5.5-0.1,8.7c-3.2-0.4-5.9-2.1-6-2.1c-0.5-0.3-1.1-0.1-1.4,0.3c-0.3,0.5-0.1,1.1,0.3,1.4c0.2,0.1,4.2,2.5,8.5,2.5  c1.1,0,2.3-0.2,3.4-0.6c2.8-1,4.9-3.3,6.1-6.8C60.9,70.8,60.6,70.2,60.1,70.1z" fill="#3B97D3"/><path d="M38.5,47c1.3,0,2.7-0.2,4.1-0.7c1.2,1.9,3.4,3.1,6.5,3.6c0,0,0.1,0,0.1,0c0.5,0,0.9-0.4,1-0.9  c0.1-0.5-0.3-1.1-0.8-1.1c-2.7-0.4-4.5-1.4-5.3-3c0-0.1,0-0.1,0-0.2c0-0.1-0.1-0.1-0.1-0.2c-1.6-4.1,2.3-10.4,2.4-10.5  c0.3-0.5,0.2-1.1-0.3-1.4c-0.5-0.3-1.1-0.2-1.4,0.3c-0.2,0.3-4.1,6.5-2.8,11.5c-3.9,1.2-7.5,0.4-10.7-2.5c-2.7-2.4-4.1-5.3-4.2-5.3  c-0.2-0.5-0.8-0.7-1.3-0.5c-0.5,0.2-0.7,0.8-0.5,1.3C25.2,37.6,29.9,47,38.5,47z" fill="#3B97D3"/><path d="M56.9,30.3c1,0,2-0.2,3.1-0.7c0.5-0.2,0.7-0.8,0.5-1.3c-0.2-0.5-0.8-0.7-1.3-0.5c-5.2,2.3-9-3.7-9.1-3.9  c-0.3-0.5-0.9-0.6-1.4-0.3c-0.5,0.3-0.6,0.9-0.3,1.4C49.7,27,52.9,30.3,56.9,30.3z" fill="#3B97D3"/><path d="M50.2,98.7c-0.5,0.1-0.9,0.6-0.8,1.2c2,9.2-6.5,14.7-6.9,14.9c-0.5,0.3-0.6,0.9-0.3,1.4  c0.2,0.3,0.5,0.5,0.8,0.5c0.2,0,0.4-0.1,0.5-0.2c0.1-0.1,10-6.5,7.7-17.1C51.3,98.9,50.8,98.6,50.2,98.7z" fill="#3B97D3"/><g><path d="M82,90.3c-0.8,0.2-1.2,0.6-1.2,0.8c-0.2,0.5-0.8,0.8-1.3,0.5c-0.5-0.2-0.8-0.8-0.5-1.3   c0.3-0.9,1.2-1.5,2.5-1.9c2-0.6,5.1-0.6,7.1,0.6c0.2,0.1,0.4,0.3,0.5,0.4c2.4-2.3,4.9-3.4,7.6-3.4c0,0,0,0,0,0   c4.5,0,7.7,3.3,7.8,3.4c0.4,0.4,0.3,1-0.1,1.4c-0.4,0.4-1,0.4-1.4,0c0,0-2.7-2.8-6.4-2.8c0,0,0,0,0,0c-2,0-4,0.8-5.9,2.5   c5.7,4.9,4.1,13.8,4,14.2c-0.1,0.5-0.5,0.8-1,0.8c-0.1,0-0.1,0-0.2,0c-0.5-0.1-0.9-0.6-0.8-1.2c0-0.1,1.8-10.1-5.2-13.6l-0.1-0.1   C86.2,89.9,83.8,89.7,82,90.3z" fill="#3B97D3"/><path d="M100.1,60.5c1.7,4.4-0.4,7.6-1.2,8.6c3.2,2.6,3.5,7.6,3.5,7.9c0,0.6-0.4,1-0.9,1.1c0,0,0,0-0.1,0   c-0.5,0-1-0.4-1-0.9c0,0-0.3-4.9-3.2-6.8c-1.5-1-3.6-1-6.1,0c-0.5,0.2-1.1-0.1-1.3-0.6c-0.2-0.5,0.1-1.1,0.6-1.3   c2.6-1,4.9-1.1,6.8-0.3c0,0,0-0.1,0-0.1c0,0,3.4-3.6-0.1-8.7c-0.3-0.4-0.2-0.9,0.1-1.2c0.3-0.3,0.8-0.4,1.2-0.2   c5.8,3.1,12.5-2.5,12.5-2.5c0.4-0.4,1-0.3,1.4,0.1c0.4,0.4,0.3,1-0.1,1.4C112,57,106.3,61.9,100.1,60.5z" fill="#3B97D3"/><path d="M67.4,70.1c0.5-0.2,1.1,0.1,1.3,0.6c1,2.9,2.7,4.8,4.9,5.6c0.7,0.2,1.4,0.4,2.1,0.4   c-1.2-3.5-1.1-6.7,0.1-9.6c2.3-5.3,7.9-7.4,8.1-7.5c0.5-0.2,1.1,0.1,1.3,0.6c0.2,0.5-0.1,1.1-0.6,1.3c0,0-5,1.9-7,6.5   c-1.1,2.5-1,5.5,0.1,8.7c3.2-0.4,5.9-2.1,6-2.1c0.5-0.3,1.1-0.1,1.4,0.3c0.3,0.5,0.1,1.1-0.3,1.4c-0.2,0.1-4.2,2.5-8.5,2.5   c-1.1,0-2.3-0.2-3.4-0.6c-2.8-1-4.9-3.3-6.1-6.8C66.6,70.8,66.9,70.2,67.4,70.1z" fill="#3B97D3"/><path d="M89,47c-1.3,0-2.7-0.2-4.1-0.7c-1.2,1.9-3.4,3.1-6.5,3.6c0,0-0.1,0-0.1,0c-0.5,0-0.9-0.4-1-0.9   c-0.1-0.5,0.3-1.1,0.8-1.1c2.7-0.4,4.5-1.4,5.3-3c0-0.1,0-0.1,0-0.2c0-0.1,0.1-0.1,0.1-0.2c1.6-4.1-2.3-10.4-2.4-10.5   c-0.3-0.5-0.2-1.1,0.3-1.4c0.5-0.3,1.1-0.2,1.4,0.3c0.2,0.3,4.1,6.5,2.8,11.5c3.9,1.2,7.5,0.4,10.7-2.5c2.7-2.4,4.1-5.3,4.2-5.3   c0.2-0.5,0.8-0.7,1.3-0.5c0.5,0.2,0.7,0.8,0.5,1.3C102.3,37.6,97.6,47,89,47z" fill="#3B97D3"/><path d="M70.6,30.3c-1,0-2-0.2-3.1-0.7c-0.5-0.2-0.7-0.8-0.5-1.3c0.2-0.5,0.8-0.7,1.3-0.5c5.2,2.3,9-3.7,9.1-3.9   c0.3-0.5,0.9-0.6,1.4-0.3c0.5,0.3,0.6,0.9,0.3,1.4C77.8,27,74.6,30.3,70.6,30.3z" fill="#3B97D3"/><path d="M77.2,98.7c0.5,0.1,0.9,0.6,0.8,1.2c-2,9.2,6.5,14.7,6.9,14.9c0.5,0.3,0.6,0.9,0.3,1.4   c-0.2,0.3-0.5,0.5-0.8,0.5c-0.2,0-0.4-0.1-0.5-0.2c-0.1-0.1-10-6.5-7.7-17.1C76.2,98.9,76.7,98.6,77.2,98.7z" fill="#3B97D3"/></g></svg>