<?xml version="1.0" ?><!DOCTYPE svg  PUBLIC '-//W3C//DTD SVG 1.1//EN'  'http://www.w3.org/Graphics/SVG/1.1/DTD/svg11.dtd'><svg enable-background="new 0 0 128 128" height="128px" id="Layer_1" version="1.1" viewBox="0 0 128 128" width="128px" xml:space="preserve" xmlns="http://www.w3.org/2000/svg" xmlns:xlink="http://www.w3.org/1999/xlink"><path d="M25,26c0.1,0,0.5,0.3,0.6,0.6L27,30H14c-0.8,0-2-1-2-2c0-0.8,1-2,2-2H25 M113,43  c-1.3,4.3-9.7,24.5-12.5,31.3c-1.2,2.8-1.9,4.6-2.2,5.2C98,80.4,97.3,81,97,81H51c0,0-0.1,0-0.2,0l0,0l-0.2,0  c-0.2-0.1-0.5-0.3-0.7-0.4L35.4,43H113 M25,22H14c-3.2,0-6,3-6,6c0,3.2,3,6,6,6h13.6l18.7,48.1c0.5,1.3,2.2,2.5,3.4,2.7  c0,0,0.6,0.2,1.3,0.2h46c2.2,0,4.2-1.9,5-4c1.1-2.9,15-35.8,15-38s-1.8-4-4-4H35.1l-5.9-14.1C28.6,23.6,27,22,25,22L25,22z" fill="#2C3E50"/><path d="M48,95c4.4,0,8,3.6,8,8s-3.6,8-8,8s-8-3.6-8-8S43.6,95,48,95 M48,91c-6.6,0-12,5.4-12,12s5.4,12,12,12  s12-5.4,12-12S54.6,91,48,91L48,91z" fill="#2C3E50"/><path d="M101,95c4.4,0,8,3.6,8,8s-3.6,8-8,8s-8-3.6-8-8S96.6,95,101,95 M101,91c-6.6,0-12,5.4-12,12s5.4,12,12,12  s12-5.4,12-12S107.6,91,101,91L101,91z" fill="#2C3E50"/><path d="M103.2,63c0.3-1,0.5-2,0.8-2H92.7l1.7-8h12.8c0.3-1,0.5-2,0.8-2H94.8l1.2-6h-2l-1.2,6H75v-6h-2v6H56.2l-1-6  h-2l1,6H40.5l0.8,2h13.3l1.5,8H44.4l0.8,2h11.3l1.5,8h-9.8l0.8,2h9.4l1.2,6h2l-1.2-6H73v6h2v-6h13.1l-1.4,6h2l1.4-6H99  c0.2-1,0.5-2,0.8-2h-9.3l1.7-8H103.2z M73,71H60l-1.5-8H73V71z M73,61H58.1l-1.5-8H73V61z M88.5,71H75v-8h15.2L88.5,71z M75,61v-8  h17.4l-1.7,8H75z" fill="#2C3E50"/><circle cx="48" cy="103" fill="#3B97D3" r="3"/><circle cx="101" cy="103" fill="#3B97D3" r="3"/><polygon fill="#3B97D3" points="48.9,37 59.6,24.8 73.4,37 76.5,37 65.9,27.7 72.3,20.3 83.4,30.1 77.3,37 80,37 87.9,28 98.2,37   101.2,37 87.7,25.2 84.7,28.6 72.1,17.5 64.4,26.4 59.4,22 46.2,37 "/></svg>