<?xml version="1.0" encoding="UTF-8" standalone="no"?>
<svg
   xmlns:dc="http://purl.org/dc/elements/1.1/"
   xmlns:cc="http://creativecommons.org/ns#"
   xmlns:rdf="http://www.w3.org/1999/02/22-rdf-syntax-ns#"
   xmlns:svg="http://www.w3.org/2000/svg"
   xmlns="http://www.w3.org/2000/svg"
   xmlns:sodipodi="http://sodipodi.sourceforge.net/DTD/sodipodi-0.dtd"
   xmlns:inkscape="http://www.inkscape.org/namespaces/inkscape"
   height="1000"
   width="980"
   id="svg3905"
   version="1.1"
   inkscape:version="0.48.4 r9939"
   sodipodi:docname="clock-512px.svg">
  <metadata
     id="metadata3913">
    <rdf:RDF>
      <cc:Work
         rdf:about="">
        <dc:format>image/svg+xml</dc:format>
        <dc:type
           rdf:resource="http://purl.org/dc/dcmitype/StillImage" />
        <dc:title />
      </cc:Work>
    </rdf:RDF>
  </metadata>
  <defs
     id="defs3911" />
  <sodipodi:namedview
     pagecolor="#ffffff"
     bordercolor="#666666"
     borderopacity="1"
     objecttolerance="10"
     gridtolerance="10"
     guidetolerance="10"
     inkscape:pageopacity="0"
     inkscape:pageshadow="2"
     inkscape:window-width="1438"
     inkscape:window-height="880"
     id="namedview3909"
     showgrid="false"
     inkscape:zoom="0.55283672"
     inkscape:cx="366.56242"
     inkscape:cy="457.69998"
     inkscape:window-x="764"
     inkscape:window-y="172"
     inkscape:window-maximized="0"
     inkscape:current-layer="g4811" />
  <g
     id="g4811"
     transform="matrix(0.8435877,0,0,0.86801419,72.221329,53.533302)"
     style="fill:#ffa880;fill-opacity:1">
    <path
       d="m -62.118102,508.07199 q 0,-109.08876 43.747733,-208.66717 Q 25.377367,199.82637 99.345564,127.93966 173.31377,56.052981 275.77557,13.536346 q 102.46181,-42.516635 214.70928,-42.516635 112.2475,0 214.70927,42.516635 102.46179,42.516635 176.42999,114.403314 73.96827,71.88671 117.71586,171.46516 43.74783,99.5784 43.74783,208.66717 0,109.08875 -43.74783,208.66722 -43.74759,99.57844 -117.71586,171.4651 -73.9682,71.88665 -176.42999,114.40339 -102.46177,42.5166 -214.70927,42.5166 -112.24747,0 -214.70928,-42.5166 Q 173.31377,960.09096 99.345564,888.20431 25.377367,816.31765 -18.370369,716.73921 -62.118102,617.16074 -62.118102,508.07199 z m 138.15075,0 q 0,109.6482 55.548102,202.23377 55.54809,92.58556 151.10236,146.57051 95.55427,53.98497 207.80174,53.98497 112.82309,0 208.08955,-53.98497 95.26643,-53.98496 150.81456,-146.57051 55.54809,-92.58557 55.54809,-202.23377 0,-109.08876 -55.54809,-201.95403 -55.54813,-92.86528 -150.81456,-146.85023 -95.26646,-53.98495 -208.08955,-53.98495 -84.04171,0 -160.88806,31.88746 -76.84635,31.88749 -132.39443,85.87244 -55.54812,53.98495 -88.35893,128.66877 -32.810782,74.68387 -32.810782,156.36054 z m 345.376852,0 V 250.73444 q 0,-27.41207 20.14696,-47.2718 20.147,-19.85973 48.92839,-19.85973 28.7814,0 48.92837,19.85973 20.14701,19.85973 20.14701,47.2718 v 229.36608 l 166.93211,162.23455 q 20.14699,19.58005 20.14699,47.5515 0,27.97149 -20.14699,47.55151 -20.14695,19.58004 -48.35273,19.58004 -28.7814,0 -48.92839,-19.58004 L 441.55646,555.62351 q -1.72688,-1.6783 -4.31721,-5.31458 -2.59032,-3.63631 -3.74159,-4.75516 -1.15123,-1.67827 -2.87814,-5.03486 l -1.72687,-3.35658 q 0,0 -1.7269,-3.91602 -0.57561,-0.55941 -2.3025,-6.15373 -1.72689,-5.03486 -1.72689,-5.59428 -1.72686,-6.71314 -1.72686,-13.42632 z"
       id="path3978"
       style="fill:#916f6f"
       inkscape:connector-curvature="0" />
  </g>
</svg>
