<?xml version="1.0" encoding="UTF-8" standalone="no"?>
<svg
   xmlns:dc="http://purl.org/dc/elements/1.1/"
   xmlns:cc="http://creativecommons.org/ns#"
   xmlns:rdf="http://www.w3.org/1999/02/22-rdf-syntax-ns#"
   xmlns:svg="http://www.w3.org/2000/svg"
   xmlns="http://www.w3.org/2000/svg"
   xmlns:sodipodi="http://sodipodi.sourceforge.net/DTD/sodipodi-0.dtd"
   xmlns:inkscape="http://www.inkscape.org/namespaces/inkscape"
   height="1000"
   width="980"
   id="svg3905"
   version="1.1"
   inkscape:version="0.48.4 r9939"
   sodipodi:docname="clock-512px.svg">
  <metadata
     id="metadata3913">
    <rdf:RDF>
      <cc:Work
         rdf:about="">
        <dc:format>image/svg+xml</dc:format>
        <dc:type
           rdf:resource="http://purl.org/dc/dcmitype/StillImage" />
        <dc:title />
      </cc:Work>
    </rdf:RDF>
  </metadata>
  <defs
     id="defs3911" />
  <sodipodi:namedview
     pagecolor="#ffffff"
     bordercolor="#666666"
     borderopacity="1"
     objecttolerance="10"
     gridtolerance="10"
     guidetolerance="10"
     inkscape:pageopacity="0"
     inkscape:pageshadow="2"
     inkscape:window-width="1438"
     inkscape:window-height="880"
     id="namedview3909"
     showgrid="false"
     inkscape:zoom="0.55283672"
     inkscape:cx="436.03911"
     inkscape:cy="507.74718"
     inkscape:window-x="764"
     inkscape:window-y="172"
     inkscape:window-maximized="0"
     inkscape:current-layer="g4811" />
  <g
     id="g4811"
     transform="matrix(0.8435877,0,0,0.86801419,72.221329,53.533302)"
     style="fill:#ffa880;fill-opacity:1">
    <path
       style="fill:#916f6f"
       d="M 486 28.375 C 422.87294 28.375 362.49868 40.677888 304.875 65.28125 C 247.25132 89.884612 197.63036 122.99465 156.03125 164.59375 C 114.43214 206.19287 81.322118 255.78258 56.71875 313.40625 C 32.115384 371.0299 19.8125 431.43544 19.8125 494.5625 C 19.8125 557.68956 32.115384 618.06382 56.71875 675.6875 C 81.322118 733.31117 114.43214 782.90091 156.03125 824.5 C 197.63036 866.09909 247.25132 899.20908 304.875 923.8125 C 362.49868 948.41584 422.87294 960.71875 486 960.71875 C 549.12707 960.71875 609.50134 948.41584 667.125 923.8125 C 724.74867 899.20908 774.33839 866.09909 815.9375 824.5 C 857.53665 782.90091 890.64671 733.31117 915.25 675.6875 C 939.85342 618.06382 952.15625 557.68956 952.15625 494.5625 C 952.15625 431.43543 939.85342 371.02989 915.25 313.40625 C 890.64671 255.78258 857.53665 206.19287 815.9375 164.59375 C 774.33839 122.99465 724.74867 89.884612 667.125 65.28125 C 609.50134 40.677888 549.12707 28.375 486 28.375 z M 486 144.90625 C 549.45078 144.90625 607.95417 160.54145 661.53125 191.78125 C 715.10831 223.02105 757.51019 265.51108 788.75 319.25 C 819.98979 372.98891 835.625 431.43544 835.625 494.5625 C 835.625 558.0133 819.98979 616.51669 788.75 670.09375 C 757.51019 723.6708 715.10831 766.07269 661.53125 797.3125 C 607.95417 828.55231 549.45078 844.1875 486 844.1875 C 422.87294 844.1875 364.42644 828.55231 310.6875 797.3125 C 256.94856 766.0727 214.45854 723.6708 183.21875 670.09375 C 151.97895 616.51669 136.375 558.0133 136.375 494.5625 C 136.375 447.29816 145.57874 402.03027 164.03125 358.8125 C 182.48378 315.59476 207.35394 278.3648 238.59375 247.125 C 269.83353 215.8852 307.03224 191.04628 350.25 172.59375 C 393.46776 154.14124 438.73563 144.90625 486 144.90625 z M 486 154.46875 L 481 170.15625 L 470.03125 155.65625 L 460.0625 162.5625 L 472 175.78125 L 454.625 176.4375 L 456.15625 188.71875 L 474.34375 186.6875 L 467.34375 201.90625 L 479.59375 207.09375 L 484.5 191.03125 L 496.6875 206.03125 L 505.90625 198.21875 L 493.59375 184.90625 L 511.5625 184.03125 L 508.6875 172.15625 L 491.34375 174.53125 L 498.125 159.59375 L 486 154.46875 z M 486 212.90625 C 469.81358 212.90625 456.04926 218.6639 444.71875 230.15625 C 433.38826 241.6486 427.71875 255.32479 427.71875 271.1875 L 427.71875 494.5625 C 427.71875 498.44726 428.21633 502.30277 429.1875 506.1875 C 429.1875 506.51122 429.65381 508.14895 430.625 511.0625 C 431.59619 514.2998 432.23878 516.08253 432.5625 516.40625 L 434.03125 519.8125 L 435.5 522.71875 C 436.4712 524.66113 437.25881 526.12258 437.90625 527.09375 C 438.55371 527.7412 439.60573 529.1145 441.0625 531.21875 C 442.51928 533.32298 443.74757 534.84131 444.71875 535.8125 L 603.03125 693.625 C 614.36175 704.9555 628.09483 710.625 644.28125 710.625 C 660.14395 710.625 673.76327 704.9555 685.09375 693.625 C 696.42425 682.29451 702.0625 668.56143 702.0625 652.375 C 702.0625 636.18859 696.42425 622.42426 685.09375 611.09375 L 544.25 470.28125 L 544.25 271.1875 C 544.25 255.32479 538.58051 241.6486 527.25 230.15625 C 515.91951 218.6639 502.18642 212.90625 486 212.90625 z M 263.5 259.1875 L 258.46875 274.90625 L 247.53125 260.375 L 237.5625 267.28125 L 249.46875 280.5 L 232.09375 281.15625 L 233.625 293.4375 L 251.8125 291.40625 L 244.8125 306.625 L 257.09375 311.8125 L 262 295.75 L 274.15625 310.75 L 283.375 302.9375 L 271.0625 289.65625 L 289.03125 288.75 L 286.15625 276.875 L 268.8125 279.25 L 275.59375 264.3125 L 263.5 259.1875 z M 722.84375 259.1875 L 717.84375 274.90625 L 706.875 260.375 L 696.90625 267.28125 L 708.84375 280.5 L 691.4375 281.15625 L 692.96875 293.4375 L 711.15625 291.40625 L 704.1875 306.625 L 716.4375 311.8125 L 721.34375 295.75 L 733.53125 310.75 L 742.75 302.9375 L 730.4375 289.65625 L 748.40625 288.75 L 745.53125 276.875 L 728.1875 279.25 L 734.96875 264.34375 L 722.84375 259.1875 z M 187.4375 479.875 L 182.40625 495.5625 L 171.46875 481.0625 L 161.5 487.96875 L 173.40625 501.1875 L 156.03125 501.84375 L 157.5625 514.125 L 175.75 512.09375 L 168.75 527.3125 L 181.03125 532.5 L 185.9375 516.4375 L 198.09375 531.40625 L 207.3125 523.625 L 195.03125 510.3125 L 212.96875 509.4375 L 210.09375 497.53125 L 192.78125 499.9375 L 199.53125 485 L 187.4375 479.875 z M 789.78125 479.875 L 784.78125 495.5625 L 773.8125 481.0625 L 763.84375 487.96875 L 775.75 501.1875 L 758.375 501.84375 L 759.90625 514.125 L 778.09375 512.09375 L 771.09375 527.3125 L 783.375 532.5 L 788.28125 516.4375 L 800.4375 531.40625 L 809.65625 523.625 L 797.375 510.3125 L 815.3125 509.4375 L 812.46875 497.53125 L 795.125 499.9375 L 801.875 485 L 789.78125 479.875 z M 272.4375 691.3125 L 267.4375 707.03125 L 256.46875 692.5 L 246.5 699.40625 L 258.4375 712.625 L 241.0625 713.28125 L 242.5625 725.5625 L 260.78125 723.53125 L 253.78125 738.75 L 266.03125 743.9375 L 270.9375 727.875 L 283.125 742.875 L 292.34375 735.0625 L 280.03125 721.78125 L 298 720.875 L 295.125 709 L 277.78125 711.375 L 284.5625 696.4375 L 272.4375 691.3125 z M 706.375 691.3125 L 701.375 707.03125 L 690.40625 692.5 L 680.4375 699.40625 L 692.375 712.625 L 674.96875 713.28125 L 676.5 725.5625 L 694.6875 723.53125 L 687.71875 738.75 L 699.96875 743.9375 L 704.875 727.875 L 717.0625 742.875 L 726.25 735.0625 L 713.96875 721.78125 L 731.9375 720.875 L 729.0625 709 L 711.71875 711.375 L 718.46875 696.4375 L 706.375 691.3125 z M 486 776.53125 L 481 792.21875 L 470.03125 777.6875 L 460.0625 784.625 L 472 797.84375 L 454.625 798.5 L 456.15625 810.78125 L 474.34375 808.75 L 467.34375 823.96875 L 479.59375 829.15625 L 484.5 813.0625 L 496.6875 828.0625 L 505.90625 820.28125 L 493.59375 806.96875 L 511.5625 806.09375 L 508.6875 794.1875 L 491.34375 796.59375 L 498.125 781.65625 L 486 776.53125 z "
       transform="matrix(1.1854132,0,0,1.1520549,-85.612117,-61.673303)"
       id="path3978" />
  </g>
</svg>
