<?xml version="1.0" encoding="UTF-8" standalone="no"?>
<svg
   xmlns:dc="http://purl.org/dc/elements/1.1/"
   xmlns:cc="http://creativecommons.org/ns#"
   xmlns:rdf="http://www.w3.org/1999/02/22-rdf-syntax-ns#"
   xmlns:svg="http://www.w3.org/2000/svg"
   xmlns="http://www.w3.org/2000/svg"
   xmlns:sodipodi="http://sodipodi.sourceforge.net/DTD/sodipodi-0.dtd"
   xmlns:inkscape="http://www.inkscape.org/namespaces/inkscape"
   height="1000"
   width="980"
   id="svg3905"
   version="1.1"
   inkscape:version="0.48.4 r9939"
   sodipodi:docname="coin-512px.svg">
  <metadata
     id="metadata3913">
    <rdf:RDF>
      <cc:Work
         rdf:about="">
        <dc:format>image/svg+xml</dc:format>
        <dc:type
           rdf:resource="http://purl.org/dc/dcmitype/StillImage" />
        <dc:title />
      </cc:Work>
    </rdf:RDF>
  </metadata>
  <defs
     id="defs3911" />
  <sodipodi:namedview
     pagecolor="#ffffff"
     bordercolor="#666666"
     borderopacity="1"
     objecttolerance="10"
     gridtolerance="10"
     guidetolerance="10"
     inkscape:pageopacity="0"
     inkscape:pageshadow="2"
     inkscape:window-width="2495"
     inkscape:window-height="1056"
     id="namedview3909"
     showgrid="false"
     inkscape:zoom="0.55283672"
     inkscape:cx="366.56242"
     inkscape:cy="312.99179"
     inkscape:window-x="65"
     inkscape:window-y="24"
     inkscape:window-maximized="1"
     inkscape:current-layer="g4811" />
  <g
     id="g4811"
     transform="matrix(0.8435877,0,0,0.86801419,72.221329,53.533302)"
     style="fill:#ffa880;fill-opacity:1">
    <path
       id="path3941"
       d="m 496.86314,-40.940254 c -154.15525,0 -286.76995,53.86041 -397.881836,161.559164 -111.111915,107.69876 -166.677652,236.24704 -166.677652,385.66688 0,149.41988 55.565737,278.0052 166.677652,385.70394 111.111886,107.69875 243.726586,161.52217 397.881836,161.52217 154.15523,0 286.28274,-53.82342 396.39362,-161.52217 110.11084,-107.69874 165.18944,-236.28406 165.18944,-385.70394 0,-149.41984 -55.0786,-277.96812 -165.18944,-385.66688 C 783.14588,12.920156 651.01837,-40.940254 496.86314,-40.940254 z M 486.71289,61.664627 c 121.21623,-0.965891 226.20354,40.245383 314.92458,123.577923 90.12937,84.65531 136.4421,186.8598 138.9362,306.6289 2.49411,119.76913 -39.54274,223.63238 -126.07668,311.6313 C 727.96307,891.50167 622.89328,936.67182 499.22897,939.01234 375.56467,941.3529 268.25365,900.22273 177.32132,815.58263 86.388947,730.94254 39.658138,628.72287 37.164044,508.95373 34.669916,389.18464 77.124832,285.29952 164.46181,197.28537 251.79874,109.2713 357.28659,64.07929 480.9509,61.738734 c 1.93226,-0.03648 3.83792,-0.05876 5.76199,-0.07406 z"
       style="fill:#a52227;fill-opacity:1"
       inkscape:connector-curvature="0" />
    <path
       style="font-size:1400.74536133px;font-style:oblique;font-variant:normal;font-weight:600;font-stretch:normal;line-height:125%;letter-spacing:0px;word-spacing:0px;fill:#a52227;fill-opacity:1;stroke:none;font-family:URW Gothic L;-inkscape-font-specification:URW Gothic L Semi-Bold Oblique"
       d="m 541.45351,134.17603 -17.95695,31.06007 -14.8786,-28.34469 -23.08752,13.52923 18.21348,26.34388 -35.9652,0.80985 -2.25745,23.58088 36.78609,-3.90632 -21.03527,29.15454 21.08658,12.00481 20.2657,-32.34629 14.776,29.1069 23.44664,-13.67214 -18.82913,-26.86791 37.60697,-1.76262 -0.56437,-23.8667 -35.55474,4.14451 20.31699,-28.86872 -22.36922,-10.09928 z m 77.26616,98.08693 c -24.47315,14.54781 -82.69697,43.96054 -95.37702,52.92598 27.9825,34.07888 17.12054,62.25848 15.39165,70.31389 -1.37227,1.90029 -3.12226,4.74278 -5.43837,8.90833 -20.72585,25.88873 -11.64001,13.66763 -74.54698,84.17659 -60.84667,68.19967 -106.42133,191.24319 -95.17182,269.20319 0.35197,2.4391 0.7349,4.8381 1.12872,7.2409 -43.63688,-40.7755 -57.60427,-83.335 -55.87175,-123.57327 2.94996,-68.51221 57.00977,-144.10042 131.9066,-201.55699 l -62.13104,-71.36194 c -3.0007,2.30193 -6.00855,4.59633 -8.97849,6.95517 -2.9698,2.35889 -5.8939,4.77805 -8.82453,7.19336 -87.91658,72.46218 -158.43242,169.79611 -162.89516,273.44291 -4.76023,110.55666 71.25476,214.52666 248.37022,284.16146 l 0.20522,-0.2858 c 143.98214,-0.1584 239.15815,-41.5029 285.92591,-104.1846 43.9236,-58.8697 42.8856,-128.7309 19.4961,-188.50409 -0.7797,-1.99237 -1.5812,-3.98527 -2.4114,-5.95475 -0.8303,-1.96948 -1.6896,-3.91514 -2.5653,-5.85948 l -71.87905,26.24856 c 21.85465,48.53376 22.21054,102.61906 -6.82362,141.53296 -18.12775,24.2961 -48.73586,46.1211 -100.35369,59.1188 2.81259,-2.5384 5.6005,-5.1428 8.36281,-7.8125 42.45148,-41.0293 73.74959,-102.9938 48.68897,-167.9245 -1.67066,-4.3287 -3.56108,-8.6553 -5.74621,-13.0053 l -71.26344,28.5354 c 22.95087,45.6878 4.39988,79.1324 -28.37197,110.8063 -5.74332,5.5509 -12.10689,10.8628 -18.72653,15.8634 -18.17036,-25.1406 -38.40539,-62.8621 -34.1182,-101.231 C 482.01476,550.58558 622.308,428.20707 638.72885,403.37915 683.21216,336.12147 665.77549,282.59576 618.71967,232.26296 z m -160.53509,43.44599 -23.03619,6.71697 11.54376,24.43837 -32.32253,-5.85949 -6.25925,18.53124 33.65645,3.47758 -24.01101,19.62691 16.6743,13.38632 23.9084,-22.29465 8.05496,26.05805 23.29273,-6.76461 -12.0055,-24.91472 33.96428,5.33545 3.7453,-19.29345 -32.52772,-3.04884 23.34403,-19.53163 -18.16216,-12.14773 -21.59966,21.72299 -8.26019,-25.43876 z m 251.65378,247.71832 -12.0055,16.8639 -9.28631,-15.00602 -15.13513,7.52683 11.44112,13.91033 -23.29272,0.85745 -1.7957,12.62416 23.90839,-2.47719 -14.00641,15.86354 13.49337,6.19292 13.54467,-17.57843 9.18369,15.43469 15.34037,-7.62214 -11.80028,-14.14851 24.37011,-1.38144 -0.051,-12.81469 -23.08751,2.62011 13.54467,-15.67296 -14.36556,-5.19255 z m -123.80031,41.92159 -11.80029,15.86354 -8.72195,-13.91033 -14.62207,7.19328 10.77416,12.86234 -22.36923,1.04799 -1.9496,11.81423 23.0875,-2.62011 -13.69859,14.95846 12.82638,5.6213 13.28816,-16.53044 8.67063,14.33905 14.8273,-7.28868 -11.1846,-13.05276 23.44663,-1.57211 0.10262,-11.95714 -22.21529,2.71538 13.23683,-14.81555 -13.69859,-4.66845 z"
       id="path3004-9"
       inkscape:connector-curvature="0" />
  </g>
</svg>
