<?xml version="1.0" ?><!DOCTYPE svg  PUBLIC '-//W3C//DTD SVG 1.1//EN'  'http://www.w3.org/Graphics/SVG/1.1/DTD/svg11.dtd'><svg enable-background="new 0 0 128 128" height="128px" id="Layer_1" version="1.1" viewBox="0 0 128 128" width="128px" xml:space="preserve" xmlns="http://www.w3.org/2000/svg" xmlns:xlink="http://www.w3.org/1999/xlink"><path d="M111,25c3.3,0,6,2.7,6,6v66c0,3.3-2.7,6-6,6H17c-3.3,0-6-2.7-6-6V31c0-3.3,2.7-6,6-6H111 M111,21H17  c-5.5,0-10,4.5-10,10v66c0,5.5,4.5,10,10,10h94c5.5,0,10-4.5,10-10V31C121,25.5,116.5,21,111,21L111,21z" fill="#2C3E50"/><path d="M111.5,44H17c-0.6,0-1-0.4-1-1s0.4-1,1-1h94.5c0.6,0,1,0.4,1,1S112.1,44,111.5,44z" fill="#2C3E50"/><circle cx="21.5" cy="33.8" fill="#2C3E50" r="3"/><circle cx="30.5" cy="33.8" fill="#2C3E50" r="3"/><circle cx="39.5" cy="33.8" fill="#2C3E50" r="3"/><path d="M42.9,52.1c0.1,0,0.2,0.1,0.2,0.2l0.7,1.7h-6.5c-0.4,0-1-0.5-1-1c0-0.4,0.5-1,1-1H43 M86.9,60.9  C86.2,63,82,73,80.5,76.5c-0.6,1.4-1,2.4-1.1,2.7c-0.2,0.4-0.5,0.8-0.7,0.8h-23c0,0-0.1-0.1-0.1-0.1l0-0.1l-0.1-0.1  c-0.1,0-0.3,0-0.3-0.1L48,61h39 M42.8,50h-5.5c-1.6,0-3,1.5-3,3c0,1.6,1.5,3,3,3h6.8l9.3,24.2c0.2,0.6,1.1,1.4,1.7,1.6  c0,0,0.3,0.3,0.7,0.3h23c1.1,0,2.1-1.1,2.5-2.1c0.6-1.4,7.5-17.8,7.5-18.9s-0.9-1.9-2-1.9H47.8l-3-7.3C44.6,51,43.8,50,42.8,50  L42.8,50z" fill="#3B97D3"/><path d="M54.2,86.8c2.2,0,4,1.8,4,4s-1.8,4-4,4s-4-1.8-4-4S52,86.8,54.2,86.8 M54.2,84.8c-3.3,0-6,2.7-6,6s2.7,6,6,6  s6-2.7,6-6S57.6,84.8,54.2,84.8L54.2,84.8z" fill="#3B97D3"/><path d="M80.8,86.8c2.2,0,4,1.8,4,4s-1.8,4-4,4s-4-1.8-4-4S78.5,86.8,80.8,86.8 M80.8,84.8c-3.3,0-6,2.7-6,6  s2.7,6,6,6s6-2.7,6-6S84.1,84.8,80.8,84.8L80.8,84.8z" fill="#3B97D3"/><circle cx="54.2" cy="90.8" fill="#3B97D3" r="1.5"/><circle cx="80.8" cy="90.8" fill="#3B97D3" r="1.5"/></svg>