<?xml version="1.0" ?><!DOCTYPE svg  PUBLIC '-//W3C//DTD SVG 1.1//EN'  'http://www.w3.org/Graphics/SVG/1.1/DTD/svg11.dtd'><svg enable-background="new 0 0 128 128" height="128px" id="Layer_1" version="1.1" viewBox="0 0 128 128" width="128px" xml:space="preserve" xmlns="http://www.w3.org/2000/svg" xmlns:xlink="http://www.w3.org/1999/xlink"><path d="M80.4,29H33.3c-0.6,0-1-0.4-1-1s0.4-1,1-1h47.2c0.6,0,1,0.4,1,1S81,29,80.4,29z" fill="#3B97D3"/><path d="M80.4,37H33.3c-0.6,0-1-0.4-1-1s0.4-1,1-1h47.2c0.6,0,1,0.4,1,1S81,37,80.4,37z" fill="#3B97D3"/><path d="M80.4,45H33.3c-0.6,0-1-0.4-1-1s0.4-1,1-1h47.2c0.6,0,1,0.4,1,1S81,45,80.4,45z" fill="#3B97D3"/><path d="M80.4,53H33.3c-0.6,0-1-0.4-1-1s0.4-1,1-1h47.2c0.6,0,1,0.4,1,1S81,53,80.4,53z" fill="#3B97D3"/><path d="M80.4,61H33.3c-0.6,0-1-0.4-1-1s0.4-1,1-1h47.2c0.6,0,1,0.4,1,1S81,61,80.4,61z" fill="#3B97D3"/><path d="M80.4,69H33.3c-0.6,0-1-0.4-1-1s0.4-1,1-1h47.2c0.6,0,1,0.4,1,1S81,69,80.4,69z" fill="#3B97D3"/><path d="M118.8,64.7c0-0.5-0.2-0.9-0.6-1.2c0,0,0,0,0,0l-5.2-5.2c0,0,0,0,0,0c-0.3-0.3-0.8-0.5-1.3-0.6l-4.9-0.3  c-0.6,0-1.1,0.2-1.5,0.5c0,0,0,0,0,0L77.3,85.9c-0.8,0.8-0.8,2,0,2.8c0.4,0.4,0.9,0.6,1.4,0.6s1-0.2,1.4-0.6l27.3-27.3l3.3,0.2  l4.1,4.1l0.2,3.3L87.8,96.3c-0.8,0.8-0.8,2,0,2.8c0.4,0.4,0.9,0.6,1.4,0.6s1-0.2,1.4-0.6l27.9-27.9c0.4-0.4,0.6-1,0.6-1.5  c0,0,0,0,0,0L118.8,64.7z" fill="#3B97D3"/><path d="M84.3,93.3l27-27c0.4-0.4,0.4-1,0-1.4s-1-0.4-1.4,0l-27,27c-0.4,0.4-0.4,1,0,1.4c0.2,0.2,0.5,0.3,0.7,0.3  S84.1,93.5,84.3,93.3z" fill="#3B97D3"/><path d="M96,96.6v13.9c0,3.3-2.2,6.5-5.5,6.5h-66c-3.3,0-6.5-3.2-6.5-6.5v-93c0-3.3,3.2-5.5,6.5-5.5h66  c3.3,0,5.5,2.2,5.5,5.5v46.9l4-4V17.5C100,12,96,8,90.5,8h-66C19,8,14,12,14,17.5v93c0,5.5,5,10.5,10.5,10.5h66  c5.5,0,9.5-5,9.5-10.5V92.6L96,96.6z" fill="#2C3E50"/><path d="M84.8,99.7l-7,1.6l-2.7-2.7l1.7-7c0.3-1.1-0.4-2.2-1.5-2.4c-1.1-0.3-2.2,0.4-2.4,1.5l-3.2,13.7  c-0.3,1.1,0.4,2.2,1.5,2.4c0.2,0,0.3,0.1,0.5,0.1c0.2,0,0.3,0,0.5-0.1c0,0,0,0,0,0l13.7-3.2c1.1-0.3,1.7-1.3,1.5-2.4  C87,100.1,85.9,99.4,84.8,99.7z" fill="#3B97D3"/></svg>