<?xml version="1.0" ?><!DOCTYPE svg  PUBLIC '-//W3C//DTD SVG 1.1//EN'  'http://www.w3.org/Graphics/SVG/1.1/DTD/svg11.dtd'><svg enable-background="new 0 0 128 128" height="128px" id="Layer_1" version="1.1" viewBox="0 0 128 128" width="128px" xml:space="preserve" xmlns="http://www.w3.org/2000/svg" xmlns:xlink="http://www.w3.org/1999/xlink"><path d="M62.7,50.5c1.7,0,2.7,0.6,3,1.7c0.5,2.2-0.6,6.4-1.6,7.8c-0.6,0.9-1,1.2-1.1,1.3c-0.1,0-0.5,0-1.4-1.2  c-0.7-0.9-2.1-4.8-1.8-7.5C60,51.3,60.2,50.5,62.7,50.5 M62.7,46.5c-2.4,0-6.2,0.5-6.9,5.5c-0.5,3.9,1.3,8.8,2.6,10.5  c1.5,1.8,2.8,2.8,4.6,2.8c1.7,0,2.8-0.8,4.4-3.1c1.4-2.1,2.9-7.3,2.2-10.9C68.6,47.2,64.6,46.5,62.7,46.5L62.7,46.5z" fill="#2C3E50"/><path d="M69.4,69.9c1.2,0.4,2.6,0.8,3.8,1.2c0.1,3.4-0.6,11-1,14.9c-0.2,2.1-0.3,3.7-0.4,4.9  c-0.4,0.1-0.9,0.2-1.5,0.3l-3.3,0.6v3.3V121c0,0.1-0.1,0.1-0.1,0.1h-7.8c-0.1,0-0.1-0.1-0.1-0.1V95.2v-3.3l-3.3-0.6  c-0.6-0.1-1.1-0.2-1.5-0.4c-0.1-1.2-0.2-2.8-0.4-4.9c-0.4-3.9-1-11.5-1-14.9c1.2-0.4,2.7-0.8,3.9-1.2l3.3,3.8l3,3.4l3-3.4L69.4,69.9   M68.1,65.3L68.1,65.3l-5,5.8l-5-5.7c0,0-6.6,2-8.5,2.6c-1.9,0.6,0.8,21.4,0.8,25.2c0,0,0.5,1.2,4.7,2V121c0,2.3,1.9,4.1,4.1,4.1H67  c2.3,0,4.1-1.9,4.1-4.1V95.2c4.2-0.8,4.7-2,4.7-2c0-3.7,2.7-24.6,0.8-25.2C74.7,67.4,68.1,65.3,68.1,65.3L68.1,65.3z" fill="#2C3E50"/><path d="M62.7,7.2c2.5,0,4.6,2.1,4.6,4.6s-2.1,4.6-4.6,4.6s-4.6-2.1-4.6-4.6S60.2,7.2,62.7,7.2 M62.7,3.2  c-4.7,0-8.6,3.8-8.6,8.6c0,4.7,3.8,8.6,8.6,8.6s8.6-3.8,8.6-8.6C71.3,7,67.5,3.2,62.7,3.2L62.7,3.2z" fill="#2C3E50"/><path d="M24.5,29.3L24.5,29.3c0.8,0,1.6,0.2,2.3,0.6c2.2,1.3,2.9,4.1,1.7,6.3c-0.8,1.4-2.3,2.3-4,2.3  c-0.8,0-1.6-0.2-2.3-0.6c-2.2-1.3-2.9-4.1-1.7-6.3C21.3,30.1,22.9,29.3,24.5,29.3 M24.5,25.3c-3,0-5.9,1.5-7.4,4.3  c-2.4,4.1-1,9.4,3.1,11.7c1.4,0.8,2.8,1.2,4.3,1.2c3,0,5.9-1.5,7.4-4.3c2.4-4.1,1-9.4-3.1-11.7C27.4,25.6,26,25.3,24.5,25.3  L24.5,25.3z" fill="#2C3E50"/><path d="M101,73.4L101,73.4c0.8,0,1.6,0.2,2.3,0.6c2.2,1.3,2.9,4.1,1.7,6.3c-0.8,1.4-2.3,2.3-4,2.3  c-0.8,0-1.6-0.2-2.3-0.6c-1.1-0.6-1.8-1.6-2.1-2.8c-0.3-1.2-0.2-2.4,0.5-3.5C97.8,74.3,99.4,73.4,101,73.4 M101,69.4  c-3,0-5.9,1.5-7.4,4.3c-2.4,4.1-1,9.4,3.1,11.7c1.4,0.8,2.8,1.2,4.3,1.2c3,0,5.9-1.5,7.4-4.3c2.4-4.1,1-9.4-3.1-11.7  C103.9,69.8,102.5,69.4,101,69.4L101,69.4z" fill="#2C3E50"/><path d="M24.5,73.4L24.5,73.4c1.6,0,3.2,0.9,4,2.3c0.6,1.1,0.8,2.3,0.5,3.5c-0.3,1.2-1.1,2.2-2.1,2.8  c-0.7,0.4-1.5,0.6-2.3,0.6c-1.6,0-3.2-0.9-4-2.3c-1.3-2.2-0.5-5,1.7-6.3C22.9,73.6,23.7,73.4,24.5,73.4 M24.5,69.4  c-1.5,0-2.9,0.4-4.3,1.2c-4.1,2.4-5.5,7.6-3.1,11.7c1.6,2.8,4.5,4.3,7.4,4.3c1.5,0,2.9-0.4,4.3-1.2c4.1-2.4,5.5-7.6,3.1-11.7  C30.3,71,27.5,69.4,24.5,69.4L24.5,69.4z" fill="#2C3E50"/><path d="M23.5,44.4v23.1c0.3,0,0.7-0.1,1-0.1c0.3,0,0.7,0,1,0.1V44.4c-0.3,0-0.7,0.1-1,0.1  C24.2,44.4,23.8,44.4,23.5,44.4z" fill="#3B97D3"/><path d="M102,67.5V44.4c-0.3,0-0.7,0.1-1,0.1c-0.3,0-0.7,0-1-0.1v23.1c0.3,0,0.7-0.1,1-0.1  C101.3,67.4,101.7,67.5,102,67.5z" fill="#3B97D3"/><path d="M61.7,22.3v22.3c0.3,0,0.6,0,0.9,0c0.3,0,0.7,0,1.1,0.1V22.3c-0.3,0-0.7,0.1-1,0.1S62.1,22.3,61.7,22.3z" fill="#3B97D3"/><path d="M70.8,59.4c-0.2,0.7-0.4,1.3-0.7,1.9l21.3,12.3c0.1-0.3,0.3-0.6,0.5-0.9c0.2-0.3,0.4-0.6,0.6-0.8L70.8,59.4z  " fill="#3B97D3"/><path d="M54.7,59.4L33.1,71.9c0.2,0.3,0.4,0.5,0.6,0.8c0.2,0.3,0.3,0.6,0.5,0.9l21.3-12.3  C55.2,60.7,54.9,60.1,54.7,59.4z" fill="#3B97D3"/><path d="M71.5,51c0.1,0.3,0.1,0.6,0.2,1l20.7-12c-0.2-0.3-0.4-0.5-0.6-0.8c-0.2-0.3-0.3-0.6-0.5-0.9L71.2,49.9  C71.3,50.2,71.4,50.6,71.5,51z" fill="#3B97D3"/><path d="M53.8,51.9c0,0,0-0.1,0-0.1c0.1-0.6,0.2-1.2,0.4-1.9L34.1,38.3c-0.1,0.3-0.3,0.6-0.5,0.9  c-0.2,0.3-0.4,0.6-0.6,0.8L53.8,51.9z" fill="#3B97D3"/><path d="M71.4,17.9l20,11.6c0.3-0.6,0.6-1.2,1-1.7l-20-11.6C72.1,16.8,71.7,17.4,71.4,17.9z" fill="#3B97D3"/><path d="M48.2,90.6l-14.1-8.2c-0.3,0.6-0.6,1.2-1,1.7L48.4,93C48.4,92.4,48.3,91.6,48.2,90.6z" fill="#3B97D3"/><path d="M91.4,82.4L78,90.1c-0.1,1-0.1,1.8-0.2,2.4l14.5-8.4C92,83.6,91.6,83,91.4,82.4z" fill="#3B97D3"/><path d="M34.1,29.4l20-11.6c-0.4-0.5-0.7-1.1-1-1.7l-20,11.6C33.5,28.3,33.8,28.8,34.1,29.4z" fill="#3B97D3"/><path d="M101,29.3L101,29.3c1.6,0,3.2,0.9,4,2.3c1.3,2.2,0.5,5-1.7,6.3c-0.7,0.4-1.5,0.6-2.3,0.6  c-1.6,0-3.2-0.9-4-2.3c-1.3-2.2-0.5-5,1.7-6.3C99.4,29.5,100.2,29.3,101,29.3 M101,25.3c-1.5,0-2.9,0.4-4.3,1.2  c-4.1,2.4-5.5,7.6-3.1,11.7c1.6,2.8,4.5,4.3,7.4,4.3c1.5,0,2.9-0.4,4.3-1.2c4.1-2.4,5.5-7.6,3.1-11.7C106.8,26.8,104,25.3,101,25.3  L101,25.3z" fill="#2C3E50"/></svg>