<?xml version="1.0" ?><!DOCTYPE svg  PUBLIC '-//W3C//DTD SVG 1.1//EN'  'http://www.w3.org/Graphics/SVG/1.1/DTD/svg11.dtd'><svg enable-background="new 0 0 128 128" height="128px" id="Layer_1" version="1.1" viewBox="0 0 128 128" width="128px" xml:space="preserve" xmlns="http://www.w3.org/2000/svg" xmlns:xlink="http://www.w3.org/1999/xlink"><path d="M63,9.7c4.3,0,7.9,3.5,7.9,7.9s-3.5,7.9-7.9,7.9s-7.9-3.5-7.9-7.9S58.7,9.7,63,9.7 M63,5.7  c-6.6,0-11.9,5.3-11.9,11.9c0,6.6,5.3,11.9,11.9,11.9s11.9-5.3,11.9-11.9C74.9,11,69.6,5.7,63,5.7L63,5.7z" fill="#2C3E50"/><path d="M63,102.8c4.3,0,7.9,3.5,7.9,7.9s-3.5,7.9-7.9,7.9s-7.9-3.5-7.9-7.9S58.7,102.8,63,102.8 M63,98.8  c-6.6,0-11.9,5.3-11.9,11.9s5.3,11.9,11.9,11.9s11.9-5.3,11.9-11.9S69.6,98.8,63,98.8L63,98.8z" fill="#2C3E50"/><path d="M22.7,33L22.7,33c1.4,0,2.7,0.4,3.9,1.1c3.8,2.2,5.1,7,2.9,10.8c-1.4,2.4-4,3.9-6.8,3.9  c-1.4,0-2.7-0.4-3.9-1.1c-3.8-2.2-5.1-7-2.9-10.8C17.3,34.5,19.9,33,22.7,33 M22.7,29c-4.1,0-8.1,2.1-10.3,5.9  c-3.3,5.7-1.3,12.9,4.3,16.2c1.9,1.1,3.9,1.6,5.9,1.6c4.1,0,8.1-2.1,10.3-5.9c3.3-5.7,1.3-12.9-4.3-16.2C26.8,29.5,24.7,29,22.7,29  L22.7,29z" fill="#2C3E50"/><path d="M103.3,79.5L103.3,79.5c1.4,0,2.7,0.4,3.9,1.1c1.8,1.1,3.1,2.8,3.7,4.8s0.3,4.2-0.8,6  c-1.4,2.4-4,3.9-6.8,3.9c-1.4,0-2.7-0.4-3.9-1.1c-3.8-2.2-5.1-7-2.9-10.8C97.9,81,100.5,79.5,103.3,79.5 M103.3,75.5  c-4.1,0-8.1,2.1-10.3,5.9c-3.3,5.7-1.3,12.9,4.3,16.2c1.9,1.1,3.9,1.6,5.9,1.6c4.1,0,8.1-2.1,10.3-5.9c3.3-5.7,1.3-12.9-4.3-16.2  C107.4,76,105.3,75.5,103.3,75.5L103.3,75.5z" fill="#2C3E50"/><path d="M22.7,79.5L22.7,79.5c2.8,0,5.4,1.5,6.8,3.9c2.2,3.8,0.9,8.6-2.9,10.8c-1.2,0.7-2.6,1.1-3.9,1.1  c-2.8,0-5.4-1.5-6.8-3.9c-1.1-1.8-1.3-3.9-0.8-6s1.8-3.7,3.7-4.8C20,79.9,21.3,79.5,22.7,79.5 M22.7,75.5c-2,0-4.1,0.5-5.9,1.6  c-5.7,3.3-7.6,10.5-4.3,16.2c2.2,3.8,6.2,5.9,10.3,5.9c2,0,4.1-0.5,5.9-1.6c5.7-3.3,7.6-10.5,4.3-16.2  C30.8,77.6,26.8,75.5,22.7,75.5L22.7,75.5z" fill="#2C3E50"/><path d="M103.3,33L103.3,33c2.8,0,5.4,1.5,6.8,3.9c2.2,3.8,0.9,8.6-2.9,10.8c-1.2,0.7-2.6,1.1-3.9,1.1  c-2.8,0-5.4-1.5-6.8-3.9c-2.2-3.8-0.9-8.6,2.9-10.8C100.6,33.3,101.9,33,103.3,33 M103.3,29c-2,0-4.1,0.5-5.9,1.6  c-5.7,3.3-7.6,10.5-4.3,16.2c2.2,3.8,6.2,5.9,10.3,5.9c2,0,4.1-0.5,5.9-1.6c5.7-3.3,7.6-10.5,4.3-16.2C111.4,31.1,107.4,29,103.3,29  L103.3,29z" fill="#2C3E50"/><g><path d="M23.7,54.7c-0.3,0-0.7,0-1,0c-0.3,0-0.7,0-1,0v18.9c0.3,0,0.7,0,1,0c0.3,0,0.7,0,1,0V54.7z" fill="#2C3E50"/><path d="M103.3,54.7c-0.3,0-0.7,0-1,0v18.9c0.3,0,0.7,0,1,0c0.3,0,0.7,0,1,0V54.7C104,54.7,103.6,54.7,103.3,54.7z" fill="#2C3E50"/><path d="M51.5,102.9l-16.3-9.4c-0.3,0.6-0.6,1.2-1,1.7l16.4,9.4C50.8,104,51.1,103.4,51.5,102.9z" fill="#2C3E50"/><path d="M90.8,93.4l-16.3,9.4c0.4,0.6,0.7,1.1,1,1.7l16.4-9.4C91.5,94.6,91.1,94,90.8,93.4z" fill="#2C3E50"/><path d="M74.5,25.4l16.3,9.4c0.3-0.6,0.6-1.2,1-1.7l-16.4-9.4C75.2,24.2,74.9,24.8,74.5,25.4z" fill="#2C3E50"/><path d="M35.2,34.9l16.3-9.5c-0.4-0.5-0.7-1.1-1-1.7l-16.3,9.5C34.6,33.7,34.9,34.3,35.2,34.9z" fill="#2C3E50"/><path d="M81.6,54.7l10.2-6.1c-0.2-0.3-0.4-0.5-0.5-0.8c-0.2-0.3-0.3-0.6-0.5-0.9l-11.3,6.7   C80.2,53.9,80.9,54.2,81.6,54.7z" fill="#2C3E50"/><path d="M84.8,75.6c-0.5,0.5-1,1-1.5,1.5l7.6,4.2c0.1-0.3,0.3-0.6,0.4-0.9c0.2-0.3,0.4-0.6,0.6-0.9L84.8,75.6z" fill="#2C3E50"/><path d="M62,81v15.8c0.3,0,0.7-0.1,1-0.1s0.7,0,1,0.1V81H62z" fill="#2C3E50"/><path d="M49.2,56.7c0-0.6,0.1-1.2,0.2-1.9l-14.2-7.9c-0.1,0.3-0.3,0.6-0.5,0.9c-0.2,0.3-0.3,0.6-0.5,0.8l14.6,8.2   C48.9,56.7,49,56.7,49.2,56.7z" fill="#2C3E50"/><path d="M64,44.8V31.4c-0.3,0-0.7,0.1-1,0.1s-0.7,0-1-0.1v13.2C62.7,44.6,63.3,44.7,64,44.8z" fill="#2C3E50"/><path d="M41.6,75.2l-7.4,4.4c0.2,0.3,0.4,0.6,0.6,0.9c0.2,0.3,0.3,0.6,0.4,0.9l7.6-4.5C42.4,76.3,42,75.8,41.6,75.2   z" fill="#2C3E50"/></g><path d="M52.1,79c-5.7,0-10.4-4.7-10.4-10.4c0-5.4,4.2-9.9,9.6-10.3c-0.1-0.4-0.1-0.9-0.1-1.3  c0-5.8,4.7-10.4,10.4-10.4c4.8,0,9,3.4,10.1,8c0.7-0.1,1.5-0.2,2.2-0.2c6.8,0,12.2,5.7,12.2,12.4c0,6.5-5.4,11.2-12,12.2l0,0l0,0  H52.1z M52,61.5c-5,0.3-6.9,3-6.9,6.8c0,3.9,2.9,6.7,6.9,6.7H74c5,0,9.1-3.7,9.1-8.7S79,57.5,74,57.5c-2.8,0-5.5,1.5-7.3,4.1  l-0.5,0.7l-2.6-1.8l0.5-0.7c1.2-1.7,2.8-3.1,4.6-4.1c-0.6-3.4-3.6-5.9-7.1-5.9c-4,0-7.2,3.2-7.2,7.2c0,0.5,0.1,1.1,0.2,1.6l0.9,3  L52,61.5L52,61.5z" fill="#3B97D3"/></svg>