<?xml version="1.0" ?><!DOCTYPE svg  PUBLIC '-//W3C//DTD SVG 1.1//EN'  'http://www.w3.org/Graphics/SVG/1.1/DTD/svg11.dtd'><svg enable-background="new 0 0 128 128" height="128px" id="Layer_1" version="1.1" viewBox="0 0 128 128" width="128px" xml:space="preserve" xmlns="http://www.w3.org/2000/svg" xmlns:xlink="http://www.w3.org/1999/xlink"><path d="M63,16.7c27.2,0,49.3,22.1,49.3,49.3S90.2,115.3,63,115.3S13.7,93.2,13.7,66S35.8,16.7,63,16.7 M63,12.7  C33.5,12.7,9.7,36.5,9.7,66s23.9,53.3,53.3,53.3c29.5,0,53.3-23.9,53.3-53.3S92.5,12.7,63,12.7L63,12.7z" fill="#2C3E50"/><path d="M62,71.3v16.9c-7.1,0.1-14.1,1-20.7,2.8c-2.4-7.6-3.7-15.6-3.8-23.9h22.1c-0.1-0.3-0.1-0.7-0.1-1  c0-0.3,0-0.7,0.1-1H37.5c0.1-7.8,1.3-15.3,3.3-22.4c6.8,1.8,13.8,2.8,21.1,2.9v16.8c0.4-0.2,0.9-0.3,1.3-0.3l0.7-0.7V45.5v-2V18.7  c-0.3,0-0.7,0-1,0s-0.7,0-1,0v24.8c-7.1-0.1-14-1.1-20.6-2.8c2.3-7.3,5.7-14.2,9.8-20.6c-1,0.3-2,0.5-2.9,0.9  c-3.7,5.9-6.7,12.4-8.8,19.1c-4.3-1.3-8.5-2.9-12.5-4.8c-0.4,0.5-0.9,1.1-1.3,1.6c4.2,2.1,8.7,3.8,13.2,5.1  c-2.1,7.3-3.3,15-3.4,22.9H15.7c0,0.3,0,0.7,0,1s0,0.7,0,1h19.8c0.1,8.5,1.4,16.7,3.9,24.5c-4.4,1.3-8.6,2.9-12.7,4.8  c0.4,0.5,0.9,1.1,1.4,1.6c3.9-1.8,7.9-3.3,12-4.5c2.1,6.2,4.9,12.1,8.3,17.6c1,0.3,1.9,0.6,2.9,0.9c-3.9-5.9-7-12.3-9.3-19  c6.4-1.7,13.1-2.6,20-2.7v23.1c0.3,0,0.7,0,1,0s0.7,0,1,0V90.2v-2V74.7L62,71.3z" fill="#3B97D3"/><path d="M78.5,91.2c0.9-0.6,1.3-1.8,0.7-2.7l-13.7-23l14.7-14.3c0.4-0.4,0.4-1,0-1.4s-1-0.4-1.4,0L64,64.1  c-0.5-0.1-1.1-0.1-1.6,0.2c-0.6,0.4-1,1-1,1.7c0,0.3,0.1,0.7,0.3,1l14,23.5C76.3,91.5,77.5,91.8,78.5,91.2z" fill="#2C3E50"/></svg>