<?xml version="1.0" encoding="UTF-8" standalone="no"?>
<!-- Created with Inkscape (http://www.inkscape.org/) -->

<svg
   xmlns:dc="http://purl.org/dc/elements/1.1/"
   xmlns:cc="http://creativecommons.org/ns#"
   xmlns:rdf="http://www.w3.org/1999/02/22-rdf-syntax-ns#"
   xmlns:svg="http://www.w3.org/2000/svg"
   xmlns="http://www.w3.org/2000/svg"
   xmlns:sodipodi="http://sodipodi.sourceforge.net/DTD/sodipodi-0.dtd"
   xmlns:inkscape="http://www.inkscape.org/namespaces/inkscape"
   width="460"
   height="350"
   id="svg3628"
   version="1.1"
   inkscape:version="0.48.4 r9939"
   sodipodi:docname="New document 4">
  <defs
     id="defs3630" />
  <sodipodi:namedview
     id="base"
     pagecolor="#ffffff"
     bordercolor="#666666"
     borderopacity="1.0"
     inkscape:pageopacity="0.0"
     inkscape:pageshadow="2"
     inkscape:zoom="0.98994949"
     inkscape:cx="51.642264"
     inkscape:cy="398.60003"
     inkscape:document-units="px"
     inkscape:current-layer="layer1"
     showgrid="false"
     inkscape:window-width="1286"
     inkscape:window-height="981"
     inkscape:window-x="417"
     inkscape:window-y="60"
     inkscape:window-maximized="0" />
  <metadata
     id="metadata3633">
    <rdf:RDF>
      <cc:Work
         rdf:about="">
        <dc:format>image/svg+xml</dc:format>
        <dc:type
           rdf:resource="http://purl.org/dc/dcmitype/StillImage" />
        <dc:title></dc:title>
      </cc:Work>
    </rdf:RDF>
  </metadata>
  <g
     inkscape:label="Layer 1"
     inkscape:groupmode="layer"
     id="layer1"
     transform="translate(0,-702.36218)">
    <g
       id="g3726"
       transform="translate(-148.49242,363.67522)">
      <path
         id="path3639"
         d="M 565.59524,436.37221 H 196.3584 c -2.34436,0 -3.90727,-1.56291 -3.90727,-3.90727 0,-2.34436 1.56291,-3.90727 3.90727,-3.90727 h 369.23684 c 2.34437,0 3.90727,1.56291 3.90727,3.90727 0,2.34436 -1.5629,3.90727 -3.90727,3.90727 z"
         inkscape:connector-curvature="0"
         style="fill:#2c3e50" />
      <circle
         transform="matrix(3.9072682,0,0,3.9072682,129.93484,264.45241)"
         id="circle3641"
         r="3"
         cy="33.799999"
         cx="21.5"
         sodipodi:cx="21.5"
         sodipodi:cy="33.799999"
         sodipodi:rx="3"
         sodipodi:ry="3"
         style="fill:#2c3e50"
         d="m 24.5,33.799999 c 0,1.656854 -1.343146,3 -3,3 -1.656854,0 -3,-1.343146 -3,-3 0,-1.656854 1.343146,-3 3,-3 1.656854,0 3,1.343146 3,3 z" />
      <circle
         transform="matrix(3.9072682,0,0,3.9072682,129.93484,264.45241)"
         id="circle3643"
         r="3"
         cy="33.799999"
         cx="30.5"
         sodipodi:cx="30.5"
         sodipodi:cy="33.799999"
         sodipodi:rx="3"
         sodipodi:ry="3"
         style="fill:#2c3e50"
         d="m 33.5,33.799999 c 0,1.656854 -1.343146,3 -3,3 -1.656854,0 -3,-1.343146 -3,-3 0,-1.656854 1.343146,-3 3,-3 1.656854,0 3,1.343146 3,3 z" />
      <circle
         transform="matrix(3.9072682,0,0,3.9072682,129.93484,264.45241)"
         id="circle3645"
         r="3"
         cy="33.799999"
         cx="39.5"
         sodipodi:cx="39.5"
         sodipodi:cy="33.799999"
         sodipodi:rx="3"
         sodipodi:ry="3"
         style="fill:#2c3e50"
         d="m 42.5,33.799999 c 0,1.656854 -1.343146,3 -3,3 -1.656854,0 -3,-1.343146 -3,-3 0,-1.656854 1.343146,-3 3,-3 1.656854,0 3,1.343146 3,3 z" />
      <g
         id="g3715">
        <path
           style="fill:#2c3e50"
           inkscape:connector-curvature="0"
           d="m 563.64161,362.13411 c 12.89399,0 23.44361,10.54963 23.44361,23.44361 v 257.87971 c 0,12.89398 -10.54962,23.4436 -23.44361,23.4436 H 196.3584 c -12.89399,0 -23.44361,-10.54962 -23.44361,-23.4436 V 385.57772 c 0,-12.89398 10.54962,-23.44361 23.44361,-23.44361 h 367.28321 m 0,-15.62907 H 196.3584 c -21.48998,0 -39.07268,17.58271 -39.07268,39.07268 v 257.87971 c 0,21.48997 17.5827,39.07268 39.07268,39.07268 h 367.28321 c 21.48998,0 39.07268,-17.58271 39.07268,-39.07268 V 385.57772 c 0,-21.48997 -17.5827,-39.07268 -39.07268,-39.07268 l 0,0 z"
           id="path3637" />
        <g
           id="g3696"
           transform="matrix(1.8804082,0,0,1.7459588,245.62432,429.59583)">
          <path
             id="path3676"
             d="m 25,26 c 0.1,0 0.5,0.3 0.6,0.6 L 27,30 H 14 c -0.8,0 -2,-1 -2,-2 0,-0.8 1,-2 2,-2 h 11 m 88,17 c -1.3,4.3 -9.7,24.5 -12.5,31.3 -1.2,2.8 -1.9,4.6 -2.2,5.2 C 98,80.4 97.3,81 97,81 H 51 c 0,0 -0.1,0 -0.2,0 l 0,0 -0.2,0 C 50.4,80.9 50.1,80.7 49.9,80.6 L 35.4,43 H 113 M 25,22 H 14 c -3.2,0 -6,3 -6,6 0,3.2 3,6 6,6 h 13.6 l 18.7,48.1 c 0.5,1.3 2.2,2.5 3.4,2.7 0,0 0.6,0.2 1.3,0.2 h 46 c 2.2,0 4.2,-1.9 5,-4 1.1,-2.9 15,-35.8 15,-38 0,-2.2 -1.8,-4 -4,-4 H 35.1 L 29.2,24.9 C 28.6,23.6 27,22 25,22 l 0,0 z"
             inkscape:connector-curvature="0"
             style="fill:#2c3e50" />
          <path
             id="path3678"
             d="m 48,95 c 4.4,0 8,3.6 8,8 0,4.4 -3.6,8 -8,8 -4.4,0 -8,-3.6 -8,-8 0,-4.4 3.6,-8 8,-8 m 0,-4 c -6.6,0 -12,5.4 -12,12 0,6.6 5.4,12 12,12 6.6,0 12,-5.4 12,-12 0,-6.6 -5.4,-12 -12,-12 l 0,0 z"
             inkscape:connector-curvature="0"
             style="fill:#2c3e50" />
          <path
             id="path3680"
             d="m 101,95 c 4.4,0 8,3.6 8,8 0,4.4 -3.6,8 -8,8 -4.4,0 -8,-3.6 -8,-8 0,-4.4 3.6,-8 8,-8 m 0,-4 c -6.6,0 -12,5.4 -12,12 0,6.6 5.4,12 12,12 6.6,0 12,-5.4 12,-12 0,-6.6 -5.4,-12 -12,-12 l 0,0 z"
             inkscape:connector-curvature="0"
             style="fill:#2c3e50" />
          <path
             id="path3682"
             d="m 103.2,63 c 0.3,-1 0.5,-2 0.8,-2 H 92.7 l 1.7,-8 h 12.8 c 0.3,-1 0.5,-2 0.8,-2 H 94.8 L 96,45 h -2 l -1.2,6 H 75 v -6 h -2 v 6 H 56.2 l -1,-6 h -2 l 1,6 H 40.5 l 0.8,2 h 13.3 l 1.5,8 H 44.4 l 0.8,2 h 11.3 l 1.5,8 h -9.8 l 0.8,2 h 9.4 l 1.2,6 h 2 L 60.4,73 H 73 v 6 h 2 v -6 h 13.1 l -1.4,6 h 2 l 1.4,-6 H 99 c 0.2,-1 0.5,-2 0.8,-2 h -9.3 l 1.7,-8 h 11 z M 73,71 H 60 L 58.5,63 H 73 v 8 z M 73,61 H 58.1 L 56.6,53 H 73 v 8 z M 88.5,71 H 75 v -8 h 15.2 l -1.7,8 z M 75,61 v -8 h 17.4 l -1.7,8 H 75 z"
             inkscape:connector-curvature="0"
             style="fill:#2c3e50" />
          <circle
             id="circle3684"
             r="3"
             cy="103"
             cx="48"
             sodipodi:cx="48"
             sodipodi:cy="103"
             sodipodi:rx="3"
             sodipodi:ry="3"
             style="fill:#3b97d3"
             d="m 51,103 c 0,1.65685 -1.343146,3 -3,3 -1.656854,0 -3,-1.34315 -3,-3 0,-1.65685 1.343146,-3 3,-3 1.656854,0 3,1.34315 3,3 z" />
          <circle
             id="circle3686"
             r="3"
             cy="103"
             cx="101"
             sodipodi:cx="101"
             sodipodi:cy="103"
             sodipodi:rx="3"
             sodipodi:ry="3"
             style="fill:#3b97d3"
             d="m 104,103 c 0,1.65685 -1.34315,3 -3,3 -1.656854,0 -3,-1.34315 -3,-3 0,-1.65685 1.343146,-3 3,-3 1.65685,0 3,1.34315 3,3 z" />
          <polygon
             id="polygon3688"
             points="84.7,28.6 72.1,17.5 64.4,26.4 59.4,22 46.2,37 48.9,37 59.6,24.8 73.4,37 76.5,37 65.9,27.7 72.3,20.3 83.4,30.1 77.3,37 80,37 87.9,28 98.2,37 101.2,37 87.7,25.2 "
             style="fill:#3b97d3" />
        </g>
      </g>
    </g>
  </g>
</svg>
