<?xml version="1.0" encoding="UTF-8" standalone="no"?>
<svg
   xmlns:dc="http://purl.org/dc/elements/1.1/"
   xmlns:cc="http://creativecommons.org/ns#"
   xmlns:rdf="http://www.w3.org/1999/02/22-rdf-syntax-ns#"
   xmlns:svg="http://www.w3.org/2000/svg"
   xmlns="http://www.w3.org/2000/svg"
   xmlns:sodipodi="http://sodipodi.sourceforge.net/DTD/sodipodi-0.dtd"
   xmlns:inkscape="http://www.inkscape.org/namespaces/inkscape"
   height="1000"
   width="980"
   id="svg3905"
   version="1.1"
   inkscape:version="0.48.4 r9939"
   sodipodi:docname="flame-512px.svg">
  <metadata
     id="metadata3913">
    <rdf:RDF>
      <cc:Work
         rdf:about="">
        <dc:format>image/svg+xml</dc:format>
        <dc:type
           rdf:resource="http://purl.org/dc/dcmitype/StillImage" />
        <dc:title />
      </cc:Work>
    </rdf:RDF>
  </metadata>
  <defs
     id="defs3911" />
  <sodipodi:namedview
     pagecolor="#ffffff"
     bordercolor="#666666"
     borderopacity="1"
     objecttolerance="10"
     gridtolerance="10"
     guidetolerance="10"
     inkscape:pageopacity="0"
     inkscape:pageshadow="2"
     inkscape:window-width="2194"
     inkscape:window-height="1028"
     id="namedview3909"
     showgrid="false"
     inkscape:zoom="0.7818292"
     inkscape:cx="13.108248"
     inkscape:cy="323.81414"
     inkscape:window-x="540"
     inkscape:window-y="420"
     inkscape:window-maximized="0"
     inkscape:current-layer="g3038" />
  <g
     id="g4811"
     transform="matrix(0.8435877,0,0,0.86801419,72.221329,53.533302)"
     style="fill:#ffa880;fill-opacity:1">
    <g
       id="g4065"
       transform="translate(10.721188,22.92287)">
      <g
         id="g3038"
         transform="translate(7.5810241,0)">
        <path
           style="font-size:1400.74536133px;font-style:oblique;font-variant:normal;font-weight:600;font-stretch:normal;line-height:125%;letter-spacing:0px;word-spacing:0px;fill:#000000;fill-opacity:1;stroke:none;font-family:URW Gothic L;-inkscape-font-specification:URW Gothic L Semi-Bold Oblique"
           d="m 578.78743,187.12804 -18.07963,23.44685 -14.98028,-21.39706 -23.24524,10.21305 18.33792,19.88666 -36.21093,0.61134 -2.27287,17.80091 37.03743,-2.94883 -21.17902,22.00839 21.23067,9.06227 20.40417,-24.4178 14.87695,21.97243 23.60683,-10.32092 -18.95778,-20.28225 37.86391,-1.33058 -0.56821,-18.01666 -35.79768,3.12863 20.45582,-21.79261 -22.52206,-7.62382 z m 77.79407,74.04456 c -24.64035,10.98196 -83.26198,33.18525 -96.02867,39.95314 28.17367,25.72572 17.2375,46.99812 15.49681,53.07906 -1.38164,1.4345 -3.1436,3.58028 -5.47553,6.72478 -20.86746,19.54307 -11.71954,10.31752 -75.05631,63.54383 -61.26241,51.48305 -107.14846,144.36704 -95.82207,203.21799 0.35437,1.84132 0.73992,3.65226 1.13645,5.46614 -43.93506,-30.78097 -57.99786,-62.90855 -56.25351,-93.28393 2.97011,-51.71897 57.39929,-108.77954 132.80782,-152.15277 l -62.55553,-53.8702 c -3.0212,1.73768 -6.0496,3.46971 -9.03982,5.25036 -2.99011,1.78069 -5.93418,3.60688 -8.88484,5.43017 -88.51724,54.70078 -159.5149,128.17691 -164.00812,206.41856 -4.79274,83.45776 71.74161,161.94346 250.06718,214.50987 l 0.20663,-0.21576 c 144.96589,-0.11965 240.79218,-31.33005 287.87944,-78.64763 44.22368,-44.44004 43.17868,-97.17733 19.62932,-142.29935 -0.78506,-1.50405 -1.59197,-3.00843 -2.42785,-4.49517 -0.83595,-1.48675 -1.70121,-2.95542 -2.58279,-4.42325 l -72.37021,19.81473 c 22.00397,36.63757 22.36229,77.46583 -6.87026,106.84139 -18.25159,18.34086 -49.06882,34.8163 -101.03932,44.62812 2.83181,-1.91624 5.63877,-3.88231 8.41995,-5.89768 42.74152,-30.97246 74.25345,-77.74865 49.02163,-126.764 -1.68209,-3.26768 -3.58542,-6.53376 -5.78549,-9.81747 l -71.75032,21.54089 c 23.10766,34.4892 4.42994,59.73605 -28.56582,83.64627 -5.78255,4.19032 -12.1896,8.20026 -18.85448,11.97516 -18.2945,-18.97838 -38.66778,-47.45388 -34.3513,-76.41803 15.41808,-103.45756 156.66986,-195.83953 173.2029,-214.5818 44.78724,-50.77196 27.23144,-91.17784 -20.14589,-129.17342 z m -161.63192,32.79681 -23.19359,5.07057 11.62263,18.4482 -32.54335,-4.42324 -6.30204,13.98899 33.88639,2.62517 -24.17505,14.81611 16.78823,10.10516 24.07174,-16.82994 8.11002,19.6709 23.45187,-5.10652 -12.08754,-18.80782 34.19634,4.02767 3.7709,-14.56438 -32.74997,-2.30153 23.50353,-14.74418 -18.28627,-9.17016 -21.74721,16.3984 -8.31663,-19.2034 z m 253.37316,186.9994 -12.08753,12.73034 -9.34975,-11.32785 -15.23855,5.68191 11.51932,10.50073 -23.45188,0.6473 -1.80797,9.52977 24.07175,-1.86999 -14.10211,11.97517 13.58555,4.67497 13.63721,-13.26976 9.24645,11.65149 15.44516,-5.75381 -11.88091,-10.68055 24.53666,-1.04288 -0.0516,-9.67362 -23.24526,1.97788 13.63722,-11.83131 -14.46371,-3.91979 z m -124.64617,31.64605 -11.88089,11.97514 -8.78154,-10.50072 -14.722,5.43017 10.84779,9.70957 -22.52206,0.79116 -1.96294,8.91844 23.24525,-1.97789 -13.79218,11.29189 12.91402,4.24345 13.37894,-12.47861 8.72988,10.82438 14.92861,-5.50209 -11.26103,-9.85344 23.60683,-1.18672 0.10333,-9.02631 -22.36709,2.04979 13.32727,-11.18399 -13.79217,-3.52422 z"
           id="path3004"
           inkscape:connector-curvature="0" />
      </g>
    </g>
  </g>
</svg>
