<?xml version="1.0" encoding="UTF-8" standalone="no"?>
<svg
   xmlns:dc="http://purl.org/dc/elements/1.1/"
   xmlns:cc="http://creativecommons.org/ns#"
   xmlns:rdf="http://www.w3.org/1999/02/22-rdf-syntax-ns#"
   xmlns:svg="http://www.w3.org/2000/svg"
   xmlns="http://www.w3.org/2000/svg"
   xmlns:sodipodi="http://sodipodi.sourceforge.net/DTD/sodipodi-0.dtd"
   xmlns:inkscape="http://www.inkscape.org/namespaces/inkscape"
   height="1000"
   width="980"
   id="svg3905"
   version="1.1"
   inkscape:version="0.48.4 r9939"
   sodipodi:docname="flame-512px.svg">
  <metadata
     id="metadata3913">
    <rdf:RDF>
      <cc:Work
         rdf:about="">
        <dc:format>image/svg+xml</dc:format>
        <dc:type
           rdf:resource="http://purl.org/dc/dcmitype/StillImage" />
        <dc:title />
      </cc:Work>
    </rdf:RDF>
  </metadata>
  <defs
     id="defs3911" />
  <sodipodi:namedview
     pagecolor="#ffffff"
     bordercolor="#666666"
     borderopacity="1"
     objecttolerance="10"
     gridtolerance="10"
     guidetolerance="10"
     inkscape:pageopacity="0"
     inkscape:pageshadow="2"
     inkscape:window-width="2194"
     inkscape:window-height="1028"
     id="namedview3909"
     showgrid="false"
     inkscape:zoom="6.2546336"
     inkscape:cx="614.91965"
     inkscape:cy="409.79875"
     inkscape:window-x="75"
     inkscape:window-y="24"
     inkscape:window-maximized="0"
     inkscape:current-layer="g3038" />
  <g
     id="g4811"
     transform="matrix(0.8435877,0,0,0.86801419,72.221329,53.533302)"
     style="fill:#ffa880;fill-opacity:1">
    <g
       id="g4065"
       transform="translate(10.721188,22.92287)">
      <g
         id="g3038"
         transform="translate(7.5810241,0)">
        <path
           style="font-size:1400.74536133px;font-style:oblique;font-variant:normal;font-weight:600;font-stretch:normal;line-height:125%;letter-spacing:0px;word-spacing:0px;fill:#000000;fill-opacity:1;stroke:none;font-family:URW Gothic L;-inkscape-font-specification:URW Gothic L Semi-Bold Oblique"
           d="M 539.21494,210.47931 521.146,233.98945 506.17462,212.53464 c -7.51989,-10.28587 -30.76675,2.96476 -23.23153,10.24062 l 18.32708,19.94034 -36.18952,0.61299 c -15.49232,-0.22653 -14.46893,17.29514 -2.27153,17.84896 l 37.01552,-2.95679 -21.16646,22.06781 c -4.25779,10.95999 14.05656,18.6909 21.2181,9.08673 l 20.39209,-24.48372 14.86816,22.03175 c 6.14157,7.60874 25.66839,1.22888 23.59287,-10.34879 l -18.94656,-20.33699 37.84154,-1.33417 c 11.91069,-0.4267 13.79967,-18.71699 -0.56791,-18.0653 l -35.77648,3.13708 20.44368,-21.85146 c 5.39044,-6.34423 -16.02924,-13.56187 -22.50873,-7.64439 z m 77.74808,74.24445 c -24.62577,11.01159 -83.21275,33.27482 -95.97189,40.06099 28.15703,25.79516 17.22731,47.12499 15.48766,53.22233 -1.38084,1.43839 -3.14174,3.58993 -5.4723,6.74295 -20.85511,19.59582 -11.71261,10.34537 -75.01193,63.71535 -61.22617,51.62204 -107.08508,144.75676 -95.76541,203.76662 0.35416,1.84623 0.73948,3.66208 1.13576,5.48083 -43.90904,-30.864 -57.96354,-63.07835 -56.22022,-93.5357 2.96835,-51.85861 57.36532,-109.0732 132.72931,-152.56352 l -62.51858,-54.01563 c -3.01941,1.74239 -6.046,3.47907 -9.03446,5.26454 -2.98834,1.7855 -5.93067,3.61662 -8.87957,5.44483 -88.46492,54.84844 -159.42058,128.52292 -163.91114,206.97576 -4.78993,83.6831 71.69917,162.3806 249.91929,215.08892 l 0.20652,-0.21634 c 144.88016,-0.11989 240.64978,-31.41457 287.70923,-78.85992 44.19755,-44.55994 43.15308,-97.43964 19.6177,-142.68345 -0.78458,-1.50807 -1.59106,-3.01655 -2.42646,-4.5073 -0.83546,-1.49076 -1.70012,-2.96347 -2.58129,-4.43519 l -72.32735,19.86819 c 21.99096,36.73641 22.34906,77.67493 -6.86618,107.12984 -18.24081,18.39032 -49.03983,34.91021 -100.9796,44.74849 2.83013,-1.92137 5.63542,-3.89272 8.41495,-5.91348 42.71625,-31.05609 74.20959,-77.95858 48.99266,-127.10624 -1.68108,-3.27651 -3.5833,-6.55142 -5.78204,-9.84404 l -71.70792,21.59915 c 23.09402,34.58225 4.42732,59.8973 -28.54893,83.87206 -5.77913,4.20161 -12.18241,8.22233 -18.84333,12.00741 -18.28368,-19.02956 -38.64491,-47.58189 -34.33101,-76.62427 15.40899,-103.73684 156.57724,-196.36819 173.1005,-215.16107 44.76076,-50.90902 27.21535,-91.42396 -20.13397,-129.52211 z m -161.53634,32.88535 c -1.94883,-12.25487 -27.24482,-4.1587 -23.17988,5.08424 l 11.61577,18.49801 -32.52413,-4.43519 c -7.95842,-0.16467 -11.81525,10.32143 -6.29828,14.02676 l 33.86634,2.63226 -24.16075,14.8561 c -3.69903,4.20754 8.59965,15.08122 16.77828,10.13244 l 24.05752,-16.87537 8.10522,19.72398 c 3.92104,11.58919 27.3051,3.75839 23.438,-5.1203 l -12.08037,-18.85857 34.1761,4.03853 c 10.80437,1.48137 11.87019,-14.16202 3.76866,-14.60369 l -32.7306,-2.30774 23.48963,-14.78397 c 6.62009,-5.35961 -9.12243,-17.79328 -18.27544,-9.19493 l -21.73437,16.44267 z m 253.22334,187.50418 -12.08038,12.7647 -9.34423,-11.35842 c -5.11601,-4.50623 -17.25243,0.95683 -15.22953,5.69724 l 11.51249,10.52908 -23.438,0.64902 c -4.27313,0.27203 -7.39356,7.46712 -1.80689,9.55554 l 24.05749,-1.87504 -14.09376,12.00751 c 1.5032,8.74329 10.50191,7.1703 13.57752,4.68758 l 13.62914,-13.30556 9.24098,11.68291 c 3.76808,2.71836 13.89786,2.43429 15.43605,-5.76939 l -11.87389,-10.70936 24.52211,-1.04565 c 5.24052,-1.15224 4.88271,-9.0791 -0.0512,-9.69976 l -23.23152,1.98323 13.62916,-11.86326 c -1.12679,-6.01856 -9.33518,-8.31027 -14.45516,-3.93037 z m -124.57247,31.73149 -11.87389,12.00751 -8.77634,-10.52906 c -4.6692,-3.68952 -15.12899,-0.26517 -14.71328,5.44477 l 10.84138,9.73582 -22.50874,0.79325 c -5.53012,0.32322 -6.25016,6.7982 -1.96175,8.94249 l 23.23148,-1.98323 -13.78402,11.32243 c 0.30176,4.95737 6.54767,8.14547 12.90636,4.2549 l 13.37104,-12.51229 8.72472,10.85357 c 4.68059,2.24319 13.35433,0.9587 14.91978,-5.51697 l -11.25438,-9.87996 23.59288,-1.18998 c 3.26246,-1.3039 4.10593,-6.68768 0.10329,-9.05066 l -22.35384,2.05534 13.31936,-11.21425 c 2.13304,-3.90018 -8.14403,-8.5988 -13.78403,-3.53368 z"
           id="path3004-9"
           inkscape:connector-curvature="0"
           sodipodi:nodetypes="cccccccccccccccccccccccsscsccccsccsccccscscccscsscccccccccccccccccccccccccccccccccccccccccccccccccccccccccccc" />
      </g>
    </g>
  </g>
</svg>
