<?xml version="1.0" encoding="UTF-8" standalone="no"?>
<svg
   xmlns:dc="http://purl.org/dc/elements/1.1/"
   xmlns:cc="http://creativecommons.org/ns#"
   xmlns:rdf="http://www.w3.org/1999/02/22-rdf-syntax-ns#"
   xmlns:svg="http://www.w3.org/2000/svg"
   xmlns="http://www.w3.org/2000/svg"
   xmlns:sodipodi="http://sodipodi.sourceforge.net/DTD/sodipodi-0.dtd"
   xmlns:inkscape="http://www.inkscape.org/namespaces/inkscape"
   height="1000"
   width="980"
   id="svg3905"
   version="1.1"
   inkscape:version="0.48.4 r9939"
   sodipodi:docname="flame-512px.svg">
  <metadata
     id="metadata3913">
    <rdf:RDF>
      <cc:Work
         rdf:about="">
        <dc:format>image/svg+xml</dc:format>
        <dc:type
           rdf:resource="http://purl.org/dc/dcmitype/StillImage" />
        <dc:title />
      </cc:Work>
    </rdf:RDF>
  </metadata>
  <defs
     id="defs3911" />
  <sodipodi:namedview
     pagecolor="#ffffff"
     bordercolor="#666666"
     borderopacity="1"
     objecttolerance="10"
     gridtolerance="10"
     guidetolerance="10"
     inkscape:pageopacity="0"
     inkscape:pageshadow="2"
     inkscape:window-width="2194"
     inkscape:window-height="1028"
     id="namedview3909"
     showgrid="false"
     inkscape:zoom="0.7818292"
     inkscape:cx="13.108248"
     inkscape:cy="477.30035"
     inkscape:window-x="59"
     inkscape:window-y="234"
     inkscape:window-maximized="0"
     inkscape:current-layer="g3038" />
  <g
     id="g4811"
     transform="matrix(0.8435877,0,0,0.86801419,72.221329,53.533302)"
     style="fill:#ffa880;fill-opacity:1">
    <g
       id="g4065"
       transform="translate(10.721188,22.92287)">
      <g
         id="g3038"
         transform="translate(7.5810241,0)">
        <path
           style="font-size:1400.74536133px;font-style:oblique;font-variant:normal;font-weight:600;font-stretch:normal;line-height:125%;letter-spacing:0px;word-spacing:0px;fill:#000000;fill-opacity:1;stroke:none;font-family:URW Gothic L;-inkscape-font-specification:URW Gothic L Semi-Bold Oblique"
           d="m 578.78743,187.12804 -18.07963,24.76114 -14.98028,-22.59645 -23.24524,10.78553 18.33792,21.00139 -36.21093,0.64561 -2.27287,18.79872 37.03743,-3.11412 -21.17902,23.24205 21.23067,9.57024 20.40417,-25.78651 14.87695,23.20407 23.60683,-10.89945 -18.95778,-21.41915 37.86391,-1.40517 -0.56821,-19.02656 -35.79768,3.304 20.45582,-23.01417 -22.52206,-8.05117 z m 77.79407,78.19506 c -24.64035,11.59754 -83.26198,35.04542 -96.02867,42.19267 28.17367,27.16776 17.2375,49.63256 15.49681,56.05436 -1.38164,1.51491 -3.1436,3.78097 -5.47553,7.10173 -20.86746,20.63854 -11.71954,10.89586 -75.05631,67.10572 -61.26241,54.36889 -107.14846,152.4594 -95.82207,214.60919 0.35437,1.94453 0.73992,3.85698 1.13645,5.77253 -43.93506,-32.50636 -57.99786,-66.43483 -56.25351,-98.51287 2.97011,-54.61803 57.39929,-114.87707 132.80782,-160.68155 l -62.55553,-56.88984 c -3.0212,1.83508 -6.0496,3.6642 -9.03982,5.54466 -2.99011,1.88051 -5.93418,3.80906 -8.88484,5.73455 -88.51724,57.76699 -159.5149,135.36175 -164.00812,217.98916 -4.79274,88.13591 71.74161,171.02105 250.06718,226.53402 l 0.20663,-0.22785 c 144.96589,-0.12636 240.79218,-33.08623 287.87944,-83.05615 44.22368,-46.93109 43.17868,-102.62451 19.62932,-150.27581 -0.78506,-1.58836 -1.59197,-3.17706 -2.42785,-4.74714 -0.83595,-1.57009 -1.70121,-3.12108 -2.58279,-4.67119 l -72.37021,20.92543 c 22.00397,38.69125 22.36229,81.8081 -6.87026,112.83028 -18.25159,19.36894 -49.06882,36.76789 -101.03932,47.12971 2.83181,-2.02366 5.63877,-4.09993 8.41995,-6.22827 42.74152,-32.70859 74.25345,-82.10678 49.02163,-133.86964 -1.68209,-3.45085 -3.58542,-6.9 -5.78549,-10.36778 l -71.75032,22.74835 c 23.10766,36.42246 4.42994,63.08449 -28.56582,88.33498 -5.78255,4.4252 -12.1896,8.65992 -18.85448,12.64641 -18.2945,-20.04219 -38.66778,-50.11386 -34.3513,-80.70157 15.41808,-109.25677 156.66986,-206.81713 173.2029,-226.60998 44.78724,-53.61793 27.23144,-96.28873 -20.14589,-136.41411 z m -161.63192,34.6352 -23.19359,5.3548 11.62263,19.4823 -32.54335,-4.67119 -6.30204,14.77313 33.88639,2.77233 -24.17505,15.64661 16.78823,10.67159 24.07174,-17.77332 8.11002,20.77353 23.45187,-5.39276 -12.08754,-19.86207 34.19634,4.25343 3.7709,-15.38077 -32.74997,-2.43054 23.50353,-15.57065 -18.28627,-9.68419 -21.74721,17.3176 -8.31663,-20.27983 z m 253.37316,197.48148 -12.08753,13.44393 -9.34975,-11.96283 -15.23855,6.00041 11.51932,11.08934 -23.45188,0.68358 -1.80797,10.06395 24.07175,-1.97481 -14.10211,12.64643 13.58555,4.93702 13.63721,-14.01358 9.24645,12.3046 15.44516,-6.07634 -11.88091,-11.27923 24.53666,-1.10134 -0.0516,-10.21587 -23.24526,2.08875 13.63722,-12.4945 -14.46371,-4.13951 z m -124.64617,33.41994 -11.88089,12.64639 -8.78154,-11.08932 -14.722,5.73455 10.84779,10.25383 -22.52206,0.83551 -1.96294,9.41835 23.24525,-2.08876 -13.79218,11.92485 12.91402,4.48131 13.37894,-13.17809 8.72988,11.43114 14.92861,-5.81051 -11.26103,-10.40576 23.60683,-1.25324 0.10333,-9.53228 -22.36709,2.16469 13.32727,-11.8109 -13.79217,-3.72176 z"
           id="path3004"
           inkscape:connector-curvature="0" />
      </g>
    </g>
  </g>
</svg>
