<?xml version="1.0" encoding="UTF-8" standalone="no"?>
<svg
   xmlns:dc="http://purl.org/dc/elements/1.1/"
   xmlns:cc="http://creativecommons.org/ns#"
   xmlns:rdf="http://www.w3.org/1999/02/22-rdf-syntax-ns#"
   xmlns:svg="http://www.w3.org/2000/svg"
   xmlns="http://www.w3.org/2000/svg"
   xmlns:sodipodi="http://sodipodi.sourceforge.net/DTD/sodipodi-0.dtd"
   xmlns:inkscape="http://www.inkscape.org/namespaces/inkscape"
   height="1000"
   width="980"
   id="svg3905"
   version="1.1"
   inkscape:version="0.48.4 r9939"
   sodipodi:docname="flame-512px.svg">
  <metadata
     id="metadata3913">
    <rdf:RDF>
      <cc:Work
         rdf:about="">
        <dc:format>image/svg+xml</dc:format>
        <dc:type
           rdf:resource="http://purl.org/dc/dcmitype/StillImage" />
        <dc:title></dc:title>
      </cc:Work>
    </rdf:RDF>
  </metadata>
  <defs
     id="defs3911" />
  <sodipodi:namedview
     pagecolor="#ffffff"
     bordercolor="#666666"
     borderopacity="1"
     objecttolerance="10"
     gridtolerance="10"
     guidetolerance="10"
     inkscape:pageopacity="0"
     inkscape:pageshadow="2"
     inkscape:window-width="2194"
     inkscape:window-height="1028"
     id="namedview3909"
     showgrid="false"
     inkscape:zoom="0.55283672"
     inkscape:cx="-831.78535"
     inkscape:cy="312.99179"
     inkscape:window-x="311"
     inkscape:window-y="24"
     inkscape:window-maximized="0"
     inkscape:current-layer="g4811" />
  <g
     id="g4811"
     transform="matrix(0.8435877,0,0,0.86801419,72.221329,53.533302)"
     style="fill:#ffa880;fill-opacity:1">
    <g
       id="g4065"
       transform="translate(49.317463,-154.20839)">
      <path
         id="path3004"
         d="m 401.55302,339.36787 c -2.1443,1.78269 -4.26511,3.59105 -6.38111,5.41638 -63.47841,54.76206 -114.39265,128.33446 -117.61488,206.66378 -3.43704,83.55128 51.47005,162.12136 179.35276,214.74667 l 42.75596,-70.54715 C 386.23471,648.96932 355.53489,592.13811 357.66481,540.36122 359.79477,488.5843 398.83341,431.4702 452.91118,388.04836 l -44.88111,-53.94852 c -2.1666,1.73964 -4.33271,3.48536 -6.47707,5.26801 z"
         style="font-size:1400.74536133px;font-style:oblique;font-variant:normal;font-weight:600;font-stretch:normal;line-height:125%;letter-spacing:0px;word-spacing:0px;fill:#000000;fill-opacity:1;stroke:none;font-family:URW Gothic L;-inkscape-font-specification:URW Gothic L Semi-Bold Oblique"
         inkscape:connector-curvature="0" />
      <path
         id="path3000"
         d="m 465.90773,424.84443 c -43.93313,51.54073 -76.85883,144.51181 -68.73633,203.4287 8.66398,62.84464 35.18297,109.82773 59.52797,133.93292 l 56.98702,-58.70399 c -8.20605,-8.12528 -46.90804,-52.52802 -42.05098,-98.02612 11.05677,-103.57348 112.35886,-196.048 124.21521,-214.81128 32.1183,-50.82886 19.53445,-91.29777 -14.44127,-129.33593 -17.67035,10.99425 -59.72702,33.25369 -68.8824,40.02917 20.79348,26.50569 11.8766,48.31707 11.01831,53.65833 -4.73141,29.44432 11.52343,-22.72476 -3.83876,6.19385 -14.96469,19.56497 -8.37804,10.3484 -53.79877,63.63435 z"
         style="font-size:1400.74536133px;font-style:oblique;font-variant:normal;font-weight:600;font-stretch:normal;line-height:125%;letter-spacing:0px;word-spacing:0px;fill:#000000;fill-opacity:1;stroke:none;font-family:URW Gothic L;-inkscape-font-specification:URW Gothic L Semi-Bold Oblique"
         inkscape:connector-curvature="0"
         sodipodi:nodetypes="ssccssccscs" />
      <path
         id="path3006-6"
         d="m 574.19191,525.74528 -0.0924,9.02159 -16.92432,1.18133 8.06202,9.88651 -10.69778,5.48801 -6.24756,-10.80958 -9.58333,12.4962 -9.27696,-4.25157 9.87098,-11.30915 -16.63687,1.9884 1.37461,-8.94662 16.18442,-0.78727 -7.79321,-9.73379 10.54639,-5.41789 6.31343,10.52188 8.49734,-11.9962 9.9119,3.51463 -9.55679,11.19794 16.04816,-2.04442 z"
         style="font-size:1400.74536133px;font-style:oblique;font-variant:normal;font-weight:600;font-stretch:normal;line-height:125%;letter-spacing:0px;word-spacing:0px;fill:#000000;fill-opacity:1;stroke:none;font-family:URW Gothic L;-inkscape-font-specification:URW Gothic L Semi-Bold Oblique"
         inkscape:connector-curvature="0" />
      <path
         id="path3004-6"
         d="m 675.82112,540.2984 c 0.59944,1.48841 1.17282,2.98576 1.7358,4.49149 16.88797,45.17258 17.65071,97.96432 -14.06344,142.45414 -33.82845,47.45583 -102.73116,78.72302 -207.00467,78.73071 l 3.13771,-49.2274 c 92.48984,-0.007 136.57685,-24.69455 157.54041,-54.10301 20.96355,-29.40848 20.68147,-70.27893 4.90176,-106.95754 l 51.89145,-19.81906 c 0.63222,1.46948 1.26151,2.94226 1.861,4.43067 z"
         style="font-size:1400.74536133px;font-style:oblique;font-variant:normal;font-weight:600;font-stretch:normal;line-height:125%;letter-spacing:0px;word-spacing:0px;fill:#000000;fill-opacity:1;stroke:none;font-family:URW Gothic L;-inkscape-font-specification:URW Gothic L Semi-Bold Oblique"
         inkscape:connector-curvature="0" />
      <path
         id="path3002-0"
         d="m 664.45419,495.1884 0.0423,9.6679 -17.60533,1.04228 8.53507,10.71052 -11.07679,5.73781 -6.64206,-11.66136 -9.78326,13.27746 -9.74408,-4.6811 10.11084,-11.98889 -17.24271,1.88885 1.28315,-9.55867 16.83924,-0.63897 -8.28104,-10.51951 10.9197,-5.68222 6.70224,11.35918 8.6825,-12.73919 10.36189,3.90065 -9.77045,11.86843 16.66876,-1.98317 z"
         style="font-size:1400.74536133px;font-style:oblique;font-variant:normal;font-weight:600;font-stretch:normal;line-height:125%;letter-spacing:0px;word-spacing:0px;fill:#000000;fill-opacity:1;stroke:none;font-family:URW Gothic L;-inkscape-font-specification:URW Gothic L Semi-Bold Oblique"
         inkscape:connector-curvature="0" />
      <path
         id="path3000-4"
         d="m 585.88478,574.54056 c 18.09452,49.07027 -4.50595,95.88054 -35.1572,126.88772 -32.69465,33.07429 -70.77451,52.78226 -97.61908,60.2045 l -13.74236,-47.1917 c 9.04862,-2.50187 46.75292,-20.507 70.41508,-44.44402 23.66226,-23.93701 37.05459,-49.19377 20.48338,-83.72162 l 51.45477,-21.57615 c 1.57774,3.28739 2.95913,6.56993 4.16541,9.84127 z"
         style="font-size:1400.74536133px;font-style:oblique;font-variant:normal;font-weight:600;font-stretch:normal;line-height:125%;letter-spacing:0px;word-spacing:0px;fill:#000000;fill-opacity:1;stroke:none;font-family:URW Gothic L;-inkscape-font-specification:URW Gothic L Semi-Bold Oblique"
         inkscape:connector-curvature="0" />
      <path
         inkscape:connector-curvature="0"
         style="font-size:1400.74536133px;font-style:oblique;font-variant:normal;font-weight:600;font-stretch:normal;line-height:125%;letter-spacing:0px;word-spacing:0px;fill:#000000;fill-opacity:1;stroke:none;font-family:URW Gothic L;-inkscape-font-specification:URW Gothic L Semi-Bold Oblique"
         d="m 497.15747,311.23832 -0.13469,12.31719 -24.67159,1.61287 11.75249,13.49806 -15.59479,7.49279 -9.10745,-14.75834 -13.97017,17.06108 -13.52359,-5.80467 14.38952,-15.4404 -24.25256,2.71477 2.00385,-12.21483 23.59299,-1.07486 -11.36063,-13.28957 15.37411,-7.39704 9.20346,14.36552 12.38708,-16.37841 14.44916,4.79853 -13.93151,15.28856 23.39435,-2.79125 z"
         id="path3006-6-5" />
      <path
         inkscape:connector-curvature="0"
         style="font-size:1400.74536133px;font-style:oblique;font-variant:normal;font-weight:600;font-stretch:normal;line-height:125%;letter-spacing:0px;word-spacing:0px;fill:#000000;fill-opacity:1;stroke:none;font-family:URW Gothic L;-inkscape-font-specification:URW Gothic L Semi-Bold Oblique"
         d="m 552.77608,213.51827 0.41264,18.04639 -27.16063,1.34815 13.57033,20.28053 -16.9062,10.33373 -10.68001,-21.99105 -14.63705,24.45024 -15.22154,-9.06775 15.1894,-22.03402 -26.57003,2.94055 1.63897,-17.79755 25.99163,-0.62136 -13.17104,-19.9154 16.66551,-10.23529 10.76213,21.42904 12.95585,-23.48288 16.14795,7.63201 -14.66787,21.82074 25.67996,-3.13608 z"
         id="path3002-0-2" />
    </g>
    <path
       inkscape:connector-curvature="0"
       id="path4337"
       style="font-size:1400.74536133px;font-style:oblique;font-variant:normal;font-weight:600;font-stretch:normal;line-height:125%;letter-spacing:0px;word-spacing:0px;fill:#000000;fill-opacity:1;stroke:none;font-family:URW Gothic L;-inkscape-font-specification:URW Gothic L Semi-Bold Oblique"
       d="m 795.80371,702.59348 c -76.45543,1.38813 -129.9464,49.02168 -157.73035,98.79129 -29.63619,53.0875 -38.22396,106.3272 -35.3595,140.9035 l 71.74349,-5.5864 c -0.96549,-11.6548 5.45856,-63.6804 26.90737,-102.1016 21.44872,-38.4213 49.72568,-65.5142 105.39547,-62.03078 l 4.63867,-69.63117 c -5.3003,-0.33164 -10.49815,-0.43741 -15.59515,-0.34484 z m 83.60649,-122.63009 -13.34511,4.36597 7.15079,20.92904 -18.92453,-5.02435 -2.50506,15.48885 19.31169,2.3909 -13.5273,17.4293 11.20443,9.18244 11.59156,-17.2214 5.80716,20.89437 12.54806,-5.85597 -7.33297,-19.85485 18.53738,4.81645 2.50506,-15.28096 -18.92454,-2.59881 13.32232,-15.90467 -10.43013,-10.2566 -11.59158,16.77095 -5.39723,-20.27066 z m -72.67844,1.73596 c -2.34374,-0.0167 -4.6871,10e-4 -7.03692,0.0346 -70.49504,1.00986 -143.62557,24.23276 -189.47311,81.39446 -48.90403,60.97249 -58.38854,155.29956 -7.53794,276.44316 l 66.31559,-26.1265 c -45.10415,-107.4535 -32.58324,-169.94612 -2.27733,-207.73089 30.30596,-37.78479 86.77189,-56.12187 145.01983,-54.5402 l 2.00404,-69.33604 c -2.33367,-0.0634 -4.67041,-0.12188 -7.01416,-0.13861 z m 74.59139,117.08128 -12.38863,4.22737 6.62701,20.20136 -17.55816,-4.85109 -2.34564,14.93445 17.94531,2.3216 -12.54805,16.84023 10.38459,8.83593 10.77172,-16.63233 5.37448,20.23599 11.65989,-5.6827 -6.80919,-19.16182 17.21655,4.60853 2.32285,-14.72656 -17.58093,-2.5295 12.38865,-15.35024 -9.67863,-9.91012 -10.77171,16.21654 -5.01011,-19.57764 z m -609.19167,3.81285 c 76.45543,1.38812 129.9464,49.02165 157.73035,98.79129 29.6362,53.0875 38.22395,106.3272 35.35951,140.9035 l -71.7435,-5.5864 c 0.96551,-11.6548 -5.45855,-63.6804 -26.90735,-102.1016 C 345.12177,796.17897 316.8448,769.08602 261.175,772.56943 l -4.63867,-69.63112 c 5.30031,-0.33165 10.49816,-0.43741 15.59515,-0.34483 z M 188.525,579.96337 l 13.34511,4.36598 -7.15079,20.92904 18.92453,-5.02435 2.50505,15.48885 -19.31167,2.3909 13.52729,17.4293 -11.20443,9.18244 -11.59155,-17.2214 -5.80718,20.89437 -12.54805,-5.85597 7.33297,-19.85485 -18.53737,4.81645 -2.50507,-15.28096 18.92454,-2.59881 -13.32231,-15.90466 10.43012,-10.25661 11.59158,16.77095 5.39723,-20.27067 z m 72.67845,1.73597 c 2.34373,-0.0167 4.68709,10e-4 7.03691,0.0346 70.49504,1.00986 143.62558,24.23276 189.4731,81.39446 48.90404,60.97249 58.38854,155.29957 7.53794,276.44317 l -66.31557,-26.1265 c 45.10413,-107.4535 32.58323,-169.94615 2.27732,-207.73093 -30.30596,-37.78478 -86.7719,-56.12186 -145.01982,-54.54019 l -2.00404,-69.33604 c 2.33366,-0.0634 4.67041,-0.12188 7.01416,-0.1386 z m -74.5914,117.08126 12.38863,4.22739 -6.627,20.20136 17.55815,-4.85109 2.34563,14.93445 -17.94529,2.3216 12.54804,16.84022 -10.38459,8.83591 -10.77172,-16.6323 -5.37449,20.23602 -11.65988,-5.68272 6.8092,-19.16183 -17.21655,4.60853 -2.32285,-14.72655 17.58092,-2.52951 -12.38865,-15.35024 9.67862,-9.91012 10.77172,16.21654 5.01011,-19.57766 z" />
  </g>
</svg>
