<?xml version="1.0" ?><!DOCTYPE svg  PUBLIC '-//W3C//DTD SVG 1.1//EN'  'http://www.w3.org/Graphics/SVG/1.1/DTD/svg11.dtd'><svg enable-background="new 0 0 128 128" height="128px" id="Layer_1" version="1.1" viewBox="0 0 128 128" width="128px" xml:space="preserve" xmlns="http://www.w3.org/2000/svg" xmlns:xlink="http://www.w3.org/1999/xlink"><path d="M51,37c22.6,0,41,18.4,41,41s-18.4,41-41,41s-41-18.4-41-41S28.4,37,51,37 M51,33C26.1,33,6,53.1,6,78  c0,24.9,20.1,45,45,45s45-20.1,45-45C96,53.1,75.9,33,51,33L51,33z" fill="#2C3E50"/><path d="M105.1,56.8c13.2-1.6,17.5-14.4,15.4-26.6c-3.5,4.8-11.7,11.8-17.5,11.8c-1,0-2-0.2-2.8-0.7  c18-11.2,20.9-24.4,19-37.4c-5.8,9.5-18.3,15.7-30,15.7c-1.4,0-2.9-0.1-4.3-0.3c0.3,6.8-4.8,10.3-8.3,10.3c-3.5,0-5.4-3.4,0.6-10.4  c-15.5,0.3-37.2,5.1-46.6,16.4c1.6-0.8,3.3-1.5,5-2.1c3.6-2.9,8.3-5.5,14.2-7.5c7-2.5,15.3-4.1,23.4-4.6c-2.2,3.6-2,5.9-1.3,7.4  c0.8,1.7,2.6,2.8,4.8,2.8c2.5,0,5.1-1.2,7-3.2c1.8-1.8,2.8-4.2,3.2-6.8c0.8,0.1,1.6,0.1,2.4,0.1c10.8,0,21.8-4.9,28.5-12.4  c0.4,12.7-5.4,22.2-18.5,30.3l-2.9,1.8l2.9,1.7c1.1,0.6,2.4,1,3.8,1c5.3,0,11.7-4.6,16-9c0.2,5.5-1.1,10.4-3.8,14  c-2.5,3.3-6,5.2-10.4,5.8c-4,0.5-8.2,2.7-7.9,7.4c0.2,4,3.9,7.3,8.2,7.3c1.1,0,2.5-0.2,4-0.9c-2.4,7.8-8,17.4-13.5,24.1  c-0.6,1.9-1.3,3.7-2.2,5.5c8.2-8.1,17.8-24.6,18.8-34.6c-2.5,2.9-5,3.9-7.1,3.9C98.7,67.5,95.2,58,105.1,56.8z" fill="#3B97D3"/><path d="M76.2,65c-0.6-0.9-1.8-1.3-2.7-0.7L50.5,78L36.2,63.3c-0.4-0.4-1-0.4-1.4,0s-0.4,1,0,1.4l14.3,14.8  C48.9,80,49,80.5,49.3,81c0.4,0.6,1,1,1.7,1c0.3,0,0.7-0.1,1-0.3l23.5-14C76.5,67.2,76.8,66,76.2,65z" fill="#2C3E50"/></svg>