<?xml version="1.0" encoding="UTF-8" standalone="no"?>
<svg
   xmlns:dc="http://purl.org/dc/elements/1.1/"
   xmlns:cc="http://creativecommons.org/ns#"
   xmlns:rdf="http://www.w3.org/1999/02/22-rdf-syntax-ns#"
   xmlns:svg="http://www.w3.org/2000/svg"
   xmlns="http://www.w3.org/2000/svg"
   xmlns:sodipodi="http://sodipodi.sourceforge.net/DTD/sodipodi-0.dtd"
   xmlns:inkscape="http://www.inkscape.org/namespaces/inkscape"
   height="1000"
   width="980"
   id="svg3905"
   version="1.1"
   inkscape:version="0.48.4 r9939"
   sodipodi:docname="flame-512px.svg">
  <metadata
     id="metadata3913">
    <rdf:RDF>
      <cc:Work
         rdf:about="">
        <dc:format>image/svg+xml</dc:format>
        <dc:type
           rdf:resource="http://purl.org/dc/dcmitype/StillImage" />
        <dc:title />
      </cc:Work>
    </rdf:RDF>
  </metadata>
  <defs
     id="defs3911" />
  <sodipodi:namedview
     pagecolor="#ffffff"
     bordercolor="#666666"
     borderopacity="1"
     objecttolerance="10"
     gridtolerance="10"
     guidetolerance="10"
     inkscape:pageopacity="0"
     inkscape:pageshadow="2"
     inkscape:window-width="2194"
     inkscape:window-height="1028"
     id="namedview3909"
     showgrid="false"
     inkscape:zoom="1.5636584"
     inkscape:cx="21.150818"
     inkscape:cy="528.2148"
     inkscape:window-x="311"
     inkscape:window-y="24"
     inkscape:window-maximized="0"
     inkscape:current-layer="g4065" />
  <g
     id="g4811"
     transform="matrix(0.8435877,0,0,0.86801419,72.221329,53.533302)"
     style="fill:#ffa880;fill-opacity:1">
    <g
       id="g4065"
       transform="translate(10.721188,22.92287)">
      <path
         id="path3004"
         d="m 401.55302,339.36787 c -2.1443,1.78269 -4.26511,3.59105 -6.38111,5.41638 -63.47841,54.76206 -114.39265,128.33446 -117.61488,206.66378 -3.43704,83.55128 51.47005,162.12136 179.35276,214.74667 l 42.75596,-70.54715 C 386.23471,648.96932 355.53489,592.13811 357.66481,540.36122 359.79477,488.5843 398.83341,431.4702 452.91118,388.04836 l -44.88111,-53.94852 c -2.1666,1.73964 -4.33271,3.48536 -6.47707,5.26801 z"
         style="font-size:1400.74536133px;font-style:oblique;font-variant:normal;font-weight:600;font-stretch:normal;line-height:125%;letter-spacing:0px;word-spacing:0px;fill:#000000;fill-opacity:1;stroke:none;font-family:URW Gothic L;-inkscape-font-specification:URW Gothic L Semi-Bold Oblique"
         inkscape:connector-curvature="0" />
      <path
         id="path3000"
         d="m 465.90773,424.84443 c -43.93313,51.54073 -76.85883,144.51181 -68.73633,203.4287 8.66398,62.84464 35.18297,109.82773 59.52797,133.93292 l 56.98702,-58.70399 c -8.20605,-8.12528 -46.90804,-52.52802 -42.05098,-98.02612 11.05677,-103.57348 112.35886,-196.048 124.21521,-214.81128 32.1183,-50.82886 19.53445,-91.29777 -14.44127,-129.33593 -17.67035,10.99425 -59.72702,33.25369 -68.8824,40.02917 20.79348,26.50569 11.8766,48.31707 11.01831,53.65833 -4.73141,29.44432 11.52343,-22.72476 -3.83876,6.19385 -14.96469,19.56497 -8.37804,10.3484 -53.79877,63.63435 z"
         style="font-size:1400.74536133px;font-style:oblique;font-variant:normal;font-weight:600;font-stretch:normal;line-height:125%;letter-spacing:0px;word-spacing:0px;fill:#000000;fill-opacity:1;stroke:none;font-family:URW Gothic L;-inkscape-font-specification:URW Gothic L Semi-Bold Oblique"
         inkscape:connector-curvature="0"
         sodipodi:nodetypes="ssccssccscs" />
      <path
         id="path3006-6"
         d="m 574.19191,525.74528 -0.0924,9.02159 -16.92432,1.18133 8.06202,9.88651 -10.69778,5.48801 -6.24756,-10.80958 -9.58333,12.4962 -9.27696,-4.25157 9.87098,-11.30915 -16.63687,1.9884 1.37461,-8.94662 16.18442,-0.78727 -7.79321,-9.73379 10.54639,-5.41789 6.31343,10.52188 8.49734,-11.9962 9.9119,3.51463 -9.55679,11.19794 16.04816,-2.04442 z"
         style="font-size:1400.74536133px;font-style:oblique;font-variant:normal;font-weight:600;font-stretch:normal;line-height:125%;letter-spacing:0px;word-spacing:0px;fill:#000000;fill-opacity:1;stroke:none;font-family:URW Gothic L;-inkscape-font-specification:URW Gothic L Semi-Bold Oblique"
         inkscape:connector-curvature="0" />
      <path
         id="path3004-6"
         d="m 675.82112,540.2984 c 0.59944,1.48841 1.17282,2.98576 1.7358,4.49149 16.88797,45.17258 17.65071,97.96432 -14.06344,142.45414 -33.82845,47.45583 -102.73116,78.72302 -207.00467,78.73071 l 3.13771,-49.2274 c 92.48984,-0.007 136.57685,-24.69455 157.54041,-54.10301 20.96355,-29.40848 20.68147,-70.27893 4.90176,-106.95754 l 51.89145,-19.81906 c 0.63222,1.46948 1.26151,2.94226 1.861,4.43067 z"
         style="font-size:1400.74536133px;font-style:oblique;font-variant:normal;font-weight:600;font-stretch:normal;line-height:125%;letter-spacing:0px;word-spacing:0px;fill:#000000;fill-opacity:1;stroke:none;font-family:URW Gothic L;-inkscape-font-specification:URW Gothic L Semi-Bold Oblique"
         inkscape:connector-curvature="0" />
      <path
         id="path3002-0"
         d="m 664.45419,495.1884 0.0423,9.6679 -17.60533,1.04228 8.53507,10.71052 -11.07679,5.73781 -6.64206,-11.66136 -9.78326,13.27746 -9.74408,-4.6811 10.11084,-11.98889 -17.24271,1.88885 1.28315,-9.55867 16.83924,-0.63897 -8.28104,-10.51951 10.9197,-5.68222 6.70224,11.35918 8.6825,-12.73919 10.36189,3.90065 -9.77045,11.86843 16.66876,-1.98317 z"
         style="font-size:1400.74536133px;font-style:oblique;font-variant:normal;font-weight:600;font-stretch:normal;line-height:125%;letter-spacing:0px;word-spacing:0px;fill:#000000;fill-opacity:1;stroke:none;font-family:URW Gothic L;-inkscape-font-specification:URW Gothic L Semi-Bold Oblique"
         inkscape:connector-curvature="0" />
      <path
         id="path3000-4"
         d="m 585.88478,574.54056 c 18.09452,49.07027 -4.50595,95.88054 -35.1572,126.88772 -32.69465,33.07429 -70.77451,52.78226 -97.61908,60.2045 l -13.74236,-47.1917 c 9.04862,-2.50187 46.75292,-20.507 70.41508,-44.44402 23.66226,-23.93701 37.05459,-49.19377 20.48338,-83.72162 l 51.45477,-21.57615 c 1.57774,3.28739 2.95913,6.56993 4.16541,9.84127 z"
         style="font-size:1400.74536133px;font-style:oblique;font-variant:normal;font-weight:600;font-stretch:normal;line-height:125%;letter-spacing:0px;word-spacing:0px;fill:#000000;fill-opacity:1;stroke:none;font-family:URW Gothic L;-inkscape-font-specification:URW Gothic L Semi-Bold Oblique"
         inkscape:connector-curvature="0" />
      <path
         inkscape:connector-curvature="0"
         style="font-size:1400.74536133px;font-style:oblique;font-variant:normal;font-weight:600;font-stretch:normal;line-height:125%;letter-spacing:0px;word-spacing:0px;fill:#000000;fill-opacity:1;stroke:none;font-family:URW Gothic L;-inkscape-font-specification:URW Gothic L Semi-Bold Oblique"
         d="m 506.79985,323.23618 -2.72536,14.56238 -24.4891,-4.02849 8.66162,18.82344 -16.84247,5.12391 -5.80719,-19.67997 -17.26693,16.85264 -12.01517,-10.1338 17.33616,-14.83133 -24.31096,-2.62196 4.53341,-13.99112 23.32005,4.40632 -8.32196,-18.48205 16.6063,-5.06358 5.98388,19.23763 15.5736,-16.42488 13.13301,9.16444 -16.85587,14.76168 23.48701,2.32474 z"
         id="path3006-6-5" />
      <path
         inkscape:connector-curvature="0"
         style="font-size:1400.74536133px;font-style:oblique;font-variant:normal;font-weight:600;font-stretch:normal;line-height:125%;letter-spacing:0px;word-spacing:0px;fill:#000000;fill-opacity:1;stroke:none;font-family:URW Gothic L;-inkscape-font-specification:URW Gothic L Semi-Bold Oblique"
         d="m 552.77608,213.51827 0.41264,18.04639 -27.16063,1.34815 13.57033,20.28053 -16.9062,10.33373 -10.68001,-21.99105 -14.63705,24.45024 -15.22154,-9.06775 15.1894,-22.03402 -26.57003,2.94055 1.63897,-17.79755 25.99163,-0.62136 -13.17104,-19.9154 16.66551,-10.23529 10.76213,21.42904 12.95585,-23.48288 16.14795,7.63201 -14.66787,21.82074 25.67996,-3.13608 z"
         id="path3002-0-2" />
    </g>
  </g>
</svg>
