<?xml version="1.0" encoding="UTF-8"?>
<!-- Generator: Adobe Illustrator 15.0.2, SVG Export Plug-In . SVG Version: 6.00 Build 0)  -->
<!DOCTYPE svg PUBLIC "-//W3C//DTD SVG 1.1//EN" "http://www.w3.org/Graphics/SVG/1.1/DTD/svg11.dtd">
<svg xmlns="http://www.w3.org/2000/svg" xmlns:xlink="http://www.w3.org/1999/xlink" version="1.1" id="Layer_1" x="0px" y="0px" width="512px" height="511.979px" viewBox="-0.328 0 512 511.979" enable-background="new -0.328 0 512 511.979" xml:space="preserve">
<g>
	<path d="M506.361,201.614c-1.953-7.591-8.334-13.222-16.102-14.244l-41.962-5.492c-0.904-2.436-1.541-4.079-1.633-4.277   l-0.712-1.713c0,0-0.652-1.482-1.691-3.742l25.791-33.552c4.774-6.215,5.294-14.705,1.312-21.449   c-0.439-0.75-11.06-18.521-34.703-42.192c-23.655-23.644-41.448-34.253-42.182-34.692c-6.75-3.988-15.234-3.474-21.444,1.312   l-33.552,25.79c-2.259-1.027-3.731-1.691-3.731-1.691c-0.198-0.096-0.396-0.171-0.6-0.257l-1.568-0.632   c0,0-1.493-0.572-3.838-1.456l-5.486-41.967c-1.018-7.767-6.654-14.137-14.239-16.097C309.185,5.069,289.117,0,255.661,0   c-33.45,0-53.535,5.069-54.375,5.283c-7.586,1.954-13.222,8.33-14.239,16.097l-5.486,41.978c-2.409,0.899-4.025,1.515-4.191,1.585   l-1.274,0.524c-0.177,0.075-0.348,0.139-0.53,0.22c0,0-1.478,0.658-3.741,1.696l-33.558-25.796   c-6.21-4.774-14.705-5.283-21.444-1.3c-0.744,0.438-18.516,11.042-42.192,34.703C50.99,98.644,40.37,116.432,39.942,117.166   c-3.994,6.744-3.474,15.234,1.301,21.454l25.796,33.542c-1.028,2.259-1.691,3.736-1.691,3.736l0.085,0.043   c-0.348,0.663-0.68,1.37-0.958,2.098c0,0-0.589,1.51-1.467,3.86l-41.956,5.481c-7.767,1.021-14.137,6.653-16.102,14.244   c-0.203,0.835-5.272,20.903-5.278,54.359c0,33.461,5.075,53.529,5.289,54.375c1.959,7.58,8.34,13.211,16.102,14.229l41.967,5.492   c0.905,2.419,1.521,4.036,1.59,4.191l0.524,1.279c0.075,0.171,0.15,0.353,0.226,0.529c0,0,0.652,1.483,1.691,3.742l-25.796,33.552   c-4.78,6.21-5.294,14.71-1.301,21.449c0.439,0.744,11.054,18.517,34.698,42.171c23.649,23.666,41.454,34.27,42.188,34.709   c6.739,3.987,15.229,3.458,21.438-1.317l33.552-25.79c2.27,1.033,3.747,1.696,3.747,1.696c0.172,0.081,0.349,0.145,0.53,0.226   l1.616,0.652c0,0,1.499,0.584,3.849,1.462l5.492,41.973c1.018,7.762,6.659,14.132,14.245,16.096   c0.84,0.215,20.903,5.278,54.364,5.278s53.529-5.063,54.364-5.278c7.586-1.953,13.222-8.334,14.244-16.096l5.492-41.973   c2.415-0.899,4.053-1.531,4.24-1.611l1.745-0.729c0,0,1.478-0.652,3.741-1.696l33.547,25.79c6.221,4.786,14.727,5.305,21.455,1.301   c0.749-0.434,18.511-11.048,42.182-34.692c23.639-23.654,34.259-41.438,34.697-42.171c3.982-6.739,3.469-15.239-1.306-21.449   l-25.796-33.552c1.027-2.27,1.691-3.753,1.691-3.753c0.086-0.171,0.149-0.348,0.22-0.519l0.658-1.617c0,0,0.583-1.504,1.467-3.854   l41.962-5.492c7.767-1.018,14.137-6.648,16.102-14.239c0.214-0.835,5.278-20.898,5.283-54.364   C511.639,222.533,506.576,202.46,506.361,201.614z M471.31,288.369l-39.606,5.177c-7.242,0.947-13.318,5.92-15.674,12.842   c-2.264,6.659-4.854,13.366-4.854,13.366l-0.407,1.012c-0.567,1.269-3.244,7.231-6.055,12.948   c-3.228,6.563-2.456,14.39,1.986,20.187l24.346,31.663c-4.711,6.123-11.793,14.57-21.509,24.286   c-9.726,9.716-18.179,16.803-24.302,21.519l-31.652-24.34c-5.813-4.453-13.618-5.225-20.191-1.996   c-6.258,3.088-12.777,5.995-12.777,5.995s0.026,0,0.032-0.011l-0.862,0.358c0,0-6.905,2.666-13.73,4.989   c-6.921,2.36-11.884,8.436-12.831,15.668l-5.176,39.606c-7.66,1.001-18.64,1.954-32.38,1.954c-13.758,0-24.742-0.964-32.396-1.954   l-5.171-39.606c-0.958-7.243-5.926-13.318-12.848-15.668c-6.648-2.27-13.36-4.85-13.36-4.85l-1.028-0.418   c-1.263-0.567-7.216-3.233-12.933-6.054c-6.541-3.223-14.383-2.463-20.196,1.985l-31.668,24.356   c-6.119-4.711-14.571-11.798-24.298-21.524c-9.71-9.716-16.792-18.174-21.514-24.286l24.352-31.674   c4.453-5.808,5.234-13.623,1.985-20.197c-2.848-5.76-5.54-11.76-6.075-12.97l-0.263-0.643c-0.059-0.117-2.677-6.932-4.968-13.682   c-2.345-6.933-8.431-11.916-15.679-12.863l-39.617-5.177c-0.979-7.66-1.948-18.639-1.948-32.374   c0-13.763,0.969-24.747,1.964-32.402l39.612-5.176c7.248-0.958,13.34-5.937,15.679-12.863c2.286-6.739,4.914-13.569,4.968-13.677   c0.059-0.14,0.107-0.284,0.15-0.423h0.005c0,0,3.009-6.739,6.183-13.195c3.249-6.558,2.463-14.389-1.986-20.196l-24.351-31.663   c4.711-6.118,11.793-14.57,21.503-24.297c9.732-9.716,18.185-16.798,24.309-21.514l31.668,24.346   c5.808,4.453,13.617,5.208,20.186,1.991c5.776-2.854,11.782-5.546,12.992-6.076l0.609-0.257c0.118-0.048,6.97-2.682,13.726-4.989   c6.921-2.36,11.884-8.431,12.842-15.662l5.165-39.618c7.66-0.985,18.65-1.954,32.396-1.954s24.73,0.969,32.386,1.954l5.176,39.618   c0.947,7.231,5.915,13.318,12.837,15.662c6.681,2.28,13.431,4.882,13.431,4.882h0.005l0.969,0.386   c1.344,0.595,7.259,3.266,12.938,6.06c6.547,3.228,14.372,2.452,20.175-2.002l31.663-24.34   c6.118,4.705,14.565,11.787,24.292,21.503c9.71,9.727,16.798,18.184,21.519,24.308l-24.345,31.668   c-4.454,5.798-5.22,13.612-1.992,20.181c3.084,6.253,5.99,12.783,5.99,12.783v-0.011l0.343,0.83   c0.054,0.117,2.682,6.964,4.989,13.725c2.366,6.916,8.426,11.889,15.668,12.842l39.606,5.176c1.001,7.655,1.959,18.64,1.959,32.392   C473.269,269.73,472.306,280.709,471.31,288.369z" fill="#000000"/>
	<path d="M255.661,133.755c-67.399,0-122.229,54.83-122.229,122.229c0,67.394,54.83,122.229,122.229,122.229   c67.394,0,122.219-54.836,122.219-122.229C377.88,188.585,323.054,133.755,255.661,133.755z M255.661,339.844   c-46.239,0-83.859-37.621-83.859-83.859c0-46.239,37.62-83.86,83.859-83.86c46.244,0,83.849,37.626,83.849,83.86   C339.51,302.218,301.9,339.844,255.661,339.844z" fill="#000000"/>
</g>
</svg>
