<?xml version="1.0" ?><!DOCTYPE svg  PUBLIC '-//W3C//DTD SVG 1.1//EN'  'http://www.w3.org/Graphics/SVG/1.1/DTD/svg11.dtd'><svg enable-background="new 0 0 512 512" height="512px" id="Layer_1" version="1.1" viewBox="0 0 512 512" width="512px" xml:space="preserve" xmlns="http://www.w3.org/2000/svg" xmlns:xlink="http://www.w3.org/1999/xlink"><g><path d="M511.717,255.855c0,141.31-114.556,255.858-255.858,255.858C114.549,511.714,0,397.165,0,255.855   C0,114.55,114.549,0,255.858,0C397.161,0,511.717,114.55,511.717,255.855z" fill="#221E1C"/><path d="M240.93,238.69h-74.766c-1.938,0-3.497,1.566-3.497,3.507v36.546c0,1.935,1.56,3.501,3.497,3.501h29.161   v45.437c0,0-6.548,2.229-24.662,2.229c-21.372,0-51.217-7.8-51.217-73.438c0-65.648,31.099-74.297,60.261-74.297   c25.267,0,36.135,4.455,43.069,6.605c2.175,0.667,4.186-1.51,4.186-3.434l8.327-35.342c0-0.899-0.305-2-1.332-2.73   c-2.802-1.991-19.946-11.602-63.294-11.602c-49.937,0-101.126,21.246-101.126,123.348c0,102.115,58.635,117.34,108.033,117.34   c40.912,0,65.728-17.478,65.728-17.478c1.016-0.574,1.142-2.003,1.142-2.67V242.197C244.439,240.256,242.867,238.69,240.93,238.69z   " fill="#FFFFFF"/><path d="M320.398,176.827c0-15.141-12.162-27.42-27.15-27.42c-14.982,0-27.164,12.279-27.164,27.42   c0,15.142,12.182,27.43,27.164,27.43C308.236,204.257,320.398,191.969,320.398,176.827z" fill="#FFFFFF"/><path d="M317.387,321.778c0-5.64,0-101.716,0-101.716c0-1.924-1.553-3.507-3.471-3.507h-41.994   c-1.917,0-3.636,1.991-3.636,3.915c0,0,0,122.396,0,145.725c0,4.272,2.654,5.557,6.111,5.557c0,0,17.915,0,37.827,0   c4.127,0,5.162-2.043,5.162-5.627C317.387,358.325,317.387,327.708,317.387,321.778z" fill="#FFFFFF"/><path d="M438.412,216.545h-31.59l-0.033-41.739c0-1.576-0.836-2.372-2.654-2.372h-43.029   c-1.692,0-2.601,0.743-2.601,2.332v43.132c0,0-21.552,5.215-23.011,5.64c-1.447,0.425-2.542,1.762-2.542,3.354v27.101   c0,1.948,1.566,3.517,3.49,3.517h22.063c0,0,0,28.332,0,65.181c0,48.437,33.979,53.187,56.89,53.187   c10.47,0,22.99-3.356,25.081-4.126c1.228-0.462,1.984-1.762,1.984-3.172l0.026-29.806c0-1.95-1.64-3.503-3.49-3.503   c-1.832,0-6.542,0.747-11.399,0.747c-15.52,0-20.774-7.22-20.774-16.563c0-9.332,0-61.945,0-61.945h31.59   c1.93,0,3.496-1.569,3.496-3.517v-33.949C441.908,218.098,440.342,216.545,438.412,216.545z" fill="#FFFFFF"/></g></svg>