<?xml version="1.0" ?><!DOCTYPE svg  PUBLIC '-//W3C//DTD SVG 1.1//EN'  'http://www.w3.org/Graphics/SVG/1.1/DTD/svg11.dtd'><svg height="17px" id="Layer_1" style="enable-background:new 0 0 17 17;" version="1.1" viewBox="0 0 17 17" width="17px" xml:space="preserve" xmlns="http://www.w3.org/2000/svg" xmlns:xlink="http://www.w3.org/1999/xlink"><g><path d="M13.1,11.1c0,0.7-0.4,2-1.3,2c-0.9,0-1.3-1.2-1.3-2c0-0.7,0.4-2,1.3-2C12.7,9.2,13.1,10.4,13.1,11.1z M5.2,9.2    c-0.9,0-1.3,1.2-1.3,2c0,0.7,0.4,2,1.3,2s1.3-1.2,1.3-2C6.5,10.4,6.2,9.2,5.2,9.2z M17,9.3c0,1.1-0.1,2.3-0.6,3.4    c-1.3,2.7-5.1,3-7.7,3c-2.7,0-6.6-0.2-8-3C0.1,11.7,0,10.5,0,9.3c0-1.5,0.4-2.9,1.4-4C1.2,4.7,1.1,4.1,1.1,3.5    c0-0.8,0.2-1.5,0.5-2.2C3.2,1.3,4.3,2,5.5,3c1-0.2,2.1-0.4,3.2-0.4c1,0,1.9,0.1,2.9,0.3c1.2-1,2.2-1.6,3.8-1.6    c0.3,0.7,0.5,1.5,0.5,2.2c0,0.6-0.1,1.2-0.3,1.7C16.6,6.4,17,7.8,17,9.3z M14.7,11.1c0-1.6-0.9-2.9-2.6-2.9c-0.7,0-1.3,0.1-2,0.2    C9.6,8.5,9,8.5,8.5,8.5s-1.1,0-1.6-0.1c-0.7-0.1-1.3-0.2-2-0.2c-1.7,0-2.6,1.4-2.6,2.9c0,3.1,2.9,3.6,5.4,3.6h1.7    C11.9,14.7,14.7,14.2,14.7,11.1z"/></g></svg>