<?xml version="1.0" encoding="UTF-8" standalone="no"?>
<!-- Created with Inkscape (http://www.inkscape.org/) -->

<svg
   xmlns:dc="http://purl.org/dc/elements/1.1/"
   xmlns:cc="http://creativecommons.org/ns#"
   xmlns:rdf="http://www.w3.org/1999/02/22-rdf-syntax-ns#"
   xmlns:svg="http://www.w3.org/2000/svg"
   xmlns="http://www.w3.org/2000/svg"
   xmlns:sodipodi="http://sodipodi.sourceforge.net/DTD/sodipodi-0.dtd"
   xmlns:inkscape="http://www.inkscape.org/namespaces/inkscape"
   width="585"
   height="460"
   id="svg3161"
   version="1.1"
   inkscape:version="0.48.4 r9939"
   sodipodi:docname="New document 3">
  <defs
     id="defs3163" />
  <sodipodi:namedview
     id="base"
     pagecolor="#ffffff"
     bordercolor="#666666"
     borderopacity="1.0"
     inkscape:pageopacity="0.0"
     inkscape:pageshadow="2"
     inkscape:zoom="0.49497475"
     inkscape:cx="428.34841"
     inkscape:cy="242.89198"
     inkscape:document-units="px"
     inkscape:current-layer="layer1"
     showgrid="false"
     showguides="true"
     inkscape:guide-bbox="true"
     inkscape:window-width="979"
     inkscape:window-height="512"
     inkscape:window-x="514"
     inkscape:window-y="185"
     inkscape:window-maximized="0" />
  <metadata
     id="metadata3166">
    <rdf:RDF>
      <cc:Work
         rdf:about="">
        <dc:format>image/svg+xml</dc:format>
        <dc:type
           rdf:resource="http://purl.org/dc/dcmitype/StillImage" />
        <dc:title></dc:title>
      </cc:Work>
    </rdf:RDF>
  </metadata>
  <g
     inkscape:label="Layer 1"
     inkscape:groupmode="layer"
     id="layer1"
     transform="translate(0,-592.36218)">
    <g
       id="g3271"
       transform="translate(-85.428571,297.14286)">
      <path
         id="path3170"
         d="m 168.611,630.82982 c 0,-1.91733 0.95866,-3.83466 2.87599,-4.79332 2.39666,-0.95866 5.27265,0 6.23131,2.39666 l 28.7599,63.75111 c 0.95866,2.39666 0,5.27265 -2.39666,6.23131 -2.39666,0.95866 -5.27265,0 -6.23131,-2.39666 l -28.7599,-63.75111 c -0.47933,-0.47933 -0.47933,-0.95866 -0.47933,-1.43799 z"
         inkscape:connector-curvature="0"
         style="fill:#2c3e50" />
      <g
         id="g3252">
        <path
           style="fill:#2c3e50"
           inkscape:connector-curvature="0"
           d="m 628.29005,582.41732 c -3.35532,0 -7.18997,0.47933 -11.02462,0.95866 -35.47055,6.23132 -138.04752,41.22253 -158.17945,47.93317 -0.95866,6.71064 -2.39666,14.85928 -4.79332,22.04925 l 7.66931,-2.39665 c 1.438,-0.47933 121.27091,-41.70186 158.65878,-48.4125 2.87599,-0.47933 5.27264,-0.95866 7.6693,-0.95866 4.79332,0 8.62797,0.95866 11.50396,2.39665 -59.43712,37.38787 -171.1214,106.41163 -196.04664,116.4776 -13.42129,5.27264 -23.48725,7.6693 -31.63589,7.6693 -9.58663,0 -17.73527,-2.87599 -29.71856,-7.6693 C 358.42633,710.8782 239.07275,667.25902 234.75877,665.3417 l -21.09059,42.66051 -51.76782,22.04926 c -0.47933,0 -1.438,0 -1.91733,0 l -42.66052,-90.11435 c 0,-0.95866 0.47934,-2.39666 0.95867,-2.39666 0,0 117.43625,-47.45383 131.8162,-52.72648 11.98329,-4.79332 24.92525,-7.18998 38.34653,-7.18998 23.96659,0 49.85049,7.66931 76.69307,23.00792 30.67722,17.25594 50.80915,29.71857 62.79244,37.38787 -0.95866,4.31399 -1.91732,8.14864 -3.35532,10.06597 -16.77661,-1.438 -64.70977,-15.33862 -95.86633,-24.92525 l -5.27265,17.73527 c 0,0 81.96572,26.36324 104.4943,26.36324 0.47934,0 0.95867,0 1.91733,0 11.02463,-0.95866 16.29728,-23.48725 18.69393,-37.8672 -12.46262,-8.14864 -41.22252,-27.80123 -73.81707,-46.01584 -33.55322,-18.69393 -62.79245,-25.40457 -86.2797,-25.40457 -18.2146,0 -33.55321,3.83465 -45.5365,8.62797 -14.37995,5.75198 -132.77487,53.20581 -132.77487,53.20581 -7.66931,3.35532 -12.941955,12.94195 -12.462623,21.56992 0,1.91733 0.479331,3.83466 1.437995,5.75198 l 42.660518,91.07302 c 4.31398,9.58663 16.77661,13.42128 26.84257,9.58663 l 51.76782,-22.04926 c 5.27265,-2.39665 8.14864,-7.18997 12.46262,-13.90061 l 10.06597,-22.52859 c 0,0 107.84962,39.30519 131.8162,48.89183 12.94195,5.27265 23.96658,9.1073 36.42921,9.1073 10.54529,0 22.52858,-2.39666 38.82586,-9.1073 35.94987,-14.37995 218.0959,-129.89888 218.0959,-129.89888 0,0 -9.1073,-25.88391 -39.78453,-25.88391 z"
           id="path3172" />
        <g
           id="g3235"
           transform="matrix(2.5976221,0,0,2.1840412,285.69992,282.9201)">
          <path
             id="path3199"
             d="m 65.5,96.2 c -6.4,0 -27.5,6.4 -27.5,10.7 v 7.1 h 55 v -7.1 C 93,102.6 71.9,96.2 65.5,96.2 z M 91,112 H 40 v -5 c 1.3,-2.8 18.8,-8.8 25.5,-8.8 6.7,0 24.2,6 25.5,8.8 v 5 z"
             inkscape:connector-curvature="0"
             style="fill:#3b97d3" />
          <path
             id="path3201"
             d="M 65.5,41 C 57,41 42.8,38.9 42.8,38.9 c 2.5,3 5.7,5.9 8.6,8.6 4.9,4.5 9.2,8.5 11,12.9 0.9,2.2 1.8,4.1 3,4.1 1.2,0 2.1,-2 3,-4.1 1.8,-4.4 6.1,-8.4 11,-12.9 3,-2.7 6.1,-5.6 8.6,-8.6 0.2,0 -14,2.1 -22.5,2.1 z m 12.7,4.9 c -5,4.6 -9.6,8.8 -11.6,13.6 -0.2,0.5 -0.7,1.7 -1.2,2.4 -0.4,-0.8 -1,-2 -1.2,-2.5 -2,-4.8 -6.6,-9 -11.5,-13.5 -1.6,-1.5 -3.2,-2.9 -4.7,-4.4 5,0.7 12.2,1.5 17.5,1.5 5.2,0 12.4,-0.8 17.4,-1.4 -1.6,1.5 -3.1,2.9 -4.7,4.3 z"
             inkscape:connector-curvature="0"
             style="fill:#3b97d3" />
          <path
             id="path3203"
             d="m 95,28.2 c 0,7.5 -7.5,14.5 -14.3,20.7 -6.1,5.6 -11.2,10.4 -11.2,15.6 0,5.2 5.2,10 11.2,15.6 6.7,6.1 14.3,13.1 14.3,20.7 V 114 h 4 V 100.8 C 99,91.7 90.7,84.2 83.5,77.5 L 83.2,77.3 C 78,72.5 73.1,68.1 73.1,64.5 c 0,-3.6 4.9,-8 10,-12.8 l 0.3,-0.2 C 90.7,44.8 99,37.3 99,28.2 V 15 h -4 v 13.2 z"
             inkscape:connector-curvature="0"
             style="fill:#2c3e50" />
          <path
             id="path3205"
             d="M 36,100.8 C 36,93.3 43.5,86.3 50.2,80.1 56.3,74.5 61.4,69.7 61.4,64.5 61.4,59.3 56.3,54.5 50.2,48.9 43.5,42.7 36,35.7 36,28.2 V 15 h -4 v 13.2 c 0,9.1 8.2,16.6 15.4,23.3 l 0.2,0.2 c 5.2,4.8 10.1,9.2 10.1,12.8 0,3.6 -4.9,8 -10,12.8 l -0.3,0.2 C 40.2,84.1 32,91.7 32,100.8 V 114 h 4 v -13.2 z"
             inkscape:connector-curvature="0"
             style="fill:#2c3e50" />
          <path
             id="path3207"
             d="M 101.9,13 H 29 c -1.1,0 -2,-0.9 -2,-2 0,-1.1 0.9,-2 2,-2 h 72.9 c 1.1,0 2,0.9 2,2 0,1.1 -0.9,2 -2,2 z"
             inkscape:connector-curvature="0"
             style="fill:#2c3e50" />
          <path
             id="path3209"
             d="M 101.9,120 H 29 c -1.1,0 -2,-0.9 -2,-2 0,-1.1 0.9,-2 2,-2 h 72.9 c 1.1,0 2,0.9 2,2 0,1.1 -0.9,2 -2,2 z"
             inkscape:connector-curvature="0"
             style="fill:#2c3e50" />
          <path
             id="path3211"
             d="m 50.9,103.8 c -1.7,0.6 -3.3,1.3 -4.6,1.9 L 42,110 h 2.8 l 6.1,-6.2 z"
             inkscape:connector-curvature="0"
             style="fill:#3b97d3" />
          <path
             id="path3213"
             d="m 61.9,100.8 c -1.1,0.2 -2.4,0.5 -3.6,0.9 L 50,110 h 2.8 l 9.1,-9.2 z"
             inkscape:connector-curvature="0"
             style="fill:#3b97d3" />
          <path
             id="path3215"
             d="m 69.8,100.9 c -0.9,-0.2 -1.7,-0.2 -2.4,-0.3 L 58,110 h 2.8 l 9,-9.1 z"
             inkscape:connector-curvature="0"
             style="fill:#3b97d3" />
          <path
             id="path3217"
             d="M 76.2,102.5 C 75.5,102.3 74.7,102.1 74,102 l -8,8 h 2.8 l 7.4,-7.5 z"
             inkscape:connector-curvature="0"
             style="fill:#3b97d3" />
          <path
             id="path3219"
             d="m 82.1,104.5 c -0.7,-0.3 -1.4,-0.4 -2.1,-0.7 l -6,6.1 h 2.8 l 5.3,-5.4 z"
             inkscape:connector-curvature="0"
             style="fill:#3b97d3" />
          <path
             id="path3221"
             d="m 87.7,107 c -0.5,-0.3 -1.2,-0.5 -1.9,-0.9 L 82,110 h 2.8 l 2.9,-3 z"
             inkscape:connector-curvature="0"
             style="fill:#3b97d3" />
          <path
             id="path3223"
             d="m 67.6,45 c -0.7,0 -1.4,0 -2.1,0 -0.2,0 -0.5,0 -0.8,0 l -4.9,4.9 c 0.5,0.5 0.9,1 1.4,1.5 L 67.6,45 z"
             inkscape:connector-curvature="0"
             style="fill:#3b97d3" />
          <path
             id="path3225"
             d="m 63.5,54.2 c 0.4,0.6 0.8,1.1 1.1,1.7 L 76.1,44.4 c -1,0.1 -2.1,0.2 -3.1,0.3 l -9.5,9.5 z"
             inkscape:connector-curvature="0"
             style="fill:#3b97d3" />
          <path
             id="path3227"
             d="M 59.7,44.8 C 58.8,44.7 58,44.7 57.1,44.6 L 55.7,46 c 0.5,0.5 1,0.9 1.5,1.4 l 2.5,-2.6 z"
             inkscape:connector-curvature="0"
             style="fill:#3b97d3" />
        </g>
      </g>
    </g>
  </g>
</svg>
