<?xml version="1.0" ?><!DOCTYPE svg  PUBLIC '-//W3C//DTD SVG 1.1//EN'  'http://www.w3.org/Graphics/SVG/1.1/DTD/svg11.dtd'><svg enable-background="new 0 0 128 128" height="128px" id="Layer_1" version="1.1" viewBox="0 0 128 128" width="128px" xml:space="preserve" xmlns="http://www.w3.org/2000/svg" xmlns:xlink="http://www.w3.org/1999/xlink"><path d="M65.5,96.2c-6.4,0-27.5,6.4-27.5,10.7v7.1h55v-7.1C93,102.6,71.9,96.2,65.5,96.2z M91,112H40v-5  c1.3-2.8,18.8-8.8,25.5-8.8s24.2,6,25.5,8.8V112z" fill="#3B97D3"/><path d="M65.5,41c-8.5,0-22.7-2.1-22.7-2.1c2.5,3,5.7,5.9,8.6,8.6c4.9,4.5,9.2,8.5,11,12.9c0.9,2.2,1.8,4.1,3,4.1  s2.1-2,3-4.1c1.8-4.4,6.1-8.4,11-12.9c3-2.7,6.1-5.6,8.6-8.6C88.2,38.9,74,41,65.5,41z M78.2,45.9c-5,4.6-9.6,8.8-11.6,13.6  c-0.2,0.5-0.7,1.7-1.2,2.4c-0.4-0.8-1-2-1.2-2.5c-2-4.8-6.6-9-11.5-13.5c-1.6-1.5-3.2-2.9-4.7-4.4C53,42.2,60.2,43,65.5,43  c5.2,0,12.4-0.8,17.4-1.4C81.3,43.1,79.8,44.5,78.2,45.9z" fill="#3B97D3"/><path d="M95,28.2c0,7.5-7.5,14.5-14.3,20.7c-6.1,5.6-11.2,10.4-11.2,15.6c0,5.2,5.2,10,11.2,15.6  C87.4,86.2,95,93.2,95,100.8V114h4v-13.2c0-9.1-8.3-16.6-15.5-23.3l-0.3-0.2c-5.2-4.8-10.1-9.2-10.1-12.8c0-3.6,4.9-8,10-12.8  l0.3-0.2C90.7,44.8,99,37.3,99,28.2V15h-4V28.2z" fill="#2C3E50"/><path d="M36,100.8c0-7.5,7.5-14.5,14.2-20.7c6.1-5.6,11.2-10.4,11.2-15.6s-5.1-10-11.2-15.6  C43.5,42.7,36,35.7,36,28.2V15h-4v13.2c0,9.1,8.2,16.6,15.4,23.3l0.2,0.2c5.2,4.8,10.1,9.2,10.1,12.8c0,3.6-4.9,8-10,12.8l-0.3,0.2  C40.2,84.1,32,91.7,32,100.8V114h4V100.8z" fill="#2C3E50"/><path d="M101.9,13H29c-1.1,0-2-0.9-2-2s0.9-2,2-2h72.9c1.1,0,2,0.9,2,2S103,13,101.9,13z" fill="#2C3E50"/><path d="M101.9,120H29c-1.1,0-2-0.9-2-2s0.9-2,2-2h72.9c1.1,0,2,0.9,2,2S103,120,101.9,120z" fill="#2C3E50"/><path d="M50.9,103.8c-1.7,0.6-3.3,1.3-4.6,1.9L42,110h2.8L50.9,103.8z" fill="#3B97D3"/><path d="M61.9,100.8c-1.1,0.2-2.4,0.5-3.6,0.9L50,110h2.8L61.9,100.8z" fill="#3B97D3"/><path d="M69.8,100.9c-0.9-0.2-1.7-0.2-2.4-0.3L58,110h2.8L69.8,100.9z" fill="#3B97D3"/><path d="M76.2,102.5c-0.7-0.2-1.5-0.4-2.2-0.5l-8,8h2.8L76.2,102.5z" fill="#3B97D3"/><path d="M82.1,104.5c-0.7-0.3-1.4-0.4-2.1-0.7l-6,6.1h2.8L82.1,104.5z" fill="#3B97D3"/><path d="M87.7,107c-0.5-0.3-1.2-0.5-1.9-0.9L82,110h2.8L87.7,107z" fill="#3B97D3"/><path d="M67.6,45c-0.7,0-1.4,0-2.1,0c-0.2,0-0.5,0-0.8,0l-4.9,4.9c0.5,0.5,0.9,1,1.4,1.5L67.6,45z" fill="#3B97D3"/><path d="M63.5,54.2c0.4,0.6,0.8,1.1,1.1,1.7l11.5-11.5c-1,0.1-2.1,0.2-3.1,0.3L63.5,54.2z" fill="#3B97D3"/><path d="M59.7,44.8c-0.9-0.1-1.7-0.1-2.6-0.2L55.7,46c0.5,0.5,1,0.9,1.5,1.4L59.7,44.8z" fill="#3B97D3"/></svg>