<?xml version="1.0" ?><!DOCTYPE svg  PUBLIC '-//W3C//DTD SVG 1.1//EN'  'http://www.w3.org/Graphics/SVG/1.1/DTD/svg11.dtd'><svg enable-background="new 0 0 128 128" height="128px" id="Layer_1" version="1.1" viewBox="0 0 128 128" width="128px" xml:space="preserve" xmlns="http://www.w3.org/2000/svg" xmlns:xlink="http://www.w3.org/1999/xlink"><path d="M82,89.8c6.1,1.5,17.2,4.4,21.2,5.5c0.4,0.1,1.7,1.4,2.7,5.9c0.7,2.9,1.1,6.8,1.2,11.1  c-1.6,0.6-4.2,1.5-8,2.4c-6.5,1.5-17.8,3.4-35,3.4c-17.2,0-28.6-1.8-35.1-3.4c-3.8-0.9-6.4-1.8-8-2.4c0.1-4.3,0.5-8.2,1.2-11.1  c1-4.5,2.3-5.8,2.7-5.9c4.1-1.1,15.6-4,21.6-5.4c0.2,0.6,0.3,1.2,0.5,1.8c3.7,14,6.8,23.9,13.4,23.9h7.5c4.7,0,8.2-4.8,11.7-16.1  C80.5,95.8,81.4,92.3,82,89.8 M78.9,84.9c0,0-5.1,26.5-11.2,26.5h-7.5c-5.5,0-9.8-23.7-11.2-26.4c0,0-19.6,4.9-25.3,6.4  c-5.6,1.5-6.9,14.3-6.9,23.4c0,0,12.3,7.2,47.1,7.2s47.1-7.2,47.1-7.2c0-9.1-1.2-21.9-6.9-23.4C98.6,89.9,78.9,84.9,78.9,84.9  L78.9,84.9z" fill="#2C3E50"/><path d="M74.4,72H53.6c-1.2,0-1.6,1.2-1.6,2.5v7.8c0,1.4,0.4,2.7,1.8,2.7h0.8c0,1,0.8,2,1.8,2h1.9  c0.4,1,0.6,1.6,1.6,2.2v1.7c0,1.1,0.6,1.8,1.5,2.3L60.3,108h7.5l-1.2-14.8c0.9-0.4,1.5-1.2,1.5-2.3v-1.7c1-0.6,1.3-1.2,1.6-2.2h2  c1,0,1.8-1,1.8-2h0.8c1.4,0,1.7-1.3,1.7-2.7v-7.8C76,73.2,75.6,72,74.4,72z M74,82.3c0,0.3,0.3,0.7,0.2,0.7h-0.8H71v1.9  c0,0.1,0.5,0.1,0.5,0.1h-1.8h-1.3l-0.5,1.2c-0.7,1.5-2.1,2.5-3.8,2.5s-3.1-1-3.8-2.5L59.7,85h-1.3h-1.8c0,0,0.4-0.1,0.4-0.1V83h-2.4  h-0.8c0,0,0.2-0.4,0.2-0.7v-7.8c0-0.2-0.1-0.4-0.1-0.4c0,0-0.1-0.1-0.1-0.1h20.5c0,0-0.3,0.4-0.3,0.5V82.3z" fill="#2C3E50"/><path d="M64,11c6.3,0,12.5,2.7,17,7.4c9.6,10.1,9.6,24.5,0,34.1c-4.6,4.6-7.2,9.4-8.6,13.4H55.6  c-1.3-4-3.9-8.6-8.6-13.4c-9.6-9.6-9.6-24,0.1-34.1C51.6,13.8,57.6,11.1,64,11 M64,7c-7.5,0-14.6,3.1-19.9,8.7  c-11.2,11.7-11.2,28.5,0,39.7c5.1,5.1,7.5,10.6,8.5,14.6h22.7c0,0,0-0.1,0-0.1c1-3.9,3.4-9.4,8.5-14.5C95,44.1,95.1,27.5,83.9,15.7  C78.7,10.2,71.4,7.1,64,7L64,7z" fill="#3B97D3"/><path d="M71.6,43c-0.4-0.4-1-0.4-1.4,0L64,49.3l-6.4-6.4c-0.4-0.4-1-0.4-1.4,0s-0.4,1,0,1.4l6.8,6.8v9.3  c0,0.6,0.4,1,1,1s1-0.4,1-1v-9.3l6.6-6.6C72,44.1,72,43.4,71.6,43z" fill="#2C3E50"/><path d="M33.8,38H18.9c-0.6,0-1,0.4-1,1s0.4,1,1,1H34C33.9,39.3,33.8,38.7,33.8,38z" fill="#3B97D3"/><path d="M24.4,17.6l11.7,6.7c0.3-0.6,0.5-1.2,0.8-1.8l-11.5-6.7c-0.5-0.3-1.1-0.1-1.4,0.4  C23.7,16.7,23.9,17.3,24.4,17.6z" fill="#3B97D3"/><path d="M91.8,23.8l10.9-6.3c0.5-0.3,0.6-0.9,0.4-1.4c-0.3-0.5-0.9-0.6-1.4-0.4L90.9,22  C91.2,22.6,91.5,23.2,91.8,23.8z" fill="#3B97D3"/><path d="M108.1,38H94.2c-0.1,0.7-0.1,1.3-0.2,2h14.1c0.6,0,1-0.4,1-1S108.7,38,108.1,38z" fill="#3B97D3"/><path d="M38.8,52.1l-14.4,8.3c-0.5,0.3-0.6,0.9-0.4,1.4c0.3,0.5,0.9,0.6,1.4,0.4L40,53.7  C39.6,53.2,39.2,52.7,38.8,52.1z" fill="#3B97D3"/><path d="M102.6,60.4l-13.8-8c-0.4,0.5-0.8,1.1-1.2,1.6l14,8.1c0.5,0.3,1.1,0.1,1.4-0.4  C103.3,61.3,103.1,60.7,102.6,60.4z" fill="#3B97D3"/></svg>