<?xml version="1.0" encoding="UTF-8" standalone="no"?>
<!-- Created with Inkscape (http://www.inkscape.org/) -->

<svg
   xmlns:dc="http://purl.org/dc/elements/1.1/"
   xmlns:cc="http://creativecommons.org/ns#"
   xmlns:rdf="http://www.w3.org/1999/02/22-rdf-syntax-ns#"
   xmlns:svg="http://www.w3.org/2000/svg"
   xmlns="http://www.w3.org/2000/svg"
   xmlns:sodipodi="http://sodipodi.sourceforge.net/DTD/sodipodi-0.dtd"
   xmlns:inkscape="http://www.inkscape.org/namespaces/inkscape"
   width="744.09448819"
   height="1052.3622047"
   id="svg2"
   version="1.1"
   inkscape:version="0.48.4 r9939"
   sodipodi:docname="KeepCalm.svg">
  <defs
     id="defs4" />
  <sodipodi:namedview
     id="base"
     pagecolor="#ffffff"
     bordercolor="#666666"
     borderopacity="1.0"
     inkscape:pageopacity="0.0"
     inkscape:pageshadow="2"
     inkscape:zoom="0.7"
     inkscape:cx="649.24533"
     inkscape:cy="566.80142"
     inkscape:document-units="px"
     inkscape:current-layer="layer1"
     showgrid="false"
     inkscape:window-width="1598"
     inkscape:window-height="787"
     inkscape:window-x="737"
     inkscape:window-y="129"
     inkscape:window-maximized="0" />
  <metadata
     id="metadata7">
    <rdf:RDF>
      <cc:Work
         rdf:about="">
        <dc:format>image/svg+xml</dc:format>
        <dc:type
           rdf:resource="http://purl.org/dc/dcmitype/StillImage" />
      </cc:Work>
    </rdf:RDF>
  </metadata>
  <g
     inkscape:label="Layer 1"
     inkscape:groupmode="layer"
     id="layer1">
    <rect
       style="fill:#b24a4a;fill-opacity:1;stroke:#000000;stroke-width:0;stroke-miterlimit:4;stroke-opacity:1;stroke-dasharray:none"
       id="rect3001"
       width="745.42859"
       height="1052"
       x="-0.66705322"
       y="0.72835636" />
    <path
       inkscape:connector-curvature="0"
       id="path4999-4"
       style="font-size:1400.74536133px;font-style:oblique;font-variant:normal;font-weight:600;font-stretch:normal;line-height:125%;letter-spacing:0px;word-spacing:0px;fill:#ffebd8;fill-opacity:1;stroke:none;font-family:URW Gothic L;-inkscape-font-specification:URW Gothic L Semi-Bold Oblique"
       d="m 282.65894,162.47895 3.18808,0.95541 -1.70538,4.56558 4.51839,-1.09638 0.60364,3.37527 -4.61803,0.52468 3.2291,3.80595 -2.67238,1.99694 -2.77198,-3.75896 -1.38306,4.57342 -3.00054,-1.28431 1.75226,-4.33066 -4.43049,1.04155 -0.59777,-3.32826 4.52427,-0.57167 -3.18808,-3.46922 2.49068,-2.23972 2.77198,3.66499 1.28931,-4.42461 z m 19.19532,-26.46082 c 0.60314,-0.004 1.20616,2.3e-4 1.81088,0.008 18.14114,0.22822 36.96054,5.4767 48.75891,18.39546 12.58493,13.78 15.02567,35.0983 1.93981,62.47719 l -17.06562,-5.90497 c 11.60707,-24.2849 8.38495,-38.40848 0.58604,-46.94797 -7.79892,-8.53952 -22.32983,-12.68377 -37.31934,-12.32629 l -0.51571,-15.67022 c 0.60056,-0.0143 1.20189,-0.0275 1.80503,-0.0312 z m -18.70305,-0.39232 3.43424,0.98672 -1.84019,4.73004 4.87002,-1.13552 0.64467,3.50054 -4.96967,0.54035 3.4811,3.93909 -2.88334,2.07527 -2.98296,-3.89211 -1.4944,4.7222 -3.22914,-1.32347 1.88708,-4.48727 -4.77041,1.08854 -0.64464,-3.45356 4.87002,-0.58734 -3.42835,-3.59451 2.68407,-2.31803 2.98297,3.7903 1.38893,-4.58124 z m 21.51527,27.71486 c 19.675,0.31372 33.44033,11.07909 40.59025,22.32723 7.62656,11.99797 9.83653,24.03033 9.09939,31.84472 l -18.46242,-1.26254 c 0.24845,-2.63404 -1.40472,-14.39203 -6.92435,-23.07538 -5.5196,-8.68334 -12.79639,-14.80645 -27.12243,-14.0192 l -1.19371,-15.73689 c 1.364,-0.075 2.70161,-0.0988 4.01327,-0.078 z m 156.76908,-0.86172 -3.18808,0.95541 1.70538,4.56558 -4.51839,-1.09638 -0.60364,3.37527 4.61803,0.52468 -3.22909,3.80596 2.67237,1.99694 2.77197,-3.75897 1.38306,4.57342 3.00056,-1.28431 -1.75227,-4.33066 4.43049,1.04155 0.59777,-3.32825 -4.52428,-0.57168 3.18809,-3.46921 -2.49069,-2.23973 -2.77197,3.66499 -1.28931,-4.42461 z m -19.19531,-26.4608 c -0.60313,-0.004 -1.20619,2.1e-4 -1.81088,0.008 -18.14116,0.22823 -36.96054,5.47669 -48.75892,18.39546 -12.58495,13.78002 -15.02568,35.09831 -1.93981,62.47719 l 17.06562,-5.90467 c -11.60708,-24.28489 -8.38495,-38.40847 -0.58604,-46.94797 7.79892,-8.5395 22.32983,-12.68376 37.31932,-12.32631 l 0.51572,-15.6702 c -0.60055,-0.0143 -1.20188,-0.0275 -1.80501,-0.0312 z m 18.70304,-0.39234 -3.43425,0.98672 1.8402,4.73004 -4.87004,-1.1355 -0.64464,3.50053 4.96966,0.54035 -3.4811,3.93908 2.88332,2.07527 2.98298,-3.89211 1.49441,4.7222 3.22912,-1.32347 -1.88708,-4.48727 4.77042,1.08854 0.64463,-3.45356 -4.87002,-0.58734 3.42835,-3.59451 -2.68407,-2.31803 -2.98298,3.79032 -1.38891,-4.58126 z m -21.51527,27.71486 c -19.675,0.31372 -33.44033,11.07909 -40.59025,22.32723 -7.62656,11.99797 -9.83653,24.03033 -9.0994,31.84472 l 18.46243,-1.26254 c -0.24844,-2.63404 1.40472,-14.39203 6.92434,-23.07538 5.51961,-8.68335 12.79639,-14.80644 27.12243,-14.01919 l 1.1937,-15.7369 c -1.36397,-0.075 -2.70158,-0.0988 -4.01325,-0.078 z M 355.37606,36.020058 c -7.21104,0 -13.05675,4.399541 -13.05675,9.826641 0,0.370874 0.0267,0.737618 0.0797,1.097819 l -0.23936,0.05374 0.46423,0.951952 c 0.26247,0.905739 0.68569,1.763024 1.25489,2.556464 0.006,0.0073 0.01,0.01566 0.0146,0.02305 l 11.4029,23.307556 -34.80353,-6.43338 -0.13056,0.5681 c -0.2224,-0.009 -0.44933,-0.0153 -0.6746,-0.0153 -7.0508,0 -12.7666,4.39954 -12.7666,9.82664 0,4.41148 3.77969,8.13886 8.98014,9.38137 l -0.0218,0.0921 0.69635,0.0614 c 0.99581,0.19193 2.03876,0.29173 3.11186,0.29173 0.0726,0 0.14525,-0.007 0.21762,-0.008 l 31.48129,2.72535 -23.63274,21.27314 c -3.47959,1.78646 -5.74497,4.67713 -5.74497,7.94576 0,5.4271 6.23542,9.82663 13.92721,9.82663 6.44616,0 11.86825,-3.09034 13.45571,-7.28553 l 19.04111,-19.73772 9.32833,23.49948 c 0.56889,5.20948 5.72697,9.62311 12.20806,10.15676 7.05081,0.58057 12.99556,-3.6483 13.28162,-9.44279 0.085,-1.72086 -0.34508,-3.38368 -1.16785,-4.89028 l 0.0871,-0.0307 -13.49923,-25.44178 34.09263,6.14933 0.0218,-0.10749 c 0.44271,0.0686 0.89576,0.10749 1.35645,0.10749 5.12786,0 9.28481,-4.39954 9.28481,-9.82664 0,-4.26833 -2.57304,-7.89416 -6.1657,-9.25086 l 0.1159,-0.49134 -34.79627,-3.35487 22.79856,-18.98537 c 0.50695,-0.35961 0.974,-0.748879 1.39995,-1.166918 l 0.30467,-0.253338 -0.029,-0.02305 c 1.53493,-1.621952 2.4445,-3.620602 2.4445,-5.780825 0,-5.427106 -5.71579,-9.826641 -12.76659,-9.826641 -3.34097,0 -6.37832,0.993316 -8.65374,2.6102 L 397.90467,45.877109 376.6004,67.40358 368.42542,46.038324 c 0.002,-0.06396 0.007,-0.127665 0.007,-0.191924 0,-5.427091 -5.8457,-9.826627 -13.05675,-9.826627 z" />
    <text
       xml:space="preserve"
       style="font-size:123.39138031px;font-style:normal;font-variant:normal;font-weight:500;font-stretch:normal;line-height:125%;letter-spacing:0px;word-spacing:0px;fill:#ffebd8;fill-opacity:1;stroke:none;font-family:Keep Calm;-inkscape-font-specification:Keep Calm Medium"
       x="217.89673"
       y="342.60516"
       id="text4027"
       sodipodi:linespacing="125%"
       transform="scale(0.95799581,1.0438459)"><tspan
         sodipodi:role="line"
         id="tspan4029"
         x="217.89673"
         y="342.60516">KEEP</tspan></text>
    <text
       xml:space="preserve"
       style="font-size:119.79615021px;font-style:normal;font-variant:normal;font-weight:500;font-stretch:normal;line-height:125%;letter-spacing:0px;word-spacing:0px;fill:#ffebd8;fill-opacity:1;stroke:none;font-family:Keep Calm;-inkscape-font-specification:Keep Calm Medium"
       x="190.40485"
       y="490.01511"
       id="text4031"
       sodipodi:linespacing="125%"
       transform="scale(0.96495925,1.0363132)"><tspan
         sodipodi:role="line"
         id="tspan4033"
         x="190.40485"
         y="490.01511">CALM</tspan></text>
    <text
       xml:space="preserve"
       style="font-size:60.11112595px;font-style:normal;font-variant:normal;font-weight:500;font-stretch:normal;line-height:125%;letter-spacing:0px;word-spacing:0px;fill:#ffebd8;fill-opacity:1;stroke:none;font-family:Keep Calm;-inkscape-font-specification:Keep Calm Medium"
       x="287.39835"
       y="618.1424"
       id="text4035"
       sodipodi:linespacing="125%"
       transform="scale(1.026047,0.97461422)"><tspan
         sodipodi:role="line"
         id="tspan4037"
         x="287.39835"
         y="618.1424">AND</tspan><tspan
         sodipodi:role="line"
         x="287.39835"
         y="693.28131"
         id="tspan4039" /></text>
    <text
       xml:space="preserve"
       style="font-size:123.30387878px;font-style:normal;font-variant:normal;font-weight:500;font-stretch:normal;line-height:125%;letter-spacing:0px;word-spacing:0px;fill:#ffebd8;fill-opacity:1;stroke:none;font-family:Keep Calm;-inkscape-font-specification:Keep Calm Medium"
       x="218.05711"
       y="711.06616"
       id="text4043"
       sodipodi:linespacing="125%"
       transform="scale(0.95611983,1.045894)"><tspan
         sodipodi:role="line"
         id="tspan4045"
         x="218.05711"
         y="711.06616">HELP</tspan></text>
    <text
       xml:space="preserve"
       style="font-size:52.0047493px;font-style:normal;font-variant:normal;font-weight:500;font-stretch:normal;line-height:125%;letter-spacing:0px;word-spacing:0px;fill:#ffebd8;fill-opacity:1;stroke:none;font-family:Keep Calm;-inkscape-font-specification:Keep Calm Medium"
       x="343.38165"
       y="751.52454"
       id="text4047"
       sodipodi:linespacing="125%"
       transform="scale(0.92096254,1.0858205)"><tspan
         sodipodi:role="line"
         id="tspan4049"
         x="343.38165"
         y="751.52454">FOR</tspan></text>
    <text
       xml:space="preserve"
       style="font-size:109.3625412px;font-style:normal;font-variant:normal;font-weight:500;font-stretch:normal;line-height:125%;letter-spacing:0px;word-spacing:0px;fill:#ffebd8;fill-opacity:1;stroke:none;font-family:Keep Calm;-inkscape-font-specification:Keep Calm Medium"
       x="156.73978"
       y="847.0213"
       id="text4051"
       sodipodi:linespacing="125%"
       transform="scale(0.88091802,1.1351794)"><tspan
         sodipodi:role="line"
         id="tspan4053"
         x="156.73978"
         y="847.0213">A LIVING</tspan></text>
  </g>
</svg>
