<?xml version="1.0" encoding="UTF-8" standalone="no"?>
<!-- Generator: Adobe Illustrator 16.2.1, SVG Export Plug-In . SVG Version: 6.00 Build 0)  -->

<svg
   xmlns:dc="http://purl.org/dc/elements/1.1/"
   xmlns:cc="http://creativecommons.org/ns#"
   xmlns:rdf="http://www.w3.org/1999/02/22-rdf-syntax-ns#"
   xmlns:svg="http://www.w3.org/2000/svg"
   xmlns="http://www.w3.org/2000/svg"
   xmlns:sodipodi="http://sodipodi.sourceforge.net/DTD/sodipodi-0.dtd"
   xmlns:inkscape="http://www.inkscape.org/namespaces/inkscape"
   version="1.1"
   id="Layer_1"
   x="0px"
   y="0px"
   width="512px"
   height="512px"
   viewBox="0 0 512 512"
   style="enable-background:new 0 0 512 512;"
   xml:space="preserve"
   inkscape:version="0.48.4 r9939"
   sodipodi:docname="man-512px.svg"><metadata
     id="metadata13"><rdf:RDF><cc:Work
         rdf:about=""><dc:format>image/svg+xml</dc:format><dc:type
           rdf:resource="http://purl.org/dc/dcmitype/StillImage" /></cc:Work></rdf:RDF></metadata><defs
     id="defs11" /><sodipodi:namedview
     pagecolor="#ffffff"
     bordercolor="#666666"
     borderopacity="1"
     objecttolerance="10"
     gridtolerance="10"
     guidetolerance="10"
     inkscape:pageopacity="0"
     inkscape:pageshadow="2"
     inkscape:window-width="2495"
     inkscape:window-height="1056"
     id="namedview9"
     showgrid="false"
     inkscape:zoom="0.65186406"
     inkscape:cx="-240.09544"
     inkscape:cy="516.20129"
     inkscape:window-x="65"
     inkscape:window-y="24"
     inkscape:window-maximized="1"
     inkscape:current-layer="Layer_1" /><g
     id="g5"
     transform="matrix(0.73849879,0,0,1,68.300239,-1.6271187)"><path
       d="M 293.4,115 H 256 218.6 C 190.4,115 172,139.8 172,163.4 V 277 c 0,22 31,22 31,0 V 172 h 6 v 285.6 c 0,30.4 42,29.4 43,0 V 293 h 7 1 v 164.7 c 1.7,31.2 43,28.2 43,-0.1 V 172 h 5 v 105 c 0,22 32,22 32,0 V 163.4 C 340,139.9 321.5,115 293.4,115 z"
       id="path7"
       inkscape:connector-curvature="0"
       style="fill:#000000" /></g><path
     style="font-size:1400.74536133px;font-style:oblique;font-variant:normal;font-weight:600;font-stretch:normal;line-height:125%;letter-spacing:0px;word-spacing:0px;fill:#000000;fill-opacity:1;stroke:#000000;stroke-width:0;stroke-miterlimit:4;stroke-opacity:1;stroke-dasharray:none;font-family:URW Gothic L;-inkscape-font-specification:URW Gothic L Semi-Bold Oblique"
     d="m 256.57701,52.796973 c -3.57173,-0.486651 -6.81809,1.587785 -7.25096,4.63338 -0.0277,0.208455 -0.0455,0.415772 -0.048,0.621471 l -0.12281,0.01401 0.154,0.56555 c 0.0578,0.525997 0.19902,1.035652 0.41767,1.51933 0.001,0.0044 0.003,0.0093 0.005,0.01381 l 3.7889,13.849339 -16.61707,-5.435501 0,0 c -0.10937,-0.02009 0.60962,0.14865 -0.55123,-0.267714 -2.48241,-0.890342 -6.01772,1.481157 -6.45059,4.526751 -0.35195,2.475632 0.56632,4.948681 3.04303,5.996914 l -0.018,0.05025 0.34001,0.08145 c 0.47793,0.174909 0.98656,0.301303 1.51807,0.373726 0.036,0.0048 0.0726,0.0059 0.10846,0.01044 l 15.37566,3.653987 -13.40236,10.343222 c -1.86596,0.767713 -3.2186,2.237016 -3.47931,4.071308 -0.43291,3.045604 2.30467,5.935354 6.11451,6.454454 3.19283,0.43503 6.12494,-0.9333 7.24586,-3.18042 l 11.00562,-9.791489 2.81891,13.669729 c 0.28501,2.86049 1.9962,5.93414 5.1638,6.67099 3.44602,0.80165 6.72783,-1.17033 7.33172,-4.40279 0.17882,-0.96007 0.099,-1.92215 -0.1884,-2.82317 l 0.0457,-0.0113 -4.65701,-15.188504 16.39597,5.751692 0.0195,-0.05883 c 0.21382,0.0684 0.43509,0.120758 0.66329,0.151879 2.53989,0.346071 4.94979,-1.842337 5.38266,-4.887935 0.34048,-2.395308 -0.64479,-4.603712 -2.31605,-5.607523 l 0.0966,-0.267908 -16.96739,-4.230983 12.8067,-9.115661 c 0.27981,-0.167587 0.54218,-0.354521 0.78651,-0.560369 l 0.17111,-0.121613 -0.0125,-0.01487 c 0.88965,-0.806624 1.49958,-1.866846 1.67189,-3.079126 0.4329,-3.045592 -2.0473,-5.900279 -5.53964,-6.376115 -1.65483,-0.225473 -3.23849,0.12698 -4.49447,0.880791 l -0.0763,-0.08067 -12.26925,10.642532 -2.34502,-12.541516 c 0.006,-0.03583 -0.0906,-0.94451 -0.0949,-0.980198 -0.47735,-3.957888 -1.99782,-5.036063 -5.56954,-5.522712 z"
     id="path4999-4"
     inkscape:connector-curvature="0"
     sodipodi:nodetypes="csccccccccsscccscccsscccsscccccsscccccccssccccscc" /></svg>