<?xml version="1.0" encoding="UTF-8" standalone="no"?>
<!-- Generator: Adobe Illustrator 16.2.1, SVG Export Plug-In . SVG Version: 6.00 Build 0)  -->

<svg
   xmlns:dc="http://purl.org/dc/elements/1.1/"
   xmlns:cc="http://creativecommons.org/ns#"
   xmlns:rdf="http://www.w3.org/1999/02/22-rdf-syntax-ns#"
   xmlns:svg="http://www.w3.org/2000/svg"
   xmlns="http://www.w3.org/2000/svg"
   xmlns:sodipodi="http://sodipodi.sourceforge.net/DTD/sodipodi-0.dtd"
   xmlns:inkscape="http://www.inkscape.org/namespaces/inkscape"
   version="1.1"
   id="Layer_1"
   x="0px"
   y="0px"
   width="512px"
   height="512px"
   viewBox="0 0 512 512"
   style="enable-background:new 0 0 512 512;"
   xml:space="preserve"
   inkscape:version="0.48.4 r9939"
   sodipodi:docname="man-512px.svg"><metadata
     id="metadata13"><rdf:RDF><cc:Work
         rdf:about=""><dc:format>image/svg+xml</dc:format><dc:type
           rdf:resource="http://purl.org/dc/dcmitype/StillImage" /></cc:Work></rdf:RDF></metadata><defs
     id="defs11" /><sodipodi:namedview
     pagecolor="#ffffff"
     bordercolor="#666666"
     borderopacity="1"
     objecttolerance="10"
     gridtolerance="10"
     guidetolerance="10"
     inkscape:pageopacity="0"
     inkscape:pageshadow="2"
     inkscape:window-width="2495"
     inkscape:window-height="1056"
     id="namedview9"
     showgrid="false"
     inkscape:zoom="1.84375"
     inkscape:cx="156.29581"
     inkscape:cy="265.11556"
     inkscape:window-x="65"
     inkscape:window-y="24"
     inkscape:window-maximized="1"
     inkscape:current-layer="Layer_1" /><g
     id="g5"
     transform="matrix(0.73849879,0,0,1,68.300239,-1.6271187)"><path
       d="M 293.4,115 H 256 218.6 C 190.4,115 172,139.8 172,163.4 V 277 c 0,22 31,22 31,0 V 172 h 6 v 285.6 c 0,30.4 42,29.4 43,0 V 293 h 7 1 v 164.7 c 1.7,31.2 43,28.2 43,-0.1 V 172 h 5 v 105 c 0,22 32,22 32,0 V 163.4 C 340,139.9 321.5,115 293.4,115 z"
       id="path7"
       inkscape:connector-curvature="0"
       style="fill:#000000" /></g><path
     style="font-size:1400.74536133px;font-style:oblique;font-variant:normal;font-weight:600;font-stretch:normal;line-height:125%;letter-spacing:0px;word-spacing:0px;fill:#000000;fill-opacity:1;stroke:#000000;stroke-width:0;stroke-miterlimit:4;stroke-opacity:1;stroke-dasharray:none;font-family:URW Gothic L;-inkscape-font-specification:URW Gothic L Semi-Bold Oblique"
     d="m 247.52054,58.568855 c -4.0389,0.545234 -7.09384,3.28807 -6.82339,6.126298 0.0207,0.193726 0.0519,0.383723 0.0995,0.568076 l -0.13133,0.04619 0.30744,0.462748 c 0.19224,0.453809 0.47191,0.870167 0.83027,1.242073 0.002,0.0037 0.006,0.0074 0.009,0.01087 l 7.54809,11.327063 -19.5668,-0.295199 0,0 c -0.12494,0.01206 0.70541,-0.03449 -0.67048,-0.08784 -2.94224,-0.114048 -6.24155,2.973303 -5.97113,5.811532 0.21974,2.307095 1.83282,4.263448 4.80747,4.520043 l -0.007,0.04982 0.39309,-0.02054 c 0.56732,0.02508 1.15646,-0.0016 1.75747,-0.08272 0.0407,-0.0056 0.0811,-0.01465 0.12159,-0.02037 l 17.76837,-0.955025 -12.1766,12.912166 c -1.85986,1.19737 -2.98466,2.88039 -2.82179,4.5898 0.2704,2.83823 3.98208,4.6676 8.29023,4.08603 3.61045,-0.48739 6.49334,-2.51352 7.17345,-4.82752 l 9.68135,-11.762037 6.43962,11.432757 c 1.01295,2.47602 3.64325,4.75114 7.29988,4.54018 3.97804,-0.22947 7.09696,-2.89054 6.96846,-5.94254 -0.0388,-0.90632 -0.36131,-1.7436 -0.8978,-2.469209 l 0.0475,-0.02264 -8.82859,-12.284695 19.40154,0.638188 0.007,-0.05788 c 0.2514,0.0024 0.50706,-0.01152 0.7651,-0.04633 2.87209,-0.387709 4.98117,-3.002864 4.71074,-5.841095 -0.21266,-2.232226 -1.83451,-3.93389 -3.91434,-4.371766 l 0.0404,-0.265713 -19.65643,0.876443 11.82337,-11.652654 c 0.26606,-0.226398 0.50824,-0.465288 0.72599,-0.716117 l 0.158,-0.155527 -0.0173,-0.0099 c 0.77889,-0.964294 1.18875,-2.078308 1.08111,-3.208047 -0.2704,-2.838233 -3.69104,-4.706902 -7.64017,-4.173789 -1.87128,0.252614 -3.52298,1.001746 -4.71684,2.019376 l -0.10346,-0.05111 -10.8598,12.868602 -5.64339,-10.555355 c -0.003,-0.03354 -0.33062,-0.818521 -0.34408,-0.849209 -1.49265,-3.403151 -3.4252,-3.948794 -7.46409,-3.403563 z"
     id="path4999-4"
     inkscape:connector-curvature="0"
     sodipodi:nodetypes="csccccccccsscccscccsscccsscccccsscccccccssccccscc" /></svg>