<?xml version="1.0" encoding="UTF-8" standalone="no"?>
<svg
   xmlns:dc="http://purl.org/dc/elements/1.1/"
   xmlns:cc="http://creativecommons.org/ns#"
   xmlns:rdf="http://www.w3.org/1999/02/22-rdf-syntax-ns#"
   xmlns:svg="http://www.w3.org/2000/svg"
   xmlns="http://www.w3.org/2000/svg"
   xmlns:sodipodi="http://sodipodi.sourceforge.net/DTD/sodipodi-0.dtd"
   xmlns:inkscape="http://www.inkscape.org/namespaces/inkscape"
   height="1000"
   width="980"
   id="svg3905"
   version="1.1"
   inkscape:version="0.48.4 r9939"
   sodipodi:docname="moon-512px.svg">
  <metadata
     id="metadata3913">
    <rdf:RDF>
      <cc:Work
         rdf:about="">
        <dc:format>image/svg+xml</dc:format>
        <dc:type
           rdf:resource="http://purl.org/dc/dcmitype/StillImage" />
        <dc:title></dc:title>
      </cc:Work>
    </rdf:RDF>
  </metadata>
  <defs
     id="defs3911" />
  <sodipodi:namedview
     pagecolor="#ffffff"
     bordercolor="#666666"
     borderopacity="1"
     objecttolerance="10"
     gridtolerance="10"
     guidetolerance="10"
     inkscape:pageopacity="0"
     inkscape:pageshadow="2"
     inkscape:window-width="2194"
     inkscape:window-height="1028"
     id="namedview3909"
     showgrid="false"
     inkscape:zoom="0.78182918"
     inkscape:cx="875.29499"
     inkscape:cy="461.35613"
     inkscape:window-x="311"
     inkscape:window-y="24"
     inkscape:window-maximized="0"
     inkscape:current-layer="g4811" />
  <g
     id="g4811"
     transform="matrix(0.8435877,0,0,0.86801419,72.221329,53.533302)"
     style="fill:#ffa880;fill-opacity:1">
    <path
       inkscape:connector-curvature="0"
       id="path3943"
       d="M 883.71688,54.376127 782.09346,102.60902 832.0291,4.4509066 q 7.00851,-14.3852604 21.90161,-19.0393106 14.89308,-4.65404 29.78617,2.1155 21.90161,11.0004606 21.02554,33.847621 -0.87606,22.84714 -21.02554,33.00141 z"
       style="fill:#cdd5dc;fill-opacity:1" />
    <path
       id="path3941"
       d="m 496.86314,-40.940254 c -154.15525,0 -286.76995,53.86041 -397.881836,161.559164 -111.111915,107.69876 -166.677652,236.24704 -166.677652,385.66688 0,149.41988 55.565737,278.0052 166.677652,385.70394 111.111886,107.69875 243.726586,161.52217 397.881836,161.52217 154.15523,0 286.28274,-53.82342 396.39362,-161.52217 110.11084,-107.69874 165.18944,-236.28406 165.18944,-385.70394 0,-149.41984 -55.0786,-277.96812 -165.18944,-385.66688 C 783.14588,12.920156 651.01837,-40.940254 496.86314,-40.940254 z M 486.71289,61.664627 c 121.21623,-0.965891 226.20354,40.245383 314.92458,123.577923 90.12937,84.65531 136.4421,186.8598 138.9362,306.6289 2.49411,119.76913 -39.54274,223.63238 -126.07668,311.6313 C 727.96307,891.50167 622.89328,936.67182 499.22897,939.01234 375.56467,941.3529 268.25365,900.22273 177.32132,815.58263 86.388947,730.94254 39.658138,628.72287 37.164044,508.95373 34.669916,389.18464 77.124832,285.29952 164.46181,197.28537 251.79874,109.2713 357.28659,64.07929 480.9509,61.738734 c 1.93226,-0.03648 3.83792,-0.05876 5.76199,-0.07406 z"
       style="fill:#cdd5dc;fill-opacity:1"
       inkscape:connector-curvature="0" />
    <path
       inkscape:connector-curvature="0"
       id="path3941-6"
       d="m 496.13124,336.17357 q -48.24572,0 -83.02022,-33.85579 -34.77452,-33.85578 -34.77452,-80.82686 0,-46.97108 34.77452,-80.82686 34.7745,-33.85578 83.02022,-33.85578 48.24572,0 82.70694,33.85578 34.46122,33.85578 34.46122,80.82686 0,46.97108 -34.46122,80.82686 -34.46122,33.85579 -82.70694,33.85579 z"
       style="fill:#cdd5dc;fill-opacity:1" />
    <path
       inkscape:connector-curvature="0"
       id="path3941-6-8"
       d="m 677.23961,686.93259 q 22.6301,-53.70519 82.55209,-77.98981 59.922,-24.28467 120.42689,-4.2717 60.50491,20.01296 87.80428,73.14748 27.29939,53.13451 4.66929,106.8397 -22.63011,53.70518 -82.40515,77.64109 -59.77504,23.93591 -120.27993,3.92295 -60.50491,-20.01297 -87.95124,-72.79874 -27.44633,-52.78577 -4.81623,-106.49097 z"
       style="fill:#cdd5dc;fill-opacity:1" />
    <path
       inkscape:connector-curvature="0"
       id="path3941-6-6"
       d="m 663.31495,459.25518 q -65.23631,0 -112.25726,-45.77869 -47.02098,-45.7787 -47.02098,-109.29147 0,-63.51278 47.02098,-109.29147 47.02095,-45.7787 112.25726,-45.7787 65.2363,0 111.83365,45.7787 46.59735,45.77869 46.59735,109.29147 0,63.51277 -46.59735,109.29147 -46.59735,45.77869 -111.83365,45.77869 z"
       style="fill:#cdd5dc;fill-opacity:1" />
    <path
       inkscape:connector-curvature="0"
       id="path3941-6-8-5"
       d="m -3.2171987,677.7227 q 16.8740997,-44.08564 61.5548397,-64.02046 44.680749,-19.93485 89.796139,-3.50656 45.11539,16.42829 65.47112,60.04548 20.35575,43.61718 3.48166,87.70282 -16.87411,44.08564 -61.44528,63.7342 -44.57117,19.64857 -89.686559,3.22028 Q 20.839331,808.47017 0.37401127,765.13925 -20.091299,721.80835 -3.2171987,677.7227 z"
       style="fill:#cdd5dc;fill-opacity:1" />
    <path
       inkscape:connector-curvature="0"
       id="path3941-6-8-6"
       d="m 118.92988,398.38443 q 16.12067,-43.92594 56.87235,-62.84448 40.75168,-18.91859 81.16934,-1.24005 40.41768,17.67855 57.93045,62.08177 17.51277,44.40323 1.3921,88.32917 -16.1207,43.92591 -56.76768,62.55925 -40.64699,18.63335 -81.06465,0.95479 -40.41768,-17.67853 -58.03514,-61.79652 -17.61745,-44.11799 -1.49677,-88.04393 z"
       style="fill:#cdd5dc;fill-opacity:1" />
  </g>
</svg>
