<?xml version="1.0" encoding="UTF-8" standalone="no"?>
<!-- Created with Inkscape (http://www.inkscape.org/) -->
<svg
   xmlns:dc="http://purl.org/dc/elements/1.1/"
   xmlns:cc="http://creativecommons.org/ns#"
   xmlns:rdf="http://www.w3.org/1999/02/22-rdf-syntax-ns#"
   xmlns:svg="http://www.w3.org/2000/svg"
   xmlns="http://www.w3.org/2000/svg"
   xmlns:sodipodi="http://sodipodi.sourceforge.net/DTD/sodipodi-0.dtd"
   xmlns:inkscape="http://www.inkscape.org/namespaces/inkscape"
   width="500"
   height="500"
   id="svg2833"
   sodipodi:version="0.32"
   inkscape:version="0.46"
   sodipodi:docname="paisley.svg"
   inkscape:output_extension="org.inkscape.output.svg.inkscape"
   version="1.0">
  <defs
     id="defs2835">
    <inkscape:perspective
       sodipodi:type="inkscape:persp3d"
       inkscape:vp_x="0 : 526.18109 : 1"
       inkscape:vp_y="0 : 1000 : 0"
       inkscape:vp_z="744.09448 : 526.18109 : 1"
       inkscape:persp3d-origin="372.04724 : 350.78739 : 1"
       id="perspective2841" />
  </defs>
  <sodipodi:namedview
     id="base"
     pagecolor="#ffffff"
     bordercolor="#666666"
     borderopacity="1.0"
     gridtolerance="10000"
     guidetolerance="10"
     objecttolerance="10"
     inkscape:pageopacity="0.0"
     inkscape:pageshadow="2"
     inkscape:zoom="0.35"
     inkscape:cx="375"
     inkscape:cy="520"
     inkscape:document-units="px"
     inkscape:current-layer="layer1"
     showgrid="false"
     inkscape:window-width="1105"
     inkscape:window-height="898"
     inkscape:window-x="1889"
     inkscape:window-y="117" />
  <metadata
     id="metadata2838">
    <rdf:RDF>
      <cc:Work
         rdf:about="">
        <dc:format>image/svg+xml</dc:format>
        <dc:type
           rdf:resource="http://purl.org/dc/dcmitype/StillImage" />
        <cc:license
           rdf:resource="http://creativecommons.org/licenses/publicdomain/" />
      </cc:Work>
      <cc:License
         rdf:about="http://creativecommons.org/licenses/publicdomain/">
        <cc:permits
           rdf:resource="http://creativecommons.org/ns#Reproduction" />
        <cc:permits
           rdf:resource="http://creativecommons.org/ns#Distribution" />
        <cc:permits
           rdf:resource="http://creativecommons.org/ns#DerivativeWorks" />
      </cc:License>
    </rdf:RDF>
  </metadata>
  <g
     inkscape:label="Layer 1"
     inkscape:groupmode="layer"
     id="layer1">
    <g
       id="g2929"
       transform="matrix(0.7392257,0,0,0.7392257,-28.067172,-36.936679)">
      <path
         clip-rule="evenodd"
         d="M 333.93892,314.36543 C 319.63291,294.05886 320.97079,264.9435 342.68147,244.06733 C 364.39215,223.19117 400.83271,223.65479 423.20571,253.8696 C 445.93635,284.57451 444.8634,337.5597 411.0456,370.14558 C 377.21456,402.74472 321.05027,400.53259 288.27893,352.81943 C 256.30237,306.2587 260.09081,229.27122 309.11535,182.1409 C 358.08691,135.06356 440.79678,135.03707 492.89447,202.75213 C 546.96586,273.02374 546.36977,397.04881 467.10393,473.50644 C 416.43685,522.39852 189.01118,578.97345 59.939266,472.53946 L 59.886281,471.04263 C 197.29011,579.37084 410.86015,501.7343 456.74533,457.47842 C 528.54026,388.24002 529.37477,275.87169 480.53568,211.95831 C 433.31263,150.16434 358.02068,150.01862 313.39391,192.92338 C 268.72739,235.86787 265.37608,306.02026 294.54443,348.35543 C 324.37508,391.64432 375.38658,393.57828 406.09149,363.9993 C 436.78316,334.42033 437.81637,286.32302 417.20513,258.39983 C 396.89856,230.88727 363.75632,230.42365 344.0061,249.41884 C 324.25587,268.42727 323.03721,294.46949 336.07157,312.93483 C 349.22513,331.58561 348.40387,334.89719 333.93892,314.36543 z"
         id="path5"
         style="fill:#666666;fill-rule:evenodd" />
      <path
         clip-rule="evenodd"
         d="M 475.92596,574.53462 C 473.89928,586.90666 482.04575,602.03393 496.51071,606.67013 C 510.96242,611.29309 527.37458,603.0274 530.88485,584.4296 C 534.44811,565.52714 522.32774,541.77652 499.79579,534.43808 C 477.18436,527.08638 452.0429,540.50488 447.67162,569.44804 C 443.41956,597.66265 462.21605,631.69238 494.90791,642.07748 C 527.45406,652.42284 564.83511,634.10321 573.57767,592.1257 C 582.63814,548.51889 555.28453,492.47381 502.48479,475.08142 C 468.56103,463.90155 441.93597,469.59746 416.80775,491.14918 L 423.65608,499.12345 C 446.47945,479.69114 470.58771,474.56481 501.30587,484.67174 C 549.13825,500.3951 574.08102,551.10192 565.98754,590.6951 C 558.15897,628.96365 524.15573,645.70697 494.48403,636.26236 C 464.69311,626.79126 447.60539,595.75519 451.52629,570.08386 C 455.53991,543.80321 478.37653,531.65635 498.89504,538.33249 C 519.34733,544.98213 530.38149,566.53385 527.17589,583.7143 C 524.01002,600.62982 509.08145,608.16697 495.94112,603.95464 C 482.76105,599.74232 475.35637,585.96617 477.21086,574.70682 C 479.07858,563.34282 477.96589,562.01819 475.92596,574.53462 z"
         id="path7"
         style="fill:#666666;fill-rule:evenodd" />
      <path
         clip-rule="evenodd"
         d="M 300.12244,565.09133 C 292.02896,566.20402 284.13416,574.21803 283.97521,584.17925 C 283.803,594.12721 292.05545,602.83003 304.29503,601.45241 C 316.7333,600.04831 329.26429,587.86172 329.58221,572.32381 C 329.91336,556.74616 316.83927,543.5661 297.98979,546.40081 C 279.59068,549.15604 261.93337,567.50216 261.61546,589.99437 C 261.29755,612.39385 279.72315,632.28979 307.52712,629.68028 C 336.40405,626.97803 366.16847,599.02834 367.06922,562.58778 C 367.65206,539.16833 359.1082,523.57744 340.94752,511.97368 L 337.2783,517.80205 C 353.67722,528.3726 361.39981,542.49315 360.8832,563.68723 C 360.07518,596.71024 333.1852,622.11664 306.98402,624.65993 C 281.6836,627.12374 264.8608,609.0293 265.15222,588.60351 C 265.45688,568.11149 281.57763,551.42116 298.3077,548.93085 C 315.43516,546.38756 327.2906,558.36222 326.99918,572.50926 C 326.70776,586.61656 315.35568,597.69047 304.04334,598.97536 C 292.91645,600.26025 285.4058,592.35221 285.55152,583.29174 C 285.71047,574.23128 292.90321,566.93257 300.2549,565.92585 C 307.68608,564.90456 308.30733,563.96407 300.12244,565.09133 z"
         id="path9"
         style="fill:#666666;fill-rule:evenodd" />
      <path
         clip-rule="evenodd"
         d="M 240.64524,485.30888 C 244.02305,480.72567 243.83761,472.91036 238.90998,468.04896 C 233.9956,463.20082 225.62394,463.16108 220.36516,469.95643 C 215.02691,476.87099 215.0534,488.99136 222.69652,496.62122 C 230.36612,504.26434 243.33424,504.0259 251.07008,493.20368 C 258.62047,482.65963 257.99789,465.00231 246.85776,454.04763 C 235.77061,443.14593 216.81516,442.84126 204.61531,458.03476 C 191.95186,473.8111 191.51473,502.14493 209.37074,520.09367 C 220.84203,531.61794 232.82993,534.81029 247.46709,531.27353 L 246.3279,526.62409 C 233.05512,529.78995 222.2064,526.87577 211.8213,516.45093 C 195.63433,500.21097 195.95224,474.53965 207.41029,460.18066 C 218.47094,446.29855 235.73087,446.55022 245.83779,456.4982 C 255.98446,466.47265 256.52755,482.56691 249.63948,492.15722 C 242.59245,501.95948 230.81649,502.15818 223.86219,495.23036 C 216.92113,488.3158 216.88139,477.30812 221.72953,471.01613 C 226.4982,464.81686 234.11482,464.84336 238.59207,469.26762 C 243.06932,473.69188 243.24152,480.80515 240.16838,484.97773 C 237.06875,489.19005 237.24094,489.95834 240.64524,485.30888 z"
         id="path11"
         style="fill:#666666;fill-rule:evenodd" />
      <path
         clip-rule="evenodd"
         d="M 379.87839,355.79984 C 387.36255,347.83882 397.89336,320.49846 397.21779,305.04004 C 396.19783,281.72655 383.99799,279.223 372.12931,279.56741 C 356.23375,280.01778 352.44531,284.0579 353.02815,295.80737 C 354.00705,315.29135 390.92448,340.02218 379.87839,355.79984 z"
         id="path13"
         style="fill:#666666;fill-rule:evenodd" />
      <path
         clip-rule="evenodd"
         d="M 461.71269,368.71499 C 467.32912,384.0542 448.57236,425.58134 433.68353,442.25842 C 411.62844,466.94952 392.30209,463.91612 380.28771,452.80248 C 364.36566,438.05935 363.95502,430.29702 374.65803,417.97796 C 392.65974,397.2475 459.078,397.00775 461.71269,368.71499 z"
         id="path15"
         style="fill:#666666;fill-rule:evenodd" />
      <path
         clip-rule="evenodd"
         d="M 464.7196,188.89651 C 455.50018,183.18735 438.29323,159.64868 434.92868,144.74661 C 429.90833,122.53256 439.37943,112.53161 450.50632,109.88235 C 465.31568,106.37208 481.99277,114.10792 472.44219,120.18797 C 453.46025,132.26859 450.02946,176.56288 464.7196,188.89651 z"
         id="path17"
         style="fill:#666666;fill-rule:evenodd" />
      <path
         clip-rule="evenodd"
         d="M 493.95418,205.78554 C 487.35752,201.66594 475.06496,184.69743 472.65413,173.94144 C 469.07763,157.92667 475.84648,150.70744 483.79426,148.79997 C 494.37805,146.26993 506.29972,151.84662 499.46463,156.23114 C 485.90175,164.94588 483.44986,196.89727 493.95418,205.78554 z"
         id="path19"
         style="fill:#666666;fill-rule:evenodd" />
      <path
         clip-rule="evenodd"
         d="M 572.80938,573.37026 C 571.19333,578.05946 572.04109,591.51769 575.32618,597.9289 C 580.2538,607.5722 586.77098,608.40672 591.59263,606.02239 C 597.99059,602.88302 601.55385,595.13393 596.30831,595.74326 C 585.81724,596.97384 571.20658,581.99228 572.80938,573.37026 z"
         id="path21"
         style="fill:#666666;fill-rule:evenodd" />
      <path
         clip-rule="evenodd"
         d="M 219.12001,449.75583 C 222.15342,449.30545 229.20045,445.22559 231.6775,441.91402 C 235.254,437.10561 233.96911,433.76754 231.54504,432.00712 C 228.32619,429.67576 223.45155,429.742 225.10734,432.12633 C 228.43216,436.94534 224.32581,448.21925 219.12001,449.75583 z"
         id="path23"
         style="fill:#666666;fill-rule:evenodd" />
      <path
         clip-rule="evenodd"
         d="M 541.60111,389.74878 C 563.39126,393.62994 621.44978,381.48309 646.80319,363.64033 C 684.56838,337.0815 683.9723,309.19805 670.87171,290.12339 C 653.37336,264.65076 642.71009,262.63732 623.78113,275.72466 C 592.02976,297.67509 580.67768,391.06149 541.60111,389.74878 z"
         id="path25"
         style="fill:#666666;fill-rule:evenodd" />
      <path
         clip-rule="evenodd"
         d="M 506.67062,448.81534 C 519.7977,461.17413 565.08679,478.69898 590.61241,477.70551 C 628.722,476.22193 640.84236,456.63066 640.29926,437.56923 C 639.58396,412.21582 633.10652,406.10928 614.17757,406.7451 C 582.50567,407.8313 532.77907,467.10848 506.67062,448.81534 z"
         id="path27"
         style="fill:#666666;fill-rule:evenodd" />
      <path
         clip-rule="evenodd"
         d="M 510.41932,218.27547 C 510.41932,214.11613 513.78388,210.75157 517.92997,210.75157 C 522.07606,210.75157 525.44062,214.11613 525.44062,218.27547 C 525.44062,222.4348 522.07606,225.79937 517.92997,225.79937 C 513.78388,225.79937 510.41932,222.43613 510.41932,218.27547 z"
         id="path29"
         style="fill:#666666;fill-rule:evenodd" />
      <path
         clip-rule="evenodd"
         d="M 523.85106,239.07216 C 523.85106,234.91282 527.21563,231.54826 531.36171,231.54826 C 535.50781,231.54826 538.87236,234.91282 538.87236,239.07216 C 538.87236,243.23149 535.50781,246.59605 531.36171,246.59605 C 527.21563,246.59605 523.85106,243.23282 523.85106,239.07216 z"
         id="path31"
         style="fill:#666666;fill-rule:evenodd" />
      <path
         clip-rule="evenodd"
         d="M 527.18913,264.82428 C 527.18913,260.66494 530.5537,257.30039 534.69978,257.30039 C 538.84587,257.30039 542.21043,260.66494 542.21043,264.82428 C 542.21043,268.98362 538.84587,272.34818 534.69978,272.34818 C 530.5537,272.34818 527.18913,268.9823 527.18913,264.82428 z"
         id="path33"
         style="fill:#666666;fill-rule:evenodd" />
      <path
         clip-rule="evenodd"
         d="M 332.5613,631.70696 C 334.77343,634.05155 334.66746,637.74727 332.33611,639.94616 C 330.00476,642.14504 326.32229,642.03907 324.11016,639.68123 C 321.89803,637.33664 321.99075,633.65417 324.3221,631.45528 C 326.66669,629.24315 330.34917,629.36236 332.5613,631.70696 z"
         id="path35"
         style="fill:#666666;fill-rule:evenodd" />
      <path
         clip-rule="evenodd"
         d="M 312.5064,640.48793 C 314.71853,642.83253 314.61256,646.52824 312.28122,648.72712 C 309.94987,650.92601 306.2674,650.8068 304.05527,648.4622 C 301.84313,646.1176 301.93586,642.43513 304.28046,640.223 C 306.6118,638.02544 310.29428,638.14333 312.5064,640.48793 z"
         id="path37"
         style="fill:#666666;fill-rule:evenodd" />
      <path
         clip-rule="evenodd"
         d="M 292.38528,636.20937 C 294.59741,638.55397 294.50469,642.23644 292.17334,644.43533 C 289.82742,646.64746 286.14627,646.52824 283.93414,644.18364 C 281.72201,641.83905 281.82798,638.14333 284.15933,635.94445 C 286.492,633.74689 290.17314,633.85286 292.38528,636.20937 z"
         id="path39"
         style="fill:#666666;fill-rule:evenodd" />
      <path
         clip-rule="evenodd"
         d="M 624.64214,481.69265 C 626.85427,484.03725 626.7483,487.73296 624.41695,489.93184 C 622.0856,492.13073 618.40313,492.02476 616.191,489.66692 C 613.97887,487.32232 614.0716,483.63985 616.40294,481.44097 C 618.74754,479.22884 622.43001,479.34805 624.64214,481.69265 z"
         id="path41"
         style="fill:#666666;fill-rule:evenodd" />
      <path
         clip-rule="evenodd"
         d="M 604.58724,490.47362 C 606.79938,492.81821 606.69341,496.51393 604.36206,498.71282 C 602.03071,500.9117 598.34824,500.79248 596.13611,498.44789 C 593.92397,496.1033 594.0167,492.42082 596.3613,490.20869 C 598.69265,488.01114 602.37511,488.12903 604.58724,490.47362 z"
         id="path43"
         style="fill:#666666;fill-rule:evenodd" />
      <path
         clip-rule="evenodd"
         d="M 584.46612,486.19507 C 586.67825,488.53966 586.58553,492.22213 584.25418,494.42102 C 581.90826,496.63314 578.22712,496.51393 576.01498,494.16934 C 573.80285,491.82474 573.90882,488.12903 576.24017,485.93014 C 578.57284,483.73258 582.25399,483.83855 584.46612,486.19507 z"
         id="path45"
         style="fill:#666666;fill-rule:evenodd" />
      <path
         clip-rule="evenodd"
         d="M 186.69308,488.06412 C 184.05707,488.96487 181.22236,487.64024 180.36135,485.09695 C 179.50034,482.55366 180.93094,479.77194 183.56695,478.87119 C 186.18972,477.97044 189.02443,479.30832 189.88544,481.8516 C 190.75969,484.38032 189.3291,487.16204 186.69308,488.06412 z"
         id="path47"
         style="fill:#666666;fill-rule:evenodd" />
      <path
         clip-rule="evenodd"
         d="M 187.17127,469.70475 C 184.53526,470.59225 181.70055,469.26762 180.83954,466.72433 C 179.97853,464.19429 181.40913,461.39933 184.04515,460.51182 C 186.66791,459.61107 189.50262,460.93571 190.36363,463.47899 C 191.23656,466.00903 189.80596,468.804 187.17127,469.70475 z"
         id="path49"
         style="fill:#666666;fill-rule:evenodd" />
      <path
         clip-rule="evenodd"
         d="M 197.83321,455.72858 C 195.1972,456.62933 192.36249,455.29145 191.50148,452.76141 C 190.64048,450.21813 192.07107,447.4364 194.70709,446.53565 C 197.32986,445.6349 200.16456,446.95954 201.02557,449.50282 C 201.89983,452.04744 200.46923,454.82783 197.83321,455.72858 z"
         id="path51"
         style="fill:#666666;fill-rule:evenodd" />
      <path
         clip-rule="evenodd"
         d="M 679.03143,345.24254 C 682.03834,346.03733 683.93256,349.13696 683.29674,352.19685 C 682.64767,355.27 679.66725,357.16421 676.63386,356.39593 C 673.57396,355.64089 671.64,352.48827 672.31556,349.38864 C 673.00569,346.30225 676.01128,344.44777 679.03143,345.24254 z"
         id="path53"
         style="fill:#666666;fill-rule:evenodd" />
      <path
         clip-rule="evenodd"
         d="M 667.63962,363.46945 C 670.7525,364.21124 672.71295,367.37711 672.02414,370.54297 C 671.33533,373.73533 668.2357,375.74877 665.08308,375.04672 C 661.91722,374.33141 659.91702,371.11257 660.64557,367.89372 C 661.37412,364.68679 664.51349,362.71441 667.63962,363.46945 z"
         id="path55"
         style="fill:#666666;fill-rule:evenodd" />
      <path
         clip-rule="evenodd"
         d="M 648.18081,371.30993 C 651.4394,372.03848 653.46608,375.28382 652.71104,378.55566 C 651.956,381.85399 648.68417,383.97339 645.37259,383.27134 C 642.04777,382.55604 639.98135,379.27096 640.77613,375.94613 C 641.5709,372.63457 644.89572,370.55622 648.18081,371.30993 z"
         id="path57"
         style="fill:#666666;fill-rule:evenodd" />
      <path
         clip-rule="evenodd"
         d="M 577.26014,621.50599 C 580.32003,622.60543 581.96257,625.94349 580.92936,628.95041 C 579.8829,631.95731 576.55808,633.50713 573.49819,632.39444 C 570.43829,631.295 568.79575,627.97018 569.82896,624.95002 C 570.86217,621.94311 574.18699,620.40655 577.26014,621.50599 z"
         id="path59"
         style="fill:#666666;fill-rule:evenodd" />
      <path
         clip-rule="evenodd"
         d="M 562.58324,638.31554 C 565.64313,639.41498 567.28567,642.75305 566.25246,645.75995 C 565.206,648.76687 561.89443,650.30343 558.82129,649.20399 C 555.7614,648.10455 554.11886,644.76648 555.15207,641.75957 C 556.18528,638.75267 559.5101,637.20285 562.58324,638.31554 z"
         id="path61"
         style="fill:#666666;fill-rule:evenodd" />
      <path
         clip-rule="evenodd"
         d="M 541.72032,647.45681 C 544.78021,648.5695 546.42276,651.89432 545.38955,654.91447 C 544.35634,657.92138 541.03152,659.45795 537.95838,658.35851 C 534.89848,657.25906 533.25594,653.92099 534.28915,650.91409 C 535.3356,647.90718 538.66043,646.35736 541.72032,647.45681 z"
         id="path63"
         style="fill:#666666;fill-rule:evenodd" />
    </g>
  </g>
</svg>
