<?xml version="1.0" ?><!DOCTYPE svg  PUBLIC '-//W3C//DTD SVG 1.1//EN'  'http://www.w3.org/Graphics/SVG/1.1/DTD/svg11.dtd'><svg enable-background="new 0 0 512 512" height="512px" id="Layer_1" version="1.1" viewBox="0 0 512 512" width="512px" xml:space="preserve" xmlns="http://www.w3.org/2000/svg" xmlns:xlink="http://www.w3.org/1999/xlink"><path d="M478.914,178.018c-2.117-5.243-8.035-7.808-13.418-5.75c-5.301,2.143-7.863,8.118-5.75,13.417  c2.227,5.553-2.199,11.557-4.172,13.868c-1.973-5.214-5.273-9.809-9.641-13.417c-6.004-4.933-13.473-7.357-21.336-6.511  c-7.781,0.733-14.773,4.482-19.734,10.514c-10.145,12.374-8.398,30.78,4.004,41.097c3.551,2.875,8.766,5.468,15.051,6.427  c-2.789,2.678-7.836,5.694-10.258,5.75c-1.551-0.253-3.016-0.056-4.398,0.451c-27.875-50.708-86.309-85.83-153.957-85.83  c-23.875,0-46.621,4.397-67.281,12.29c-5.809-7.413-14.742-15.672-27.652-20.351c-18.887-6.849-40.309-3.89-63.59,8.738  l-21.055,11.359l19.617,13.699c5.977,4.172,20.633,16.433,28.301,29.314c-10.629,11.359-19.449,24.072-26.02,37.827l-50.988,6.426  l-3.75,5.215c-1.098,1.521-26.41,37.883,0.34,97.583l1.805,4.031l114.465,73.117l-1.832,7.554  c-3.719,14.939,5.414,29.991,20.379,33.655c14.941,3.664,30.047-5.468,33.684-20.407l0.172-0.536  c13.895,3.242,28.383,5.158,43.406,5.158c21.168,0,41.379-3.607,60.094-9.837l1.297,5.215c3.691,14.939,18.746,24.071,33.711,20.407  c14.996-3.664,24.074-18.716,20.41-33.655l-4.566-18.604c36.895-27.961,60.43-69.48,60.43-115.877  c0-16.461-3.07-32.273-8.512-47.156c12.18-2.171,21.594-12.177,22.859-13.671c5.609-6.765,9.809-13.389,12.602-19.787  c5.328-3.608,10.797-8.653,16.348-15.39C476.207,208.178,485.086,193.549,478.914,178.018z M150.73,307.143  c-9.809,0-17.645-13.333-17.645-29.794c0-16.377,7.836-29.737,17.645-29.737c10.008,0,17.812,13.36,17.812,29.737  C168.543,293.81,160.738,307.143,150.73,307.143z M312.523,206.853c-1.945,3.833-5.832,6.088-9.895,6.088  c-1.66,0-3.352-0.366-4.93-1.184c-23.707-11.811-51.414-1.55-51.668-1.409c-5.664,2.17-12.062-0.648-14.293-6.398  c-2.141-5.694,0.707-12.064,6.398-14.263c1.496-0.564,37.098-13.868,69.453,2.339C313.031,194.733,315.258,201.385,312.523,206.853z   M436.688,215.619c-6.934,3.044-12.062,1.833-14.715-0.338c-3.633-2.988-4.141-8.4-1.152-12.064  c1.438-1.748,3.492-2.819,5.719-3.044c0.312-0.028,0.594-0.028,0.848-0.028c2,0,3.891,0.648,5.469,1.945  c1.664,1.381,3.777,3.918,4.172,8.061C437.168,211.617,437.109,213.421,436.688,215.619z M325.574,138.331  c29.176,0,52.824-23.663,52.824-52.809c0-29.145-23.648-52.822-52.824-52.822c-29.145,0-52.82,23.677-52.82,52.822  C272.754,114.667,296.43,138.331,325.574,138.331z" fill="#4D4D4D"/></svg>