<?xml version="1.0" ?><!DOCTYPE svg  PUBLIC '-//W3C//DTD SVG 1.1//EN'  'http://www.w3.org/Graphics/SVG/1.1/DTD/svg11.dtd'><svg enable-background="new 0 0 128 128" height="128px" id="Layer_1" version="1.1" viewBox="0 0 128 128" width="128px" xml:space="preserve" xmlns="http://www.w3.org/2000/svg" xmlns:xlink="http://www.w3.org/1999/xlink"><path d="M114.2,13.8C111.6,25,104.4,50.2,88,64.3l-2,1.7l0.7,2.5c3.2,11,2.4,15.1,2.1,16  c-3.9,3.7-10.5,8.9-15.6,11.4c-1-7.9-4.9-12.9-5.2-13.1l-1.8-2.3l-2.7,1.1c-2.3,0.9-5.9,2.1-8.5,2.6c-0.8-2.1-1.9-4-3.3-5.7  c-2-2.2-4.8-4-7.8-5c0.4-2.7,1.7-6.6,2.6-8.9l1.1-2.7l-2.3-1.8c-0.2-0.2-5.3-4.1-13.1-5.2c2.5-5.2,7.7-11.7,11.4-15.6  c0.4-0.1,1.2-0.3,2.8-0.3c2.3,0,6.4,0.4,13.3,2.4L62,42l1.7-2C77.8,23.6,103,16.3,114.2,13.8 M119.3,8.7c0,0-39,5.9-58.6,28.7  c-6.8-2-11.4-2.6-14.4-2.6c-4.1,0-5.3,1.1-5.3,1.1s-13.3,14-14.3,22.7c0.6,0,1.2-0.1,1.7-0.1c8.7,0,14.3,4.5,14.3,4.5s-3,7.7-3,11.8  c0,0.5,0,1.1,0,1.7c3.3,0.4,6.8,2.1,8.9,4.5c1.8,2,2.9,4.6,3.3,7.2c0.4,0,0.9,0,1.2,0c0,0,0,0,0,0c4.1,0,11.8-3,11.8-3  s5.1,6.4,4.5,16c8.7-1,22.7-14.3,22.7-14.3s3.3-3.3-1.5-19.7C113.4,47.7,119.3,8.7,119.3,8.7L119.3,8.7z" fill="#2C3E50"/><path d="M38.4,80.5c2.6,0,5.5,1.3,7.2,3.2c1.7,2,2.7,4.8,2.5,7.2c-0.1,1.5-0.7,2.7-1.7,3.5c-1,0.7-2.5,1.4-4.5,1.9  c0-0.3-0.1-0.5-0.2-0.7c-0.4-1-1.4-1.6-2.6-1.6c-1,0-2.1,0.5-2.8,1.3c-0.3,0.4-0.6,0.8-0.8,1.2c-1.4,0.1-2.7,0.4-4,1  c0.6-0.9,1.5-1.7,2.9-2.6l2.9-1.8l-2.9-1.7c-0.3-0.2-0.6-0.3-0.9-0.3c1.6-0.6,2.2-1.9,2.2-3.1c-0.1-1.4-1.1-2.6-2.4-3  c0.8-1.6,1.8-2.8,2.3-3.5C36.3,80.6,37.7,80.5,38.4,80.5 M38.4,78.5c-1.8,0-3.4,0.5-4.5,1.7c-1.6,1.9-3.4,4.7-3.7,7.6  c0.6-0.7,1.2-1,1.8-1c1.6,0,2.4,2.3,0,2.6c-3.3,0.4-4.3,3.6-3.8,6.5c0.9-1.2,2.9-2.9,4.3-2.9c0.3,0,0.5,0.1,0.7,0.2  c-4.4,2.8-5.1,6-4.7,9.2c1.4-2.3,4.5-3.9,7.4-3.9c0.4,0,0.7,0,1.1,0.1c-0.1-1.7,1.2-2.5,2-2.5c0.8,0,1.3,0.8-0.1,2.5  c4.2-0.1,7-1.5,8.6-2.6c4-3.2,2.9-9.9-0.4-13.7C45,80,41.5,78.5,38.4,78.5L38.4,78.5z" fill="#3B97D3"/><path d="M11.2,118.5c-0.4-0.4-0.4-1,0-1.4l12-12c0.4-0.4,1-0.4,1.4,0c0.4,0.4,0.4,1,0,1.4l-12,12  C12.2,118.9,11.5,118.9,11.2,118.5z" fill="#2C3E50"/><path d="M22.1,117.5c-0.4-0.4-0.4-1,0-1.4l6-6c0.4-0.4,1-0.4,1.4,0c0.4,0.4,0.4,1,0,1.4l-6,6  C23.1,117.8,22.5,117.8,22.1,117.5z" fill="#2C3E50"/><path d="M12.2,107.6c-0.4-0.4-0.4-1,0-1.4l6-6c0.4-0.4,1-0.4,1.4,0c0.4,0.4,0.4,1,0,1.4l-6,6  C13.2,107.9,12.6,107.9,12.2,107.6z" fill="#2C3E50"/><path d="M79,42.3c3.9,0,7,3.1,7,7s-3.1,7-7,7s-7-3.1-7-7S75.1,42.3,79,42.3 M79,40.3c-5,0-9,4-9,9s4,9,9,9s9-4,9-9  S84,40.3,79,40.3L79,40.3z" fill="#3B97D3"/><path d="M64.9,59.8c2,0,3.6,1.6,3.6,3.6c0,2-1.6,3.6-3.6,3.6c-2,0-3.6-1.6-3.6-3.6C61.3,61.4,62.9,59.8,64.9,59.8   M64.9,57.8c-3.1,0-5.6,2.5-5.6,5.6c0,3.1,2.5,5.6,5.6,5.6c3.1,0,5.6-2.5,5.6-5.6C70.5,60.3,68,57.8,64.9,57.8L64.9,57.8z" fill="#3B97D3"/><path d="M48.5,57.8c-0.2,0-0.4-0.1-0.6-0.2c-0.4-0.3-0.5-1-0.2-1.4l9.8-12.3c0.3-0.4,1-0.5,1.4-0.2  c0.4,0.3,0.5,1,0.2,1.4l-9.8,12.3C49.1,57.7,48.8,57.8,48.5,57.8z" fill="#2C3E50"/><path d="M70.8,80.5c-0.2-0.1-0.4-0.2-0.5-0.4c-0.3-0.4-0.2-1.1,0.2-1.4l12.7-9.3c0.4-0.3,1.1-0.2,1.4,0.2  c0.3,0.4,0.2,1.1-0.2,1.4l-12.7,9.3C71.4,80.5,71.1,80.5,70.8,80.5z" fill="#2C3E50"/></svg>