<?xml version="1.0" ?><!DOCTYPE svg  PUBLIC '-//W3C//DTD SVG 1.1//EN'  'http://www.w3.org/Graphics/SVG/1.1/DTD/svg11.dtd'><svg enable-background="new 0 0 128 128" height="128px" id="Layer_1" version="1.1" viewBox="0 0 128 128" width="128px" xml:space="preserve" xmlns="http://www.w3.org/2000/svg" xmlns:xlink="http://www.w3.org/1999/xlink"><path d="M74.4,10.2c0.3,0,0.5,0.3,0.6,0.6l2.2,5.4c1.8,4.3,6.6,7.8,11.2,8.2l5.8,0.4c0.2,0,0.5,0.1,0.7,0.3  c0.2,0.2,0.1,0.5,0.1,0.7l-1.4,5.7c-1.1,4.5,0.7,10.2,4.3,13.2l4.5,3.8c0.1,0.1,0.4,0.4,0.4,0.6c0,0.3-0.2,0.5-0.4,0.6l-4.5,3.8  c-3.5,3-5.4,8.7-4.3,13.2l1.4,5.7c0,0.2,0.1,0.5-0.1,0.7c-0.2,0.2-0.5,0.3-0.7,0.3l-5.8,0.4c-4.6,0.3-9.5,3.9-11.2,8.2L75,87.3  c-0.1,0.3-0.3,0.6-0.6,0.6c-0.2,0-0.4-0.1-0.6-0.2l-5-3.1c-1.9-1.2-4.4-1.8-6.9-1.8s-5,0.7-6.9,1.8l-5,3.1c-0.2,0.1-0.4,0.2-0.6,0.2  c-0.3,0-0.5-0.3-0.6-0.6l-2.2-5.4c-1.8-4.3-6.6-7.8-11.2-8.2l-5.8-0.4c-0.2,0-0.5-0.1-0.7-0.3c-0.2-0.2-0.1-0.5-0.1-0.7l1.4-5.7  c1.1-4.5-0.7-10.2-4.3-13.2l-4.5-3.8c-0.1-0.1-0.4-0.4-0.4-0.6s0.2-0.5,0.4-0.6l4.5-3.8c3.5-3,5.4-8.7,4.3-13.2l-1.4-5.7  c0-0.2-0.1-0.5,0.1-0.7c0.2-0.2,0.5-0.3,0.7-0.3l5.8-0.4c4.6-0.3,9.5-3.9,11.2-8.2l2.2-5.4c0.1-0.3,0.3-0.6,0.6-0.6  c0.2,0,0.4,0.1,0.5,0.2l5,3.1c1.9,1.2,4.4,1.8,6.9,1.8s5-0.7,6.9-1.8l5-3.1C74,10.2,74.2,10.2,74.4,10.2 M74.4,6.2  c-0.9,0-1.8,0.3-2.7,0.8l-5,3.1c-1.3,0.8-3.1,1.2-4.8,1.2s-3.5-0.4-4.8-1.2l-5-3.1c-0.9-0.5-1.8-0.8-2.7-0.8c-1.8,0-3.5,1.1-4.3,3.1  l-2.2,5.4c-1.2,2.9-4.7,5.4-7.8,5.7l-5.8,0.4c-3.1,0.2-5.1,2.9-4.3,5.9l1.4,5.7c0.7,3-0.6,7.2-3,9.2l-4.5,3.8c-2.4,2-2.4,5.3,0,7.3  l4.5,3.8c2.4,2,3.7,6.2,3,9.2L25,71.3c-0.7,3,1.2,5.7,4.3,5.9l5.8,0.4c3.1,0.2,6.6,2.8,7.8,5.7l2.2,5.4c0.8,2,2.5,3.1,4.3,3.1  c0.9,0,1.8-0.3,2.7-0.8l5-3.1c1.3-0.8,3.1-1.2,4.8-1.2s3.5,0.4,4.8,1.2l5,3.1c0.9,0.5,1.8,0.8,2.7,0.8c1.8,0,3.5-1.1,4.3-3.1  l2.2-5.4c1.2-2.9,4.7-5.4,7.8-5.7l5.8-0.4c3.1-0.2,5.1-2.9,4.3-5.9l-1.4-5.7c-0.7-3,0.6-7.2,3-9.2l4.5-3.8c2.4-2,2.4-5.3,0-7.3  l-4.5-3.8c-2.4-2-3.7-6.2-3-9.2l1.4-5.7c0.7-3-1.2-5.7-4.3-5.9l-5.8-0.4c-3.1-0.2-6.6-2.8-7.8-5.7l-2.2-5.4  C77.9,7.3,76.2,6.2,74.4,6.2L74.4,6.2z" fill="#2C3E50"/><path d="M83,83.7v31.6l-18.6-9.9l-1.8-1l-1.9,0.9l-19.8,10.1V83.7c-0.8-1.5-2.3-2.8-4-3.5V122l25.7-13L87,122V80.2  C85.3,80.9,83.8,82.2,83,83.7z" fill="#3B97D3"/><g><path d="M62.9,102c-0.6,0-1-0.4-1-1v-9.6c0-0.6,0.4-1,1-1s1,0.4,1,1v9.6C63.9,101.6,63.5,102,62.9,102z" fill="#3B97D3"/></g><path d="M61.9,24.6C75.8,24.6,87,35.8,87,49.7S75.8,74.7,61.9,74.7S36.8,63.5,36.8,49.7S48.1,24.6,61.9,24.6   M61.9,22.6c-15,0-27.1,12.1-27.1,27.1S47,76.7,61.9,76.7S89,64.6,89,49.7S76.9,22.6,61.9,22.6L61.9,22.6z" fill="#2C3E50"/><path d="M61.9,39.1l1.1,2.1c1.3,2.6,4.4,4.8,7.2,5.3l2.4,0.3l-1.7,1.7c-2.1,2-3.3,5.7-2.8,8.5l0.4,2.4l-2.1-1.1  c-1.2-0.6-2.8-1-4.5-1s-3.2,0.4-4.5,1l-2.1,1.1l0.4-2.4c0.5-2.8-0.7-6.5-2.8-8.5l-1.7-1.7l2.4-0.3c2.8-0.4,6-2.7,7.2-5.3L61.9,39.1   M61.9,36.7c-0.6,0-1.3,0.5-1.8,1.5l-1.1,2.2c-1,2-3.6,3.8-5.7,4.2l-2.4,0.4c-2.2,0.3-2.7,1.8-1.1,3.4l1.8,1.7  c1.6,1.5,2.6,4.6,2.2,6.7l-0.4,2.4c-0.3,1.6,0.3,2.5,1.4,2.5c0.4,0,0.9-0.1,1.4-0.4l2.2-1.1c1-0.5,2.3-0.8,3.5-0.8s2.6,0.3,3.5,0.8  l2.2,1.1c0.5,0.3,1,0.4,1.4,0.4c1.1,0,1.7-0.9,1.4-2.5l-0.4-2.4c-0.4-2.2,0.6-5.2,2.2-6.7l1.8-1.7c1.6-1.5,1.1-3.1-1.1-3.4l-2.4-0.4  c-2.2-0.3-4.8-2.2-5.7-4.2l-1.1-2.2C63.2,37.1,62.6,36.7,61.9,36.7L61.9,36.7z" fill="#3B97D3"/></svg>