<?xml version="1.0" ?><!DOCTYPE svg  PUBLIC '-//W3C//DTD SVG 1.1//EN'  'http://www.w3.org/Graphics/SVG/1.1/DTD/svg11.dtd'><svg enable-background="new 0 0 128 128" height="128px" id="Layer_1" version="1.1" viewBox="0 0 128 128" width="128px" xml:space="preserve" xmlns="http://www.w3.org/2000/svg" xmlns:xlink="http://www.w3.org/1999/xlink"><path d="M64,19h0.1c-0.1-4-3.4-7-7.4-7c-3.3,0-6,2.2-7,5.1c-1-0.6-2.2-0.8-3.5-0.8c-4.1,0-7.4,3.3-7.4,7.5  c0,1.2,0.3,2.4,0.8,3.4c-0.3,0-0.5,0-0.8,0c-4.1,0-7.4,3.3-7.4,7.4c0,2.1,0.9,4,2.2,5.3c-3.5,1.4-5.9,4.8-5.9,8.8  c0,4.2,2.8,7.8,6.6,9c-0.8,1.4-1.2,2.9-1.2,4.6c0,5.2,4.2,9.5,9.5,9.5c1,0,2-0.2,2.9-0.4c0.8,4.4,4.7,7.7,9.3,7.7  c5.2,0,9.5-4.3,9.5-9.5c0-0.1,0-0.3,0-0.3H64V19z M62,67h-0.4l0.1,2.4c0,0.1,0,0.1,0,0.1c0,3.8-3.1,6.9-7,6.9  c-3.4,0-6.3-2.4-6.9-5.7l-0.5-2.8l-2.7,0.8c-0.7,0.2-1.4,0.3-2.1,0.3c-3.9,0-7-3.1-7-7c0-1.2,0.3-2.4,0.9-3.4l1.5-2.6L35,55.2  c-2.9-0.9-4.8-3.6-4.8-6.7c0-2.9,1.7-5.4,4.4-6.5l3.5-1.4L35.3,38c-1-0.9-1.5-2.2-1.5-3.5c0-2.7,2.2-5,5-5c0.2,0,0.3,0,0.5,0  l4.5,0.5l-2.1-4.1c-0.4-0.7-0.5-1.5-0.5-2.2c0-2.7,2.2-5,5-5c0.8,0,1.6,0.2,2.3,0.6l2.6,1.4L52,18c0.7-2,2.6-3.3,4.7-3.3  c2.7,0,5,2.1,5.1,4.8l0.2,0.4V67z" fill="#2C3E50"/><path d="M103.4,48.5c0-4-2.4-7.4-5.9-8.8c1.4-1.3,2.2-3.2,2.2-5.3c0-4.1-3.3-7.4-7.4-7.4c-0.3,0-0.5,0-0.8,0  c0.5-1,0.8-2.1,0.8-3.3c0-4.1-3.3-7.4-7.4-7.4c-1.3,0-2.5,0.3-3.5,0.9c-1-2.9-3.8-5.2-7-5.2c-4,0-7.3,3-7.4,7H67v50h-0.1  c0,0,0,0.2,0,0.3c0,5.2,4.2,9.5,9.5,9.5c4.6,0,8.5-3.3,9.3-7.7c0.9,0.3,1.9,0.4,2.9,0.4c5.2,0,9.5-4.2,9.5-9.5  c0-1.7-0.4-3.2-1.2-4.6C100.6,56.3,103.4,52.7,103.4,48.5z M96,55.2l-2.9,0.9l1.5,2.6c0.6,1,0.9,2.2,0.9,3.4c0,3.9-3.1,7-7,7  c-0.7,0-1.4-0.1-2.1-0.3l-2.7-0.8l-0.5,2.8c-0.6,3.3-3.5,5.7-6.9,5.7c-3.9,0-7-3.1-7-7c0-0.1,0,0,0,0l0.1-2.4H69V19.7l0.2-0.3  c0.1-2.7,2.3-4.8,5-4.8c2.1,0,4,1.3,4.7,3.3l1,2.7l2.6-1.4c0.7-0.4,1.5-0.6,2.3-0.6c2.7,0,5,2.2,5,5c0,0.8-0.2,1.5-0.5,2.2L87.2,30  l4.5-0.5c0.2,0,0.4,0,0.5,0c2.7,0,5,2.2,5,5c0,1.3-0.5,2.6-1.5,3.5L93,40.6l3.5,1.4c2.6,1.1,4.4,3.6,4.4,6.5  C100.9,51.6,98.9,54.2,96,55.2z" fill="#2C3E50"/><path d="M79,97v9h-4v3h-1.2h-2.6l-1.1,2.4c-0.7,1.6-2.3,2.7-4.1,2.7s-3.4-1-4.1-2.7l-1.1-2.4h-2.6H57v-3h-4h0v-9H79   M80.4,93H51.7C50,93,49,93.9,49,95.7v10.8c0,1.9,1,3.6,2.9,3.6H53c0,2,1.1,3,2.5,3h2.7c1.3,3,4.3,5.1,7.8,5.1  c3.5,0,6.4-2.1,7.8-5.1h2.8c1.4,0,2.5-1,2.5-3h1.1c1.9,0,2.8-1.6,2.8-3.5V95.7C83,93.9,82.1,93,80.4,93L80.4,93z" fill="#2C3E50"/><path d="M65,15.2c0.3,0,0.6,0,0.9,0c0.8-1.6,2.1-2.9,3.7-3.8c-1.2-0.1-2.4-0.2-3.6-0.2c-1.5,0-3,0.1-4.5,0.3  C63,12.4,64.2,13.6,65,15.2z" fill="#3B97D3"/><path d="M89.8,73.5c-0.4,0-0.8,0.1-1.3,0.1c-0.5,0-1,0-1.5-0.1c-1.2,3.2-3.8,5.9-7,7C78.9,82.7,78,85,77.3,87H54.6  c-0.6-2-1.5-4-2.6-6.2c-3.7-0.9-6.7-3.6-8.1-7.2c-0.5,0.1-1,0-1.5,0c-0.1,0-0.2,0.2-0.3,0.2c5.6,6,8.3,12.2,9.5,17.2h28.7  c0,0,0-0.3,0-0.3C81.5,86.1,84.2,79.6,89.8,73.5z" fill="#3B97D3"/><path d="M25.9,46H7c-0.6,0-1,0.4-1,1s0.4,1,1,1h18.7C25.7,47.3,25.8,46.7,25.9,46z" fill="#3B97D3"/><path d="M32.3,27.5L15,17.6c-0.5-0.3-1.1-0.1-1.4,0.4S13.6,19,14,19.3L31,29.1C31.4,28.5,31.8,28,32.3,27.5z" fill="#3B97D3"/><path d="M113.8,17.9c-0.3-0.5-0.9-0.6-1.4-0.4l-15.3,8.8c0.6,0.4,1.2,0.8,1.7,1.3l14.6-8.4  C113.9,19,114.1,18.4,113.8,17.9z" fill="#3B97D3"/><path d="M120.5,46h-15.4c0.1,0.7,0.2,1.3,0.3,2h15.2c0.6,0,1-0.4,1-1S121.1,46,120.5,46z" fill="#3B97D3"/><path d="M113.5,73.8l-14.1-8.1c-0.2,0.6-0.5,1.3-0.8,1.9l13.8,8c0.5,0.3,1.1,0.1,1.4-0.4S113.9,74.1,113.5,73.8z" fill="#3B97D3"/><path d="M31.2,63.9L14,73.8c-0.5,0.3-0.6,0.9-0.4,1.4s0.9,0.6,1.4,0.4l16.6-9.6C31.4,65.3,31.3,64.6,31.2,63.9z" fill="#3B97D3"/><path d="M48,52.4c-1.7,4.4,0.4,7.6,1.2,8.6c-3.2,2.6-3.5,7.6-3.5,7.9c0,0.6,0.4,1,0.9,1.1c0,0,0,0,0.1,0  c0.5,0,1-0.4,1-0.9c0,0,0.3-4.9,3.2-6.8c1.5-1,3.6-1,6.1,0c0.5,0.2,1.1-0.1,1.3-0.6c0.2-0.5-0.1-1.1-0.6-1.3c-2.6-1-4.9-1.1-6.8-0.3  c0,0,0-0.1,0-0.1c0,0-3.4-3.6,0.1-8.7c0.3-0.4,0.2-0.9-0.1-1.2c-0.3-0.3-0.8-0.4-1.2-0.2c-5.8,3.1-12.5-2.5-12.5-2.5  c-0.4-0.4-1-0.3-1.4,0.1c-0.4,0.4-0.3,1,0.1,1.4C36.1,48.9,41.9,53.8,48,52.4z" fill="#2C3E50"/><path d="M61.9,42.5c-0.3-0.4-1-0.5-1.4-0.2c-2.5,1.8-4.9,2.5-7.2,1.9c-0.7-0.2-1.4-0.5-2-0.9c2.9-2.2,4.7-4.9,5.2-8  c1.1-5.7-2.4-10.6-2.5-10.8c-0.3-0.4-0.9-0.6-1.4-0.2c-0.5,0.3-0.6,0.9-0.2,1.4c0,0,3.1,4.4,2.2,9.3c-0.5,2.7-2.2,5.1-5,7.1  c-2.4-2.2-3.8-5-3.8-5.1c-0.2-0.5-0.8-0.7-1.3-0.5c-0.5,0.2-0.7,0.8-0.5,1.3c0.1,0.2,2.1,4.4,5.7,6.8c0.9,0.6,2,1.1,3.1,1.4  c2.9,0.8,5.9,0,8.9-2.2C62.1,43.5,62.2,42.9,61.9,42.5z" fill="#2C3E50"/><path d="M82.8,52.4c1.7,4.4-0.4,7.6-1.2,8.6c3.2,2.6,3.5,7.6,3.5,7.9c0,0.6-0.4,1-0.9,1.1c0,0,0,0-0.1,0  c-0.5,0-1-0.4-1-0.9c0,0-0.3-4.9-3.2-6.8c-1.5-1-3.6-1-6.1,0c-0.5,0.2-1.1-0.1-1.3-0.6c-0.2-0.5,0.1-1.1,0.6-1.3  c2.6-1,4.9-1.1,6.8-0.3c0,0,0-0.1,0-0.1c0,0,3.4-3.6-0.1-8.7c-0.3-0.4-0.2-0.9,0.1-1.2c0.3-0.3,0.8-0.4,1.2-0.2  c5.8,3.1,12.5-2.5,12.5-2.5c0.4-0.4,1-0.3,1.4,0.1c0.4,0.4,0.3,1-0.1,1.4C94.7,48.9,88.9,53.8,82.8,52.4z" fill="#2C3E50"/><path d="M68.9,42.5c0.3-0.4,1-0.5,1.4-0.2c2.5,1.8,4.9,2.5,7.2,1.9c0.7-0.2,1.4-0.5,2-0.9c-2.9-2.2-4.7-4.9-5.2-8  c-1.1-5.7,2.4-10.6,2.5-10.8c0.3-0.4,0.9-0.6,1.4-0.2c0.5,0.3,0.6,0.9,0.2,1.4c0,0-3.1,4.4-2.2,9.3c0.5,2.7,2.2,5.1,5,7.1  c2.4-2.2,3.8-5,3.8-5.1c0.2-0.5,0.8-0.7,1.3-0.5c0.5,0.2,0.7,0.8,0.5,1.3c-0.1,0.2-2.1,4.4-5.7,6.8c-0.9,0.6-2,1.1-3.1,1.4  c-2.9,0.8-5.9,0-8.9-2.2C68.7,43.5,68.6,42.9,68.9,42.5z" fill="#2C3E50"/></svg>