<?xml version="1.0" ?><!DOCTYPE svg  PUBLIC '-//W3C//DTD SVG 1.1//EN'  'http://www.w3.org/Graphics/SVG/1.1/DTD/svg11.dtd'><svg enable-background="new 0 0 128 128" height="128px" id="Layer_1" version="1.1" viewBox="0 0 128 128" width="128px" xml:space="preserve" xmlns="http://www.w3.org/2000/svg" xmlns:xlink="http://www.w3.org/1999/xlink"><path d="M104.5,52.4c-1.2-5.7-6.7-6.6-9.3-6.6c-3.2,0-8.5,0.7-9.3,7.5c-0.7,5.2,1.8,12,3.5,14.3  c2,2.5,3.8,3.8,6.2,3.8c2.3,0,3.8-1.1,5.9-4.1C103.4,64.4,105.5,57.2,104.5,52.4z M99.8,66.1c-2.1,3-3.1,3.3-4.3,3.3  c-1.4,0-2.7-0.5-4.7-3c-1.4-1.8-3.7-8.1-3.1-12.8c0.5-4,2.8-5.8,7.3-5.8c1.9,0,6.4,0.5,7.4,5C103.4,56.9,101.5,63.6,99.8,66.1z" fill="#2C3E50"/><path d="M112.8,77c-2.6-0.8-10.8-3.6-10.8-3.6v0.1l-6.5,7.8l-6.7-7.8c0,0-7.1,1.3-9.6,3.5  c-1.7,1.5-4.3,21.3-4.3,21.3s-11.1,7.5-11.7,7.8c-2.8,1.3,0.4,8.3,2.9,7.2c1-0.4,10.7-6,14.3-7.9l3.7-4.7l0.6,13.7  c0,3.1,2.7,6,5.8,6H101c3.1,0,6-3.3,6-6.3V114c5-1,6-2.7,6-2.7C113,106.1,115.4,77.8,112.8,77z M111.3,104c-0.1,2.7-0.3,4.9-0.3,6.3  c-0.6,0.4-1.9,1.1-4.5,1.6l-1.6,0.3v1.7c0,2.1-2.1,4.3-4,4.3H90.4c-1.9,0-3.8-1.9-3.8-4L86,95l-7,8.8c-2.1,1.1-5.5,3-8.5,4.7  c-2,1.1-4.2,2.4-5,2.8c-0.3-0.2-0.8-0.9-1.2-1.8c-0.3-0.9-0.3-1.5-0.2-1.7c1-0.5,7-4.6,11.9-7.9l0.7-0.5l0.1-0.9  c1.1-8.4,2.8-18.4,3.7-20.1c1.4-1.1,4.9-2.1,7.4-2.7l7.4,8.7l7.2-8.6c2.2,0.8,6.6,2.2,8.9,3C112.5,82,111.7,97.3,111.3,104z" fill="#2C3E50"/><path d="M23.5,52.4c1.2-5.7,6.7-6.6,9.3-6.6c3.2,0,8.5,0.7,9.3,7.5c0.7,5.2-1.8,12-3.5,14.3c-2,2.5-3.8,3.8-6.2,3.8  c-2.3,0-3.8-1.1-5.9-4.1C24.6,64.4,22.5,57.2,23.5,52.4z M28.2,66.1c2.1,3,3.1,3.3,4.3,3.3c1.4,0,2.7-0.5,4.7-3  c1.4-1.8,3.7-8.1,3.1-12.8c-0.5-4-2.8-5.8-7.3-5.8c-1.9,0-6.4,0.5-7.4,5C24.6,56.9,26.5,63.6,28.2,66.1z" fill="#2C3E50"/><path d="M60.3,110c-0.9-0.5-1.8-1-2.8-1.5c-3.1-1.7-6.5-3.6-8.5-4.7L42,95l-0.7,19.4c0,2-1.8,4-3.8,4H27  c-1.9,0-4-2.3-4-4.3v-1.7l-1.6-0.3c-2.6-0.5-3.9-1.2-4.5-1.6c0-1.4-0.2-3.7-0.3-6.3c-0.4-6.7-1.2-22-0.2-25.3c2.2-0.7,6.7-2.2,8.9-3  l7.2,8.6l7.4-8.7c2.5,0.6,6,1.6,7.4,2.7c0.9,1.7,2.6,11.7,3.7,20.1l0.1,0.9l0.7,0.5c2.9,2,6.2,4.2,8.6,5.8c0.4-0.6,0.9-1.1,1.5-1.4  c-3.5-2.3-9-6.1-9-6.1s-2.5-19.8-4.3-21.3c-2.5-2.2-9.6-3.5-9.6-3.5l-6.7,7.8L26,73.4v-0.1c0,0-8.2,2.8-10.8,3.6  c-2.6,0.8-0.2,29.2-0.2,34.2c0,0,1,1.7,6,2.7v0.1c0,3.1,2.9,6.3,6,6.3h10.6c3.1,0,5.8-2.9,5.8-6l0.6-13.7l3.7,4.7  c3.4,1.7,12.2,6.8,14.1,7.7C61.1,112.2,60.6,111.1,60.3,110z" fill="#2C3E50"/><path d="M14.6,75.1c0.6-0.2,1.7-0.5,2.8-0.9c-1.8-5.1-2.7-10.5-2.7-16.1C14.7,30.8,36.8,8.7,64,8.7  s49.3,22.1,49.3,49.3c0,5.7-1,11.1-2.7,16.1c1.1,0.4,2.2,0.7,2.8,0.9c0.3,0.1,0.7,0.3,0.9,0.5c1.9-5.5,3-11.4,3-17.6  c0-29.5-23.9-53.3-53.3-53.3C34.5,4.7,10.7,28.5,10.7,58c0,6.2,1.1,12.1,3,17.6C13.9,75.4,14.2,75.2,14.6,75.1z" fill="#3B97D3"/><path d="M37.6,44.5c0.7,0.2,1.3,0.5,1.9,0.8c0.6-3.6,1.4-7.2,2.4-10.7c6.8,1.8,13.8,2.8,21.1,2.9V57H44.2  c-0.1,0.7-0.1,1.3-0.3,2h19v21.2c-3.6,0-7.2,0.3-10.7,0.8c0.1,0.6,0.3,1.2,0.4,2c3.4-0.4,6.8-0.7,10.2-0.7v20.2  c0.1,0.1,0.2,0.1,0.3,0.2l0.7,0.5c0.3-0.2,0.6-0.4,1-0.7V82.2c3.5,0,6.9,0.3,10.2,0.7c0.1-0.7,0.3-1.4,0.4-2  c-3.5-0.5-7-0.7-10.7-0.8V59h19c-0.1-0.7-0.2-1.3-0.3-2H65V37.5c7.4-0.1,14.5-1.1,21.3-2.9c1,3.5,1.8,7,2.4,10.6  c0.6-0.3,1.2-0.6,1.9-0.8c-0.6-3.5-1.3-7-2.3-10.4c4.5-1.3,8.9-3.1,13.1-5.1c-0.4-0.5-0.9-1.1-1.3-1.6c-4,1.9-8.1,3.5-12.3,4.8  c-2.1-6.7-5.1-13.1-8.8-19c-1-0.3-1.9-0.6-2.9-0.9c4.1,6.3,7.5,13.1,9.8,20.4c-6.6,1.8-13.6,2.8-20.7,2.9V10.7c-0.3,0-0.7,0-1,0  s-0.7,0-1,0v24.8c-7.1-0.1-14-1.1-20.6-2.8c2.3-7.3,5.7-14.2,9.8-20.6c-1,0.3-2,0.5-2.9,0.9c-3.7,5.9-6.7,12.4-8.8,19.1  c-4.3-1.3-8.5-2.9-12.5-4.8c-0.4,0.5-0.9,1.1-1.3,1.6c4.2,2.1,8.7,3.8,13.2,5.1C38.9,37.4,38.2,40.9,37.6,44.5z" fill="#3B97D3"/><path d="M21.6,59c-0.1-0.7-0.2-1.3-0.2-2h-4.7c0,0.3,0,0.7,0,1s0,0.7,0,1H21.6z" fill="#3B97D3"/><path d="M106.4,59h4.9c0-0.3,0-0.7,0-1s0-0.7,0-1h-4.7C106.6,57.7,106.5,58.3,106.4,59z" fill="#3B97D3"/></svg>