<?xml version="1.0" ?><!DOCTYPE svg  PUBLIC '-//W3C//DTD SVG 1.1//EN'  'http://www.w3.org/Graphics/SVG/1.1/DTD/svg11.dtd'><svg enable-background="new 0 0 72.28 72.28" height="72.28px" id="Livello_1" version="1.1" viewBox="0 0 72.28 72.28" width="72.28px" xml:space="preserve" xmlns="http://www.w3.org/2000/svg" xmlns:xlink="http://www.w3.org/1999/xlink"><path d="M50.614,3.467c-6.854,0-12.43,5.575-12.43,12.428c0,4.556,2.514,8.737,6.478,10.904  c-1.137,2.587-3.424,5.528-8.015,6.467c-3.688,0.753-6.983,1.995-9.823,3.699V23.972c4.44-2.018,7.272-6.382,7.272-11.301  c0-6.853-5.576-12.428-12.431-12.428c-6.854,0-12.43,5.575-12.43,12.428c0,4.919,2.832,9.283,7.271,11.301v17.021  c0,0.552,0.447,1,1,1s1-0.448,1-1V23.31c0-0.412-0.252-0.781-0.636-0.931c-4.031-1.577-6.636-5.387-6.636-9.708  c0-5.75,4.679-10.428,10.43-10.428c5.752,0,10.431,4.678,10.431,10.428c0,4.321-2.605,8.131-6.637,9.708  c-0.384,0.15-0.636,0.52-0.636,0.931v15.499c0,0.374,0.208,0.716,0.54,0.888c0.332,0.173,0.731,0.145,1.036-0.071  c2.945-2.078,6.528-3.558,10.647-4.4c6.312-1.292,8.864-5.924,9.825-8.57c0.178-0.492-0.053-1.039-0.53-1.253  c-3.741-1.685-6.158-5.417-6.158-9.508c0-5.75,4.679-10.428,10.43-10.428s10.43,4.678,10.43,10.428c0,4.49-2.864,8.464-7.127,9.888  c-0.327,0.109-0.575,0.379-0.656,0.714c-0.688,2.862-3.808,12.375-14.998,14.665c-8.167,1.669-11.27,5.583-12.392,7.767  c-0.122,0.238-0.144,0.514-0.061,0.768s0.264,0.464,0.503,0.583c3.567,1.783,5.783,5.357,5.783,9.328  c0,5.75-4.679,10.429-10.431,10.429c-5.751,0-10.43-4.679-10.43-10.429c0-4.319,2.604-8.13,6.636-9.708  c0.515-0.201,0.769-0.781,0.567-1.295c-0.202-0.515-0.784-0.769-1.296-0.567c-4.804,1.88-7.907,6.421-7.907,11.57  c0,6.854,5.576,12.429,12.43,12.429c6.854,0,12.431-5.576,12.431-12.429c0-4.375-2.256-8.345-5.952-10.599  c1.284-1.908,4.167-4.59,10.519-5.889C50.39,40.722,54.079,31.148,55.07,27.493c4.792-1.839,7.974-6.432,7.974-11.599  C63.044,9.042,57.468,3.467,50.614,3.467z" fill="#010202"/></svg>