<?xml version="1.0" encoding="UTF-8" standalone="no"?>
<!-- Created with Inkscape (http://www.inkscape.org/) -->

<svg
   xmlns:dc="http://purl.org/dc/elements/1.1/"
   xmlns:cc="http://creativecommons.org/ns#"
   xmlns:rdf="http://www.w3.org/1999/02/22-rdf-syntax-ns#"
   xmlns:svg="http://www.w3.org/2000/svg"
   xmlns="http://www.w3.org/2000/svg"
   xmlns:sodipodi="http://sodipodi.sourceforge.net/DTD/sodipodi-0.dtd"
   xmlns:inkscape="http://www.inkscape.org/namespaces/inkscape"
   width="2450"
   height="668"
   id="svg4080"
   version="1.1"
   inkscape:version="0.48.4 r9939"
   sodipodi:docname="New document 10">
  <defs
     id="defs4082" />
  <sodipodi:namedview
     id="base"
     pagecolor="#ffffff"
     bordercolor="#666666"
     borderopacity="1.0"
     inkscape:pageopacity="0.0"
     inkscape:pageshadow="2"
     inkscape:zoom="0.49497475"
     inkscape:cx="903.36149"
     inkscape:cy="459.23408"
     inkscape:document-units="px"
     inkscape:current-layer="layer1"
     showgrid="false"
     inkscape:window-width="2495"
     inkscape:window-height="1056"
     inkscape:window-x="65"
     inkscape:window-y="24"
     inkscape:window-maximized="1" />
  <metadata
     id="metadata4085">
    <rdf:RDF>
      <cc:Work
         rdf:about="">
        <dc:format>image/svg+xml</dc:format>
        <dc:type
           rdf:resource="http://purl.org/dc/dcmitype/StillImage" />
        <dc:title></dc:title>
      </cc:Work>
    </rdf:RDF>
  </metadata>
  <g
     inkscape:label="Layer 1"
     inkscape:groupmode="layer"
     id="layer1"
     transform="translate(0,-384.36218)">
    <rect
       style="fill:#916f6f;fill-opacity:1;stroke:#000000;stroke-width:0;stroke-miterlimit:4;stroke-opacity:1;stroke-dasharray:none"
       id="rect4088"
       width="2385.8931"
       height="603.40814"
       x="32.958672"
       y="418.71185" />
    <rect
       style="fill:#ffffff;fill-opacity:1;stroke:#000000;stroke-width:0;stroke-miterlimit:4;stroke-opacity:1;stroke-dasharray:none"
       id="rect4088-9"
       width="2313.1621"
       height="534.71777"
       x="67.723801"
       y="449.63266" />
    <path
       sodipodi:type="arc"
       style="fill:none;stroke:#000000;stroke-width:0;stroke-miterlimit:4;stroke-opacity:1;stroke-dasharray:none"
       id="path4113"
       sodipodi:cx="98.994949"
       sodipodi:cy="559.9137"
       sodipodi:rx="64.649765"
       sodipodi:ry="77.781746"
       d="m 163.64471,559.9137 a 64.649765,77.781746 0 1 1 -129.299526,0 64.649765,77.781746 0 1 1 129.299526,0 z"
       transform="translate(0,384.36218)" />
    <path
       sodipodi:type="arc"
       style="fill:#916f6f;fill-opacity:1;stroke:#000000;stroke-width:0;stroke-miterlimit:4;stroke-opacity:1;stroke-dasharray:none"
       id="path4117"
       sodipodi:cx="171.72594"
       sodipodi:cy="551.83246"
       sodipodi:rx="135.36044"
       sodipodi:ry="136.37059"
       d="m 307.08638,551.83246 a 135.36044,136.37059 0 1 1 -270.720886,0 135.36044,136.37059 0 1 1 270.720886,0 z"
       transform="matrix(0.80597017,0,0,0.74814814,11.096602,505.15946)" />
    <path
       sodipodi:type="arc"
       style="fill:#916f6f;fill-opacity:1;stroke:#000000;stroke-width:0;stroke-miterlimit:4;stroke-opacity:1;stroke-dasharray:none"
       id="path4117-0"
       sodipodi:cx="171.72594"
       sodipodi:cy="551.83246"
       sodipodi:rx="135.36044"
       sodipodi:ry="136.37059"
       d="m 307.08638,551.83246 a 135.36044,136.37059 0 1 1 -270.720886,0 135.36044,136.37059 0 1 1 270.720886,0 z"
       transform="matrix(0.80597017,0,0,0.74814814,3.0153784,112.21012)" />
    <path
       sodipodi:type="arc"
       style="fill:#916f6f;fill-opacity:1;stroke:#000000;stroke-width:0;stroke-miterlimit:4;stroke-opacity:1;stroke-dasharray:none"
       id="path4117-1"
       sodipodi:cx="171.72594"
       sodipodi:cy="551.83246"
       sodipodi:rx="135.36044"
       sodipodi:ry="136.37059"
       d="m 307.08638,551.83246 a 135.36044,136.37059 0 1 1 -270.720886,0 135.36044,136.37059 0 1 1 270.720886,0 z"
       transform="matrix(0.80597017,0,0,0.74814814,2170.8027,502.12901)" />
    <path
       sodipodi:type="arc"
       style="fill:#916f6f;fill-opacity:1;stroke:#000000;stroke-width:0;stroke-miterlimit:4;stroke-opacity:1;stroke-dasharray:none"
       id="path4117-7"
       sodipodi:cx="171.72594"
       sodipodi:cy="551.83246"
       sodipodi:rx="135.36044"
       sodipodi:ry="136.37059"
       d="m 307.08638,551.83246 a 135.36044,136.37059 0 1 1 -270.720886,0 135.36044,136.37059 0 1 1 270.720886,0 z"
       transform="matrix(0.80597017,0,0,0.74814814,2170.8027,108.16952)"
       inkscape:transform-center-x="-92.934034"
       inkscape:transform-center-y="127.27922" />
  </g>
</svg>
