<?xml version="1.0" encoding="UTF-8" standalone="no"?>
<!-- Created with Inkscape (http://www.inkscape.org/) -->

<svg
   xmlns:dc="http://purl.org/dc/elements/1.1/"
   xmlns:cc="http://creativecommons.org/ns#"
   xmlns:rdf="http://www.w3.org/1999/02/22-rdf-syntax-ns#"
   xmlns:svg="http://www.w3.org/2000/svg"
   xmlns="http://www.w3.org/2000/svg"
   xmlns:sodipodi="http://sodipodi.sourceforge.net/DTD/sodipodi-0.dtd"
   xmlns:inkscape="http://www.inkscape.org/namespaces/inkscape"
   width="2480"
   height="668"
   id="svg4080"
   version="1.1"
   inkscape:version="0.48.4 r9939"
   sodipodi:docname="sparkmark.svg">
  <defs
     id="defs4082" />
  <sodipodi:namedview
     id="base"
     pagecolor="#ffffff"
     bordercolor="#666666"
     borderopacity="1.0"
     inkscape:pageopacity="0.0"
     inkscape:pageshadow="2"
     inkscape:zoom="0.98994949"
     inkscape:cx="1090.3559"
     inkscape:cy="268.12703"
     inkscape:document-units="px"
     inkscape:current-layer="layer1"
     showgrid="false"
     inkscape:window-width="1046"
     inkscape:window-height="814"
     inkscape:window-x="380"
     inkscape:window-y="126"
     inkscape:window-maximized="0" />
  <metadata
     id="metadata4085">
    <rdf:RDF>
      <cc:Work
         rdf:about="">
        <dc:format>image/svg+xml</dc:format>
        <dc:type
           rdf:resource="http://purl.org/dc/dcmitype/StillImage" />
        <dc:title />
      </cc:Work>
    </rdf:RDF>
  </metadata>
  <g
     inkscape:label="Layer 1"
     inkscape:groupmode="layer"
     id="layer1"
     transform="translate(0,-384.36218)">
    <path
       style="fill:#916f6f;fill-opacity:1;stroke:#000000;stroke-width:0;stroke-miterlimit:4;stroke-opacity:1;stroke-dasharray:none"
       d="m 47.388868,421.56307 0,603.40623 2385.875032,0 0,-603.40623 -2385.875032,0 z m 34.75,30.9375 2313.156232,0 0,534.71875 -2313.156232,0 0,-534.71875 z"
       id="rect4088"
       inkscape:connector-curvature="0" />
    <path
       sodipodi:type="arc"
       style="fill:none;stroke:#000000;stroke-width:0;stroke-miterlimit:4;stroke-opacity:1;stroke-dasharray:none"
       id="path4113"
       sodipodi:cx="98.994949"
       sodipodi:cy="559.9137"
       sodipodi:rx="64.649765"
       sodipodi:ry="77.781746"
       d="m 163.64471,559.9137 c 0,42.95767 -28.94468,77.78174 -64.649761,77.78174 -35.705079,0 -64.649765,-34.82407 -64.649765,-77.78174 0,-42.95768 28.944686,-77.78175 64.649765,-77.78175 35.705081,0 64.649761,34.82407 64.649761,77.78175 z"
       transform="translate(14.420118,387.21932)" />
    <path
       sodipodi:type="arc"
       style="fill:#916f6f;fill-opacity:1;stroke:#000000;stroke-width:0;stroke-miterlimit:4;stroke-opacity:1;stroke-dasharray:none"
       id="path4117-0"
       sodipodi:cx="171.72594"
       sodipodi:cy="551.83246"
       sodipodi:rx="135.36044"
       sodipodi:ry="136.37059"
       d="m 307.08638,551.83246 c 0,75.3154 -60.60293,136.37059 -135.36044,136.37059 -74.757512,0 -135.360446,-61.05519 -135.360446,-136.37059 0,-75.3154 60.602934,-136.37059 135.360446,-136.37059 74.75751,0 135.36044,61.05519 135.36044,136.37059 z"
       transform="matrix(0.80597017,0,0,0.74814814,17.435497,115.06726)" />
    <path
       sodipodi:type="arc"
       style="fill:#916f6f;fill-opacity:1;stroke:#000000;stroke-width:0;stroke-miterlimit:4;stroke-opacity:1;stroke-dasharray:none"
       id="path4117-1"
       sodipodi:cx="171.72594"
       sodipodi:cy="551.83246"
       sodipodi:rx="135.36044"
       sodipodi:ry="136.37059"
       d="m 307.08638,551.83246 c 0,75.3154 -60.60293,136.37059 -135.36044,136.37059 -74.757512,0 -135.360446,-61.05519 -135.360446,-136.37059 0,-75.3154 60.602934,-136.37059 135.360446,-136.37059 74.75751,0 135.36044,61.05519 135.36044,136.37059 z"
       transform="matrix(0.80597017,0,0,0.74814814,2185.2228,504.98615)" />
    <path
       sodipodi:type="arc"
       style="fill:#916f6f;fill-opacity:1;stroke:#000000;stroke-width:0;stroke-miterlimit:4;stroke-opacity:1;stroke-dasharray:none"
       id="path4117-7"
       sodipodi:cx="171.72594"
       sodipodi:cy="551.83246"
       sodipodi:rx="135.36044"
       sodipodi:ry="136.37059"
       d="m 307.08638,551.83246 c 0,75.3154 -60.60293,136.37059 -135.36044,136.37059 -74.757512,0 -135.360446,-61.05519 -135.360446,-136.37059 0,-75.3154 60.602934,-136.37059 135.360446,-136.37059 74.75751,0 135.36044,61.05519 135.36044,136.37059 z"
       transform="matrix(0.80597017,0,0,0.74814814,2185.2228,111.02666)"
       inkscape:transform-center-x="-92.934034"
       inkscape:transform-center-y="127.27922" />
    <path
       sodipodi:type="arc"
       style="fill:#916f6f;fill-opacity:1;stroke:#000000;stroke-width:0;stroke-miterlimit:4;stroke-opacity:1;stroke-dasharray:none"
       id="path4117"
       sodipodi:cx="171.72594"
       sodipodi:cy="551.83246"
       sodipodi:rx="135.36044"
       sodipodi:ry="136.37059"
       d="m 307.08638,551.83246 c 0,75.3154 -60.60293,136.37059 -135.36044,136.37059 -74.757512,0 -135.360446,-61.05519 -135.360446,-136.37059 0,-75.3154 60.602934,-136.37059 135.360446,-136.37059 74.75751,0 135.36044,61.05519 135.36044,136.37059 z"
       transform="matrix(0.80597017,0,0,0.74814814,19.455805,508.07752)" />
    <path
       sodipodi:type="arc"
       style="fill:#916f6f;fill-opacity:1;stroke:#000000;stroke-width:0;stroke-miterlimit:4;stroke-opacity:1;stroke-dasharray:none"
       id="path4117-0-7"
       sodipodi:cx="171.72594"
       sodipodi:cy="551.83246"
       sodipodi:rx="135.36044"
       sodipodi:ry="136.37059"
       d="m 307.08638,551.83246 c 0,75.3154 -60.60293,136.37059 -135.36044,136.37059 -74.757512,0 -135.360446,-61.05519 -135.360446,-136.37059 0,-75.3154 60.602934,-136.37059 135.360446,-136.37059 74.75751,0 135.36044,61.05519 135.36044,136.37059 z"
       transform="matrix(2.4009969,0,0,2.3832118,824.81793,-600.02441)" />
    <path
       style="fill:#906f6f;fill-opacity:1;fill-rule:evenodd"
       id="path5-7"
       d="m 829.38326,744.81098 c 19.6663,-13.1905 28.46532,-38.07279 16.35113,-61.58359 -12.1142,-23.51078 -44.6254,-33.07686 -74.85222,-13.74718 -30.71245,19.64467 -47.93423,64.55429 -29.08778,101.23328 18.85365,36.69377 69.47547,50.17652 114.93609,18.95334 C 901.09019,759.1969 924.13412,693.33408 896.77589,640.253 869.44652,587.23101 796.02522,564.61031 726.54572,607.39576 654.43704,651.7947 612.42465,756.39356 656.57181,842.43254 684.784,897.4459 867.28839,1007.2235 1018.387,952.86584 l 0.5605,-1.24594 C 859.80199,1005.2961 696.82303,881.56917 671.26598,831.76628 631.27529,753.84754 669.07766,658.99916 734.36014,618.5246 c 63.12078,-39.13143 130.01547,-18.6825 154.91874,29.63884 24.92492,48.36565 3.8374,108.35352 -36.57977,136.03256 -41.33229,28.30117 -87.28401,15.99206 -104.39821,-17.30443 -17.10244,-33.29287 -1.52196,-74.07577 26.35472,-91.95714 27.46534,-17.61884 57.04827,-8.95395 68.06714,12.43731 11.01434,21.40241 3.16359,43.66437 -14.74217,55.6519 -18.07519,12.11111 -18.48197,15.12403 1.40267,1.78734 z"
       clip-rule="evenodd"
       inkscape:connector-curvature="0" />
    <path
       style="fill:#906f6f;fill-opacity:1;fill-rule:evenodd"
       id="path7-2"
       d="m 614.08606,925.09348 c -2.44441,10.97168 -14.86568,21.48386 -29.29802,21.43561 -14.41604,-0.0558 -26.15167,-11.50016 -22.88891,-28.11963 3.32021,-16.89049 22.22741,-33.57825 44.74857,-33.60133 22.59628,-0.0125 40.31438,18.15586 34.26749,43.72195 -5.90283,24.92004 -34.26296,48.43929 -66.84919,48.25189 -32.44323,-0.18105 -59.3466,-25.82063 -52.70967,-63.55671 6.91354,-39.1949 50.42218,-78.91428 103.26388,-79.13343 33.95253,-0.14526 55.63669,11.92565 70.55328,36.93905 l -8.81523,4.84364 c -13.5973,-22.599 -33.24241,-33.50263 -63.98096,-33.385 -47.85915,0.17094 -87.39636,36.05391 -93.7917,71.60491 -6.17616,34.3632 18.26905,57.75254 47.85136,57.9067 29.69725,0.16443 55.51346,-21.30087 60.83794,-43.98884 5.45116,-23.22639 -10.65688,-39.69425 -31.16332,-39.67874 -20.43856,0.0113 -37.62718,15.14422 -40.67426,30.48697 -2.99148,15.1088 7.6769,25.53436 20.78784,25.57761 13.14621,0.0541 24.44547,-9.52303 26.66109,-19.51072 2.23977,-10.07942 3.68198,-10.89082 1.19981,0.20607 z"
       clip-rule="evenodd"
       inkscape:connector-curvature="0" />
    <path
       style="fill:#906f6f;fill-opacity:1;fill-rule:evenodd"
       id="path9-2"
       d="m 773.40474,965.17561 c 6.80378,3.14829 11.06397,12.05359 7.78831,20.48492 -3.25934,8.42378 -13.57106,13.49727 -23.96491,8.99307 -10.56116,-4.58077 -17.50616,-18.26634 -12.45878,-31.43698 5.04926,-13.20773 21.17739,-20.7339 36.93976,-13.19677 15.38979,7.34715 24.7732,27.62002 17.34043,46.64657 -7.40096,18.94848 -30.5838,30.66758 -54.37327,20.87358 -24.71024,-10.1654 -41.54832,-41.83297 -29.84861,-72.76405 7.51562,-19.87972 20.44872,-30.67372 40.55207,-35.48278 l 1.25838,5.91033 c -18.18485,4.4204 -29.88448,14.20068 -36.69558,32.18843 -10.60979,28.02797 4.54871,56.76857 26.93793,66.06897 21.61678,8.9874 42.75871,-1.6527 49.5062,-18.93199 6.75845,-17.33866 -1.82874,-35.79744 -15.82762,-42.46549 -14.3335,-6.82124 -28.96625,0.0229 -33.56007,12.0151 -4.5802,11.95876 1.69982,24.38528 11.30226,28.55804 9.4378,4.12209 18.81833,-0.48482 21.79677,-8.15405 2.9667,-7.67284 -0.91555,-15.784 -7.09712,-18.64038 -6.24714,-2.89036 -6.47609,-3.85205 0.40385,-0.66652 z"
       clip-rule="evenodd"
       inkscape:connector-curvature="0" />
    <path
       style="fill:#906f6f;fill-opacity:1;fill-rule:evenodd"
       id="path11-3"
       d="m 853.57503,914.24502 c -1.42676,-4.78222 1.41859,-11.31248 7.46087,-14.0597 6.02597,-2.73967 13.47202,-0.48579 15.80994,6.6731 2.36758,7.28099 -1.81332,17.47978 -11.21604,21.81625 -9.43077,4.34041 -20.86217,0.59641 -24.01799,-10.63012 -3.0866,-10.94163 3.52274,-25.63997 17.17057,-31.82066 13.58262,-6.15055 30.5159,-1.228 36.13551,14.89908 5.83129,16.74452 -3.49936,40.72262 -25.50861,50.95774 -14.13721,6.56984 -25.87515,5.98258 -37.65698,-0.99481 l 2.60617,-3.60383 c 10.69775,6.29229 21.32891,6.80253 34.12467,0.8617 19.94134,-9.25226 28.46457,-30.9558 23.21729,-46.17749 -5.05805,-14.71156 -20.46785,-19.21548 -32.85308,-13.60019 -12.4296,5.62672 -18.43222,19.03059 -15.6065,28.98816 2.89414,10.17947 13.28076,13.56427 21.83114,9.63075 8.53407,-3.92597 12.34507,-13.18419 10.19907,-19.80703 -2.10726,-6.52305 -8.87844,-8.58179 -14.37093,-6.07961 -5.49249,2.50218 -8.08528,8.4449 -6.78815,12.7981 1.30701,4.3939 0.89061,4.9938 -0.53695,0.14856 z"
       clip-rule="evenodd"
       inkscape:connector-curvature="0" />
    <path
       style="fill:#906f6f;fill-opacity:1;fill-rule:evenodd"
       id="path13-0"
       d="m 786.50739,807.55534 c -3.9138,-8.74848 -3.88516,-34.64786 2.01698,-47.48013 8.90225,-19.35257 20.59209,-18.1274 31.01105,-14.59457 13.9577,4.7223 15.93531,9.15941 11.3877,18.89387 -7.55224,16.13913 -48.81066,26.8771 -44.41573,43.18083 z"
       clip-rule="evenodd"
       inkscape:connector-curvature="0" />
    <path
       style="fill:#906f6f;fill-opacity:1;fill-rule:evenodd"
       id="path15-0"
       d="m 697.30251,755.66534 c -10.24778,11.38192 -7.83955,51.47489 -0.34152,69.58592 11.11141,26.81728 29.30995,29.54343 43.78847,23.46775 19.19272,-8.06423 22.21983,-14.48834 16.94316,-27.78601 -8.87132,-22.37471 -67.75567,-40.72372 -60.39011,-65.26766 z"
       clip-rule="evenodd"
       inkscape:connector-curvature="0" />
    <path
       style="fill:#916f6f;fill-opacity:0.91207467;fill-rule:evenodd"
       id="path17-4"
       d="m 756.31215,603.42663 c 10.14335,-2.28845 33.49376,-17.40795 41.59236,-29.03704 12.0767,-17.33378 7.0986,-28.34287 -1.87121,-33.61384 -11.9438,-7.00213 -29.40329,-5.04472 -23.00973,2.68448 12.70855,15.35889 0.56112,53.59452 -16.71142,59.9664 z"
       clip-rule="evenodd"
       inkscape:connector-curvature="0" />
    <path
       style="fill:#906f6f;fill-opacity:1;fill-rule:evenodd"
       id="path19-6"
       d="m 724.56442,609.66052 c 7.26962,-1.66656 24.00337,-12.59635 29.83311,-20.9948 8.66844,-12.50813 5.13526,-20.43654 -1.26655,-24.21427 -8.52854,-5.02219 -21.02553,-3.58361 -16.46121,1.97592 9.05199,11.04401 0.2692,38.61877 -12.10535,43.23315 z"
       clip-rule="evenodd"
       inkscape:connector-curvature="0" />
    <path
       style="fill:#906f6f;fill-opacity:1;fill-rule:evenodd"
       id="path21-0"
       d="m 528.47169,897.64205 c -0.1737,4.39011 -5.54263,15.49106 -10.65825,19.99209 -7.6825,6.77384 -13.75475,5.6959 -17.21759,2.37077 -4.60333,-4.39161 -5.10881,-11.89035 -0.66079,-9.94404 8.89194,3.90264 27.00218,-4.72067 28.53663,-12.41882 z"
       clip-rule="evenodd"
       inkscape:connector-curvature="0" />
    <path
       style="fill:#906f6f;fill-opacity:1;fill-rule:evenodd"
       id="path23-6"
       d="m 884.88026,890.1886 c -2.5386,-1.20804 -7.39557,-6.56894 -8.45882,-10.03426 -1.52592,-5.02613 0.7598,-7.48591 3.51575,-8.30596 3.65739,-1.08367 7.96241,0.30398 5.67454,1.85932 -4.60476,3.14945 -4.82615,13.76466 -0.73147,16.4809 z"
       clip-rule="evenodd"
       inkscape:connector-curvature="0" />
    <path
       style="fill:#906f6f;fill-opacity:1;fill-rule:evenodd"
       id="path25-3"
       d="m 619.16226,751.54945 c -20.67671,-2.68546 -68.05499,-28.77682 -84.4437,-50.7286 -24.4183,-32.6824 -14.32485,-55.99895 3.84871,-68.48146 24.27247,-16.66839 34.43002,-15.45034 46.74622,0.74179 20.6599,27.15875 -1.29394,108.89695 33.84877,118.46827 z"
       clip-rule="evenodd"
       inkscape:connector-curvature="0" />
    <path
       style="fill:#906f6f;fill-opacity:1;fill-rule:evenodd"
       id="path27-4"
       d="m 629.91348,810.83065 c -15.89348,6.82015 -62.1126,9.20293 -84.43365,1.39214 -33.32508,-11.66175 -37.36565,-31.47027 -30.34526,-47.37266 9.33148,-21.15355 17.17679,-24.52579 33.76395,-18.81854 27.74595,9.5682 51.561,73.06942 81.01496,64.79906 z"
       clip-rule="evenodd"
       inkscape:connector-curvature="0" />
    <path
       style="fill:#906f6f;fill-opacity:1;fill-rule:evenodd"
       id="path35-3"
       d="m 721.7556,1012.4066 c -2.76816,1.3698 -3.94174,4.5108 -2.62619,6.9994 1.31555,2.4885 4.62122,3.4054 7.39393,2.0244 2.76815,-1.3699 3.94895,-4.496 2.6334,-6.9846 -1.32276,-2.5033 -4.63298,-3.4091 -7.40114,-2.0392 z"
       clip-rule="evenodd"
       inkscape:connector-curvature="0" />
    <path
       inkscape:connector-curvature="0"
       style="font-size:1400.74536133px;font-style:oblique;font-variant:normal;font-weight:600;font-stretch:normal;line-height:125%;letter-spacing:0px;word-spacing:0px;fill:#906f6f;fill-opacity:1;stroke:none;font-family:URW Gothic L;-inkscape-font-specification:URW Gothic L Semi-Bold Oblique"
       d="m 706.43208,606.46514 -0.4855,4.29067 -5.78022,-0.70863 2.22306,5.31793 -3.89919,1.80812 -1.55825,-5.61375 -3.86779,5.23811 -2.92768,-2.72421 3.9078,-4.64482 -5.70598,-0.30903 0.91097,-4.15407 5.51022,0.83655 -2.15029,-5.21632 3.84525,-1.79388 1.5934,5.4837 3.48197,-5.07256 3.16891,2.41913 -3.79084,4.61403 5.52415,0.22904 z"
       id="path3002-0" />
    <path
       inkscape:connector-curvature="0"
       style="font-size:1400.74536133px;font-style:oblique;font-variant:normal;font-weight:600;font-stretch:normal;line-height:125%;letter-spacing:0px;word-spacing:0px;fill:#906f6f;fill-opacity:1;stroke:none;font-family:URW Gothic L;-inkscape-font-specification:URW Gothic L Semi-Bold Oblique"
       d="m 685.67574,625.7198 -0.48552,4.29067 -5.7802,-0.70862 2.22303,5.31791 -3.89919,1.80812 -1.55822,-5.61373 -3.86777,5.23811 -2.92768,-2.72421 3.90774,-4.64483 -5.70598,-0.30904 0.91104,-4.15405 5.51019,0.83654 -2.15032,-5.21633 3.84524,-1.79387 1.5934,5.4837 3.48202,-5.07256 3.16894,2.41914 -3.79088,4.61402 5.52416,0.22904 z"
       id="path3002-0-4" />
    <path
       inkscape:connector-curvature="0"
       style="font-size:1400.74536133px;font-style:oblique;font-variant:normal;font-weight:600;font-stretch:normal;line-height:125%;letter-spacing:0px;word-spacing:0px;fill:#906f6f;fill-opacity:1;stroke:none;font-family:URW Gothic L;-inkscape-font-specification:URW Gothic L Semi-Bold Oblique"
       d="m 670.52346,648.44823 -0.48552,4.29067 -5.7802,-0.70862 2.22303,5.31791 -3.8992,1.80812 -1.55821,-5.61373 -3.86777,5.23811 -2.92769,-2.72421 3.90775,-4.64483 -5.70599,-0.30904 0.91104,-4.15405 5.51019,0.83654 -2.15031,-5.21633 3.84524,-1.79388 1.5934,5.48371 3.48201,-5.07256 3.16895,2.41914 -3.79089,4.61402 5.52416,0.22904 z"
       id="path3002-0-1" />
    <path
       inkscape:connector-curvature="0"
       style="font-size:1400.74536133px;font-style:oblique;font-variant:normal;font-weight:600;font-stretch:normal;line-height:125%;letter-spacing:0px;word-spacing:0px;fill:#906f6f;fill-opacity:1;stroke:none;font-family:URW Gothic L;-inkscape-font-specification:URW Gothic L Semi-Bold Oblique"
       d="m 907.9053,895.50753 -0.28541,2.52222 -3.39782,-0.41656 1.30679,3.12607 -2.29209,1.06287 -0.91598,-3.29996 -2.27362,3.07916 -1.721,-1.60139 2.29712,-2.7304 -3.35419,-0.18166 0.53554,-2.44191 3.2391,0.49175 -1.26404,-3.06634 2.26037,-1.05451 0.93667,3.22351 2.04685,-2.98183 1.86283,1.42206 -2.22842,2.71229 3.2473,0.13464 z"
       id="path3002-0-6" />
    <path
       inkscape:connector-curvature="0"
       style="font-size:1400.74536133px;font-style:oblique;font-variant:normal;font-weight:600;font-stretch:normal;line-height:125%;letter-spacing:0px;word-spacing:0px;fill:#906f6f;fill-opacity:1;stroke:none;font-family:URW Gothic L;-inkscape-font-specification:URW Gothic L Semi-Bold Oblique"
       d="m 911.25159,911.20822 -0.28539,2.52222 -3.39781,-0.41655 1.30679,3.12607 -2.29209,1.06287 -0.91604,-3.29998 -2.27357,3.07917 -1.72105,-1.6014 2.29715,-2.73039 -3.35422,-0.18167 0.53561,-2.44189 3.2391,0.49175 -1.26408,-3.06636 2.2604,-1.0545 0.93661,3.2235 2.04689,-2.98182 1.86283,1.42206 -2.22843,2.71229 3.24729,0.13464 z"
       id="path3002-0-6-2" />
    <path
       inkscape:connector-curvature="0"
       style="font-size:1400.74536133px;font-style:oblique;font-variant:normal;font-weight:600;font-stretch:normal;line-height:125%;letter-spacing:0px;word-spacing:0px;fill:#906f6f;fill-opacity:1;stroke:none;font-family:URW Gothic L;-inkscape-font-specification:URW Gothic L Semi-Bold Oblique"
       d="m 905.69575,930.40112 -0.28539,2.52222 -3.39782,-0.41656 1.3068,3.12607 -2.29209,1.06288 -0.91604,-3.29998 -2.27358,3.07917 -1.72104,-1.6014 2.29715,-2.7304 -3.35422,-0.18167 0.5356,-2.44189 3.23911,0.49175 -1.26408,-3.06635 2.2604,-1.0545 0.93661,3.2235 2.04688,-2.98183 1.86284,1.42207 -2.22843,2.71228 3.24729,0.13464 z"
       id="path3002-0-6-23" />
    <path
       inkscape:transform-center-x="18.182746"
       inkscape:connector-curvature="0"
       style="font-size:1400.74536133px;font-style:oblique;font-variant:normal;font-weight:600;font-stretch:normal;line-height:125%;letter-spacing:0px;word-spacing:0px;fill:#906f6f;fill-opacity:1;stroke:none;font-family:URW Gothic L;-inkscape-font-specification:URW Gothic L Semi-Bold Oblique"
       d="m 535.9239,711.22339 -0.28538,2.52222 -3.39782,-0.41655 1.30679,3.12606 -2.29209,1.06288 -0.91604,-3.29998 -2.27357,3.07917 -1.72105,-1.6014 2.29716,-2.7304 -3.35423,-0.18167 0.53561,-2.44189 3.2391,0.49176 -1.26408,-3.06636 2.26041,-1.0545 0.9366,3.2235 2.04689,-2.98182 1.86284,1.42206 -2.22844,2.71228 3.2473,0.13465 z"
       id="path3002-0-6-9" />
    <path
       inkscape:connector-curvature="0"
       style="font-size:1400.74536133px;font-style:oblique;font-variant:normal;font-weight:600;font-stretch:normal;line-height:125%;letter-spacing:0px;word-spacing:0px;fill:#906f6f;fill-opacity:1;stroke:none;font-family:URW Gothic L;-inkscape-font-specification:URW Gothic L Semi-Bold Oblique"
       d="m 525.31729,697.35174 -0.28538,2.52222 -3.39782,-0.41655 1.3068,3.12606 -2.29209,1.06288 -0.91604,-3.29998 -2.27358,3.07917 -1.72104,-1.6014 2.29715,-2.73039 -3.35422,-0.18168 0.5356,-2.44189 3.23911,0.49176 -1.26408,-3.06636 2.2604,-1.0545 0.93661,3.2235 2.04688,-2.98182 1.86284,1.42206 -2.22843,2.71228 3.24729,0.13465 z"
       id="path3002-0-6-6" />
    <path
       inkscape:connector-curvature="0"
       style="font-size:1400.74536133px;font-style:oblique;font-variant:normal;font-weight:600;font-stretch:normal;line-height:125%;letter-spacing:0px;word-spacing:0px;fill:#906f6f;fill-opacity:1;stroke:none;font-family:URW Gothic L;-inkscape-font-specification:URW Gothic L Semi-Bold Oblique"
       d="m 519.01654,680.475 -0.28539,2.52223 -3.39782,-0.41656 1.3068,3.12607 -2.29209,1.06287 -0.91604,-3.29998 -2.27358,3.07918 -1.72104,-1.60141 2.29715,-2.73039 -3.35422,-0.18167 0.53561,-2.44189 3.2391,0.49175 -1.26408,-3.06635 2.2604,-1.0545 0.93661,3.22349 2.04688,-2.98182 1.86284,1.42207 -2.22843,2.71228 3.24729,0.13464 z"
       id="path3002-0-6-0" />
    <path
       inkscape:connector-curvature="0"
       style="font-size:1400.74536133px;font-style:oblique;font-variant:normal;font-weight:600;font-stretch:normal;line-height:125%;letter-spacing:0px;word-spacing:0px;fill:#906f6f;fill-opacity:1;stroke:none;font-family:URW Gothic L;-inkscape-font-specification:URW Gothic L Semi-Bold Oblique"
       d="m 559.6869,826.18863 -0.33875,2.99381 -4.03312,-0.49444 1.55113,3.71056 -2.72065,1.2616 -1.08731,-3.91699 -2.69868,3.6549 -2.04284,-1.90082 2.72667,-3.24091 -3.98138,-0.21564 0.63576,-2.89846 3.84472,0.58369 -1.50043,-3.63968 2.68305,-1.25166 1.11172,3.8262 2.4296,-3.53934 2.21114,1.68796 -2.64509,3.21941 3.85446,0.15982 z"
       id="path3002-0-6-4" />
    <path
       inkscape:connector-curvature="0"
       style="font-size:1400.74536133px;font-style:oblique;font-variant:normal;font-weight:600;font-stretch:normal;line-height:125%;letter-spacing:0px;word-spacing:0px;fill:#906f6f;fill-opacity:1;stroke:none;font-family:URW Gothic L;-inkscape-font-specification:URW Gothic L Semi-Bold Oblique"
       d="m 541.01491,820.12773 -0.33881,2.99379 -4.03309,-0.49443 1.55116,3.71057 -2.72072,1.26158 -1.08732,-3.91699 -2.69863,3.65491 -2.04288,-1.90083 2.72671,-3.2409 -3.98141,-0.21564 0.63577,-2.89846 3.84477,0.5837 -1.50042,-3.63967 2.68301,-1.25167 1.11172,3.8262 2.42956,-3.53936 2.21121,1.68798 -2.64512,3.2194 3.85448,0.15983 z"
       id="path3002-0-6-4-8" />
    <path
       inkscape:connector-curvature="0"
       style="font-size:1400.74536133px;font-style:oblique;font-variant:normal;font-weight:600;font-stretch:normal;line-height:125%;letter-spacing:0px;word-spacing:0px;fill:#906f6f;fill-opacity:1;stroke:none;font-family:URW Gothic L;-inkscape-font-specification:URW Gothic L Semi-Bold Oblique"
       d="m 524.3474,808.00589 -0.33881,2.9938 -4.03309,-0.49444 1.55117,3.71057 -2.72073,1.26159 -1.08732,-3.917 -2.69863,3.65491 -2.04287,-1.90082 2.7267,-3.2409 -3.98141,-0.21565 0.63577,-2.89846 3.84477,0.58371 -1.50042,-3.63968 2.68301,-1.25167 1.11172,3.8262 2.42956,-3.53935 2.21121,1.68797 -2.64512,3.21941 3.85448,0.15982 z"
       id="path3002-0-6-4-0" />
    <path
       inkscape:connector-curvature="0"
       style="font-size:1400.74536133px;font-style:oblique;font-variant:normal;font-weight:600;font-stretch:normal;line-height:125%;letter-spacing:0px;word-spacing:0px;fill:#906f6f;fill-opacity:1;stroke:none;font-family:URW Gothic L;-inkscape-font-specification:URW Gothic L Semi-Bold Oblique"
       d="m 517.40926,939.51158 -0.3388,2.9938 -4.0331,-0.49444 1.55117,3.71057 -2.72073,1.26159 -1.08732,-3.917 -2.69863,3.65491 -2.04287,-1.90083 2.7267,-3.2409 -3.98141,-0.21564 0.63577,-2.89846 3.84477,0.58371 -1.50042,-3.63968 2.68302,-1.25167 1.11171,3.8262 2.42956,-3.53935 2.21121,1.68797 -2.64512,3.21941 3.85448,0.15982 z"
       id="path3002-0-6-4-81" />
    <path
       inkscape:connector-curvature="0"
       style="font-size:1400.74536133px;font-style:oblique;font-variant:normal;font-weight:600;font-stretch:normal;line-height:125%;letter-spacing:0px;word-spacing:0px;fill:#906f6f;fill-opacity:1;stroke:none;font-family:URW Gothic L;-inkscape-font-specification:URW Gothic L Semi-Bold Oblique"
       d="m 523.64964,955.62198 -0.3388,2.9938 -4.03309,-0.49444 1.55116,3.71057 -2.72072,1.26159 -1.08732,-3.917 -2.69863,3.65491 -2.04288,-1.90083 2.72671,-3.24089 -3.98141,-0.21565 0.63577,-2.89846 3.84476,0.58371 -1.50041,-3.63968 2.68301,-1.25167 1.11172,3.8262 2.42956,-3.53935 2.21121,1.68797 -2.64512,3.21941 3.85448,0.15982 z"
       id="path3002-0-6-4-2" />
    <path
       inkscape:connector-curvature="0"
       style="font-size:1400.74536133px;font-style:oblique;font-variant:normal;font-weight:600;font-stretch:normal;line-height:125%;letter-spacing:0px;word-spacing:0px;fill:#906f6f;fill-opacity:1;stroke:none;font-family:URW Gothic L;-inkscape-font-specification:URW Gothic L Semi-Bold Oblique"
       d="m 536.72176,969.6303 -0.3388,2.99379 -4.0331,-0.49443 1.55117,3.71057 -2.72073,1.26159 -1.08732,-3.917 -2.69862,3.65491 -2.04288,-1.90083 2.7267,-3.2409 -3.98141,-0.21564 0.63577,-2.89846 3.84477,0.5837 -1.50042,-3.63967 2.68302,-1.25167 1.11171,3.8262 2.42956,-3.53936 2.21121,1.68798 -2.64512,3.2194 3.85448,0.15983 z"
       id="path3002-0-6-4-4" />
    <g
       id="g2929-4-4"
       transform="matrix(0.88780677,-0.27322496,0.34300814,0.84205552,1242.7873,571.33851)"
       style="fill:#916f6f;fill-opacity:0.91207467">
      <path
         inkscape:connector-curvature="0"
         clip-rule="evenodd"
         d="m 333.93892,314.36543 c -14.30601,-20.30657 -12.96813,-49.42193 8.74255,-70.2981 21.71068,-20.87616 58.15124,-20.41254 80.52424,9.80227 22.73064,30.70491 21.65769,83.6901 -12.16011,116.27598 -33.83104,32.59914 -89.99533,30.38701 -122.76667,-17.32615 -31.97656,-46.56073 -28.18812,-123.54821 20.83642,-170.67853 48.97156,-47.07734 131.68143,-47.10383 183.77912,20.61123 54.07139,70.27161 53.4753,194.29668 -25.79054,270.75431 -50.66708,48.89208 -278.09275,105.46701 -407.164664,-0.96698 l -0.05299,-1.49683 C 197.29011,579.37084 410.86015,501.7343 456.74533,457.47842 c 71.79493,-69.2384 72.62944,-181.60673 23.79035,-245.52011 -47.22305,-61.79397 -122.515,-61.93969 -167.14177,-19.03493 -44.66652,42.94449 -48.01783,113.09688 -18.84948,155.43205 29.83065,43.28889 80.84215,45.22285 111.54706,15.64387 30.69167,-29.57897 31.72488,-77.67628 11.11364,-105.59947 -20.30657,-27.51256 -53.44881,-27.97618 -73.19903,-8.98099 -19.75023,19.00843 -20.96889,45.05065 -7.93453,63.51599 13.15356,18.65078 12.3323,21.96236 -2.13265,1.4306 z"
         id="path5-7-9"
         style="fill:#906f6f;fill-opacity:0.95890409;fill-rule:evenodd" />
      <path
         inkscape:connector-curvature="0"
         clip-rule="evenodd"
         d="m 475.92596,574.53462 c -2.02668,12.37204 6.11979,27.49931 20.58475,32.13551 14.45171,4.62296 30.86387,-3.64273 34.37414,-22.24053 3.56326,-18.90246 -8.55711,-42.65308 -31.08906,-49.99152 -22.61143,-7.3517 -47.75289,6.0668 -52.12417,35.00996 -4.25206,28.21461 14.54443,62.24434 47.23629,72.62944 32.54615,10.34536 69.9272,-7.97427 78.66976,-49.95178 9.06047,-43.60681 -18.29314,-99.65189 -71.09288,-117.04428 -33.92376,-11.17987 -60.54882,-5.48396 -85.67704,16.06776 l 6.84833,7.97427 c 22.82337,-19.43231 46.93163,-24.55864 77.64979,-14.45171 47.83238,15.72336 72.77515,66.43018 64.68167,106.02336 -7.82857,38.26855 -41.83181,55.01187 -71.50351,45.56726 -29.79092,-9.4711 -46.87864,-40.50717 -42.95774,-66.1785 4.01362,-26.28065 26.85024,-38.42751 47.36875,-31.75137 20.45229,6.64964 31.48645,28.20136 28.28085,45.38181 -3.16587,16.91552 -18.09444,24.45267 -31.23477,20.24034 -13.18007,-4.21232 -20.58475,-17.98847 -18.73026,-29.24782 1.86772,-11.364 0.75503,-12.68863 -1.2849,-0.1722 z"
         id="path7-2-1"
         style="fill:#906f6f;fill-opacity:0.95890409;fill-rule:evenodd" />
      <path
         inkscape:connector-curvature="0"
         clip-rule="evenodd"
         d="m 300.12244,565.09133 c -8.09348,1.11269 -15.98828,9.1267 -16.14723,19.08792 -0.17221,9.94796 8.08024,18.65078 20.31982,17.27316 12.43827,-1.4041 24.96926,-13.59069 25.28718,-29.1286 0.33115,-15.57765 -12.74294,-28.75771 -31.59242,-25.923 -18.39911,2.75523 -36.05642,21.10135 -36.37433,43.59356 -0.31791,22.39948 18.10769,42.29542 45.91166,39.68591 28.87693,-2.70225 58.64135,-30.65194 59.5421,-67.0925 0.58284,-23.41945 -7.96102,-39.01034 -26.1217,-50.6141 l -3.66922,5.82837 c 16.39892,10.57055 24.12151,24.6911 23.6049,45.88518 -0.80802,33.02301 -27.698,58.42941 -53.89918,60.9727 -25.30042,2.46381 -42.12322,-15.63063 -41.8318,-36.05642 0.30466,-20.49202 16.42541,-37.18235 33.15548,-39.67266 17.12746,-2.54329 28.9829,9.43137 28.69148,23.57841 -0.29142,14.1073 -11.6435,25.18121 -22.95584,26.4661 -11.12689,1.28489 -18.63754,-6.62315 -18.49182,-15.68362 0.15895,-9.06046 7.35169,-16.35917 14.70338,-17.36589 7.43118,-1.02129 8.05243,-1.96178 -0.13246,-0.83452 z"
         id="path9-2-7"
         style="fill:#906f6f;fill-opacity:0.95890409;fill-rule:evenodd" />
      <path
         inkscape:connector-curvature="0"
         clip-rule="evenodd"
         d="m 240.64524,485.30888 c 3.37781,-4.58321 3.19237,-12.39852 -1.73526,-17.25992 -4.91438,-4.84814 -13.28604,-4.88788 -18.54482,1.90747 -5.33825,6.91456 -5.31176,19.03493 2.33136,26.66479 7.6696,7.64312 20.63772,7.40468 28.37356,-3.41754 7.55039,-10.54405 6.92781,-28.20137 -4.21232,-39.15605 -11.08715,-10.9017 -30.0426,-11.20637 -42.24245,3.98713 -12.66345,15.77634 -13.10058,44.11017 4.75543,62.05891 11.47129,11.52427 23.45919,14.71662 38.09635,11.17986 l -1.13919,-4.64944 c -13.27278,3.16586 -24.1215,0.25168 -34.5066,-10.17316 -16.18697,-16.23996 -15.86906,-41.91128 -4.41101,-56.27027 11.06065,-13.88211 28.32058,-13.63044 38.4275,-3.68246 10.14667,9.97445 10.68976,26.06871 3.80169,35.65902 -7.04703,9.80226 -18.82299,10.00096 -25.77729,3.07314 -6.94106,-6.91456 -6.9808,-17.92224 -2.13266,-24.21423 4.76867,-6.19927 12.38529,-6.17277 16.86254,-1.74851 4.47725,4.42426 4.64945,11.53753 1.57631,15.71011 -3.09963,4.21232 -2.92744,4.98061 0.47686,0.33115 z"
         id="path11-3-0"
         style="fill:#906f6f;fill-opacity:0.95890409;fill-rule:evenodd" />
      <path
         inkscape:connector-curvature="0"
         clip-rule="evenodd"
         d="m 352.91905,390.23881 c 7.48416,-7.96102 18.01497,-35.30138 17.3394,-50.7598 -1.01996,-23.31349 -13.2198,-25.81704 -25.08848,-25.47263 -15.89556,0.45037 -19.684,4.49049 -19.10116,16.23996 0.9789,19.48398 37.89633,44.21481 26.85024,59.99247 z"
         id="path13-0-8"
         style="fill:#906f6f;fill-opacity:0.95890409;fill-rule:evenodd" />
      <path
         inkscape:connector-curvature="0"
         clip-rule="evenodd"
         d="m 461.71269,368.71499 c 5.61643,15.33921 -13.14033,56.86635 -28.02916,73.54343 -22.05509,24.6911 -41.38144,21.6577 -53.39582,10.54406 -15.92205,-14.74313 -16.33269,-22.50546 -5.62968,-34.82452 18.00171,-20.73046 84.41997,-20.97021 87.05466,-49.26297 z"
         id="path15-0-1"
         style="fill:#906f6f;fill-opacity:0.95890409;fill-rule:evenodd" />
      <path
         inkscape:connector-curvature="0"
         clip-rule="evenodd"
         d="m 464.7196,188.89651 c -9.21942,-5.70916 -26.42637,-29.24783 -29.79092,-44.1499 -5.02035,-22.21405 4.45075,-32.215 15.57764,-34.86426 14.80936,-3.51027 31.48645,4.22557 21.93587,10.30562 -18.98194,12.08062 -22.41273,56.37491 -7.72259,68.70854 z"
         id="path17-4-3"
         style="fill:#906f6f;fill-opacity:0.95890409;fill-rule:evenodd" />
      <path
         inkscape:connector-curvature="0"
         clip-rule="evenodd"
         d="m 493.95418,205.78554 c -6.59666,-4.1196 -18.88922,-21.08811 -21.30005,-31.8441 -3.5765,-16.01477 3.19235,-23.234 11.14013,-25.14147 10.58379,-2.53004 22.50546,3.04665 15.67037,7.43117 -13.56288,8.71474 -16.01477,40.66613 -5.51045,49.5544 z"
         id="path19-6-5"
         style="fill:#906f6f;fill-opacity:0.95890409;fill-rule:evenodd" />
      <path
         inkscape:connector-curvature="0"
         clip-rule="evenodd"
         d="m 572.80938,573.37026 c -1.61605,4.6892 -0.76829,18.14743 2.5168,24.55864 4.92762,9.6433 11.4448,10.47782 16.26645,8.09349 6.39796,-3.13937 9.96122,-10.88846 4.71568,-10.27913 -10.49107,1.23058 -25.10173,-13.75098 -23.49893,-22.373 z"
         id="path21-0-3"
         style="fill:#906f6f;fill-opacity:0.95890409;fill-rule:evenodd" />
      <path
         inkscape:connector-curvature="0"
         clip-rule="evenodd"
         d="m 219.12001,449.75583 c 3.03341,-0.45038 10.08044,-4.53024 12.55749,-7.84181 3.5765,-4.80841 2.29161,-8.14648 -0.13246,-9.9069 -3.21885,-2.33136 -8.09349,-2.26512 -6.4377,0.11921 3.32482,4.81901 -0.78153,16.09292 -5.98733,17.6295 z"
         id="path23-6-1"
         style="fill:#906f6f;fill-opacity:0.95890409;fill-rule:evenodd" />
      <path
         inkscape:connector-curvature="0"
         clip-rule="evenodd"
         d="m 541.60111,389.74878 c 21.79015,3.88116 79.84867,-8.26569 105.20208,-26.10845 37.76519,-26.55883 37.16911,-54.44228 24.06852,-73.51694 -17.49835,-25.47263 -28.16162,-27.48607 -47.09058,-14.39873 -31.75137,21.95043 -43.10345,115.33683 -82.18002,114.02412 z"
         id="path25-3-0"
         style="fill:#906f6f;fill-opacity:0.95890409;fill-rule:evenodd" />
      <path
         inkscape:connector-curvature="0"
         clip-rule="evenodd"
         d="m 506.67062,448.81534 c 13.12708,12.35879 58.41617,29.88364 83.94179,28.89017 38.10959,-1.48358 50.22995,-21.07485 49.68685,-40.13628 -0.7153,-25.35341 -7.19274,-31.45995 -26.12169,-30.82413 -31.6719,1.0862 -81.3985,60.36338 -107.50695,42.07024 z"
         id="path27-4-0"
         style="fill:#906f6f;fill-opacity:0.95890409;fill-rule:evenodd" />
      <path
         inkscape:connector-curvature="0"
         clip-rule="evenodd"
         d="m 332.5613,631.70696 c 2.21213,2.34459 2.10616,6.04031 -0.22519,8.2392 -2.33135,2.19888 -6.01382,2.09291 -8.22595,-0.26493 -2.21213,-2.34459 -2.11941,-6.02706 0.21194,-8.22595 2.34459,-2.21213 6.02707,-2.09292 8.2392,0.25168 z"
         id="path35-3-2"
         style="fill:#906f6f;fill-opacity:0.95890409;fill-rule:evenodd" />
      <path
         id="path3002-0-61"
         d="m 513.40558,208.30227 -1.26343,4.68553 6.07432,1.12941 -4.39323,4.88992 3.1655,3.17439 3.84843,-5.418 1.73563,6.78378 4.04099,-1.92399 -2.01756,-6.17069 5.8371,1.52699 0.78187,-4.67956 -5.85623,-0.90673 4.27897,-4.80633 -3.11731,-3.14184 -3.8306,5.26935 -1.41695,-6.48379 -4.15806,1.5237 1.91305,6.10022 -5.62249,-1.55235 z"
         style="font-size:1400.74536132999992333px;font-style:oblique;font-variant:normal;font-weight:600;font-stretch:normal;line-height:125%;letter-spacing:0px;word-spacing:0px;fill:#906f6f;fill-opacity:0.95890409;stroke:none;font-family:URW Gothic L;-inkscape-font-specification:URW Gothic L Semi-Bold Oblique"
         inkscape:connector-curvature="0" />
      <path
         id="path3002-0-4-1"
         d="m 526.33018,235.36223 -1.2634,4.68553 6.0743,1.12941 -4.3932,4.88992 3.1655,3.17439 3.8484,-5.418 1.7356,6.78378 4.041,-1.92399 -2.0175,-6.17069 5.8371,1.52699 0.7818,-4.67956 -5.8562,-0.90673 4.279,-4.80633 -3.1173,-3.14184 -3.8306,5.26935 -1.417,-6.48379 -4.1581,1.5237 1.9131,6.10022 -5.6225,-1.55235 z"
         style="font-size:1400.74536132999992333px;font-style:oblique;font-variant:normal;font-weight:600;font-stretch:normal;line-height:125%;letter-spacing:0px;word-spacing:0px;fill:#906f6f;fill-opacity:0.95890409;stroke:none;font-family:URW Gothic L;-inkscape-font-specification:URW Gothic L Semi-Bold Oblique"
         inkscape:connector-curvature="0" />
      <path
         id="path3002-0-1-1"
         d="m 532.22941,264.26798 -1.2634,4.68553 6.0743,1.12941 -4.3932,4.88992 3.1655,3.17439 3.8484,-5.418 1.7356,6.78378 4.041,-1.92399 -2.0175,-6.17069 5.8371,1.52699 0.7818,-4.67956 -5.8562,-0.90673 4.279,-4.80633 -3.1173,-3.14184 -3.8306,5.26935 -1.417,-6.48379 -4.1581,1.5237 1.9131,6.10022 -5.6225,-1.55235 z"
         style="font-size:1400.74536132999992333px;font-style:oblique;font-variant:normal;font-weight:600;font-stretch:normal;line-height:125%;letter-spacing:0px;word-spacing:0px;fill:#906f6f;fill-opacity:0.95890409;stroke:none;font-family:URW Gothic L;-inkscape-font-specification:URW Gothic L Semi-Bold Oblique"
         inkscape:connector-curvature="0" />
      <path
         id="path3002-0-6-29"
         d="m 193.90573,447.89106 -0.74267,2.75433 3.5707,0.66391 -2.58249,2.87447 1.8608,1.86602 2.26223,-3.1849 1.02025,3.98776 2.37545,-1.13099 -1.18596,-3.62736 3.43126,0.89762 0.45957,-2.75082 -3.44249,-0.53301 2.51535,-2.82533 -1.83246,-1.84689 -2.25177,3.09751 -0.83296,-3.81141 -2.44429,0.89569 1.12459,3.58593 -3.30511,-0.91252 z"
         style="font-size:1400.74536132999992333px;font-style:oblique;font-variant:normal;font-weight:600;font-stretch:normal;line-height:125%;letter-spacing:0px;word-spacing:0px;fill:#906f6f;fill-opacity:0.95890409;stroke:none;font-family:URW Gothic L;-inkscape-font-specification:URW Gothic L Semi-Bold Oblique"
         inkscape:connector-curvature="0" />
      <path
         id="path3002-0-6-2-1"
         d="m 184.15509,463.3729 -0.7427,2.75433 3.5707,0.66391 -2.5825,2.87447 1.8608,1.86602 2.2623,-3.1849 1.0202,3.98776 2.3755,-1.13099 -1.186,-3.62736 3.4313,0.89762 0.4595,-2.75082 -3.4425,-0.53301 2.5154,-2.82533 -1.8325,-1.84689 -2.2517,3.09751 -0.833,-3.81141 -2.4443,0.89569 1.1246,3.58593 -3.3051,-0.91252 z"
         style="font-size:1400.74536132999992333px;font-style:oblique;font-variant:normal;font-weight:600;font-stretch:normal;line-height:125%;letter-spacing:0px;word-spacing:0px;fill:#906f6f;fill-opacity:0.95890409;stroke:none;font-family:URW Gothic L;-inkscape-font-specification:URW Gothic L Semi-Bold Oblique"
         inkscape:connector-curvature="0" />
      <path
         id="path3002-0-6-23-7"
         d="m 181.89075,485.43109 -0.7427,2.75433 3.5707,0.66391 -2.5825,2.87447 1.8608,1.86602 2.2623,-3.1849 1.0202,3.98776 2.3755,-1.13099 -1.186,-3.62736 3.4313,0.89762 0.4595,-2.75082 -3.4425,-0.53301 2.5154,-2.82533 -1.8325,-1.84689 -2.2517,3.09751 -0.833,-3.81141 -2.4443,0.89569 1.1246,3.58593 -3.3051,-0.91252 z"
         style="font-size:1400.74536132999992333px;font-style:oblique;font-variant:normal;font-weight:600;font-stretch:normal;line-height:125%;letter-spacing:0px;word-spacing:0px;fill:#906f6f;fill-opacity:0.95890409;stroke:none;font-family:URW Gothic L;-inkscape-font-specification:URW Gothic L Semi-Bold Oblique"
         inkscape:connector-curvature="0" />
      <path
         id="path3002-0-6-9-4"
         d="m 641.35553,374.22645 -0.7427,2.75433 3.5707,0.66391 -2.5825,2.87447 1.8608,1.86602 2.2623,-3.1849 1.0202,3.98776 2.3755,-1.13099 -1.186,-3.62736 3.4313,0.89762 0.4595,-2.75082 -3.4425,-0.53301 2.5154,-2.82533 -1.8325,-1.84689 -2.2517,3.09751 -0.833,-3.81141 -2.4443,0.89569 1.1246,3.58593 -3.3051,-0.91252 z"
         style="font-size:1400.74536132999992333px;font-style:oblique;font-variant:normal;font-weight:600;font-stretch:normal;line-height:125%;letter-spacing:0px;word-spacing:0px;fill:#906f6f;fill-opacity:0.95890409;stroke:none;font-family:URW Gothic L;-inkscape-font-specification:URW Gothic L Semi-Bold Oblique"
         inkscape:connector-curvature="0"
         inkscape:transform-center-x="18.182746" />
      <path
         id="path3002-0-6-6-9"
         d="m 657.62728,363.03265 -0.7427,2.75433 3.5707,0.66391 -2.5825,2.87447 1.8608,1.86602 2.2623,-3.1849 1.0202,3.98776 2.3755,-1.13099 -1.186,-3.62736 3.4313,0.89762 0.4595,-2.75082 -3.4425,-0.53301 2.5154,-2.82533 -1.8325,-1.84689 -2.2517,3.09751 -0.833,-3.81141 -2.4443,0.89569 1.1246,3.58593 -3.3051,-0.91252 z"
         style="font-size:1400.74536132999992333px;font-style:oblique;font-variant:normal;font-weight:600;font-stretch:normal;line-height:125%;letter-spacing:0px;word-spacing:0px;fill:#906f6f;fill-opacity:0.95890409;stroke:none;font-family:URW Gothic L;-inkscape-font-specification:URW Gothic L Semi-Bold Oblique"
         inkscape:connector-curvature="0" />
      <path
         id="path3002-0-6-0-9"
         d="m 670.81453,347.26926 -0.7427,2.75433 3.5707,0.66391 -2.5825,2.87447 1.8608,1.86602 2.2623,-3.1849 1.0202,3.98776 2.3755,-1.13099 -1.186,-3.62736 3.4313,0.89762 0.4595,-2.75082 -3.4425,-0.53301 2.5154,-2.82533 -1.8325,-1.84689 -2.2517,3.09751 -0.833,-3.81141 -2.4443,0.89569 1.1246,3.58593 -3.3051,-0.91252 z"
         style="font-size:1400.74536132999992333px;font-style:oblique;font-variant:normal;font-weight:600;font-stretch:normal;line-height:125%;letter-spacing:0px;word-spacing:0px;fill:#906f6f;fill-opacity:0.95890409;stroke:none;font-family:URW Gothic L;-inkscape-font-specification:URW Gothic L Semi-Bold Oblique"
         inkscape:connector-curvature="0" />
      <path
         id="path3002-0-6-4-3"
         d="m 570.69856,487.8294 -0.88156,3.26932 4.23833,0.78804 -3.06536,3.41192 2.20872,2.21492 2.68529,-3.7804 1.21095,4.73337 2.81966,-1.34245 -1.40776,-4.30559 4.07287,1.06546 0.54541,-3.26516 -4.08615,-0.63267 2.98571,-3.35359 -2.17513,-2.19221 -2.67271,3.67666 -0.98875,-4.52404 -2.90132,1.06316 1.33487,4.25641 -3.92307,-1.08314 z"
         style="font-size:1400.74536132999992333px;font-style:oblique;font-variant:normal;font-weight:600;font-stretch:normal;line-height:125%;letter-spacing:0px;word-spacing:0px;fill:#906f6f;fill-opacity:0.95890409;stroke:none;font-family:URW Gothic L;-inkscape-font-specification:URW Gothic L Semi-Bold Oblique"
         inkscape:connector-curvature="0" />
      <path
         id="path3002-0-6-4-8-3"
         d="m 591.8584,487.49747 -0.8815,3.26932 4.2383,0.78804 -3.0654,3.41192 2.2088,2.21492 2.6853,-3.7804 1.2109,4.73337 2.8197,-1.34245 -1.4078,-4.30559 4.0729,1.06546 0.5454,-3.26516 -4.0862,-0.63267 2.9857,-3.35359 -2.1751,-2.19221 -2.6727,3.67666 -0.9887,-4.52404 -2.9014,1.06316 1.3349,4.25641 -3.9231,-1.08314 z"
         style="font-size:1400.74536132999992333px;font-style:oblique;font-variant:normal;font-weight:600;font-stretch:normal;line-height:125%;letter-spacing:0px;word-spacing:0px;fill:#906f6f;fill-opacity:0.95890409;stroke:none;font-family:URW Gothic L;-inkscape-font-specification:URW Gothic L Semi-Bold Oblique"
         inkscape:connector-curvature="0" />
      <path
         id="path3002-0-6-4-0-1"
         d="m 613.48307,480.11858 -0.8815,3.26932 4.2383,0.78804 -3.0654,3.41192 2.2088,2.21492 2.6853,-3.7804 1.2109,4.73337 2.8197,-1.34245 -1.4078,-4.30559 4.0729,1.06546 0.5454,-3.26516 -4.0862,-0.63267 2.9857,-3.35359 -2.1751,-2.19221 -2.6727,3.67666 -0.9887,-4.52404 -2.9014,1.06316 1.3349,4.25641 -3.9231,-1.08314 z"
         style="font-size:1400.74536132999992333px;font-style:oblique;font-variant:normal;font-weight:600;font-stretch:normal;line-height:125%;letter-spacing:0px;word-spacing:0px;fill:#906f6f;fill-opacity:0.95890409;stroke:none;font-family:URW Gothic L;-inkscape-font-specification:URW Gothic L Semi-Bold Oblique"
         inkscape:connector-curvature="0" />
      <path
         id="path3002-0-6-4-81-9"
         d="m 566.81104,621.14696 -0.8815,3.26932 4.2383,0.78804 -3.0654,3.41192 2.2088,2.21492 2.6853,-3.7804 1.2109,4.73337 2.8197,-1.34245 -1.4078,-4.30559 4.0729,1.06546 0.5454,-3.26516 -4.0862,-0.63267 2.9857,-3.35359 -2.1751,-2.19221 -2.6727,3.67666 -0.9887,-4.52404 -2.9014,1.06316 1.3349,4.25641 -3.9231,-1.08314 z"
         style="font-size:1400.74536132999992333px;font-style:oblique;font-variant:normal;font-weight:600;font-stretch:normal;line-height:125%;letter-spacing:0px;word-spacing:0px;fill:#906f6f;fill-opacity:0.95890409;stroke:none;font-family:URW Gothic L;-inkscape-font-specification:URW Gothic L Semi-Bold Oblique"
         inkscape:connector-curvature="0" />
      <path
         id="path3002-0-6-4-2-9"
         d="m 553.99666,636.12126 -0.8815,3.26932 4.2383,0.78804 -3.0654,3.41192 2.2088,2.21492 2.6853,-3.7804 1.2109,4.73337 2.8197,-1.34245 -1.4078,-4.30559 4.0729,1.06546 0.5454,-3.26516 -4.0862,-0.63267 2.9857,-3.35359 -2.1751,-2.19221 -2.6727,3.67666 -0.9887,-4.52404 -2.9014,1.06316 1.3349,4.25641 -3.9231,-1.08314 z"
         style="font-size:1400.74536132999992333px;font-style:oblique;font-variant:normal;font-weight:600;font-stretch:normal;line-height:125%;letter-spacing:0px;word-spacing:0px;fill:#906f6f;fill-opacity:0.95890409;stroke:none;font-family:URW Gothic L;-inkscape-font-specification:URW Gothic L Semi-Bold Oblique"
         inkscape:connector-curvature="0" />
      <path
         id="path3002-0-6-4-4-1"
         d="m 535.20147,646.65857 -0.8815,3.26932 4.2383,0.78804 -3.0654,3.41192 2.2088,2.21492 2.6853,-3.7804 1.2109,4.73337 2.8197,-1.34245 -1.4078,-4.30559 4.0729,1.06546 0.5454,-3.26516 -4.0862,-0.63267 2.9857,-3.35359 -2.1751,-2.19221 -2.6727,3.67666 -0.9887,-4.52404 -2.9014,1.06316 1.3349,4.25641 -3.9231,-1.08314 z"
         style="font-size:1400.74536132999992333px;font-style:oblique;font-variant:normal;font-weight:600;font-stretch:normal;line-height:125%;letter-spacing:0px;word-spacing:0px;fill:#906f6f;fill-opacity:0.95890409;stroke:none;font-family:URW Gothic L;-inkscape-font-specification:URW Gothic L Semi-Bold Oblique"
         inkscape:connector-curvature="0" />
      <g
         id="g5504"
         transform="translate(18.905567,1.0447751)">
        <g
           id="g3096">
          <g
             id="g3093">
            <path
               transform="matrix(1.6815067,0.54560488,-0.61707699,1.5971782,-2368.0721,-1042.5313)"
               d="m 2040,228.71428 c 0,43.78829 -31.9797,79.28571 -71.4286,79.28571 -39.4489,0 -71.4286,-35.49742 -71.4286,-79.28571 0,-43.78829 31.9797,-79.28571 71.4286,-79.28571 39.4489,0 71.4286,35.49742 71.4286,79.28571 z"
               sodipodi:ry="79.285713"
               sodipodi:rx="71.428574"
               sodipodi:cy="228.71428"
               sodipodi:cx="1968.5714"
               id="path5502"
               style="fill:#b24a4a;fill-opacity:1;stroke:#000000;stroke-width:0;stroke-miterlimit:4;stroke-opacity:1;stroke-dasharray:none"
               sodipodi:type="arc" />
          </g>
          <g
             transform="matrix(0.2044202,0.066329,-0.08568091,0.22176761,743.69869,251.29576)"
             style="fill:#ffa880;fill-opacity:1"
             id="g5411">
            <path
               id="path3941"
               inkscape:connector-curvature="0"
               style="fill:#a52227;fill-opacity:1"
               d="m 496.86314,-40.940254 c -154.15525,0 -286.76995,53.86041 -397.881836,161.559164 -111.111915,107.69876 -166.677652,236.24704 -166.677652,385.66688 0,149.41988 55.565737,278.0052 166.677652,385.70394 111.111886,107.69875 243.726586,161.52217 397.881836,161.52217 154.15523,0 286.28274,-53.82342 396.39362,-161.52217 110.11084,-107.69874 165.18944,-236.28406 165.18944,-385.70394 0,-149.41984 -55.0786,-277.96812 -165.18944,-385.66688 C 783.14588,12.920156 651.01837,-40.940254 496.86314,-40.940254 z M 486.71289,61.664627 c 121.21623,-0.965891 226.20354,40.245383 314.92458,123.577923 90.12937,84.65531 136.4421,186.8598 138.9362,306.6289 2.49411,119.76913 -39.54274,223.63238 -126.07668,311.6313 C 727.96307,891.50167 622.89328,936.67182 499.22897,939.01234 375.56467,941.3529 268.25365,900.22273 177.32132,815.58263 86.388947,730.94254 39.658138,628.72287 37.164044,508.95373 34.669916,389.18464 77.124832,285.29952 164.46181,197.28537 251.79874,109.2713 357.28659,64.07929 480.9509,61.738734 c 1.93226,-0.03648 3.83792,-0.05876 5.76199,-0.07406 z" />
            <g
               style="fill:#a52227;fill-opacity:1"
               transform="matrix(1.3854181,0,0,1.3239257,-162.66728,-114.82074)"
               id="g4065">
              <path
                 inkscape:connector-curvature="0"
                 style="font-size:1400.74536133px;font-style:oblique;font-variant:normal;font-weight:600;font-stretch:normal;line-height:125%;letter-spacing:0px;word-spacing:0px;fill:#a52227;fill-opacity:1;stroke:none;font-family:URW Gothic L;-inkscape-font-specification:URW Gothic L Semi-Bold Oblique"
                 d="m 401.55302,339.36787 c -2.1443,1.78269 -4.26511,3.59105 -6.38111,5.41638 -63.47841,54.76206 -114.39265,128.33446 -117.61488,206.66378 -3.43704,83.55128 51.47005,162.12136 179.35276,214.74667 l 42.75596,-70.54715 C 386.23471,648.96932 355.53489,592.13811 357.66481,540.36122 359.79477,488.5843 398.83341,431.4702 452.91118,388.04836 l -44.88111,-53.94852 c -2.1666,1.73964 -4.33271,3.48536 -6.47707,5.26801 z"
                 id="path3004" />
              <path
                 sodipodi:nodetypes="ssccssccscs"
                 inkscape:connector-curvature="0"
                 style="font-size:1400.74536133px;font-style:oblique;font-variant:normal;font-weight:600;font-stretch:normal;line-height:125%;letter-spacing:0px;word-spacing:0px;fill:#a52227;fill-opacity:1;stroke:none;font-family:URW Gothic L;-inkscape-font-specification:URW Gothic L Semi-Bold Oblique"
                 d="m 465.90773,424.84443 c -43.93313,51.54073 -76.85883,144.51181 -68.73633,203.4287 8.66398,62.84464 35.18297,109.82773 59.52797,133.93292 l 56.98702,-58.70399 c -8.20605,-8.12528 -46.90804,-52.52802 -42.05098,-98.02612 11.05677,-103.57348 112.35886,-196.048 124.21521,-214.81128 32.1183,-50.82886 19.53445,-91.29777 -14.44127,-129.33593 -17.67035,10.99425 -59.72702,33.25369 -68.8824,40.02917 20.79348,26.50569 11.8766,48.31707 11.01831,53.65833 -4.73141,29.44432 11.52343,-22.72476 -3.83876,6.19385 -14.96469,19.56497 -8.37804,10.3484 -53.79877,63.63435 z"
                 id="path3000" />
              <path
                 inkscape:connector-curvature="0"
                 style="font-size:1400.74536133px;font-style:oblique;font-variant:normal;font-weight:600;font-stretch:normal;line-height:125%;letter-spacing:0px;word-spacing:0px;fill:#a52227;fill-opacity:1;stroke:none;font-family:URW Gothic L;-inkscape-font-specification:URW Gothic L Semi-Bold Oblique"
                 d="m 574.19191,525.74528 -0.0924,9.02159 -16.92432,1.18133 8.06202,9.88651 -10.69778,5.48801 -6.24756,-10.80958 -9.58333,12.4962 -9.27696,-4.25157 9.87098,-11.30915 -16.63687,1.9884 1.37461,-8.94662 16.18442,-0.78727 -7.79321,-9.73379 10.54639,-5.41789 6.31343,10.52188 8.49734,-11.9962 9.9119,3.51463 -9.55679,11.19794 16.04816,-2.04442 z"
                 id="path3006-6" />
              <path
                 inkscape:connector-curvature="0"
                 style="font-size:1400.74536133px;font-style:oblique;font-variant:normal;font-weight:600;font-stretch:normal;line-height:125%;letter-spacing:0px;word-spacing:0px;fill:#a52227;fill-opacity:1;stroke:none;font-family:URW Gothic L;-inkscape-font-specification:URW Gothic L Semi-Bold Oblique"
                 d="m 675.82112,540.2984 c 0.59944,1.48841 1.17282,2.98576 1.7358,4.49149 16.88797,45.17258 17.65071,97.96432 -14.06344,142.45414 -33.82845,47.45583 -102.73116,78.72302 -207.00467,78.73071 l 3.13771,-49.2274 c 92.48984,-0.007 136.57685,-24.69455 157.54041,-54.10301 20.96355,-29.40848 20.68147,-70.27893 4.90176,-106.95754 l 51.89145,-19.81906 c 0.63222,1.46948 1.26151,2.94226 1.861,4.43067 z"
                 id="path3004-6" />
              <path
                 inkscape:connector-curvature="0"
                 style="font-size:1400.74536133px;font-style:oblique;font-variant:normal;font-weight:600;font-stretch:normal;line-height:125%;letter-spacing:0px;word-spacing:0px;fill:#a52227;fill-opacity:1;stroke:none;font-family:URW Gothic L;-inkscape-font-specification:URW Gothic L Semi-Bold Oblique"
                 d="m 664.45419,495.1884 0.0423,9.6679 -17.60533,1.04228 8.53507,10.71052 -11.07679,5.73781 -6.64206,-11.66136 -9.78326,13.27746 -9.74408,-4.6811 10.11084,-11.98889 -17.24271,1.88885 1.28315,-9.55867 16.83924,-0.63897 -8.28104,-10.51951 10.9197,-5.68222 6.70224,11.35918 8.6825,-12.73919 10.36189,3.90065 -9.77045,11.86843 16.66876,-1.98317 z"
                 id="path3002-0-3" />
              <path
                 inkscape:connector-curvature="0"
                 style="font-size:1400.74536133px;font-style:oblique;font-variant:normal;font-weight:600;font-stretch:normal;line-height:125%;letter-spacing:0px;word-spacing:0px;fill:#a52227;fill-opacity:1;stroke:none;font-family:URW Gothic L;-inkscape-font-specification:URW Gothic L Semi-Bold Oblique"
                 d="m 585.88478,574.54056 c 18.09452,49.07027 -4.50595,95.88054 -35.1572,126.88772 -32.69465,33.07429 -70.77451,52.78226 -97.61908,60.2045 l -13.74236,-47.1917 c 9.04862,-2.50187 46.75292,-20.507 70.41508,-44.44402 23.66226,-23.93701 37.05459,-49.19377 20.48338,-83.72162 l 51.45477,-21.57615 c 1.57774,3.28739 2.95913,6.56993 4.16541,9.84127 z"
                 id="path3000-4" />
              <path
                 id="path3006-6-5"
                 d="m 497.15747,311.23832 -0.13469,12.31719 -24.67159,1.61287 11.75249,13.49806 -15.59479,7.49279 -9.10745,-14.75834 -13.97017,17.06108 -13.52359,-5.80467 14.38952,-15.4404 -24.25256,2.71477 2.00385,-12.21483 23.59299,-1.07486 -11.36063,-13.28957 15.37411,-7.39704 9.20346,14.36552 12.38708,-16.37841 14.44916,4.79853 -13.93151,15.28856 23.39435,-2.79125 z"
                 style="font-size:1400.74536133px;font-style:oblique;font-variant:normal;font-weight:600;font-stretch:normal;line-height:125%;letter-spacing:0px;word-spacing:0px;fill:#a52227;fill-opacity:1;stroke:none;font-family:URW Gothic L;-inkscape-font-specification:URW Gothic L Semi-Bold Oblique"
                 inkscape:connector-curvature="0" />
              <path
                 id="path3002-0-2"
                 d="m 552.77608,213.51827 0.41264,18.04639 -27.16063,1.34815 13.57033,20.28053 -16.9062,10.33373 -10.68001,-21.99105 -14.63705,24.45024 -15.22154,-9.06775 15.1894,-22.03402 -26.57003,2.94055 1.63897,-17.79755 25.99163,-0.62136 -13.17104,-19.9154 16.66551,-10.23529 10.76213,21.42904 12.95585,-23.48288 16.14795,7.63201 -14.66787,21.82074 25.67996,-3.13608 z"
                 style="font-size:1400.74536133px;font-style:oblique;font-variant:normal;font-weight:600;font-stretch:normal;line-height:125%;letter-spacing:0px;word-spacing:0px;fill:#a52227;fill-opacity:1;stroke:none;font-family:URW Gothic L;-inkscape-font-specification:URW Gothic L Semi-Bold Oblique"
                 inkscape:connector-curvature="0" />
            </g>
          </g>
        </g>
      </g>
      <g
         id="g6130"
         transform="matrix(0.9375,0,0,0.9375,-7.5257596,9.4054128)">
        <path
           transform="matrix(1.6471063,0.53444283,-0.63467539,1.642728,-867.31622,-622.39726)"
           d="m 789.93929,275.55573 c 0,113.53098 -87.06019,205.56604 -194.45437,205.56604 -107.39417,0 -194.45436,-92.03506 -194.45436,-205.56604 0,-113.53099 87.06019,-205.566045 194.45436,-205.566045 107.39418,0 194.45437,92.035055 194.45437,205.566045 z"
           sodipodi:ry="205.56604"
           sodipodi:rx="194.45436"
           sodipodi:cy="275.55573"
           sodipodi:cx="595.48492"
           id="path5620"
           style="fill:#ffebd8;fill-opacity:1;stroke:#000000;stroke-width:0;stroke-miterlimit:4;stroke-opacity:1;stroke-dasharray:none"
           sodipodi:type="arc" />
        <g
           style="fill:#dba988;fill-opacity:0.30136988"
           transform="matrix(1.3628283,0.44220212,-0.55514297,1.4368746,-269.06499,-331.69153)"
           id="g3043">
          <path
             style="fill:#dba988;fill-opacity:0.30136988"
             inkscape:connector-curvature="0"
             id="path3045"
             d="m 340.5,127 c 0.6,-0.3 1.3,-0.6 1.9,-0.9 0.6,-0.3 1.3,-0.3 1.3,-0.3 0,0 0.8,0 1,0.8 0.5,2.2 0.8,4 1.1,6.3 0.2,1.2 0.7,2.3 1.5,3.2 1.2,1.4 2.7,1.9 4.6,1.7 1.2,-0.1 2.4,-0.6 3.5,-1.2 1.7,-0.9 3.2,-2.1 4.7,-3.4 -0.2,-0.6 -0.3,-1.2 -0.4,-1.8 -1.2,-4.1 -3.2,-7.9 -6.2,-11 -1.4,-1.4 -2.9,-2.6 -4.8,-3.4 -0.7,-0.3 -1.3,-0.7 -1.8,-1.3 -0.5,-0.5 -0.9,-1.1 -1.3,-1.6 -0.4,-0.5 -0.9,-1 -1.4,-1.4 -0.2,-0.2 -0.6,-0.4 -0.9,-0.5 -1.3,-0.2 -2.4,0.2 -3.3,1.1 -0.4,0.5 -0.5,1 -0.2,1.6 0.5,1 0.7,2.1 1,3.2 0.1,0.2 0.1,0.5 0.1,0.8 -0.4,0.3 -0.8,0.7 -1.3,1 -0.4,0.3 -0.8,0.6 -1.3,1 -0.5,0.3 -0.9,0.7 -1.3,1 -0.4,0.3 -0.9,0.6 -1.2,1 -0.7,0.6 2.2,5.1 3.4,4.7 0.7,-0.3 0.7,-0.3 1.3,-0.6 z" />
          <path
             style="fill:#dba988;fill-opacity:0.30136988"
             inkscape:connector-curvature="0"
             id="path3047"
             d="m 284.9,96.7 c 1.2,1.1 2.5,2 4.1,2.4 2.5,0.7 5,1.2 7.6,1.5 0.3,0 0.6,0 0.9,0 0.1,-0.3 0.2,-0.5 0.2,-0.7 0.3,-1.1 0.7,-2.2 1,-3.3 0.1,-0.5 0.3,-0.9 0.8,-1.2 0.3,-0.2 0.5,-0.4 0.8,-0.6 1.5,-1.5 1.5,-2.9 0,-4.4 -1,-1 -2.2,-1.7 -3.5,-2.2 -0.3,0.1 -0.5,0.1 -0.7,0.2 -3.5,1.3 -6.9,2.6 -10.4,3.9 -0.2,0.1 -0.4,0.1 -0.6,0.2 -1.1,0.5 -1.6,1.9 -1.1,3 0.3,0.5 0.6,0.9 0.9,1.2 z" />
          <path
             style="fill:#dba988;fill-opacity:0.30136988"
             inkscape:connector-curvature="0"
             id="path3049"
             d="m 166.3,177.9 c 0.6,0 1.3,-0.2 1.8,-0.4 0.7,-0.3 0.9,-1 0.5,-1.6 -0.2,-0.2 -0.4,-0.5 -0.6,-0.6 -0.4,-0.2 -0.8,-0.4 -1.2,-0.5 -0.7,-0.2 -1.4,-0.3 -2.1,-0.4 -1.5,-0.2 -3,-0.3 -4.5,-0.4 -2.2,-0.1 -4.2,-0.8 -5.9,-2.2 -0.4,-0.3 -0.8,-0.6 -1.2,-0.9 -0.3,-0.3 -0.7,-0.5 -1.1,-0.7 -1,-0.6 -2.1,-1 -3.3,-0.9 -0.7,0.1 -1.5,0.1 -2.2,0.3 -0.8,0.2 -1.6,0.5 -2.3,1 -1,0.8 -2.2,3 -2.2,3.4 0,0.4 0.2,0.8 0.5,0.9 0.6,0.2 1.2,0.5 1.8,0.6 0.9,0.2 1.9,0.3 2.8,0.5 4.5,0.8 9.1,1.6 13.7,2 1.9,-0.1 3.7,0 5.5,-0.1 z" />
          <path
             style="fill:#dba988;fill-opacity:0.30136988"
             inkscape:connector-curvature="0"
             id="path3051"
             d="m 176.3,185.4 c -1,-0.6 -2,-1.3 -2.9,-1.9 -0.3,-0.2 -0.8,-0.3 -1,-0.3 -0.2,0 -0.5,0.1 -0.8,0.2 -2.5,1.1 -5,2.3 -7.4,3.4 -0.6,0.3 -1.2,0.6 -1.8,0.9 -0.2,0.1 -0.5,0.4 -0.7,0.6 -0.2,0.2 -0.1,0.5 0.1,0.6 0.3,0.1 0.7,0.3 1,0.3 1.2,0.2 2.5,0.1 3.7,0.1 1.1,0 2.3,-0.1 3.4,-0.1 2.5,0 4.8,0.5 7,1.7 0.3,0.1 0.6,0.3 0.9,0.4 0.3,0.1 0.5,-0.1 0.7,-0.3 0.1,-0.1 0.1,-0.2 0.2,-0.4 0.4,-1.3 0.7,-2.9 0.5,-3.4 -0.2,-0.5 -0.6,-0.9 -1.2,-1.1 -0.6,-0.1 -1.2,-0.4 -1.7,-0.7 z" />
          <path
             style="fill:#dba988;fill-opacity:0.30136988"
             inkscape:connector-curvature="0"
             id="path3053"
             d="m 255.6328,26.85902 c -126.74181,0 -229.508208,102.76638 -229.508208,229.50818 0,126.74181 102.766398,229.5082 229.508208,229.5082 126.7418,0 229.50819,-102.76639 229.50819,-229.5082 0,-126.7418 -102.76639,-229.50818 -229.50819,-229.50818 z M 116.49345,395.50655 C 79.40328,358.31393 58.911477,308.92868 58.911477,256.3672 c 0,-37.09016 10.245901,-72.64343 29.303278,-103.38114 0.10246,0.10246 0.10246,0.30737 0.204919,0.30737 0.204918,0.10246 0.307377,0.30738 0.409835,0.40984 0.204919,0.10246 0.307377,0.20492 0.512296,0.30738 -0.102459,0.61475 -0.102459,1.22951 -0.204919,1.84426 -0.409835,3.38115 -0.922131,6.65984 -1.331966,10.04098 -0.307377,2.04919 0.102458,3.9959 0.922131,5.84017 0.614754,1.43441 1.536885,2.76639 2.663934,3.9959 1.331967,1.53689 2.868852,2.76639 4.508202,3.89343 2.766401,1.94673 5.737713,3.38116 8.811483,4.61067 0.30737,0.10246 0.51229,0.20491 0.92213,0.30737 -0.10246,1.43442 -0.30738,2.7664 -0.5123,4.09836 -0.20491,1.33198 -0.51229,2.04918 -0.40983,3.17623 0.10246,0.71722 0.30737,1.43443 0.61475,1.63935 1.63934,1.43442 3.27869,2.97131 5.02049,4.40574 0.5123,0.40983 1.12705,2.45901 1.22951,3.07377 0.81967,3.58606 1.33196,5.43032 2.2541,9.01639 0.10246,0.61475 0.40984,1.12704 0.92213,1.43443 1.84426,1.33196 3.58606,2.76638 5.32787,4.09836 0.30738,0.20491 0.71721,0.51229 1.02459,0.61475 1.7418,0.92213 2.76639,2.2541 3.27869,4.09836 0.30737,1.12705 0.40983,2.2541 0.40983,3.4836 0,2.25411 -0.51229,4.30329 -1.12704,6.45493 -0.40984,1.53688 -1.12706,2.9713 -1.94673,4.20082 -1.33196,1.84425 -2.56148,3.68852 -3.89344,5.53279 -1.63935,2.25409 -3.27869,4.61065 -4.81558,6.86475 -0.61475,0.81967 -1.12704,1.84426 -1.63934,2.66394 -1.22951,1.94671 -1.74181,3.99589 -2.04918,6.25 -0.30738,2.56146 -0.40983,5.02048 -0.20492,7.58196 0.20492,2.35656 0.61475,4.61066 1.43443,6.76229 0.20492,0.5123 0.20492,0.92214 0.10246,1.53689 -0.5123,2.35655 -0.20492,4.50819 0.71721,6.65983 0.5123,1.33197 1.22951,2.56148 2.04918,3.68853 0.92213,1.22951 1.84426,2.35656 2.76639,3.58606 1.53689,1.84427 2.97131,3.58607 4.40574,5.53279 3.07378,4.09836 6.86476,7.37705 11.06557,10.14344 0.30738,0.20492 0.61476,0.40984 1.0246,0.61476 -0.10246,0.30737 -0.10246,0.5123 -0.20492,0.81967 -0.61476,1.84426 -1.02459,3.79098 -1.02459,5.84016 -0.10245,2.86886 0.51229,5.53279 2.15164,7.88935 0.71721,1.02459 1.2295,1.53688 2.76639,2.76639 0.10246,0.40984 0,0.81967 -0.10246,1.33197 -0.40983,3.27869 -0.92213,6.55738 -1.33197,9.83607 -0.20492,1.7418 -0.40982,3.4836 -0.71721,5.2254 -0.10246,0.71722 -0.20492,1.43443 -0.40983,2.04918 -0.71722,2.45902 -1.22951,4.91804 -1.53689,7.37705 -0.10246,1.63935 -0.20492,3.17623 0.10246,4.81558 0.20492,1.33196 0.71721,2.66393 1.7418,3.68852 -0.10246,0.81967 -0.20492,1.63935 -0.30737,2.45902 -0.30738,2.66394 -0.71722,5.22541 -1.02459,7.88934 -0.20492,1.22951 -0.40984,2.35656 -0.61476,3.48361 -0.40984,2.66393 -0.61476,5.32787 -0.5123,7.9918 0.10246,1.43443 0.20492,2.7664 0.61476,4.09836 0.30738,1.12706 0.71722,2.2541 1.43443,3.17623 0.20491,0.20492 0.30737,0.5123 0.30737,0.81968 0.51231,3.4836 0.92213,6.86475 1.43443,10.34836 0.30738,2.15164 0.61476,4.40573 0.92213,6.55737 0.10246,0.40984 0.20492,0.71721 0.30738,1.02459 2.45902,4.20083 3.4836,9.73361 6.65983,13.42214 1.94673,2.25409 4.81558,4.91802 7.17213,6.65983 0.81968,0.61475 2.15164,2.15164 3.58607,3.58607 -13.42213,-8.09427 -26.02459,-17.93033 -37.60246,-29.40574 z M 438.6246,196.01885 c -1.84426,-0.40984 -3.68853,-0.61477 -5.53278,-0.71723 -3.07378,-0.20491 -6.25001,-0.30737 -9.32378,-0.10246 -0.20491,0 -0.40982,0 -0.61475,0 -0.61476,0.10246 -1.12706,-0.10245 -1.53689,-0.51228 -4.71311,-3.68853 -9.42623,-7.27459 -14.13934,-10.96311 -0.61476,-0.40984 -1.12706,-0.81968 -1.74181,-1.33198 -0.71721,-0.51229 -1.43442,-0.92213 -2.2541,-1.2295 -1.84425,-0.61475 -3.68852,-0.92213 -5.63524,-1.22951 -2.86885,-0.30739 -5.63524,-0.30739 -8.5041,-0.20493 -0.71721,0 -1.33197,-0.10246 -1.94672,-0.30737 -2.56148,-1.02459 -5.32787,-1.7418 -8.09426,-2.15163 -2.56148,-0.40984 -5.12295,-0.5123 -7.78689,-0.40984 -2.86885,0.10246 -5.73771,0.5123 -8.5041,1.43442 -3.68852,1.12705 -7.37704,2.25411 -11.06557,3.38115 -0.61474,0.20492 -1.12705,0.5123 -1.53689,1.02458 -2.56147,3.07377 -5.12294,6.04509 -7.58196,9.11886 -0.40984,0.40983 -0.81967,0.71722 -1.33197,0.81968 -6.96722,1.63934 -12.09015,5.63524 -15.36884,12.09015 -0.30739,0.71723 -0.61477,1.33198 -0.92215,2.04919 -0.20491,0.40984 -0.30737,0.81967 -0.40983,1.22951 -0.20492,0.61476 -0.10246,1.22951 0.20492,1.84426 0.10245,0.10246 0.10245,0.20492 0.20491,0.40984 0.5123,0.92213 0.71722,1.84426 0.71722,2.86885 0.10247,1.63935 -0.10246,3.27869 -0.30738,4.91804 -0.30738,2.04917 -0.71721,4.09835 -1.33196,6.04508 -1.53689,4.91803 -2.66394,9.83606 -3.58607,14.85655 -0.71721,3.79099 -1.22951,7.68443 -1.12705,11.57787 0,1.84427 0.20493,3.58606 0.61476,5.32787 0.10246,0.40983 0.30737,0.92213 0.40983,1.33197 0.10246,0.40983 0.40984,0.71721 0.71722,1.02458 3.4836,3.38116 6.86474,6.76231 10.45081,9.93853 3.17623,2.86886 6.45492,5.53279 10.041,7.88934 2.66392,1.74181 5.53277,3.27869 8.50408,4.40575 3.27869,1.2295 6.65984,1.74179 10.14345,1.43442 3.58606,-0.30738 7.17213,-0.5123 10.86066,-0.61476 2.56147,-0.10245 5.12296,0 7.68442,0.5123 0.81967,0.20492 1.63935,0.40983 2.45901,0.81967 0.92214,0.40984 1.74181,1.0246 2.35657,1.94672 0.10245,0.20492 0.20491,0.30738 0.40983,0.5123 0.61475,0.71721 1.43443,1.02459 2.35656,0.81967 0.51229,-0.10246 1.02458,-0.30738 1.43442,-0.5123 0.5123,-0.20491 1.0246,-0.40983 1.53689,-0.71721 0.40984,-0.20492 0.81967,-0.30737 1.2295,-0.51229 1.0246,-0.30738 1.74181,0 2.15165,1.02459 0.20492,0.61475 0.40983,1.2295 0.51229,1.84426 0.61475,2.56147 0.92213,5.12295 0.51229,7.78688 -0.20492,1.84427 -0.71721,3.58607 -1.33196,5.32787 -0.61474,1.74181 -1.33197,3.38115 -1.94673,5.12295 -0.51229,1.22951 -0.92212,2.56148 -1.33196,3.89345 -1.12705,3.4836 -1.12705,7.06967 -0.10246,10.55327 0.5123,1.84427 1.22951,3.58607 1.84426,5.43033 0.71722,1.84427 1.33197,3.68853 1.74181,5.63525 0.71721,3.17623 0.40983,6.25 -0.81966,9.22131 -0.81969,2.15164 -1.94673,3.9959 -3.48362,5.73771 -1.12705,1.2295 -2.2541,2.45901 -3.38115,3.68852 -0.40984,0.40984 -0.81967,0.92213 -1.22951,1.33197 -1.7418,1.94672 -3.27868,3.9959 -4.40572,6.35246 -0.92215,1.84426 -1.84428,3.79098 -2.56149,5.7377 -1.02459,2.86885 -1.22951,5.73771 -0.61474,8.70902 0.51228,2.2541 1.02458,4.50819 1.43441,6.76229 0.30738,1.43443 0.51229,2.86886 0.71721,4.20082 0.10246,0.71722 0.10246,1.53689 -0.10246,2.2541 -0.30737,1.22951 -0.71721,2.35656 -1.2295,3.58606 -1.22951,3.17623 -2.76639,6.14755 -4.20082,9.22132 -1.63934,3.38114 -3.17623,6.76229 -4.71312,10.14344 -0.71721,1.63934 -1.33195,3.38115 -1.84426,5.12295 -0.20492,0.71721 -0.30738,1.53689 -0.40984,2.35655 -0.10246,1.0246 0.61476,2.25411 1.63935,2.86886 -32.58197,22.54098 -71.20902,34.73361 -111.68033,34.73361 -33.50409,0 -65.67623,-8.29918 -94.15983,-23.97541 0,-0.30738 -0.10246,-0.61476 -0.10246,-0.92213 -1.22951,-6.65984 -3.68852,-19.46721 -4.91804,-26.02459 -0.10246,-0.71722 -0.20492,-1.53689 -0.20492,-1.94672 0,-0.40985 0.10246,-1.43443 0.30738,-1.84427 1.0246,-2.15163 1.74181,-3.89344 2.7664,-6.04508 0.92213,-1.94673 1.7418,-3.89344 2.66393,-5.84016 0.30738,-0.61476 0.71721,-1.22951 1.22951,-1.74181 2.35656,-2.2541 4.61066,-4.50819 6.86476,-6.65983 0.30737,-0.30739 0.71721,-0.61475 1.12704,-0.92213 4.40574,-2.97131 8.91394,-5.94262 13.31968,-8.91393 0.71721,-0.5123 1.22951,-1.0246 1.7418,-1.74181 1.94672,-2.97131 3.9959,-5.94263 5.94262,-9.0164 0.81967,-1.33196 1.53688,-2.66393 2.35656,-3.9959 0.20492,-0.30737 0.40984,-0.61475 0.61475,-0.81967 2.66394,-3.38114 5.32787,-6.76229 7.88934,-10.14344 0.40984,-0.5123 0.81968,-0.81967 1.53689,-0.92213 4.30328,-0.92213 8.5041,-2.2541 12.39755,-4.20082 0.92213,-0.5123 1.84425,-1.02459 2.76639,-1.53689 0.40983,-0.20492 0.71721,-0.51229 0.92213,-0.92213 2.86885,-3.89344 5.63525,-7.88934 8.5041,-11.78279 0.30738,-0.40983 0.51229,-0.92213 0.71721,-1.33196 1.94672,-5.32787 3.9959,-10.55328 5.94262,-15.88115 0.20492,-0.61475 0.5123,-1.02459 1.02459,-1.33197 5.63525,-3.68852 9.0164,-8.81147 10.04098,-15.47131 0.20492,-1.53688 0.30739,-2.97131 0.10246,-4.50819 -0.20492,-1.53689 -1.02458,-2.97132 -1.63934,-3.68853 -2.66393,-3.27868 -4.91804,-4.71311 -8.5041,-6.86476 -4.61065,-2.66392 -9.42623,-4.50819 -14.65163,-5.73769 -1.22951,-0.30738 -2.97132,-0.81968 -3.38116,-1.0246 -0.40983,-0.20492 -0.71721,-0.40984 -0.81967,-0.81967 -1.12704,-2.2541 -2.2541,-4.50819 -3.68852,-6.55738 -1.22951,-1.84426 -2.56148,-3.58606 -4.20082,-5.12295 -0.30738,-0.30738 -0.40984,-0.61475 -0.51229,-1.02459 -0.40985,-1.33196 -0.81968,-2.76639 -1.33197,-4.09835 -1.74181,-4.40575 -4.30328,-8.29919 -7.58197,-11.68034 -5.43033,-5.53278 -11.9877,-9.42623 -19.36475,-11.88524 -0.61476,-0.20492 -1.02459,-0.5123 -1.43443,-1.02459 -2.76639,-3.89344 -6.45492,-6.55738 -10.7582,-8.29918 -1.53688,-0.61476 -3.07377,-1.12705 -4.71311,-1.43443 -0.40984,-0.10245 -0.81967,-0.20491 -1.12705,-0.40983 -2.86885,-1.43443 -5.84016,-2.86885 -8.70902,-4.30328 -0.51229,-0.20492 -0.92213,-0.5123 -1.22951,-0.92214 -0.71721,-0.81966 -1.63934,-1.43442 -2.56147,-2.04918 -1.12705,-0.61475 -2.2541,-0.92213 -3.48361,-0.92213 -1.43442,0.10246 -2.66393,0.71722 -3.68851,1.74181 -0.20493,0.20492 -0.40985,0.5123 -0.61477,0.81967 -0.71721,1.22951 -1.43442,2.45902 -2.45902,3.4836 -1.53688,1.53688 -3.27868,2.56148 -5.53278,2.86886 -1.43443,0.20492 -2.97131,0 -4.30328,-0.40983 -1.84426,-0.5123 -3.4836,-1.43444 -5.12295,-2.56148 -0.40984,-0.30738 -0.81966,-0.51229 -1.33197,-0.81967 -2.97131,-1.74181 -4.81557,-4.30329 -5.32787,-7.68443 -0.10246,-0.71722 -0.10246,-1.43442 -0.20492,-2.15164 -0.10245,-3.17623 0.10246,-6.45493 0.40984,-9.63116 0.10246,-0.81966 0.20492,-1.12704 0.20492,-1.63933 0,-0.40983 -0.20492,-1.12705 -0.71721,-1.33197 -0.71721,-0.30738 -1.33197,-0.71721 -1.84426,-1.22951 -0.40984,-0.30738 -0.71722,-0.71721 -1.0246,-1.12704 -0.61475,-0.92215 0.20492,-1.53689 0.71722,-2.56148 0.40984,-0.81967 0,-1.84427 0.81967,-2.35656 0.81967,-0.5123 1.7418,-1.12705 2.56148,-1.7418 0.92213,-0.71722 1.74181,-1.43443 2.56147,-2.35656 0.40984,-0.51229 0.71722,-1.02459 0.92214,-1.63935 0.40983,-1.2295 0.30737,-2.35655 -0.5123,-3.38114 -0.71722,-0.92213 -1.0246,-1.63934 -2.15164,-2.15164 -0.30738,-0.10246 -1.22951,0 -1.53689,0.10246 -1.2295,0.30738 -2.35655,0.61476 -3.58607,0.81967 -1.53688,0.30738 -3.17622,0.30738 -4.81556,-0.10246 -2.04919,-0.51229 -3.38115,-1.7418 -4.20083,-3.68852 -0.51229,-1.43443 -0.71721,-2.86885 -0.61474,-4.40574 0.10245,-2.97131 0.7172,-5.84018 1.63934,-8.60656 0.10246,-0.30739 0.20491,-0.61475 0.40983,-0.92213 4.71311,-6.65984 10.86065,-11.37295 18.75,-13.7295 1.94672,-0.5123 3.79098,-0.92214 5.84017,-1.12706 0.81967,-0.10247 1.53688,0 2.35655,0.10246 2.2541,0.20492 4.40574,0.61476 6.45492,1.43443 1.22951,0.40983 2.25411,1.02459 3.27869,1.84426 2.15163,1.63934 3.38115,3.68853 3.58607,6.35246 0.10245,1.7418 0.61475,3.38115 1.2295,4.91803 0.30738,1.02459 0.71721,1.94673 1.22951,2.97131 0.30738,0.61476 0.61476,1.12704 1.02459,1.63935 0.30738,0.40984 0.71721,0.71721 1.12705,1.02459 0.71721,0.51229 1.53689,0.40983 2.35656,0.10246 0.40983,-0.20492 0.71721,-0.51229 0.81967,-1.02459 0.10246,-0.92214 0.30737,-1.84427 0.40983,-2.86885 0.61476,-3.79099 1.22952,-7.58197 1.74181,-11.2705 0.30738,-1.94672 0.61475,-3.79098 0.92213,-5.7377 0,-0.20492 0.10246,-0.40984 0.10246,-0.61476 3.79098,-5.63524 17.11066,-6.55737 22.54098,-12.39754 0.20492,0.10246 0.30738,0.20492 0.5123,0.40984 0.61475,0.51228 1.22951,0.71721 1.94672,0.71721 1.02459,0.10246 2.04918,-0.10246 3.07377,-0.30739 1.43443,-0.40982 2.86885,-0.92212 4.20082,-1.63933 1.12705,-0.51229 2.15163,-1.12705 3.17623,-1.7418 0.51229,-0.30738 0.92213,-0.5123 1.53688,-0.61476 3.17623,-0.92212 6.35246,-1.84426 9.52869,-2.76639 0.61475,-0.20492 1.22951,-0.20492 1.84427,-0.10246 2.66393,0.30738 5.32786,0.30738 8.09425,0 1.84427,-0.20492 3.58607,-0.5123 5.32788,-1.02459 0.30737,-0.10245 0.61475,-0.20491 0.92212,-0.30737 0.40984,-0.10246 0.61476,-0.30738 0.81968,-0.71722 0.40984,-0.81967 0.92213,-1.53689 1.43443,-2.25409 0.40983,-0.61476 0.92212,-1.12706 1.53688,-1.63935 0.40984,-0.30738 0.81967,-0.61476 1.33197,-0.81968 0.92212,-0.40983 1.94672,-0.40983 2.97131,-0.10245 0.81967,0.30737 1.43442,0.71721 2.04918,1.33196 0.5123,0.5123 1.02459,0.81968 1.63934,1.12706 0.81967,0.40983 1.74181,0.7172 2.66394,0.92212 2.04918,0.40984 3.89344,-0.10246 5.32787,-1.53688 0.81967,-0.71723 1.33196,-1.63935 1.84426,-2.56147 0.81967,-1.53689 1.33197,-3.07377 1.7418,-4.81558 0.5123,-2.04918 0.81967,-4.09835 1.02459,-6.24998 0,-0.30738 0,-0.71722 0,-1.127063 -0.20492,0.10246 -0.51229,0.10246 -0.61475,0.20492 -0.92213,0.409843 -1.74181,0.717223 -2.66394,0.922143 -0.30737,0 -0.51229,0.10246 -0.81967,0 -0.61475,-0.10246 -0.92213,-0.5123 -0.81967,-1.127063 0.10246,-0.51229 0.20492,-1.02459 0.5123,-1.434421 0.51229,-0.922131 1.02459,-1.741803 1.53688,-2.663934 0.61476,-1.024591 1.22951,-1.946722 1.7418,-2.971312 0.30738,-0.614755 0.5123,-1.331967 0.5123,-2.04918 0.10246,-0.922131 -0.20492,-1.741803 -0.92213,-2.356558 -0.40984,-0.409836 -0.92214,-0.819672 -1.43443,-1.127049 -0.61475,-0.409837 -1.22951,-0.819672 -1.84426,-1.331968 -0.92214,-0.717212 -1.7418,-1.536885 -2.35656,-2.663933 -0.10246,-0.10246 -0.20492,-0.307377 -0.30737,-0.409837 -1.12706,-1.639345 -2.66394,-2.151638 -4.50821,-1.639345 -1.43442,0.409838 -2.66392,1.229509 -3.79098,2.356559 -0.61475,0.614754 -1.12704,1.127048 -1.7418,1.741802 -0.71722,0.614754 -1.53688,1.229508 -2.35656,1.639346 -1.43443,0.717212 -2.97131,0.717212 -4.40574,0 -0.40983,-0.204919 -0.71721,-0.409838 -1.12704,-0.614754 -0.20492,-0.102461 -0.5123,-0.204919 -0.71722,-0.307377 -0.61475,-0.204919 -1.02459,-0.102461 -1.43443,0.512293 -0.20491,0.307377 -0.40983,0.614754 -0.51229,1.024591 -0.51229,1.536885 -1.53688,2.766393 -2.66394,3.893443 -1.43442,1.331967 -2.97131,2.356557 -4.71311,3.278688 -1.33196,0.717214 -2.66393,1.229508 -4.09836,1.844262 -0.5123,0.204919 -1.12705,0.307377 -1.7418,0.307377 -1.63934,-0.102458 -2.76639,-0.819671 -3.48361,-2.356557 -0.40983,-1.02459 -0.61475,-2.049181 -0.61475,-3.07377 -0.10246,-1.946721 0.10246,-3.790984 0.51229,-5.737704 0.10246,-0.717215 0.30738,-1.331969 0.40984,-1.946723 0.10246,-0.512294 0.30738,-0.819671 0.71721,-1.02459 1.94673,-1.229509 3.79098,-2.459017 5.63525,-3.688525 0.20492,-0.102458 0.40983,-0.307377 0.71721,-0.409835 1.33197,-0.819673 2.56148,-1.741803 3.68852,-2.766394 0.92214,-0.922132 2.04919,-1.741802 3.17623,-2.459017 0.5123,-0.307377 1.0246,-0.512293 1.53689,-0.717213 0.20492,-0.102457 0.5123,-0.102457 0.81967,-0.204917 0.81968,-0.10246 1.43443,0.204917 1.84427,0.92213 0.81967,1.639346 2.2541,1.946723 3.89344,1.844262 0.81967,0 1.7418,-0.204916 2.56147,-0.409835 0.92213,-0.204919 1.7418,-0.614754 2.56148,-0.922131 0.40984,-0.204919 0.81967,-0.307378 1.33197,-0.307378 2.04918,-0.102457 3.99589,-0.102457 6.04508,-0.204918 0.30738,0 0.61475,0 0.92213,0.307377 1.63934,1.12705 3.17622,2.2541 4.61066,3.586067 0.92213,0.922131 1.2295,1.331967 1.74179,2.459017 0.20492,-0.204919 0.51231,-0.409838 0.71722,-0.614754 1.7418,-1.536886 3.38115,-3.17623 5.12295,-4.713115 0.40983,-0.307377 0.81967,-0.717215 1.12705,-1.024592 1.7418,-1.331967 3.38115,-2.561475 5.12295,-3.893441 0.30737,-0.204919 0.51229,-0.409836 0.81967,-0.614756 0.10247,-0.409834 -0.20492,-0.717211 -0.30738,-1.024588 -1.12704,-2.561476 -2.35655,-5.020492 -3.58606,-7.581968 -0.10246,-0.204917 -0.20492,-0.409837 -0.30738,-0.614754 1.12706,0 2.35656,0 3.48361,0 1.74181,0 3.38114,0 5.12295,0.102459 0,0 0,0 0,0 0.20492,0.614755 0.5123,1.229509 0.71722,1.844263 0.10245,0.307377 0.20491,0.614754 0,1.024588 -0.30738,0.922132 -0.71722,1.741805 -1.02459,2.663936 -1.22952,3.17623 -2.45902,6.352459 -3.68853,9.528688 -0.20491,0.512296 -0.30737,0.922131 -0.20491,1.536886 0.40983,4.09836 1.12704,7.991802 2.66392,11.885245 0.92214,2.254099 2.04919,4.508197 3.58608,6.454918 1.43442,1.844262 3.17623,3.381148 5.32786,4.405736 0.20491,0.10246 0.51229,0.20492 0.71721,0.30738 0.10246,0 0.10246,0 0.30739,0 0.20491,-0.20492 0.40983,-0.5123 0.61475,-0.717216 2.86885,-3.586063 5.84016,-7.17213 8.70902,-10.655736 1.94671,-2.356556 3.99589,-4.610656 6.04507,-6.967213 0.20493,-0.204919 0.40984,-0.409835 0.5123,-0.614754 1.02459,-1.12705 1.02459,-1.12705 2.56147,-1.434427 2.15164,-0.409835 4.30328,-0.717213 6.45492,-1.127048 1.22951,-0.204919 0.92213,0 1.53689,-1.12705 2.2541,-3.586064 4.50819,-7.172131 6.76229,-10.758195 0.10246,-0.20492 0.30737,-0.409837 0.40983,-0.614754 20.79919,5.020491 40.47131,13.524589 58.50411,24.999999 -3.27869,0.409836 -6.55738,0.614754 -9.73361,1.02459 -0.10246,0.204918 -0.10246,0.409835 -0.10246,0.614754 -0.40983,3.995902 -0.40983,7.9918 0.20492,11.987693 0.30738,1.63935 0.71721,3.38114 1.43442,4.91804 0.5123,1.12704 1.12705,2.04917 2.04919,2.86885 0.40983,0.40984 0.81966,0.61475 1.43442,0.71721 1.74181,0.20492 3.38115,0.40983 5.02049,0.71721 0.40983,0.10246 0.81967,0.10246 1.33197,0.20492 1.33197,2.15164 2.56147,4.30328 3.89344,6.45492 3.07377,0.51229 6.25,0.81967 9.32377,1.33197 0,0.81967 -0.2049,1.53688 -0.2049,2.25409 -0.20493,1.74181 -0.51231,3.48361 -0.71723,5.12295 -0.10246,0.5123 0,1.02458 0.20492,1.63935 0.71721,1.53688 1.33197,3.17623 2.04918,4.71311 0.10246,0.30738 0.20491,0.5123 0.30737,0.81966 -0.20491,0.20493 -0.30737,0.51231 -0.51229,0.71723 -1.63934,2.15164 -3.27869,4.20082 -4.81557,6.35246 -0.20492,0.30738 -0.5123,0.61476 -0.81968,0.81967 -2.45901,1.53687 -4.91803,3.07377 -7.27458,4.61064 -0.92212,-0.10245 -1.84427,-0.2049 -2.66394,-0.2049 -1.84426,0 -3.68852,0.30736 -5.53279,0.81967 -1.2295,0.30738 -2.35654,0.81968 -3.58606,1.22951 -0.30738,0.10246 -0.61475,0.20491 -0.81967,0.40983 -1.43443,0.81967 -2.86885,1.63935 -4.40574,2.45902 -0.10246,0.10246 -0.30738,0.20492 -0.40984,0.30738 0.10246,0.20491 0.20492,0.40983 0.30738,0.61475 1.94672,3.48361 3.79099,6.9672 5.7377,10.34836 1.12706,2.04918 2.66394,3.89345 4.40574,5.53279 1.33197,1.22951 2.76641,2.15164 4.40574,2.76639 2.04918,0.81966 4.20082,0.92212 6.35246,0.40984 2.86885,-0.71722 5.84016,-1.43442 8.70902,-2.2541 0.30737,-0.10246 0.51229,-0.20493 0.81966,-0.20493 0.10246,-0.51228 0.10246,-0.92212 0.20492,-1.43442 0.30738,-2.56147 0.5123,-5.12296 0.92214,-7.68442 0.20493,-1.53689 0.51229,-3.07377 0.81967,-4.5082 0.10246,-0.51229 0.30738,-0.92212 0.5123,-1.43442 0,-0.10246 0.20491,-0.20492 0.30737,-0.20492 0.10246,0 0.30737,0.10246 0.30737,0.20492 0.20492,0.81967 2.7664,-1.53689 2.7664,-1.53689 0,0 6.35246,-4.50819 24.18033,16.39343 17.82787,20.90165 27.7664,14.75411 27.7664,14.75411 1.12704,1.33197 2.04917,2.86885 2.76639,4.40574 0.92213,2.04918 1.53688,4.20082 1.84425,6.35246 0,0.30738 0,0.5123 0,0.81967 -1.22949,-0.30737 -1.53687,-0.40983 -1.94671,-0.40983 z" />
        </g>
      </g>
      <text
         xml:space="preserve"
         style="font-size:43.60982132000000178px;font-style:normal;font-variant:normal;font-weight:bold;font-stretch:normal;line-height:125%;letter-spacing:0px;word-spacing:0px;fill:#916f6f;fill-opacity:1;stroke:none;font-family:One Dance;-inkscape-font-specification:One Dance Bold"
         x="-1007.6221"
         y="-82.988617"
         id="text3079"
         sodipodi:linespacing="125%"
         transform="matrix(0.91804726,0.29788228,-0.37396308,0.96792731,0,0)"><tspan
           sodipodi:role="line"
           id="tspan3081"
           x="-1007.6221"
           y="-82.988617">In Community</tspan></text>
      <text
         xml:space="preserve"
         style="font-size:43.60982132px;font-style:normal;font-variant:normal;font-weight:bold;font-stretch:normal;line-height:125%;letter-spacing:0px;word-spacing:0px;fill:#916f6f;fill-opacity:1;stroke:none;font-family:One Dance;-inkscape-font-specification:One Dance Bold"
         x="321.54269"
         y="-79.687531"
         id="text3083"
         sodipodi:linespacing="125%"
         transform="matrix(0.91804726,0.29788228,-0.37396308,0.96792731,0,0)"><tspan
           sodipodi:role="line"
           id="tspan3085"
           x="321.54269"
           y="-79.687531">We Trust</tspan></text>
    </g>
    <g
       id="g3074">
      <g
         id="g5569"
         transform="matrix(-0.88780677,-0.27322496,-0.34300814,0.84205552,1195.115,572.98623)"
         style="fill:#916f6f;fill-opacity:0.91207467">
        <path
           transform="matrix(-1.0008969,-0.32476482,-0.41512453,1.0744653,1313.4744,189.70347)"
           d="m 525.71429,303 c 0,65.0907 -53.72583,117.85714 -120,117.85714 -66.27417,0 -120,-52.76644 -120,-117.85714 0,-65.0907 53.72583,-117.85714 120,-117.85714 66.27417,0 120,52.76644 120,117.85714 z"
           sodipodi:ry="117.85714"
           sodipodi:rx="120"
           sodipodi:cy="303"
           sodipodi:cx="405.71429"
           id="path5567"
           style="fill:#c1a2a2;fill-opacity:1;stroke:#000000;stroke-width:0;stroke-miterlimit:4;stroke-opacity:1;stroke-dasharray:none"
           sodipodi:type="arc" />
      </g>
      <path
         id="path3978-8"
         d="m 369.4278,567.87718 c -15.5725,0 -30.4665,3.035 -44.6821,9.1044 -14.2147,6.0694 -26.4561,14.2373 -36.7179,24.4994 -10.2619,10.2621 -18.4299,22.4954 -24.4996,36.7106 -6.069,14.2152 -9.1042,29.1166 -9.1042,44.6895 0,15.5728 3.0352,30.4665 9.1042,44.6817 6.0697,14.2152 14.2377,26.4485 24.4996,36.7106 10.2618,10.2621 22.5032,18.43 36.7179,24.4994 14.2156,6.0694 29.1096,9.1044 44.6821,9.1044 15.5726,0 30.4666,-3.035 44.6821,-9.1044 14.2148,-6.0694 26.4485,-14.2373 36.7103,-24.4994 10.2619,-10.2621 18.4299,-22.4954 24.4996,-36.7106 6.069,-14.2152 9.1042,-29.1089 9.1042,-44.6817 0,-15.5729 -3.0352,-30.4743 -9.1042,-44.6895 -6.0697,-14.2152 -14.2377,-26.4485 -24.4996,-36.7106 -10.2618,-10.2621 -22.4955,-18.43 -36.7103,-24.4994 -14.2155,-6.0694 -29.1095,-9.1044 -44.6821,-9.1044 z m 0,28.7471 c 15.6531,0 30.0848,3.8571 43.3021,11.5636 13.2166,7.7066 23.677,18.1884 31.3835,31.4453 7.7066,13.2569 11.5637,27.675 11.5637,43.2479 0,15.6526 -3.8571,30.0849 -11.5637,43.3018 -7.7065,13.2169 -18.1669,23.6771 -31.3835,31.3836 -13.2173,7.7066 -27.649,11.5636 -43.3021,11.5636 -15.5725,0 -29.9912,-3.857 -43.2476,-11.5636 -13.2572,-7.7065 -23.7391,-18.1667 -31.4456,-31.3836 -7.7066,-13.2169 -11.556,-27.6492 -11.556,-43.3018 0,-11.6597 2.2709,-22.8268 6.8226,-33.4882 4.5524,-10.6614 10.6873,-19.8457 18.3938,-27.5522 7.7066,-7.7066 16.8836,-13.8341 27.5448,-18.3862 10.6613,-4.552 21.8286,-6.8302 33.488,-6.8302 z m 0,2.359 -1.2335,3.8699 -2.7056,-3.577 -2.4595,1.7037 2.9448,3.261 -4.2857,0.1619 0.3757,3.0296 4.4865,-0.5011 -1.7265,3.7543 3.0222,1.2798 1.2098,-3.9625 3.0069,3.7003 2.2739,-1.9272 -3.0375,-3.2841 4.4328,-0.2158 -0.7053,-2.9295 -4.2788,0.5859 1.6729,-3.6849 -2.9908,-1.2643 z m 0,14.4159 c -3.9928,0 -7.3883,1.4204 -10.1836,4.2554 -2.7953,2.8351 -4.1937,6.2089 -4.1937,10.122 l 0,55.1045 c 0,0.9583 0.1227,1.9094 0.3604,2.8677 0,0.08 0.115,0.4839 0.3526,1.2026 0.2377,0.7987 0.3987,1.2384 0.4754,1.3183 l 0.3603,0.8403 0.3603,0.7169 c 0.2377,0.4792 0.437,0.8397 0.5904,1.0793 0.161,0.1597 0.4216,0.4985 0.7789,1.0176 0.3603,0.5191 0.6593,0.8936 0.9016,1.1332 l 39.054,38.9308 c 2.7953,2.7951 6.1832,4.1938 10.176,4.1938 3.913,0 7.2733,-1.3987 10.0678,-4.1938 2.7953,-2.7951 4.186,-6.1829 4.186,-10.176 0,-3.993 -1.3907,-7.3885 -4.186,-10.1836 l -34.7445,-34.7371 0,-49.1145 c 0,-3.9131 -1.3984,-7.2869 -4.1937,-10.122 -2.7953,-2.835 -6.1832,-4.2554 -10.176,-4.2554 z m -54.8887,11.4172 -1.2412,3.8776 -2.6979,-3.5847 -2.4595,1.7037 2.9371,3.2609 -4.2857,0.1619 0.3757,3.0297 4.4873,-0.5011 -1.7273,3.7543 3.0299,1.2797 1.2105,-3.9624 2.9985,3.7003 2.2739,-1.9272 -3.0368,-3.2764 4.4321,-0.2236 -0.7053,-2.9294 -4.278,0.5859 1.6729,-3.6849 -2.9839,-1.2643 z m 113.3156,0 -1.2335,3.8776 -2.7056,-3.5847 -2.4595,1.7037 2.9448,3.2609 -4.2933,0.1619 0.3756,3.0297 4.4866,-0.5011 -1.7189,3.7543 3.0222,1.2797 1.2106,-3.9624 3.0061,3.7003 2.2739,-1.9272 -3.0368,-3.2764 4.4321,-0.2236 -0.7053,-2.9294 -4.278,0.5859 1.6729,-3.6772 -2.9916,-1.272 z m -132.079,54.4414 -1.2412,3.8699 -2.6987,-3.577 -2.4587,1.7037 2.9371,3.261 -4.2864,0.1619 0.3756,3.0296 4.4866,-0.5011 -1.7266,3.7544 3.0291,1.2797 1.2106,-3.9625 2.9984,3.6926 2.2747,-1.9195 -3.0298,-3.2841 4.4252,-0.2158 -0.7054,-2.9372 -4.2711,0.5936 1.6652,-3.6849 -2.9831,-1.2643 z m 148.5923,0 -1.2336,3.8699 -2.7063,-3.577 -2.4587,1.7037 2.9371,3.261 -4.2865,0.1619 0.3757,3.0296 4.4865,-0.5011 -1.7265,3.7544 3.0291,1.2797 1.2106,-3.9625 2.9992,3.6926 2.2739,-1.9195 -3.0299,-3.2841 4.4252,-0.2158 -0.6976,-2.9372 -4.2788,0.5936 1.6652,-3.6849 -2.9831,-1.2643 z m -127.624,52.1595 -1.2335,3.8777 -2.7056,-3.5847 -2.4595,1.7037 2.9448,3.2609 -4.2857,0.1619 0.368,3.0297 4.4942,-0.5011 -1.7265,3.7543 3.0222,1.2797 1.2098,-3.9624 3.0069,3.7003 2.2739,-1.9273 -3.0368,-3.2763 4.4321,-0.2236 -0.7053,-2.9294 -4.278,0.5859 1.6729,-3.685 -2.9916,-1.2643 z m 107.0482,0 -1.2336,3.8777 -2.7056,-3.5847 -2.4594,1.7037 2.9447,3.2609 -4.2941,0.1619 0.3757,3.0297 4.4865,-0.5011 -1.7188,3.7543 3.0222,1.2797 1.2098,-3.9624 3.0068,3.7003 2.2663,-1.9273 -3.0299,-3.2763 4.4329,-0.2236 -0.7053,-2.9294 -4.2788,0.5859 1.6652,-3.685 -2.9831,-1.2643 z m -54.3644,21.0227 -1.2335,3.8699 -2.7056,-3.5847 -2.4595,1.7114 2.9448,3.2609 -4.2857,0.1619 0.3757,3.0297 4.4865,-0.5011 -1.7265,3.7543 3.0222,1.2797 1.2098,-3.9701 3.0069,3.7003 2.2739,-1.9195 -3.0375,-3.2841 4.4328,-0.2159 -0.7053,-2.9371 -4.2788,0.5936 1.6729,-3.685 -2.9908,-1.2642 z"
         style="fill:#916f6f;fill-opacity:1"
         inkscape:connector-curvature="0" />
    </g>
  </g>
</svg>
