<?xml version="1.0" ?><!DOCTYPE svg  PUBLIC '-//W3C//DTD SVG 1.1//EN'  'http://www.w3.org/Graphics/SVG/1.1/DTD/svg11.dtd'><svg enable-background="new 0 0 128 128" height="128px" id="Layer_1" version="1.1" viewBox="0 0 128 128" width="128px" xml:space="preserve" xmlns="http://www.w3.org/2000/svg" xmlns:xlink="http://www.w3.org/1999/xlink"><path d="M97,76.3c10.5,0,19.1,8.2,19.6,18.8c0.5,10.8-7.9,20-18.7,20.5c-0.3,0-0.6,0-0.9,0  c-10.5,0-19.1-8.2-19.6-18.8c-0.5-10.8,7.9-20,18.7-20.5C96.4,76.3,96.7,76.3,97,76.3 M97,72.3c-0.4,0-0.7,0-1.1,0  C82.9,73,72.8,84,73.4,97.1c0.6,12.7,11,22.6,23.6,22.6c0.4,0,0.7,0,1.1,0c13.1-0.6,23.1-11.7,22.6-24.7  C120.1,82.2,109.6,72.3,97,72.3L97,72.3z" fill="#3B97D3"/><path d="M108.6,101L99,94.9l6.1-8.5c0.3-0.4,0.2-1.1-0.2-1.4s-1.1-0.2-1.4,0.2L97.2,94c-0.7-0.1-1.5,0.3-1.9,0.9  c-0.6,0.9-0.3,2.2,0.6,2.8l10.5,6.7c0.3,0.2,0.7,0.3,1.1,0.3c0.7,0,1.3-0.3,1.7-0.9C109.8,102.8,109.5,101.6,108.6,101z" fill="#3B97D3"/><path d="M33.1,41h4l-0.8-5.8c-0.4-3.3,2.4-5.9,5.7-6.3l53.5-7c3.3-0.4,5.7,1.5,6.2,4.7l1.9,14.4h4l-2-14.9  c-0.7-5.5-5.2-8.9-10.7-8.2l-53.5,7c-5.5,0.7-9.9,5.3-9.2,10.8L33.1,41z" fill="#3B97D3"/><path d="M72.6,104H26.9c1.3-1.7,2.1-3.8,2.1-6V53c0-3.3,2.6-6,5.9-6h73c3.3,0,6.1,2.7,6.1,6v23.7c1,1.3,3,2.8,4,4.4  V53c0-5.2-4-9-9.1-10h-74c-5.5,0-9.9,4.5-9.9,10v45c0,3.3-2.7,6-6,6s-6-2.7-6-6V26c0-3.3,2.6-6,5.9-6h37c1,0,1.9,0.2,2.7,0.7  l5.2-0.7c-1.8-2.4-4.7-4-7.9-4h-37C13.4,16,9,20.5,9,26v72c0,5.5,4.4,10,9.9,10h55.4C73.6,106.7,73.1,105.4,72.6,104z" fill="#2C3E50"/></svg>